<svg width="103" height="98" viewBox="0 0 103 98" fill="none" xmlns="http://www.w3.org/2000/svg">
<g clip-path="url(#clip0_705_35228)">
<path d="M84.8449 55.9945H101.065C101.257 55.9949 101.448 55.9574 101.625 55.884C101.803 55.8107 101.964 55.703 102.1 55.5672C102.236 55.4313 102.344 55.2699 102.417 55.0923C102.49 54.9148 102.528 54.7244 102.527 54.5323V42.835C102.527 42.4472 102.373 42.0753 102.099 41.8011C101.825 41.5269 101.453 41.3728 101.065 41.3728H78.3367L60.43 1.15674C60.2777 0.814475 60.0299 0.523355 59.7165 0.318213C59.403 0.11307 59.037 0.0025927 58.6624 0H44.0408C43.6639 9.16815e-05 43.2952 0.109397 42.9792 0.31469C42.6632 0.519983 42.4134 0.812463 42.2602 1.15674L24.3665 41.3728H1.63795C1.25016 41.3728 0.878253 41.5269 0.604043 41.8011C0.329834 42.0753 0.175785 42.4472 0.175785 42.835V54.5323C0.175356 54.7244 0.212884 54.9148 0.286213 55.0923C0.359542 55.2699 0.467228 55.4313 0.603088 55.5672C0.738948 55.703 0.900307 55.8107 1.0779 55.884C1.25549 55.9574 1.44582 55.9949 1.63795 55.9945H17.8582L0.312253 95.421C0.213387 95.6431 0.171459 95.8863 0.190261 96.1287C0.209063 96.371 0.288003 96.6049 0.419937 96.8091C0.551871 97.0133 0.732634 97.1814 0.945873 97.2981C1.15911 97.4149 1.3981 97.4766 1.6412 97.4777H14.6935C15.0703 97.4776 15.439 97.3683 15.7551 97.163C16.0711 96.9577 16.3208 96.6653 16.4741 96.321L51.3516 17.9846L86.2291 96.321C86.3824 96.6653 86.6321 96.9577 86.9481 97.163C87.2641 97.3683 87.6329 97.4776 88.0097 97.4777H101.062C101.306 97.4782 101.546 97.4177 101.761 97.3016C101.975 97.1855 102.157 97.0176 102.29 96.8132C102.423 96.6087 102.503 96.3743 102.522 96.1311C102.542 95.8879 102.5 95.6438 102.401 95.421L84.8449 55.9945Z" fill="white"/>
</g>
<defs>
<clipPath id="clip0_705_35228">
<rect width="102.352" height="97.4777" fill="white" transform="translate(0.175781)"/>
</clipPath>
</defs>
</svg>
