<svg id="112850521" viewBox="0 0 12 12" xmlns="http://www.w3.org/2000/svg" xmlns:xlink="http://www.w3.org/1999/xlink"><g transform="matrix(1,0,0,1,0,0)"><g id="112850521" opacity="1" style="mix-blend-mode:normal"><g><g><g transform="matrix(1,0,0,1,2,2)"><g id="112850522" opacity="0.5" style="mix-blend-mode:normal"><g><g><path id="112850522_fill_path" d="M8,4c0,2.20914 -1.79086,4 -4,4c-2.20914,0 -4,-1.79086 -4,-4c0,-2.20914 1.79086,-4 4,-4c2.20914,0 4,1.79086 4,4z" fill-rule="nonzero" fill="rgb(102, 209, 111)" fill-opacity="0.5" style="mix-blend-mode:NORMAL"></path></g></g></g></g><g transform="matrix(1,0,0,1,3.5,3.5)"><g id="112850523" opacity="1" style="mix-blend-mode:normal"><g><g><path id="112850523_fill_path" d="M5,2.5c0,1.38071 -1.11929,2.5 -2.5,2.5c-1.38071,0 -2.5,-1.11929 -2.5,-2.5c0,-1.38071 1.11929,-2.5 2.5,-2.5c1.38071,0 2.5,1.11929 2.5,2.5z" fill-rule="nonzero" fill="rgb(102, 209, 111)" fill-opacity="1" style="mix-blend-mode:NORMAL"></path></g></g></g></g></g></g></g></g><animate href="#112850522_fill_path" attributeName="fill" values="rgb(102, 209, 111;rgb(102, 209, 111;rgb(102, 209, 111;rgb(102, 209, 111" dur="3s" repeatCount="indefinite" keyTimes="0;0.17;0.33;1" fill="freeze"></animate><animate href="#112850522_fill_path" attributeName="fill-opacity" values="0.5;0.2;0.5;0.5" dur="3s" repeatCount="indefinite" keyTimes="0;0.17;0.33;1" fill="freeze"></animate></svg>