<svg width="24" height="24" viewBox="0 0 24 24" fill="none" xmlns="http://www.w3.org/2000/svg">
<g clip-path="url(#clip0_181_3459)">
<path d="M19.8537 13.9394H23.6571C23.7022 13.9395 23.7468 13.9307 23.7885 13.9135C23.8301 13.8963 23.8679 13.8711 23.8998 13.8392C23.9317 13.8074 23.9569 13.7695 23.9741 13.7279C23.9913 13.6862 24.0001 13.6416 24 13.5966V10.8537C24 10.7628 23.9639 10.6756 23.8996 10.6113C23.8353 10.547 23.7481 10.5108 23.6571 10.5108H18.3276L14.1288 1.08075C14.093 1.00049 14.035 0.932229 13.9614 0.884126C13.8879 0.836023 13.8021 0.810117 13.7143 0.809509H10.2857C10.1974 0.809531 10.1109 0.835161 10.0368 0.8833C9.96269 0.931438 9.90413 1.00002 9.86819 1.08075L5.67238 10.5108H0.342858C0.251927 10.5108 0.16472 10.547 0.100421 10.6113C0.0361232 10.6756 8.5043e-07 10.7628 8.5043e-07 10.8537V13.5966C-9.96022e-05 13.6416 0.00869998 13.6862 0.0258946 13.7279C0.0430892 13.7695 0.0683401 13.8074 0.100197 13.8392C0.132055 13.8711 0.169891 13.8963 0.211534 13.9135C0.253176 13.9307 0.297805 13.9395 0.342858 13.9394H4.14629L0.0320007 23.1844C0.00881807 23.2364 -0.0010135 23.2935 0.00339528 23.3503C0.00780406 23.4072 0.0263143 23.462 0.057251 23.5099C0.0881876 23.5578 0.130574 23.5972 0.180576 23.6245C0.230577 23.6519 0.286615 23.6664 0.34362 23.6667H3.40419C3.49256 23.6666 3.57902 23.641 3.65312 23.5929C3.72722 23.5447 3.78578 23.4761 3.82172 23.3954L12 5.02665L20.1783 23.3954C20.2142 23.4761 20.2728 23.5447 20.3469 23.5929C20.421 23.641 20.5074 23.6666 20.5958 23.6667H23.6564C23.7136 23.6668 23.7699 23.6526 23.8202 23.6254C23.8705 23.5981 23.9132 23.5588 23.9444 23.5108C23.9756 23.4629 23.9943 23.4079 23.9988 23.3509C24.0034 23.2939 23.9935 23.2366 23.9703 23.1844L19.8537 13.9394Z" fill="white"/>
</g>
<defs>
<clipPath id="clip0_181_3459">
<rect width="24" height="22.8571" fill="white" transform="translate(0 0.809509)"/>
</clipPath>
</defs>
</svg>
