<svg enable-background="new 0 0 56.693 56.693" height="56.693" viewBox="0 0 56.693 56.693" width="56.693" xmlns="http://www.w3.org/2000/svg"><g fill="#474a56"><path d="m48.311 5.176h-39.221c-.961 0-1.74.779-1.74 1.74v45.354c0 .961.779 1.74 1.74 1.74h32.801c.961 0 1.74-.779 1.74-1.74v-32.287h4.68c.961 0 1.74-.779 1.74-1.742v-11.324c0-.961-.78-1.741-1.74-1.741zm-1.741 11.324h-4.68c-.961 0-1.74.777-1.74 1.74v32.29h-29.32v-41.873h35.74z"/><path d="m15.575 44.354h19.827c.385 0 .695-.311.695-.697 0-.385-.311-.697-.695-.697h-19.827c-.385 0-.696.312-.696.697 0 .387.311.697.696.697z"/><path d="m15.575 37.554h19.827c.385 0 .695-.312.695-.699 0-.383-.311-.693-.695-.693h-19.827c-.385 0-.696.311-.696.693 0 .386.311.699.696.699z"/><path d="m15.575 30.751h19.827c.385 0 .695-.311.695-.695s-.311-.696-.695-.696h-19.827c-.385 0-.696.311-.696.696s.311.695.696.695z"/><path d="m16.164 24.299c.336 0 .579-.098.728-.294s.327-.575.536-1.138l.536-1.441h4.565l.537 1.41c.071.176.157.374.256.602.1.227.193.396.279.508.088.109.194.195.322.258.128.064.281.096.46.096.306 0 .567-.106.785-.326.218-.215.325-.455.325-.715 0-.252-.114-.65-.345-1.203l-2.935-7.246c-.137-.363-.25-.652-.34-.869s-.199-.42-.33-.609c-.13-.188-.302-.344-.514-.463-.212-.121-.476-.18-.793-.18-.311 0-.572.059-.784.18-.212.119-.383.277-.514.471-.13.193-.253.438-.367.73-.115.295-.214.546-.296.754l-2.872 7.293c-.116.292-.202.52-.253.684-.051.163-.076.322-.076.476 0 .265.109.503.329.712s.474.31.761.31zm4.06-9.215 1.693 4.635h-3.355z"/><path d="m48.311 22.561h-3.057v14.067h3.057c.961 0 1.74-.779 1.74-1.742v-10.585c0-.961-.78-1.74-1.74-1.74z"/><path d="m48.311 39.206h-3.057v14.805h3.057c.961 0 1.74-.779 1.74-1.74v-11.325c0-.961-.78-1.74-1.74-1.74z"/></g></svg>