<?xml version="1.0" ?><!DOCTYPE svg  PUBLIC '-//W3C//DTD SVG 1.1//EN'  'http://www.w3.org/Graphics/SVG/1.1/DTD/svg11.dtd'><svg enable-background="new 0 0 56.693 56.693" height="56.693px" id="Layer_1" version="1.1" viewBox="0 0 56.693 56.693" width="56.693px" xml:space="preserve" xmlns="http://www.w3.org/2000/svg" xmlns:xlink="http://www.w3.org/1999/xlink"><g><path d="M40.6,18.702h-1.065l-7.971-5.576l9.03-5.008c0.963-0.533,1.312-1.748,0.777-2.713   c-0.534-0.963-1.75-1.312-2.712-0.778l-6.293,3.487L31.333,6.25c-0.791-1.425-2.592-1.94-4.015-1.151l-8.199,4.545   c-1.423,0.789-1.938,2.589-1.149,4.014l1.035,1.866l-6.293,3.489c-0.965,0.533-1.312,1.748-0.778,2.713   c0.364,0.656,1.046,1.029,1.748,1.029c0.327,0,0.659-0.082,0.966-0.251l0.455-0.253v29.513c0,0.918,0.745,1.662,1.662,1.662H40.6   c0.919,0,1.663-0.744,1.663-1.662v-31.4C42.263,19.446,41.519,18.702,40.6,18.702z M20.298,12.368   c-0.079-0.141-0.027-0.318,0.112-0.398l8.198-4.543c0.141-0.078,0.319-0.025,0.397,0.113l1.033,1.865l-8.706,4.828L20.298,12.368z    M31.472,13.176l-4.544,5.525h-5.423L31.472,13.176z M38.937,50.1H18.429V22.028h20.508V50.1z" fill="#474A56"/><path d="M22.471,48.051c0.551,0,0.998-0.447,0.998-1V26.268c0-0.553-0.447-1-0.998-1s-0.998,0.447-0.998,1v20.783   C21.473,47.604,21.92,48.051,22.471,48.051z" fill="#474A56"/><path d="M28.684,48.051c0.551,0,0.997-0.447,0.997-1V26.268c0-0.553-0.446-1-0.997-1c-0.552,0-0.999,0.447-0.999,1   v20.783C27.685,47.604,28.132,48.051,28.684,48.051z" fill="#474A56"/><path d="M34.896,48.051c0.552,0,0.998-0.447,0.998-1V26.268c0-0.553-0.446-1-0.998-1c-0.551,0-0.998,0.447-0.998,1   v20.783C33.897,47.604,34.345,48.051,34.896,48.051z" fill="#474A56"/></g></svg>