<?xml version="1.0" ?><!DOCTYPE svg  PUBLIC '-//W3C//DTD SVG 1.1//EN'  'http://www.w3.org/Graphics/SVG/1.1/DTD/svg11.dtd'><svg enable-background="new 0 0 56.693 56.693" height="56.693px" id="Layer_1" version="1.1" viewBox="0 0 56.693 56.693" width="56.693px" xml:space="preserve" xmlns="http://www.w3.org/2000/svg" xmlns:xlink="http://www.w3.org/1999/xlink"><g><path d="M43.234,50.628H19.837c-0.128,0.07-0.251,0.148-0.388,0.203l-8.471,3.422h32.256   c1.001,0,1.812-0.812,1.812-1.812C45.046,51.438,44.235,50.628,43.234,50.628z" fill="#474A56"/><path d="M52.429,13.138l-7.341-7.339c-0.565-0.567-1.483-0.567-2.05,0L9.729,39.108   C9.59,39.245,9.483,39.411,9.41,39.59L4.442,51.897c-0.218,0.539-0.092,1.156,0.319,1.566c0.276,0.279,0.647,0.426,1.024,0.426   c0.182,0,0.366-0.035,0.543-0.105l7.818-3.156l0,0l4.488-1.811c0.18-0.074,0.346-0.182,0.481-0.32l33.312-33.311   c0.271-0.271,0.424-0.64,0.424-1.024C52.853,13.778,52.7,13.41,52.429,13.138z M17.278,46.239l-4.808,1.939l-2.425-2.422   l1.941-4.807L44.063,8.873l2.436,2.435L15.98,41.825c-0.282,0.283-0.282,0.74,0,1.025c0.143,0.141,0.327,0.211,0.513,0.211   s0.371-0.07,0.512-0.211l30.519-30.519l1.83,1.83L17.278,46.239z" fill="#474A56"/></g></svg>