<svg width="20" height="20" viewBox="0 0 20 20" fill="none" xmlns="http://www.w3.org/2000/svg">
<path fill-rule="evenodd" clip-rule="evenodd" d="M9.5 4.375V1.25L10.5 1.25V4.375H9.5ZM4.375 9.5H1.25L1.25 10.5H4.375V9.5ZM18.75 9.5H15.625V10.5H18.75V9.5ZM9.5 15.625V18.75H10.5V15.625H9.5ZM13.6239 5.66895L15.8336 3.45924L16.5407 4.16634L14.331 6.37605L13.6239 5.66895ZM5.66894 13.6239L3.45923 15.8336L4.16634 16.5407L6.37604 14.331L5.66894 13.6239ZM5.66895 6.37605L3.45924 4.16634L4.16634 3.45924L6.37605 5.66895L5.66895 6.37605ZM13.624 14.3311L15.8337 16.5408L16.5408 15.8337L14.3311 13.624L13.624 14.3311Z" fill="#FF5E5C"/>
</svg>
