<svg width="18" height="18" viewBox="0 0 18 18" fill="none" xmlns="http://www.w3.org/2000/svg"><path d="M15.031 9.82502L15.0227 9.84169C15.056 9.56669 15.0893 9.28335 15.0893 9.00002C15.0893 8.71669 15.0643 8.45002 15.031 8.17502L15.0393 8.19169L17.0727 6.59169L15.0477 3.07502L12.656 4.04169L12.6643 4.05002C12.231 3.71669 11.756 3.43335 11.2393 3.21669H11.2477L10.8643 0.666687H6.80599L6.43932 3.22502H6.44766C5.93099 3.44169 5.45599 3.72502 5.02266 4.05835L5.03099 4.05002L2.63099 3.07502L0.597656 6.59169L2.63099 8.19169L2.63932 8.17502C2.60599 8.45002 2.58099 8.71669 2.58099 9.00002C2.58099 9.28335 2.60599 9.56669 2.64766 9.84169L2.63932 9.82502L0.889323 11.2L0.614323 11.4167L2.63932 14.9167L5.03932 13.9584L5.02266 13.925C5.46432 14.2667 5.93932 14.55 6.46432 14.7667H6.43932L6.81432 17.3334H10.856C10.856 17.3334 10.881 17.1834 10.906 16.9834L11.2227 14.775H11.2143C11.731 14.5584 12.2143 14.275 12.656 13.9334L12.6393 13.9667L15.0393 14.925L17.0643 11.425C17.0643 11.425 16.9477 11.325 16.7893 11.2084L15.031 9.82502ZM8.83099 11.9167C7.22266 11.9167 5.91432 10.6084 5.91432 9.00002C5.91432 7.39169 7.22266 6.08335 8.83099 6.08335C10.4393 6.08335 11.7477 7.39169 11.7477 9.00002C11.7477 10.6084 10.4393 11.9167 8.83099 11.9167Z" fill="#6C6C6C"/></svg>
