<svg width="16" height="16" viewBox="0 0 16 16" fill="none" xmlns="http://www.w3.org/2000/svg">
<path fill-rule="evenodd" clip-rule="evenodd" d="M8 2C4.68629 2 2 4.68629 2 8C2 11.3137 4.68629 14 8 14C11.3137 14 14 11.3137 14 8C14 4.68629 11.3137 2 8 2ZM1 8C1 4.13401 4.13401 1 8 1C11.866 1 15 4.13401 15 8C15 11.866 11.866 15 8 15C4.13401 15 1 11.866 1 8ZM7.5 12V11H8.5V12H7.5ZM6 6C6 5.44772 6.44772 5 7 5H9C9.55228 5 10 5.44772 10 6V6.48445C10 6.89336 9.75105 7.26106 9.37139 7.41293L8.75722 7.6586C7.9979 7.96232 7.5 8.69774 7.5 9.51555V10H8.5V9.51555C8.5 9.10665 8.74895 8.73894 9.12861 8.58707L9.74278 8.3414C10.5021 8.03768 11 7.30226 11 6.48445V6C11 4.89543 10.1046 4 9 4H7C5.89543 4 5 4.89543 5 6V6.5H6V6Z" fill="#BCCBD6"/>
</svg>
