<svg width="20" height="24" viewBox="0 0 20 24" fill="none" xmlns="http://www.w3.org/2000/svg">
<path fill-rule="evenodd" clip-rule="evenodd" d="M10 4.5C5.85786 4.5 2.5 7.85786 2.5 12C2.5 16.1421 5.85786 19.5 10 19.5C14.1421 19.5 17.5 16.1421 17.5 12C17.5 7.85786 14.1421 4.5 10 4.5ZM1.25 12C1.25 7.16751 5.16751 3.25 10 3.25C14.8325 3.25 18.75 7.16751 18.75 12C18.75 16.8325 14.8325 20.75 10 20.75C5.16751 20.75 1.25 16.8325 1.25 12ZM9.375 17V15.75H10.625V17H9.375ZM7.5 9.5C7.5 8.80964 8.05964 8.25 8.75 8.25H11.25C11.9404 8.25 12.5 8.80964 12.5 9.5V10.1056C12.5 10.6167 12.1888 11.0763 11.7142 11.2662L10.9465 11.5732C9.99738 11.9529 9.375 12.8722 9.375 13.8944V14.5H10.625V13.8944C10.625 13.3833 10.9362 12.9237 11.4108 12.7338L12.1785 12.4268C13.1276 12.0471 13.75 11.1278 13.75 10.1056V9.5C13.75 8.11929 12.6307 7 11.25 7H8.75C7.36929 7 6.25 8.11929 6.25 9.5V10.125H7.5V9.5Z" fill="#BCCBD6"/>
</svg>
