<svg version="1.1" xmlns="http://www.w3.org/2000/svg" xmlns:xlink="http://www.w3.org/1999/xlink" x="0px" y="0px" viewBox="0 0 1000 1000" enable-background="new 0 0 1000 1000" xml:space="preserve"><g><g transform="translate(0.000000,511.000000) scale(0.100000,-0.100000)"><path d="M8291.2,3962.5c-126.1-39.7-191.4-95.7-781.9-683.9L6900,2671.7l-219.4,81.7c-1626.9,609.2-3279.5,329.1-4792-809.9C1393.7,1572.4,796.2,956.1,399.4,412.3C105.3,6.1,60.9-112.9,126.3-313.7c84-245.1,800.6-952.3,1398.2-1379.5c163.4-116.7,543.9-359.5,590.5-375.8c16.3-7-177.4-219.4-429.5-473.9c-252.1-256.8-476.2-497.2-494.8-534.5c-98-193.7-67.7-387.5,86.4-539.2c165.7-168.1,380.5-189.1,578.9-56c135.4,91,6913.8,6878.7,6958.1,6967.4c98,193.7,65.4,387.5-86.4,539.2C8601.6,3962.5,8445.2,4006.9,8291.2,3962.5z M5158.7,2006.5c114.4-53.7,170.4-154,170.4-303.4c0-102.7-11.7-135.4-70-203.1c-81.7-93.4-158.7-121.4-373.5-140c-448.2-39.7-807.6-415.5-863.6-896.3c-23.3-214.7-39.7-256.8-137.7-338.5c-147.1-123.7-392.1-84-492.5,81.7c-102.7,170.4-37.3,606.9,144.7,959.3c130.7,252.1,422.5,550.9,660.6,674.6c156.4,81.7,399.1,168.1,525.2,189.1C4874,2055.5,5081.7,2043.9,5158.7,2006.5z M3111.7,1551.3C2665.8,790.4,2677.5-101.2,3142-820.1l105-161.1L3039.3-1189l-210.1-207.7l-154.1,81.7C2248-1090.9,1655.2-647.4,1305-292.6L1144-126.9l184.4,228.8C1727.5,599,2241,1077.5,2721.9,1399.6c193.7,130.7,420.1,266.1,455.2,273.1C3179.4,1672.7,3151.4,1616.7,3111.7,1551.3z"/><path d="M7843,1560.7l-322.1-322.1l231.1-191.4c280.1-231.1,676.9-637.2,924.3-945.3l184.4-228.8l-196.1-198.4c-658.2-667.6-1598.9-1218.4-2460.2-1440.2c-485.5-126.1-637.2-142.4-1253.4-144.7h-578.9l-373.5-373.5c-205.4-205.4-373.5-380.4-373.5-387.5c0-16.3,427.1-102.7,676.9-135.4c915-119,1923.3,14,2829,373.5c770.3,305.8,1577.9,840.3,2203.4,1461.2c625.6,620.9,681.6,779.6,413.2,1178.7c-224.1,336.1-497.2,669.9-824,1006c-298.8,310.4-697.9,669.9-739.9,669.9C8174.5,1882.8,8020.4,1738.1,7843,1560.7z"/><path d="M5833.3-449L4505.2-1777.1l91-21c49-9.3,242.7-18.7,429.5-16.3c275.4,0,375.8,9.4,534.5,53.7c394.5,105,725.9,298.8,1017.7,595.2C7019-719.8,7245.4-131.6,7212.8,494C7187.1,956.1,7350.5,1068.2,5833.3-449z"/></g></g></svg>
