<svg width="12" height="16" viewBox="0 0 12 16" fill="none" xmlns="http://www.w3.org/2000/svg"><path d="M10.5001 7.09999H9.6001V4.39999C9.6001 2.41999 7.9801 0.799988 6.0001 0.799988C4.0201 0.799988 2.4001 2.41999 2.4001 4.39999V7.09999H1.5001C1.0501 7.09999 0.600098 7.54999 0.600098 7.99999V14.3C0.600098 14.75 1.0501 15.2 1.5001 15.2H10.5001C10.9501 15.2 11.4001 14.75 11.4001 14.3V7.99999C11.4001 7.54999 10.9501 7.09999 10.5001 7.09999ZM6.9001 13.4H5.1001L5.4601 11.42C5.0101 11.24 4.6501 10.7 4.6501 10.25C4.6501 9.52999 5.2801 8.89999 6.0001 8.89999C6.7201 8.89999 7.3501 9.52999 7.3501 10.25C7.3501 10.79 7.0801 11.24 6.5401 11.42L6.9001 13.4ZM7.8001 7.09999H4.2001V4.39999C4.2001 3.40999 5.0101 2.59999 6.0001 2.59999C6.9901 2.59999 7.8001 3.40999 7.8001 4.39999V7.09999Z" fill="#8D8D8D"/></svg>
