<svg width="24" height="30" viewBox="0 0 24 30" fill="none" xmlns="http://www.w3.org/2000/svg">
    <path fill-rule="evenodd" clip-rule="evenodd" d="M17.287 12.5637C17.2831 8.49452 14.2756 4.11145 8.71485 4.0022C4.75028 3.92645 2.64702 5.82071 1.58362 7.42472C0.204808 9.50244 -0.00108699 11.8462 4.29762e-06 13.0605L0.0159442 26.8315C0.0170892 27.9029 0.885451 28.7904 1.9535 28.8114C2.20707 28.8162 2.45907 28.7704 2.69457 28.6768C2.93007 28.5831 3.1443 28.4434 3.32463 28.2659C3.50495 28.0884 3.64769 27.8766 3.74442 27.6433C3.84113 27.4101 3.88988 27.1598 3.88777 26.9074L3.87459 13.1364C3.87092 11.5274 4.34148 7.79973 8.72255 7.8856C12.4315 7.95768 13.4144 10.9295 13.416 12.4879L13.424 21.2536C13.4253 22.3248 14.2937 23.212 15.3613 23.2329C15.6148 23.2378 15.8667 23.1921 16.1023 23.0986C16.3378 23.0048 16.5521 22.8651 16.7324 22.6877C16.9127 22.5102 17.0555 22.2985 17.1521 22.0653C17.2489 21.832 17.2975 21.5817 17.2956 21.3294L17.287 12.5637ZM23.9868 6.24267C23.9857 5.17131 23.1173 4.28382 22.0493 4.26286C20.9773 4.24184 20.1143 5.09545 20.1115 6.16676L20.1247 19.9374C20.126 21.5468 19.6554 25.2744 15.2747 25.1885C11.5651 25.1164 10.5829 22.1445 10.5815 20.5863L10.5733 11.8206C10.572 10.7497 9.70381 9.86218 8.63525 9.84121C8.38175 9.83627 8.12986 9.882 7.89424 9.97564C7.65881 10.0693 7.44467 10.209 7.26434 10.3865C7.08401 10.5639 6.94125 10.7756 6.84464 11.0089C6.74786 11.2422 6.6992 11.4924 6.70134 11.7448L6.70993 20.5144C6.71351 24.5835 9.72331 28.967 15.2824 29.0754C19.2454 29.1534 21.35 27.253 22.4168 25.6495C23.7948 23.5721 24.0011 21.2284 24 20.0136L23.9868 6.24267Z" fill="white"/>
    </svg>
    