<?xml version="1.0" encoding="utf-8"?>
<svg viewBox="15 15 140 140" style="enable-background:new 0 0 170 170;zoom: 1;" xmlns="http://www.w3.org/2000/svg" xmlns:bx="https://boxy-svg.com">
  <defs>
    <style type="text/css">.bg0{fill:#FF8C00} .st0{fill:#FFFFFF}</style>
  </defs>
  <g>
    <circle class="bg0" cx="85" cy="85" r="70"/>
    <g>
      <path class="st0" d="M85,34.7c-20.8,0-37.8,16.9-37.8,37.8c0,4.2,0.7,8.3,2,12.3c0.9,2.7,3.9,4.2,6.7,3.3c2.7-0.9,4.2-3.9,3.3-6.7 c-1.1-3.1-1.6-6.4-1.5-9.7C58.1,57.6,69.5,46,83.6,45.3c15.7-0.8,28.7,11.7,28.7,27.2c0,14.5-11.4,26.4-25.7,27.2 c0,0-5.3,0.3-7.9,0.7c-1.3,0.2-2.3,0.4-3,0.5c-0.3,0.1-0.6-0.2-0.5-0.5l0.9-4.4L81,73.4c0.6-2.8-1.2-5.6-4-6.2 c-2.8-0.6-5.6,1.2-6.2,4c0,0-11.8,55-11.9,55.6c-0.6,2.8,1.2,5.6,4,6.2c2.8,0.6,5.6-1.2,6.2-4c0.1-0.6,1.7-7.9,1.7-7.9 c1.2-5.6,5.8-9.7,11.2-10.4c1.2-0.2,5.9-0.5,5.9-0.5c19.5-1.5,34.9-17.8,34.9-37.7C122.8,51.6,105.8,34.7,85,34.7z M87.7,121.7 c-3.4-0.7-6.8,1.4-7.5,4.9c-0.7,3.4,1.4,6.8,4.9,7.5c3.4,0.7,6.8-1.4,7.5-4.9C93.3,125.7,91.2,122.4,87.7,121.7z"/>
    </g>
    <path d="M 94.441 23.398 H 101.523 V 39.15 H 115.689 V 47.027 H 101.523 V 62.779 H 94.441 V 47.027 H 80.276 V 39.15 H 94.441 Z" style="mix-blend-mode: lighten; fill: rgb(255, 255, 255);" transform="matrix(0.99999, 0.004484, -0.246595, 0.998904, 43.674217, 61.846058)" bx:shape="cross 80.276 23.398 35.413 39.381 7.877 7.082 0.5 1@a17842a8"/>
  </g>
</svg>