<svg width="17" height="16" viewBox="0 0 17 16" fill="none" xmlns="http://www.w3.org/2000/svg">
  <path d="M5.35726 12.0731V13.3571H11.7858V12.0731H5.35726ZM5.35726 9.93029V11.2143H11.7858V9.93029H5.35726ZM1.50012 11.2143H2.78584V14.6437C2.78155 15.6851 3.02069 15.9286 4.07155 15.9286H13.0716C14.1224 15.9286 14.3573 15.7349 14.3573 14.6437V11.2143H15.643C16.7358 11.2314 16.9411 10.9884 16.9287 9.92943V5.21514C16.9287 4.208 16.7658 3.92857 15.643 3.92857H14.3573V1.78657C14.3697 0.728 14.1644 0.5 13.0716 0.5H4.07155C3.04298 0.5 2.78155 0.745143 2.78584 1.78657V3.92857H1.50012C0.394407 3.92857 0.214407 4.16943 0.214407 5.21514V9.92943C0.210121 10.9709 0.47155 11.2314 1.50012 11.2143ZM13.0716 14.6429H4.07155V9.07143H13.0716V14.6429ZM13.8773 6.71514C13.8773 6.32943 14.1858 6.02129 14.5716 6.02129C14.9573 6.02129 15.2658 6.32943 15.2658 6.71514C15.2658 7.10086 14.9573 7.40943 14.5716 7.40943C14.1858 7.40943 13.8773 7.10086 13.8773 6.71514ZM4.07155 1.78571H13.0716V3.93029H4.07155V1.78571Z" fill="#8E8E8E"/>
</svg>
