<svg width="22" height="22" viewBox="0 0 22 22" fill="none" xmlns="http://www.w3.org/2000/svg"><path d="M0 0V8H2V10H4V8H8V0H0ZM8 8V10H10V12H6V14H0V22H8V14H14V12H12V10H16V8H18V10H20V8H22V0H14V8H8ZM20 10V12H22V10H20ZM20 12H18V14H20V12ZM20 14V16H22V14H20ZM20 16H18V14H16V16H11V22H13V18H17V20H19V18H20V16ZM17 20H15V22H17V20ZM18 12V10H16V12H18ZM6 12V10H4V12H6ZM2 10H0V12H2V10ZM10 0V4H9V6H10V7H12V4H13V2H12V0H10ZM2 2H6V6H2V2ZM16 2H20V6H16V2ZM3 3V5H5V3H3ZM17 3V5H19V3H17ZM2 16H6V20H2V16ZM3 17V19H5V17H3ZM20 20V22H22V20H20Z" fill="white"/></svg>
