<svg width="56" height="56" viewBox="0 0 56 56" fill="none" xmlns="http://www.w3.org/2000/svg">
<path opacity="0.4" d="M56 2L2 56V38.6207L38.3103 2H56Z" fill="#0C131A"/>
<rect x="37" width="19" height="2" fill="#00CCAB"/>
<rect y="37" width="2" height="19" fill="#00CCAB"/>
<path d="M0 37L37.0001 0H56.0001L9.53972e-05 56L0 37Z" fill="#00EAC7"/>
<path d="M10.5953 29.943L11.2847 29.2535L19.3281 31.2115L19.2729 31.2667L14.2723 26.266L14.8054 25.7329L20.4817 31.4092L19.8337 32.0572L11.6203 30.0579L11.6984 29.9797L16.8048 35.0861L16.2716 35.6193L10.5953 29.943ZM22.9588 28.9321L17.2825 23.2558L20.7021 19.8362L21.1571 20.2912L18.2707 23.1777L20.3941 25.3011L23.1151 22.5802L23.5701 23.0352L20.8491 25.7561L23.0277 27.9347L25.9141 25.0483L26.3784 25.5125L22.9588 28.9321ZM22.0791 18.4592L22.6858 17.8525L29.4146 21.5294L29.2354 21.7087L26.3214 15.6141L26.6845 15.251L32.7055 18.2018L32.5263 18.381L29.1619 11.3764L29.7502 10.7881L33.3904 18.5005L32.8296 19.0613L27.3004 16.3633L27.4567 16.207L30.0857 21.8052L29.525 22.3659L22.0791 18.4592Z" fill="#111B24"/>
</svg>
