<svg id="Capa_1" enable-background="new 0 0 512.007 512.007" height="512" viewBox="0 0 512.007 512.007" width="512" xmlns="http://www.w3.org/2000/svg"><g><path d="m497.007 281.013h-10v-17c0-34.003-24.032-62.486-56-69.391v-114.609c0-7.717-5.897-14.232-13.627-14.931-1.18-.108-402.547-.147-404.195.052-7.415.907-13.052 7.142-13.167 14.648-.002.145-.064 288.148.054 289.517.566 6.664 5.52 12.22 12.209 13.455 2.166.4-17.056.259 308.726.259v49c0 8.284 6.716 15 15 15h161c8.284 0 15-6.716 15-15v-136c0-8.284-6.716-15-15-15zm-40-17v17h-82v-17c0-22.607 18.393-41 41-41s41 18.393 41 41zm-117.158 17-64.774-56.999 125.932-110.82v81.428c-31.968 6.904-56 35.388-56 69.391v17zm36.407-186-160.274 141.041-161.075-141.041zm-346.249 18.072 126.683 110.926-126.683 110.929zm24.899 239.928 124.553-109.064 26.666 23.349c5.659 4.955 14.126 4.96 19.791-.024l26.453-23.278 68.638 60.398v48.619zm427.101 64h-131v-106h131z"/><path d="m416.007 345.013c-8.284 0-15 6.716-15 15v8c0 8.284 6.716 15 15 15s15-6.716 15-15v-8c0-8.284-6.716-15-15-15z"/></g></svg>
