<svg width="20" height="20" viewBox="0 0 20 20" fill="none" xmlns="http://www.w3.org/2000/svg">
<path fill-rule="evenodd" clip-rule="evenodd" d="M8.12458 1.25L7.52363 1.7033L6.90806 3.85779C6.67289 3.97637 6.44551 4.10802 6.22688 4.25178L4.05242 3.70742L3.35938 4.00121L1.48438 7.24881L1.57647 7.9959L3.13562 9.60737C3.12829 9.73738 3.12458 9.86829 3.12458 10C3.12458 10.1317 3.12829 10.2626 3.13562 10.3926L1.57647 12.0041L1.48438 12.7512L3.35938 15.9988L4.05242 16.2926L6.22689 15.7482C6.44552 15.892 6.67289 16.0236 6.90806 16.1422L7.52363 18.2967L8.12458 18.75H11.8746L12.4755 18.2967L13.0911 16.1422C13.3263 16.0236 13.5537 15.892 13.7723 15.7482L15.9467 16.2926L16.6398 15.9988L18.5148 12.7512L18.4227 12.0041L16.8635 10.3926C16.8709 10.2626 16.8746 10.1317 16.8746 10C16.8746 9.86828 16.8709 9.73736 16.8635 9.60736L18.4227 7.99588L18.5148 7.24879L16.6398 4.00119L15.9467 3.7074L13.7723 4.25177C13.5536 4.10801 13.3263 3.97636 13.0911 3.85779L12.4755 1.7033L11.8746 1.25H8.12458ZM8.03261 4.47192L8.59602 2.5H11.4031L11.9665 4.47192L12.3104 4.8699C12.655 5.02538 12.9812 5.21464 13.2849 5.43356L13.8022 5.53285L15.793 5.03447L17.1965 7.46551L15.7695 8.94039L15.5968 9.43673C15.6152 9.62182 15.6246 9.80971 15.6246 10C15.6246 10.1903 15.6152 10.3782 15.5968 10.5632L15.7695 11.0596L17.1965 12.5345L15.793 14.9655L13.8022 14.4671L13.285 14.5664C12.9813 14.7853 12.655 14.9746 12.3104 15.1301L11.9665 15.5281L11.4031 17.5H8.59602L8.03261 15.5281L7.68872 15.1301C7.34416 14.9746 7.01791 14.7853 6.71422 14.5664L6.19696 14.4671L4.20619 14.9655L2.80263 12.5345L4.22961 11.0596L4.40238 10.5633C4.38401 10.3782 4.37458 10.1903 4.37458 10C4.37458 9.80972 4.38401 9.62183 4.40238 9.43674L4.22961 8.9404L2.80263 7.46553L4.20619 5.03449L6.19696 5.53286L6.71422 5.43357C7.01791 5.21465 7.34416 5.02538 7.68872 4.8699L8.03261 4.47192ZM7.49974 10C7.49974 8.61929 8.61902 7.5 9.99973 7.5C11.3804 7.5 12.4997 8.61929 12.4997 10C12.4997 11.3807 11.3804 12.5 9.99973 12.5C8.61902 12.5 7.49974 11.3807 7.49974 10ZM9.99973 6.25C7.92867 6.25 6.24974 7.92893 6.24974 10C6.24974 12.0711 7.92867 13.75 9.99973 13.75C12.0708 13.75 13.7497 12.0711 13.7497 10C13.7497 7.92893 12.0708 6.25 9.99973 6.25Z" fill="#CFDAE3"/>
</svg>
