<svg width="20" height="20" viewBox="0 0 20 20" fill="none" xmlns="http://www.w3.org/2000/svg">
<path fill-rule="evenodd" clip-rule="evenodd" d="M11.25 5.625C11.25 4.58947 12.0895 3.75 13.125 3.75C14.1605 3.75 15 4.58947 15 5.625C15 6.66053 14.1605 7.5 13.125 7.5C12.0895 7.5 11.25 6.66053 11.25 5.625ZM10.0625 6.25H1.25V5H10.0625C10.3521 3.5736 11.6132 2.5 13.125 2.5C14.6368 2.5 15.8979 3.5736 16.1875 5L18.75 5V6.25L16.1875 6.25C15.8979 7.6764 14.6368 8.75 13.125 8.75C11.6132 8.75 10.3521 7.6764 10.0625 6.25ZM6.875 11.25C5.36315 11.25 4.10206 12.3236 3.81251 13.75H1.25V15H3.81251C4.10206 16.4264 5.36315 17.5 6.875 17.5C8.38685 17.5 9.64794 16.4264 9.93749 15L18.75 15V13.75L9.93749 13.75C9.64795 12.3236 8.38685 11.25 6.875 11.25ZM6.875 12.5C5.83947 12.5 5 13.3395 5 14.375C5 15.4105 5.83947 16.25 6.875 16.25C7.91053 16.25 8.75 15.4105 8.75 14.375C8.75 13.3395 7.91053 12.5 6.875 12.5Z" fill="#BCCBD6"/>
</svg>
