<svg width="20" height="24" viewBox="0 0 20 24" fill="none" xmlns="http://www.w3.org/2000/svg">
<path fill-rule="evenodd" clip-rule="evenodd" d="M11.25 7.625C11.25 6.58947 12.0895 5.75 13.125 5.75C14.1605 5.75 15 6.58947 15 7.625C15 8.66053 14.1605 9.5 13.125 9.5C12.0895 9.5 11.25 8.66053 11.25 7.625ZM10.0625 8.25H1.25V7H10.0625C10.3521 5.5736 11.6132 4.5 13.125 4.5C14.6368 4.5 15.8979 5.5736 16.1875 7L18.75 7V8.25L16.1875 8.25C15.8979 9.6764 14.6368 10.75 13.125 10.75C11.6132 10.75 10.3521 9.6764 10.0625 8.25ZM6.875 13.25C5.36315 13.25 4.10206 14.3236 3.81251 15.75H1.25V17H3.81251C4.10206 18.4264 5.36315 19.5 6.875 19.5C8.38685 19.5 9.64794 18.4264 9.93749 17L18.75 17V15.75L9.93749 15.75C9.64795 14.3236 8.38685 13.25 6.875 13.25ZM6.875 14.5C5.83947 14.5 5 15.3395 5 16.375C5 17.4105 5.83947 18.25 6.875 18.25C7.91053 18.25 8.75 17.4105 8.75 16.375C8.75 15.3395 7.91053 14.5 6.875 14.5Z" fill="#BCCBD6"/>
</svg>
