<svg width="20" height="20" viewBox="0 0 20 20" fill="none" xmlns="http://www.w3.org/2000/svg">
<path fill-rule="evenodd" clip-rule="evenodd" d="M3.75 4.29228L10 2.52461L16.25 4.29228V9.37509C16.25 12.5691 14.6653 14.5896 13.0553 15.8337C12.2461 16.459 11.4337 16.8841 10.8228 17.1525C10.5181 17.2864 10.2658 17.3803 10.092 17.4401C10.0583 17.4517 10.0276 17.462 10 17.4711C9.97245 17.462 9.94171 17.4517 9.90798 17.4401C9.73421 17.3803 9.48186 17.2864 9.1772 17.1525C8.5663 16.8841 7.75394 16.459 6.94465 15.8337C5.33466 14.5896 3.75 12.5691 3.75 9.37509V4.29228ZM9.83492 18.7279C9.83525 18.728 9.83555 18.7281 10 18.1251L9.83555 18.7281H10.1644L10 18.1251C10.1644 18.7281 10.1647 18.728 10.1651 18.7279L10.1659 18.7277L10.1679 18.7271L10.1739 18.7255L10.1932 18.72C10.2092 18.7153 10.2317 18.7087 10.2601 18.7C10.3169 18.6826 10.3976 18.6569 10.4988 18.6221C10.701 18.5525 10.9858 18.4462 11.3256 18.2969C12.0038 17.9989 12.9102 17.5255 13.8197 16.8228C15.6472 15.4106 17.5 13.0561 17.5 9.37509V3.81953L17.0451 3.21813L10.1701 1.27368L9.8299 1.27368L2.9549 3.21813L2.5 3.81953V9.37509C2.5 13.0561 4.35284 15.4106 6.18035 16.8228C7.08981 17.5255 7.9962 17.9989 8.67436 18.2969C9.01423 18.4462 9.29899 18.5525 9.5012 18.6221C9.60237 18.6569 9.68306 18.6826 9.73988 18.7C9.76829 18.7087 9.79075 18.7153 9.80683 18.72L9.82613 18.7255L9.83209 18.7271L9.83414 18.7277L9.83492 18.7279ZM9.50444 11.8483L14.0357 7.31703L13.1518 6.43315L9.0625 10.5225L7.31694 8.7769L6.43306 9.66078L8.62056 11.8483H9.50444Z" fill="#00EAC7"/>
</svg>
