<svg width="16" height="17" viewBox="0 0 16 17" fill="none" xmlns="http://www.w3.org/2000/svg">
<path fill-rule="evenodd" clip-rule="evenodd" d="M5.5 3.5L5.5 1.5H6.5L6.5 3.5L5.5 3.5ZM3 6L1 6L1 7L3 7V6ZM15 10H13V11H15V10ZM9.5 13.5V15.5H10.5V13.5H9.5ZM3.46448 4.67155L1.69671 2.90379L2.40382 2.19668L4.17158 3.96445L3.46448 4.67155ZM11.8284 13.0356L13.5962 14.8033L14.3033 14.0962L12.5355 12.3285L11.8284 13.0356ZM8.85872 3.39419C10.0303 2.22262 11.9298 2.22262 13.1014 3.39419C14.2729 4.56577 14.2729 6.46526 13.1014 7.63683L11.3336 9.4046L10.6265 8.69749L12.3943 6.92973C13.1753 6.14868 13.1753 4.88235 12.3943 4.1013C11.6132 3.32025 10.3469 3.32025 9.56583 4.1013L7.79806 5.86907L7.09095 5.16196L8.85872 3.39419ZM2.89426 13.6013C1.72268 12.4297 1.72268 10.5302 2.89426 9.35866L4.66202 7.59089L5.36913 8.298L3.60136 10.0658C2.82031 10.8468 2.82031 12.1131 3.60136 12.8942C4.38241 13.6752 5.64874 13.6752 6.42979 12.8942L8.19756 11.1264L8.90466 11.8335L7.1369 13.6013C5.96532 14.7729 4.06583 14.7729 2.89426 13.6013Z" fill="#FF5E5C"/>
</svg>
