<svg width="12" height="16" viewBox="0 0 12 16" fill="none" xmlns="http://www.w3.org/2000/svg">
  <path fill-rule="evenodd" clip-rule="evenodd" d="M9.6001 7.10005H10.5001C10.9501 7.10005 11.4001 7.55005 11.4001 8.00005V14.3C11.4001 14.75 10.9501 15.2 10.5001 15.2H1.5001C1.0501 15.2 0.600098 14.75 0.600098 14.3V8.00005C0.600098 7.55005 1.0501 7.10005 1.5001 7.10005H2.4001V4.40005C2.4001 2.42005 4.0201 0.800049 6.0001 0.800049C7.67121 0.800049 9.08589 1.95403 9.48661 3.50446L7.77075 4.07642C7.61719 3.23946 6.87969 2.60005 6.0001 2.60005C5.0101 2.60005 4.2001 3.41005 4.2001 4.40005V7.10005H7.8001V7.1H9.6001V7.10005ZM5.4601 11.42L5.1001 13.4H6.9001L6.5401 11.42C7.0801 11.24 7.3501 10.79 7.3501 10.25C7.3501 9.53005 6.7201 8.90005 6.0001 8.90005C5.2801 8.90005 4.6501 9.53005 4.6501 10.25C4.6501 10.7 5.0101 11.24 5.4601 11.42Z" fill="#8D8D8D"/>
</svg>
