<svg width="24" height="25" viewBox="0 0 24 25" fill="none" xmlns="http://www.w3.org/2000/svg">
<path fill-rule="evenodd" clip-rule="evenodd" d="M12.6495 5L12 3.875L11.3505 5H12.6495ZM9.40192 5.375L11.3505 2H12.6495L14.5981 5.375L13.9486 6.5H12.75L12.75 13.4576L16.5 11.3148V9.875H16.125L15.375 9.125V6.875L16.125 6.125H18.375L19.125 6.875V9.125L18.375 9.875H18V11.75L17.6221 12.4012L12.75 15.1852L12.75 15.5L12.75 17V17.8587C13.8343 18.1814 14.625 19.1859 14.625 20.375C14.625 21.8247 13.4497 23 12 23C10.5503 23 9.375 21.8247 9.375 20.375C9.375 19.1859 10.1657 18.1814 11.25 17.8587V17.386L6.31407 13.8603L6 13.25V11.622C5.12611 11.3131 4.5 10.4797 4.5 9.5C4.5 8.25736 5.50736 7.25 6.75 7.25C7.99264 7.25 9 8.25736 9 9.5C9 10.4797 8.37389 11.3131 7.5 11.622V12.864L11.25 15.5426V15.5L11.25 14.75V6.5H10.0514L9.40192 5.375ZM12 19.25C11.3787 19.25 10.875 19.7537 10.875 20.375C10.875 20.9963 11.3787 21.5 12 21.5C12.6213 21.5 13.125 20.9963 13.125 20.375C13.125 19.7537 12.6213 19.25 12 19.25ZM6.75 8.75C6.33579 8.75 6 9.08579 6 9.5C6 9.91421 6.33579 10.25 6.75 10.25C7.16421 10.25 7.5 9.91421 7.5 9.5C7.5 9.08579 7.16421 8.75 6.75 8.75ZM16.875 8.375V7.625H17.625V8.375H16.875Z" fill="#00EAC7"/>
</svg>
