<svg width="32" height="32" viewBox="0 0 32 32" fill="none" xmlns="http://www.w3.org/2000/svg">
<path fill-rule="evenodd" clip-rule="evenodd" d="M15 7L15 2H17L17 7H15ZM7 15L2 15V17L7 17V15ZM30 15L25 15V17L30 17V15ZM15 25L15 30H17L17 25H15ZM21.6568 8.92891L25.1924 5.39338L26.6066 6.80759L23.071 10.3431L21.6568 8.92891ZM8.92891 21.6568L5.39338 25.1924L6.80759 26.6066L10.3431 23.071L8.92891 21.6568ZM8.92893 10.3431L5.3934 6.80761L6.80761 5.3934L10.3431 8.92893L8.92893 10.3431ZM21.6569 23.0711L25.1924 26.6066L26.6066 25.1924L23.0711 21.6569L21.6569 23.0711Z" fill="#FF5E5C"/>
</svg>
