<svg width="20" height="20" viewBox="0 0 20 20" fill="none" xmlns="http://www.w3.org/2000/svg">
<path fill-rule="evenodd" clip-rule="evenodd" d="M2.32759 10.6464C2.16251 10.3811 2.03725 10.1588 1.95192 10C2.03725 9.8412 2.16251 9.61893 2.32759 9.35363C2.6766 8.79271 3.19957 8.04597 3.89446 7.30145C5.29007 5.80615 7.32393 4.375 10 4.375C12.6762 4.375 14.71 5.80615 16.1056 7.30145C16.8005 8.04597 17.3235 8.79271 17.6725 9.35363C17.8376 9.61892 17.9628 9.84119 18.0482 10C17.9628 10.1588 17.8376 10.3811 17.6725 10.6464C17.3235 11.2073 16.8005 11.954 16.1056 12.6986C14.71 14.1938 12.6762 15.625 10 15.625C7.32393 15.625 5.29007 14.1938 3.89446 12.6986C3.19957 11.954 2.6766 11.2073 2.32759 10.6464ZM19.3162 9.7352C19.3163 9.73546 19.3164 9.7357 18.75 10C19.3164 10.2643 19.3163 10.2645 19.3162 10.2648L19.3159 10.2654L19.3151 10.2671L19.3127 10.2723L19.3046 10.2892C19.2977 10.3034 19.288 10.3233 19.2754 10.3487C19.2501 10.3994 19.2133 10.4718 19.1648 10.5627C19.0679 10.7444 18.9243 11.0007 18.7338 11.3068C18.3537 11.9177 17.7829 12.7335 17.0195 13.5514C15.4984 15.1812 13.1573 16.875 10 16.875C6.84284 16.875 4.50169 15.1812 2.98064 13.5514C2.21719 12.7335 1.64642 11.9177 1.26626 11.3068C1.07581 11.0007 0.9322 10.7444 0.835298 10.5627C0.786823 10.4718 0.749966 10.3994 0.724716 10.3487C0.712089 10.3233 0.702358 10.3034 0.695521 10.2892L0.687435 10.2723L0.685018 10.2671L0.684216 10.2654L0.683917 10.2648C0.683796 10.2645 0.683685 10.2643 1.25005 10C0.683685 9.7357 0.683796 9.73546 0.683917 9.7352L0.684216 9.73456L0.685018 9.73285L0.687435 9.72774L0.695521 9.71083C0.702358 9.69664 0.712089 9.67666 0.724716 9.6513C0.749966 9.60057 0.786823 9.52822 0.835298 9.43733C0.9322 9.25564 1.07581 8.99933 1.26626 8.69325C1.64642 8.08229 2.21719 7.26653 2.98064 6.44855C4.50169 4.81885 6.84284 3.125 10 3.125C13.1573 3.125 15.4984 4.81885 17.0195 6.44855C17.7829 7.26653 18.3537 8.08229 18.7338 8.69325C18.9243 8.99933 19.0679 9.25564 19.1648 9.43733C19.2133 9.52822 19.2501 9.60057 19.2754 9.6513C19.288 9.67666 19.2977 9.69664 19.3046 9.71083L19.3127 9.72774L19.3151 9.73285L19.3159 9.73456L19.3162 9.7352ZM1.25005 10L0.683685 10.2643V9.7357L1.25005 10ZM18.75 10L19.3164 9.7357V10.2643L18.75 10ZM7.50004 10C7.50004 8.61929 8.61933 7.5 10 7.5C11.3808 7.5 12.5 8.61929 12.5 10C12.5 11.3807 11.3808 12.5 10 12.5C8.61933 12.5 7.50004 11.3807 7.50004 10ZM10 6.25C7.92897 6.25 6.25004 7.92893 6.25004 10C6.25004 12.0711 7.92897 13.75 10 13.75C12.0711 13.75 13.75 12.0711 13.75 10C13.75 7.92893 12.0711 6.25 10 6.25Z" fill="#BCCBD6"/>
</svg>
