<svg width="20" height="20" viewBox="0 0 20 20" fill="none" xmlns="http://www.w3.org/2000/svg">
<path fill-rule="evenodd" clip-rule="evenodd" d="M15.6792 5.20467L18.5669 2.31699L17.683 1.43311L1.43304 17.6831L2.31692 18.567L5.35819 15.5257C6.63467 16.3133 8.18412 16.8751 9.99999 16.8751C13.1572 16.8751 15.4983 15.1812 17.0194 13.5515C17.7828 12.7335 18.3536 11.9178 18.7338 11.3068C18.9242 11.0007 19.0678 10.7444 19.1647 10.5627C19.2132 10.4718 19.2501 10.3995 19.2753 10.3488C19.288 10.3234 19.2977 10.3034 19.3045 10.2892L19.3126 10.2723L19.315 10.2672L19.3158 10.2655L19.3161 10.2649C19.3162 10.2646 19.3164 10.2644 18.75 10.0001L19.3164 10.2644L19.3164 9.73579L18.75 10.0001C19.3164 9.73579 19.3163 9.73563 19.3162 9.73547L19.316 9.73508L19.3156 9.7341L19.3143 9.73135L19.3102 9.72271L19.296 9.69321C19.2838 9.66822 19.2662 9.63275 19.2433 9.58778C19.1974 9.49784 19.13 9.36976 19.0409 9.21134C18.8628 8.89477 18.5975 8.45553 18.2446 7.95681C17.6501 7.11693 16.7965 6.09339 15.6792 5.20467ZM14.7889 6.095L13.0569 7.82701C14.1006 9.29151 13.9655 11.3378 12.6516 12.6517C11.3377 13.9656 9.29142 14.1007 7.82692 13.057L6.27017 14.6137C7.33113 15.2192 8.57268 15.6251 9.99999 15.6251C12.6761 15.6251 14.71 14.1939 16.1056 12.6986C16.8005 11.9541 17.3234 11.2073 17.6725 10.6464C17.8375 10.3811 17.9628 10.1588 18.0481 10C18.0202 9.94799 17.9879 9.8891 17.9513 9.82408C17.7909 9.53872 17.5483 9.13687 17.2242 8.67893C16.6529 7.87172 15.8395 6.90642 14.7889 6.095ZM8.72983 12.1541C9.68852 12.7203 10.944 12.5915 11.7677 11.7678C12.5914 10.9441 12.7202 9.68862 12.154 8.72993L8.72983 12.1541ZM1.95183 10.0001C2.03716 9.84126 2.16242 9.61898 2.32749 9.35368C2.67651 8.79277 3.19948 8.04603 3.89437 7.30151C5.28998 5.80621 7.32384 4.37506 9.99996 4.37506C11.0523 4.37506 12.0007 4.59538 12.8492 4.95137L13.3328 3.79871C12.3442 3.38394 11.2319 3.12506 9.99996 3.12506C6.84275 3.12506 4.5016 4.81891 2.98055 6.44861C2.2171 7.26659 1.64633 8.08234 1.26617 8.69331C1.07572 8.99939 0.932109 9.25569 0.835206 9.43739C0.786732 9.52828 0.749875 9.60063 0.724624 9.65135C0.711997 9.67672 0.702266 9.69669 0.69543 9.71089L0.687343 9.72779L0.684927 9.73291L0.684125 9.73462L0.683825 9.73526C0.683704 9.73552 0.683594 9.73576 1.24996 10.0001L0.683594 9.73576V10.2644L1.24996 10.0001C0.683594 10.2644 0.68365 10.2645 0.683709 10.2646L0.683843 10.2649L0.68417 10.2656L0.685054 10.2675L0.687748 10.2732L0.696838 10.2922C0.704543 10.3081 0.715542 10.3306 0.729838 10.3592C0.758424 10.4164 0.800223 10.4979 0.855249 10.6001C0.96524 10.8044 1.12844 11.0918 1.34501 11.4321C1.77716 12.1112 2.42704 13.0093 3.29737 13.8795L4.18121 12.9956C3.39198 12.2064 2.7972 11.3858 2.39957 10.761C2.20125 10.4493 2.05329 10.1885 1.95583 10.0075L1.95183 10.0001ZM7.49996 10.0001C7.49996 8.61935 8.61925 7.50006 9.99996 7.50006V6.25006C7.92889 6.25006 6.24996 7.92899 6.24996 10.0001H7.49996Z" fill="#BCCBD6"/>
</svg>
