<svg id="97584979" viewBox="0 0 31 13" xmlns="http://www.w3.org/2000/svg" xmlns:xlink="http://www.w3.org/1999/xlink"><g transform="matrix(1,0,0,1,0,0)"><g id="97584979" opacity="1" style="mix-blend-mode:normal"><g><g><g transform="matrix(1,0,0,1,0,4)"><g id="97584980" opacity="1" style="mix-blend-mode:normal"><g><g><path id="97584980_fill_path" d="M5,2.5c0,1.38071 -1.11929,2.5 -2.5,2.5c-1.38071,0 -2.5,-1.11929 -2.5,-2.5c0,-1.38071 1.11929,-2.5 2.5,-2.5c1.38071,0 2.5,1.11929 2.5,2.5z" fill-rule="nonzero" fill="rgb(17, 27, 36)" fill-opacity="1" style="mix-blend-mode:NORMAL"></path></g></g></g></g><g transform="matrix(1,0,0,1,13,4)"><g id="97584981" opacity="1" style="mix-blend-mode:normal"><g><g><path id="97584981_fill_path" d="M5,2.5c0,1.38071 -1.11929,2.5 -2.5,2.5c-1.38071,0 -2.5,-1.11929 -2.5,-2.5c0,-1.38071 1.11929,-2.5 2.5,-2.5c1.38071,0 2.5,1.11929 2.5,2.5z" fill-rule="nonzero" fill="rgb(17, 27, 36)" fill-opacity="1" style="mix-blend-mode:NORMAL"></path></g></g></g></g><g transform="matrix(1,0,0,1,26,4)"><g id="97584982" opacity="1" style="mix-blend-mode:normal"><g><g><path id="97584982_fill_path" d="M5,2.5c0,1.38071 -1.11929,2.5 -2.5,2.5c-1.38071,0 -2.5,-1.11929 -2.5,-2.5c0,-1.38071 1.11929,-2.5 2.5,-2.5c1.38071,0 2.5,1.11929 2.5,2.5z" fill-rule="nonzero" fill="rgb(17, 27, 36)" fill-opacity="1" style="mix-blend-mode:NORMAL"></path></g></g></g></g></g></g></g></g><animateTransform href="#97584980" attributeName="transform" type="translate" values="0 0;0 -3.65;0 0;0 0" dur="1.2s" repeatCount="indefinite" calcMode="spline" keyTimes="0;0.17;0.33;1" keySplines="0.42 0 0.48 1;0.42 0 0.48 1;0.5 0.35 0.48 1" additive="sum" fill="freeze"></animateTransform><animateTransform href="#97584981" attributeName="transform" type="translate" values="0 0;0 0;0 -3.65;0 0;0 0" dur="1.2s" repeatCount="indefinite" calcMode="spline" keyTimes="0;0.25;0.42;0.58;1" keySplines="0.42 0 0.15 1;0.42 0 0.48 1;0.42 0 0.48 1;0.5 0.35 0.48 1" additive="sum" fill="freeze"></animateTransform><animateTransform href="#97584982" attributeName="transform" type="translate" values="0 0;0 0;0 -3.65;0 0;0 0" dur="1.2s" repeatCount="indefinite" calcMode="spline" keyTimes="0;0.5;0.67;0.83;1" keySplines="0.42 0 0.15 1;0.42 0 0.48 1;0.42 0 0.48 1;0.5 0.35 0.48 1" additive="sum" fill="freeze"></animateTransform></svg>