<svg width="16" height="14" viewBox="0 0 16 14" fill="none" xmlns="http://www.w3.org/2000/svg"><path d="M7.04729 0.808984L0.821115 12.1715C0.427365 12.8816 0.951193 13.75 1.77385 13.75H14.2297C15.0489 13.75 15.5727 12.8816 15.1824 12.1715L8.95276 0.808984C8.54143 0.0636719 7.45861 0.0636719 7.04729 0.808984ZM8.61877 5.52344L8.49221 9.8125H7.50783L7.38127 5.52344H8.61877ZM8.00002 12.1469C7.62385 12.1469 7.32854 11.8621 7.32854 11.5C7.32854 11.1379 7.62385 10.8531 8.00002 10.8531C8.37619 10.8531 8.67151 11.1379 8.67151 11.5C8.67151 11.8621 8.37619 12.1469 8.00002 12.1469Z" fill="#FF5858"/></svg>
