<svg width="741" height="459" viewBox="0 0 741 459" fill="none" xmlns="http://www.w3.org/2000/svg">
<path d="M84.0337 430.927L99.8101 363.699M84.0337 430.927L68.2573 457.486M84.0337 430.927L104.792 420.968M99.8101 363.699L127.211 290.661M99.8101 363.699L176.201 280.702M99.8101 363.699L140.497 347.1M99.8101 363.699L104.792 420.968M127.211 290.661V240.863M127.211 290.661L176.201 280.702M127.211 240.863L74.9 230.073M127.211 240.863L69.0876 206.834M127.211 240.863L126.381 206.004M74.9 230.073L38.3652 276.552M74.9 230.073L40.8562 259.122M74.9 230.073L69.0876 206.834M38.3652 276.552L1 270.742L40.8562 259.122M38.3652 276.552L40.8562 259.122M40.8562 259.122L69.0876 206.834M69.0876 206.834L126.381 206.004M126.381 206.004L157.934 171.975M126.381 206.004L176.201 280.702M157.934 171.975L235.155 146.246M157.934 171.975L176.201 280.702M235.155 146.246L397.901 10.9597M235.155 146.246L176.201 280.702M235.155 146.246L237.048 274.892M235.155 146.246L282.302 241.693M235.155 146.246L386.276 124.666M235.155 146.246L371.33 225.923M397.901 10.9597L448.552 1M397.901 10.9597L386.276 124.666M397.901 10.9597L533.777 182.067M448.552 1L537.398 46.6486M448.552 1L533.777 182.067M448.552 1L547.362 119.686M537.398 46.6486H539.058M537.398 46.6486L547.362 119.686M537.398 46.6486L631.226 113.047M539.058 46.6486L598.843 51.6285M539.058 46.6486L629.565 73.2078M598.843 51.6285L666.93 4.3199M598.843 51.6285L629.565 73.2078M598.843 51.6285L670.252 15.9396M666.93 4.3199L721.733 1L670.252 15.9396M666.93 4.3199L670.252 15.9396M670.252 15.9396L629.565 73.2078M629.565 73.2078L642.02 85.6575M629.565 73.2078L609.059 93.3231M642.02 85.6575L690.18 79.0177L730.866 43.3287M642.02 85.6575L609.059 93.3231M730.866 43.3287L738.339 22.5794L740 47.877M730.866 43.3287L704.777 91.3179M730.866 43.3287L740 47.877M740 47.877L704.777 91.3179M704.777 91.3179L652.914 104.432M704.777 91.3179L609.059 93.3231M652.914 104.432L664.456 140.436M652.914 104.432L631.226 113.047M664.456 140.436L668.591 231.733L627.689 250.906M664.456 140.436L631.226 113.047M664.456 140.436L627.689 250.906M627.689 250.906L558.372 207.465M627.689 250.906L631.226 113.047M558.372 207.465L533.777 182.067M558.372 207.465L631.226 113.047M558.372 207.465L547.362 119.686M533.777 182.067L530.988 215.997M533.777 182.067L386.276 124.666M533.777 182.067L371.33 225.923M533.777 182.067L461.007 215.964M533.777 182.067L547.362 119.686M530.988 215.997L486.515 285.582M530.988 215.997L461.007 215.964M486.515 285.582L429.72 310.299M486.515 285.582L461.007 215.964M486.515 285.582L446.891 278.212M429.72 310.299L395.41 332.16M429.72 310.299L446.891 278.212M395.41 332.16L405.374 280.702L446.891 278.212M395.41 332.16L446.891 278.212M446.891 278.212L461.007 215.964M461.007 215.964L372.991 256.632M461.007 215.964L371.33 225.923M372.991 256.632L282.302 241.693M372.991 256.632L371.33 225.923M282.302 241.693L237.048 274.892M282.302 241.693L371.33 225.923M237.048 274.892L210.245 318.881M237.048 274.892L176.201 280.702M210.245 318.881L140.497 347.1M210.245 318.881L176.201 280.702M140.497 347.1L104.792 420.968M104.792 420.968L110.604 448.357L68.2573 457.486M104.792 420.968L68.2573 457.486M386.276 124.666L371.33 225.923M547.362 119.686L631.226 113.047" stroke="url(#paint0_linear)" stroke-width="1.35"/>
<defs>
<linearGradient id="paint0_linear" x1="0.999991" y1="457.189" x2="739.656" y2="0.712136" gradientUnits="userSpaceOnUse">
<stop stop-color="#1348E4"/>
<stop offset="1" stop-color="#6DC7F7"/>
</linearGradient>
</defs>
</svg>
