<svg width="660" height="211" xmlns="http://www.w3.org/2000/svg" xmlns:xlink="http://www.w3.org/1999/xlink">
  <defs>
    <filter x="-56.8%" y="-92.2%" width="214.2%" height="284.4%" filterUnits="objectBoundingBox" id="a">
      <feOffset dy="32" in="SourceAlpha" result="shadowOffsetOuter1"/>
      <feGaussianBlur stdDeviation="16.5" in="shadowOffsetOuter1" result="shadowBlurOuter1"/>
      <feColorMatrix values="0 0 0 0 0 0 0 0 0 0 0 0 0 0 0 0 0 0 0.1 0" in="shadowBlurOuter1" result="shadowMatrixOuter1"/>
      <feMerge>
        <feMergeNode in="shadowMatrixOuter1"/>
        <feMergeNode in="SourceGraphic"/>
      </feMerge>
    </filter>
    <filter x="-79.4%" y="-88.8%" width="259.4%" height="278.3%" filterUnits="objectBoundingBox" id="b">
      <feOffset dy="32" in="SourceAlpha" result="shadowOffsetOuter1"/>
      <feGaussianBlur stdDeviation="17" in="shadowOffsetOuter1" result="shadowBlurOuter1"/>
      <feColorMatrix values="0 0 0 0 0 0 0 0 0 0 0 0 0 0 0 0 0 0 0.1 0" in="shadowBlurOuter1" result="shadowMatrixOuter1"/>
      <feMerge>
        <feMergeNode in="shadowMatrixOuter1"/>
        <feMergeNode in="SourceGraphic"/>
      </feMerge>
    </filter>
    <linearGradient x1="50%" y1="100%" x2="68.678%" y2="0%" id="e">
      <stop stop-color="#4E87D4" offset="0%"/>
      <stop stop-color="#252E6A" offset="100%"/>
    </linearGradient>
    <path d="M32 5.333c14.667 0 26.667 12 26.667 26.667 0 14.667-12 26.667-26.667 26.667-14.667 0-26.667-12-26.667-26.667 0-14.667 12-26.667 26.667-26.667zM32 0C14.4 0 0 14.4 0 32s14.4 32 32 32 32-14.4 32-32S49.6 0 32 0z" id="d"/>
    <filter x="-171.9%" y="-85.9%" width="443.8%" height="443.8%" filterUnits="objectBoundingBox" id="c">
      <feOffset dy="55" in="SourceAlpha" result="shadowOffsetOuter1"/>
      <feGaussianBlur stdDeviation="27.5" in="shadowOffsetOuter1" result="shadowBlurOuter1"/>
      <feColorMatrix values="0 0 0 0 0 0 0 0 0 0 0 0 0 0 0 0 0 0 0.1 0" in="shadowBlurOuter1"/>
    </filter>
    <path id="g" d="M27.467 36.267l-6.934-6.934-3.733 3.734 10.667 10.666 20-19.733-3.734-3.733z"/>
    <filter x="-358.7%" y="-234.4%" width="817.4%" height="1037.5%" filterUnits="objectBoundingBox" id="f">
      <feOffset dy="55" in="SourceAlpha" result="shadowOffsetOuter1"/>
      <feGaussianBlur stdDeviation="27.5" in="shadowOffsetOuter1" result="shadowBlurOuter1"/>
      <feColorMatrix values="0 0 0 0 0 0 0 0 0 0 0 0 0 0 0 0 0 0 0.1 0" in="shadowBlurOuter1"/>
    </filter>
  </defs>
  <g fill="none" fill-rule="evenodd">
    <g transform="translate(59 -8)">
      <circle cx="80" cy="80" r="80"/>
      <g filter="url(#a)" transform="translate(-33 14)" fill-rule="nonzero">
        <path fill="#313A62" d="M219 14.003l-.443-7.345-2.165 6.121-12.205 10.626-13.977 2.155-4.183-4.016L198.232 4.7 210.83.978l-13.583.294-19.735 14.25-18.504-1.323 18.553 12.634 9.154 6.414-27.855-19.488L132.975.979 117.62 4.013 69.736 43.677l-23.032 7.394-9.499 9.647-17.027.195-8.367 15.572L0 79.864l11.171 1.566 10.385-13.955 15.994 3.33-.246 14.886-8.022 21.496-4.577 19.88L19.784 135l12.5-2.742-1.427-8.129 10.58-21.839 20.523-8.177 7.923-13.074 13.386-9.745 26.526 3.918 26.822-11.703-4.577 18.46-11.91 1.077-3.396 15.229 10.237-6.806 16.83-7.296 13.24-20.566.787-9.794 7.136 7.345 20.62 12.83 11.664-5.485-.69-27.274-3.346-10.528 15.306-3.82z"/>
        <path fill="#3F4B80" d="M186.175 21.62l-9.006-6.506L198.232 4.55z"/>
        <path fill="#313A62" d="M132.63.196l26.231 13.402 3.15 21.62z"/>
        <path fill="#3F4B80" d="M162.01 35.217l-4.182 18.392L132.63.196z"/>
        <path fill="#4B5897" d="M157.828 53.609l-40.159-50.38L132.68.292z"/>
        <path fill="#5161A4" d="M157.828 53.609l-43.554-16.924 3.395-33.457z"/>
        <path fill="#4B5897" d="M117.67 3.228l-3.396 33.457-44.883 6.26z"/>
        <path fill="#4B5897" d="M157.828 53.609L109.795 66.57l4.479-29.886z"/>
        <path fill="#3F4B80" d="M109.795 66.57l48.033-12.961-21.654 10.027zM83.27 71.07l26.525-4.5.443 9z"/>
        <path fill="#313A62" d="M110.238 75.57l-.443-9 26.379-2.934z"/>
        <path fill="#3F4B80" d="M69.391 42.946l44.883-6.261-4.479 29.886z"/>
        <path fill="#4B5897" d="M69.391 42.946l40.404 23.625-26.526 4.5z"/>
        <path fill="#313A62" d="M69.391 42.946L83.269 71.07l-13.386 9.733z"/>
        <path fill="#5161A4" d="M46.605 50.527l5.364 32.038-14.764-22.06z"/>
        <path fill="#313A62" d="M20.178 60.701l17.027-.196.099 10.321z"/>
        <path fill="#3F4B80" d="M21.556 67.696L20.178 60.7l17.126 10.125z"/>
        <path fill="#4B5897" d="M21.556 67.696l-9.745 8.56L20.178 60.7z"/>
        <path fill="#313A62" d="M11.811 76.255l-.689 5.185L0 79.63z"/>
        <path fill="#5161A4" d="M11.811 76.255l9.745-8.56L11.122 81.44z"/>
        <path fill="#3F4B80" d="M37.205 60.505l14.764 22.06-14.665 2.886zM41.536 101.886l-10.68 21.962-1.574-16.924z"/>
        <path fill="#1F243E" d="M29.282 106.924l1.575 16.924-6.152 2.935z"/>
        <path fill="#3F4B80" d="M30.857 123.848l1.624 8.266-12.697 2.593z"/>
        <path fill="#313A62" d="M24.705 126.783l6.152-2.935-11.073 10.859zM37.304 85.451l14.665-2.886-22.687 24.359z"/>
        <path fill="#4B5897" d="M51.97 82.565l9.99 11.3-32.678 13.059zM46.605 50.527l22.786-7.581-17.422 39.62z"/>
        <path fill="#3F4B80" d="M51.97 82.565l17.421-39.62.492 37.86z"/>
        <path fill="#313A62" d="M61.96 93.864l-9.99-11.299 17.913-1.76z"/>
        <path fill="#4B5897" d="M136.174 63.636l21.112-.147-13.484 20.446z"/>
        <path fill="#5161A4" d="M136.174 63.636l21.654-10.027-.542 9.88z"/>
        <path fill="#3F4B80" d="M132.04 81.734l4.134-18.098 7.628 20.299z"/>
        <path fill="#4B5897" d="M126.97 91.223l5.07-9.49 11.762 2.202z"/>
        <path fill="#3F4B80" d="M116.734 98.022l3.2-15.555 12.106-.733z"/>
        <path fill="#313A62" d="M116.734 98.022l15.306-16.288-5.07 9.489z"/>
        <path fill="#495692" d="M177.169 15.114l20.079-13.989.984 3.424z"/>
        <path fill="#5D6CAC" d="M197.248 1.125l16.437-.832-15.453 4.256z"/>
        <path fill="#4F60A3" d="M186.716 33.065l-9.154-6.407 30.956.049z"/>
        <path fill="#495692" d="M177.562 26.658l26.625-3.424 4.33 3.473z"/>
        <path fill="#3F4B80" d="M204.187 23.234l12.205-10.614-7.874 14.087z"/>
        <path fill="#4F60A3" d="M208.518 26.707l7.874-14.087L219 13.842z"/>
        <path fill="#313A62" d="M216.392 12.62l2.165-6.115.443 7.337zM162.01 35.217l2.954 25.729-7.136-7.337z"/>
        <path fill="#3F4B80" d="M164.964 60.946l-2.953-25.729 24.705-2.152z"/>
        <path fill="#4B5897" d="M186.716 33.065l-24.705 2.152-3.15-21.62z"/>
        <path fill="#313A62" d="M186.175 21.62l3.986 3.57-12.599 1.468z"/>
        <path fill="#3F4B80" d="M158.861 13.598l27.314 8.022-8.613 5.038z"/>
        <path fill="#313A62" d="M158.861 13.598l18.308 1.516 9.006 6.506z"/>
        <path fill="#3F4B80" d="M185.584 73.76l1.132-40.695 9.843 7.973z"/>
        <path fill="#495692" d="M185.584 73.76l1.132-40.695-21.752 27.88z"/>
        <path fill="#313A62" d="M196.559 41.038l-3.15-10.174-6.693 2.201zM197.887 68.136l-12.303 5.625 10.975-32.723z"/>
      </g>
    </g>
    <g transform="translate(467 -8)">
      <circle cx="80" cy="80" r="80"/>
      <g filter="url(#b)" transform="translate(1 8)">
        <path fill="#CDBDB2" d="M46.024 131.11l20.882 5.533v-7.236l1.704-1.703h11.932v14.474H67.758l-15.768-6.812z"/>
        <path fill="#CDBDB2" d="M114.208 131.11l-20.455 5.533v-7.236l-1.705-1.703H80.116v14.474h12.785l15.767-6.812z"/>
        <path fill="#393939" d="M68.61 115.36l-1.704 14.047 2.13-1.703h22.16l2.557 1.703-1.705-14.048-3.409-2.128-17.046.426z"/>
        <path fill="#F89C35" d="M57.104 20.433L67.332 44.27l4.687 69.386h16.62l5.114-69.386 9.375-23.838z"/>
        <path fill="#F89D35" d="M12.358 72.791L.426 107.271l29.83-1.702h19.177v-14.9l-.852-30.648-4.261 3.405z"/>
        <path fill="#D87C30" d="M34.944 76.622l34.945.852-3.836 17.878-16.62-4.256z"/>
        <path fill="#EA8D3A" d="M34.944 77.048l14.49 13.622v13.622z"/>
        <path fill="#F89D35" d="M49.433 91.096l17.046 4.256 5.54 18.305-3.835 2.128-18.75-11.068z"/>
        <path fill="#EB8F35" d="M49.433 104.717l-3.409 26.392 22.586-15.75z"/>
        <path fill="#EA8E3A" d="M69.889 77.474l2.13 36.183-6.392-18.517z"/>
        <path fill="#D87C30" d="M29.83 105.143l19.603-.426-3.409 26.392z"/>
        <path fill="#EB8F35" d="M9.801 142.603l36.223-11.494-16.193-25.966-29.405 2.128z"/>
        <path fill="#E8821E" d="M67.332 44.27L49.007 59.596 34.944 76.622 69.89 77.9z"/>
        <path fill="#DFCEC3" d="M46.024 131.11l22.586-15.75-1.704 13.621v7.662l-15.342-2.98zM114.208 131.11l-22.16-15.75 1.705 13.621v7.662l15.341-2.98z"/>
        <path fill="#393939" d="M60.513 85.136l4.688 9.79-16.62-4.256z"/>
        <path fill="#E88F35" d="M9.375.426L67.332 44.27 57.53 20.433z"/>
        <path d="M9.375.426l-7.67 23.412 4.261 25.54-2.983 1.704 4.262 3.83-3.41 2.98 4.688 4.257-2.983 2.554 6.818 8.514 31.962-9.79C59.945 50.94 67.616 44.554 67.332 44.27c-.284-.284-19.603-14.9-57.957-43.845z" fill="#8E5A30"/>
        <g>
          <path fill="#F89D35" d="M147.874 72.791l11.932 34.48-29.83-1.702h-19.177v-14.9l.852-30.648 4.262 3.405z"/>
          <path fill="#D87C30" d="M125.288 76.622l-34.944.852 3.835 17.878 16.62-4.256z"/>
          <path fill="#EA8D3A" d="M125.288 77.048L110.8 90.67v13.622z"/>
          <path fill="#F89D35" d="M110.799 91.096l-17.046 4.256-5.54 18.305 3.835 2.128 18.751-11.068z"/>
          <path fill="#EB8F35" d="M110.799 104.717l3.41 26.392-22.16-15.324z"/>
          <path fill="#EA8E3A" d="M90.344 77.474l-2.13 36.183 6.391-18.517z"/>
          <path fill="#D87C30" d="M130.402 105.143l-19.603-.426 3.41 26.392z"/>
          <path fill="#EB8F35" d="M150.431 142.603l-36.223-11.494 16.194-25.966 29.404 2.128z"/>
          <path fill="#E8821E" d="M92.9 44.27l18.325 15.325 14.063 17.027L90.344 77.9z"/>
          <path fill="#393939" d="M99.72 85.136l-4.689 9.79 16.62-4.256z"/>
          <path fill="#E88F35" d="M150.857.426L92.901 44.27l9.801-23.838z"/>
          <path d="M150.857.426l7.67 23.412-4.26 25.54 2.982 1.704-4.261 3.83 3.41 2.98-4.689 4.257 2.983 2.554-6.818 8.514-31.961-9.79C100.287 50.94 92.617 44.554 92.9 44.27c.284-.284 19.603-14.9 57.956-43.845z" fill="#8E5A30"/>
        </g>
      </g>
    </g>
    <g fill="#8C9BA5" fill-opacity=".4">
      <path d="M401 68a4 4 0 1 1 0 8 4 4 0 1 1 0-8zM421 68a4 4 0 1 1 0 8 4 4 0 1 1 0-8zM441 68a4 4 0 1 1 0 8 4 4 0 1 1 0-8z"/>
    </g>
    <g fill="#8C9BA5" fill-opacity=".4">
      <path d="M245 68a4 4 0 1 1 0 8 4 4 0 1 1 0-8zM265 68a4 4 0 1 1 0 8 4 4 0 1 1 0-8zM285 68a4 4 0 1 1 0 8 4 4 0 1 1 0-8z"/>
    </g>
    <g transform="translate(311 40)">
      <use fill="#000" filter="url(#c)" xlink:href="#d"/>
      <use fill="#FFF" xlink:href="#d"/>
      <use fill="url(#e)" xlink:href="#d"/>
      <use fill="#00AA5E" xlink:href="#d"/>
    </g>
    <g transform="translate(311 40)">
      <use fill="#000" filter="url(#f)" xlink:href="#g"/>
      <use fill="#FFF" xlink:href="#g"/>
      <use fill="url(#e)" xlink:href="#g"/>
      <use fill="#00AA5E" xlink:href="#g"/>
    </g>
  </g>
</svg>