<?xml version="1.0" encoding="UTF-8"?>
<svg width="188" height="18" viewBox="0 0 188 18" fill="none" xmlns="http://www.w3.org/2000/svg">
<path d="M3.81002 8.92361H6.81802C8.72308 8.92361 9.82601 7.82071 9.82601 6.31671C9.82601 4.61218 8.62281 3.70977 6.71774 3.70977H3.81002H-0.00012207V0.30072H7.01853C11.1295 0.30072 13.6361 2.70711 13.6361 6.21644C13.6361 10.2271 10.5279 12.2324 6.71774 12.2324H3.81002V17.346H-0.00012207V8.82337L3.81002 8.92361Z" fill="#1348E4"/>
<path d="M21.8582 8.92371C21.8582 4.01065 25.6683 0 30.9824 0C36.2965 0 40.1066 3.91041 40.1066 8.82347C40.1066 13.7365 36.2965 17.7472 30.9824 17.7472C25.6683 17.7472 21.8582 13.8368 21.8582 8.92371ZM36.1962 8.92371C36.1962 5.91572 33.9904 3.50933 30.9824 3.50933C27.9744 3.50933 25.8688 5.91574 25.8688 8.82347C25.8688 11.7312 28.0747 14.2379 31.0827 14.2379C34.0906 14.2379 36.1962 11.8314 36.1962 8.92371Z" fill="#1348E4"/>
<path d="M50.9355 0.30072H54.7457V14.0372H63.3686V17.4463H51.0358V0.30072H50.9355Z" fill="#1348E4"/>
<path d="M77.105 10.7284L70.4874 0.30072H74.8991L79.0101 7.2191L83.2212 0.30072H87.5327L80.9151 10.6282V17.4463H77.105V10.7284Z" fill="#1348E4"/>
<path d="M97.2584 0.30072H101.369L105.881 7.62016L110.393 0.30072H114.504V17.5465H110.794V6.31671L105.982 13.6361H105.881L101.069 6.31671V17.4463H97.3587V0.30072H97.2584Z" fill="#1348E4"/>
<path d="M135.661 10.3274L133.355 4.71245L131.048 10.3274L129.745 13.6362L128.141 17.4463H124.331L131.75 0.100189H135.26L142.679 17.4463H138.568L136.964 13.6362L135.661 10.3274Z" fill="#1348E4"/>
<path d="M154.411 3.81005H149.197V0.30072H163.435V3.81005H158.221V17.5465H154.411V3.81005Z" fill="#1348E4"/>
<path d="M173.361 0.30072H177.171V7.11883H184.19V0.30072H188V17.5465H184.19V10.6282H177.171V17.5465H173.361V0.30072Z" fill="#1348E4"/>
</svg>
