<svg width="40" height="40" viewBox="0 0 40 40" fill="none" xmlns="http://www.w3.org/2000/svg">
<path d="M27.8096 12.8197C26.3532 12.1448 24.7959 11.6543 23.1677 11.375C22.9678 11.733 22.7342 12.2146 22.5731 12.5977C20.8423 12.3399 19.1275 12.3399 17.4286 12.5977C17.2676 12.2146 17.0286 11.733 16.8269 11.375C15.197 11.6543 13.6379 12.1466 12.1814 12.8233C9.24373 17.2199 8.44736 21.5073 8.84555 25.7339C10.794 27.175 12.6823 28.0504 14.5387 28.6232C14.997 27.9985 15.4058 27.3343 15.758 26.6344C15.0873 26.3819 14.4449 26.0705 13.8379 25.7088C13.9989 25.5907 14.1564 25.4672 14.3086 25.3401C18.0108 27.055 22.0333 27.055 25.6913 25.3401C25.8453 25.4672 26.0028 25.5907 26.162 25.7088C25.5533 26.0722 24.9091 26.3837 24.2384 26.6362C24.5906 27.3343 24.9976 28.0003 25.4577 28.625C27.3159 28.0522 29.2059 27.1768 31.1544 25.7339C31.6216 20.8342 30.3562 16.5862 27.8096 12.8197ZM16.2624 23.1346C15.151 23.1346 14.2396 22.107 14.2396 20.8557C14.2396 19.6044 15.1315 18.575 16.2624 18.575C17.3932 18.575 18.3046 19.6026 18.2851 20.8557C18.2869 22.107 17.3932 23.1346 16.2624 23.1346ZM23.7376 23.1346C22.6262 23.1346 21.7148 22.107 21.7148 20.8557C21.7148 19.6044 22.6067 18.575 23.7376 18.575C24.8684 18.575 25.7798 19.6026 25.7603 20.8557C25.7603 22.107 24.8684 23.1346 23.7376 23.1346Z" fill="black"/>
</svg>
