<svg width="40" height="40" viewBox="0 0 40 40" fill="none" xmlns="http://www.w3.org/2000/svg">
<g clip-path="url(#clip0_196_983)">
<path fill-rule="evenodd" clip-rule="evenodd" d="M19.9642 8C13.3483 8 8 13.5 8 20.3042C8 25.7432 11.4269 30.3472 16.1808 31.9767C16.7752 32.0992 16.9929 31.712 16.9929 31.3862C16.9929 31.101 16.9733 30.1232 16.9733 29.1045C13.6451 29.838 12.9521 27.6378 12.9521 27.6378C12.4172 26.2118 11.6247 25.8452 11.6247 25.8452C10.5354 25.0915 11.7041 25.0915 11.7041 25.0915C12.9124 25.173 13.5464 26.3545 13.5464 26.3545C14.6159 28.2285 16.3393 27.699 17.0326 27.373C17.1315 26.5785 17.4487 26.0285 17.7854 25.723C15.1309 25.4377 12.3381 24.3785 12.3381 19.6523C12.3381 18.3078 12.8132 17.2078 13.566 16.3523C13.4473 16.0468 13.0312 14.7835 13.6851 13.0928C13.6851 13.0928 14.6953 12.7668 16.9731 14.3558C17.9483 14.0864 18.954 13.9494 19.9642 13.9482C20.9744 13.9482 22.0042 14.091 22.9552 14.3558C25.2332 12.7668 26.2434 13.0928 26.2434 13.0928C26.8973 14.7835 26.481 16.0468 26.3622 16.3523C27.1349 17.2078 27.5904 18.3078 27.5904 19.6523C27.5904 24.3785 24.7976 25.4172 22.1233 25.723C22.5592 26.11 22.9353 26.8433 22.9353 28.0045C22.9353 29.6545 22.9158 30.9788 22.9158 31.386C22.9158 31.712 23.1337 32.0992 23.7278 31.977C28.4818 30.347 31.9087 25.7432 31.9087 20.3042C31.9282 13.5 26.5603 8 19.9642 8Z" fill="black"/>
</g>
<defs>
<clipPath id="clip0_196_983">
<rect width="24" height="24" fill="white" transform="translate(8 8)"/>
</clipPath>
</defs>
</svg>
