<svg width="40" height="40" viewBox="0 0 40 40" fill="none" xmlns="http://www.w3.org/2000/svg">
<path d="M31.25 19.4227C31.25 18.0984 30.1428 17.0236 28.7786 17.0236C28.1063 17.0236 27.5132 17.2731 27.0782 17.6954C25.3976 16.5246 23.0646 15.7569 20.4943 15.6609L21.6213 10.5364L25.279 11.2849C25.3185 12.187 26.0896 12.9163 27.0387 12.9163C28.0075 12.9163 28.7983 12.1486 28.7983 11.2082C28.7983 10.2677 28.0075 9.5 27.0387 9.5C26.3467 9.5 25.7535 9.88386 25.4767 10.4596L21.384 9.61516C21.2654 9.59597 21.1468 9.61516 21.0479 9.67274C20.949 9.73032 20.8897 9.82628 20.8502 9.94144L19.6046 15.6609C16.975 15.7377 14.6221 16.4862 12.9218 17.6954C12.4868 17.2923 11.8739 17.0236 11.2214 17.0236C9.85721 17.0236 8.75 18.0984 8.75 19.4227C8.75 20.4016 9.34315 21.2269 10.2131 21.6107C10.1736 21.841 10.1538 22.0906 10.1538 22.3401C10.1538 26.0251 14.5628 29 20.0198 29C25.4767 29 29.8858 26.0251 29.8858 22.3401C29.8858 22.0906 29.866 21.8602 29.8265 21.6299C30.6371 21.2461 31.25 20.4016 31.25 19.4227ZM14.3453 21.1309C14.3453 20.1905 15.1362 19.4227 16.105 19.4227C17.0738 19.4227 17.8647 20.1905 17.8647 21.1309C17.8647 22.0714 17.0738 22.8391 16.105 22.8391C15.1362 22.8391 14.3453 22.0714 14.3453 21.1309ZM24.1718 25.6412C22.9657 26.812 20.6722 26.8888 20 26.8888C19.3278 26.8888 17.0145 26.7928 15.8282 25.6412C15.6503 25.4685 15.6503 25.1806 15.8282 25.0079C16.0062 24.8351 16.3027 24.8351 16.4807 25.0079C17.232 25.7372 18.8533 26.0059 20.0198 26.0059C21.1863 26.0059 22.7878 25.7372 23.5589 25.0079C23.7368 24.8351 24.0334 24.8351 24.2113 25.0079C24.3497 25.1998 24.3497 25.4685 24.1718 25.6412ZM23.8554 22.8391C22.8866 22.8391 22.0958 22.0714 22.0958 21.1309C22.0958 20.1905 22.8866 19.4227 23.8554 19.4227C24.8243 19.4227 25.6151 20.1905 25.6151 21.1309C25.6151 22.0714 24.8243 22.8391 23.8554 22.8391Z" fill="black"/>
</svg>
