<svg width="40" height="40" viewBox="0 0 40 40" fill="none" xmlns="http://www.w3.org/2000/svg">
<g clip-path="url(#clip0_196_986)">
<path fill-rule="evenodd" clip-rule="evenodd" d="M29.3764 12.4903C30.4096 12.7605 31.2217 13.5538 31.4982 14.5632C31.9981 16.391 32.0001 20.2069 32.0001 20.2069C32.0001 20.2069 32.0001 24.0228 31.4982 25.8506C31.2217 26.8601 30.4096 27.6533 29.3764 27.9235C27.5055 28.4138 20 28.4138 20 28.4138C20 28.4138 12.4946 28.4138 10.6236 27.9235C9.59039 27.6533 8.7784 26.8601 8.50181 25.8506C8 24.0228 8 20.2069 8 20.2069C8 20.2069 8 16.391 8.50181 14.5632C8.7784 13.5538 9.59039 12.7605 10.6236 12.4903C12.4946 12 20 12 20 12C20 12 27.5055 12 29.3764 12.4903ZM23.8329 20.2072L17.5978 23.7239V16.6905L23.8329 20.2072Z" fill="black"/>
</g>
<defs>
<clipPath id="clip0_196_986">
<rect width="24" height="16.4138" fill="white" transform="translate(8 12)"/>
</clipPath>
</defs>
</svg>
