<svg height="300" viewBox="0 0 300 300" width="300" xmlns="http://www.w3.org/2000/svg"><g fill="none"><circle cx="150" cy="150" fill="#fff" r="149"/><path d="m150 0c-82.8 0-150 67.2-150 150s67.2 150 150 150 150-67.2 150-150-67.2-150-150-150z" fill="#b026cf"/><g fill="#fff" transform="translate(84.2 45)"><path d="m68.8 114.1s-9.7 20-55.6 60.9z"/><path d="m68.8 132.8s-8.1 26.2-60 50.3z"/><path d="m68.8 151.3s-6.6 27.5-64.4 39.4z"/><path d="m68.8 170s-5 28.8-68.8 28.8z"/><path d="m68.8 95.6s-11.3 23.4-51.2 71.9l51.2-71.9c.3 0 11.3 23.4 51.2 71.9z"/><path d="m68.8 114.1s9.7 20 55.6 60.9z"/><path d="m68.8 132.8s8.1 26.2 60 50.3z"/><path d="m68.8 151.3s6.6 27.5 64.4 39.4z"/><path d="m68.8 170s5 28.8 68.8 28.8z"/><path d="m67.2 74.7v-6.3c-1.8 0-3.7-.1-5.6-.3s-3.7-.5-5.4-.9-3.6-1.1-5.8-2.1v-7.7c1.8.9 3.5 1.7 5.2 2.3s3.5 1.1 5.4 1.5 4 .6 6.2.8v-22.3l-4.3-2.3c-8.1-4.3-12.2-9.6-12.2-15.8 0-3.3 1.3-6.5 4-9.6s6.8-4.9 12.4-5.4v-6.6h5.6v6.6c3.1 0 6.9.5 11.2 1.6v6.9l-1.4-.4c-4-1.1-7.3-1.8-9.8-2v21.8l4.5 2.5c4.2 2.4 7.1 4.8 8.7 7.2 1.6 2.3 2.3 4.8 2.3 7.5 0 2.4-.6 4.7-1.8 6.9s-2.9 4.1-5.1 5.7-5.1 2.7-8.6 3.3v6.8h-5.5zm0-43.3v-18.5c-2.7.6-4.8 1.6-6.2 3-1.5 1.4-2.2 3.1-2.2 5 0 1.8.6 3.5 1.9 5.1 1.2 1.7 3.4 3.5 6.5 5.4zm5.6 11.8v18.4c2.9-1 4.9-2.3 5.9-3.8s1.5-3.2 1.5-5.1c0-1.8-.5-3.4-1.5-4.7s-2.9-2.8-5.9-4.8z"/></g></g></svg>