<svg width="32" height="32" viewBox="0 0 32 32" fill="none" xmlns="http://www.w3.org/2000/svg">
<circle cx="16" cy="16" r="15" fill="white" stroke="#E0E0E0"/>
<circle cx="16" cy="16" r="15" fill="white" stroke="#E0E0E0"/>
<path d="M13.2563 20.0217V23.312C13.2563 23.6848 13.1768 24.0082 13.0179 24.2821C12.859 24.5537 12.631 24.7609 12.3339 24.9036C12.0368 25.0463 11.6855 25.1176 11.2802 25.1176C10.6675 25.1176 10.185 24.9588 9.83264 24.6412C9.48026 24.3235 9.30061 23.8885 9.2937 23.3361V20.0217H10.5132V23.3603C10.527 23.9104 10.7827 24.1854 11.2802 24.1854C11.5312 24.1854 11.7212 24.1164 11.8502 23.9783C11.9792 23.8402 12.0437 23.6158 12.0437 23.305V20.0217H13.2563Z" fill="url(#paint0_linear)"/>
<path d="M16.6108 23.7124C16.6108 23.5352 16.5475 23.3971 16.4208 23.2981C16.2964 23.1992 16.0765 23.0967 15.7609 22.9909C15.4454 22.885 15.1875 22.7826 14.9871 22.6836C14.3353 22.3637 14.0094 21.924 14.0094 21.3647C14.0094 21.0862 14.09 20.8411 14.2512 20.6293C14.4148 20.4153 14.6451 20.2496 14.9422 20.1322C15.2393 20.0125 15.5732 19.9526 15.944 19.9526C16.3056 19.9526 16.6292 20.0171 16.9148 20.146C17.2027 20.2749 17.4261 20.459 17.585 20.6984C17.744 20.9355 17.8234 21.2071 17.8234 21.5132H16.6143C16.6143 21.3083 16.5509 21.1495 16.4243 21.0367C16.2999 20.9239 16.1306 20.8676 15.9164 20.8676C15.6999 20.8676 15.5283 20.9159 15.4017 21.0126C15.2773 21.1069 15.2151 21.2278 15.2151 21.3751C15.2151 21.504 15.2842 21.6214 15.4224 21.7272C15.5606 21.8308 15.8036 21.939 16.1513 22.0518C16.4991 22.1623 16.7847 22.2819 17.0081 22.4108C17.5516 22.7239 17.8234 23.1554 17.8234 23.7055C17.8234 24.1452 17.6576 24.4904 17.3259 24.7413C16.9943 24.9922 16.5394 25.1176 15.9613 25.1176C15.5537 25.1176 15.184 25.0451 14.8524 24.9001C14.523 24.7528 14.2743 24.5526 14.1061 24.2994C13.9403 24.0439 13.8574 23.7504 13.8574 23.419H15.0735C15.0735 23.6883 15.1426 23.8874 15.2807 24.0163C15.4212 24.1429 15.6481 24.2062 15.9613 24.2062C16.1617 24.2062 16.3195 24.1636 16.4346 24.0784C16.5521 23.991 16.6108 23.869 16.6108 23.7124Z" fill="url(#paint1_linear)"/>
<path d="M18.4453 25.0486V20.0217H20.0655C20.51 20.0217 20.9096 20.123 21.2643 20.3255C21.619 20.5258 21.8954 20.81 22.0935 21.1783C22.2938 21.5443 22.3952 21.9551 22.3975 22.4108V22.6422C22.3975 23.1025 22.2996 23.5157 22.1038 23.8816C21.9104 24.2453 21.6363 24.5307 21.2816 24.7379C20.9292 24.9427 20.5354 25.0463 20.1001 25.0486H18.4453ZM19.6579 20.9573V24.1164H20.0794C20.4271 24.1164 20.6943 23.9933 20.8809 23.747C21.0674 23.4984 21.1607 23.1301 21.1607 22.6422V22.4247C21.1607 21.939 21.0674 21.573 20.8809 21.3267C20.6943 21.0805 20.4225 20.9573 20.0655 20.9573H19.6579Z" fill="url(#paint2_linear)"/>
<path fill-rule="evenodd" clip-rule="evenodd" d="M15.8688 14.2459C15.371 14.2454 14.8741 14.2869 14.3833 14.37L15.1228 13.0914C15.3721 13.0746 15.6214 13.0662 15.8688 13.0662C16.4505 13.0666 17.0312 13.113 17.6056 13.2052L14.743 8.24332L9.97511 16.5051L9.2937 15.3241L14.732 5.89684L14.743 5.91624L14.754 5.89749L21.3175 17.2743H19.9547L18.4207 14.6157C17.5928 14.3674 16.733 14.2426 15.8688 14.2453V14.2459ZM21.7392 16.5245L15.385 5.50964H16.7478L22.4206 15.3435L21.7392 16.5245ZM15.4328 10.9447L12.8235 15.4696C13.7574 15.1877 14.856 15.0617 15.8927 15.0617C15.9767 15.0617 16.0606 15.0617 16.1446 15.0649C16.7332 15.0789 17.3198 15.1398 17.8988 15.2472L18.7695 16.7566C17.8482 16.417 16.8745 16.2419 15.8927 16.2394C14.4622 16.2344 13.053 16.5863 11.7926 17.2634L11.812 17.2291L11.7855 17.2743H10.4227L14.7559 9.76368L15.4328 10.9447Z" fill="url(#paint3_linear)"/>
<defs>
<linearGradient id="paint0_linear" x1="21.6621" y1="25.1176" x2="19.2127" y2="17.3895" gradientUnits="userSpaceOnUse">
<stop stop-color="#5A81FF"/>
<stop offset="0.5238" stop-color="#E40C5B"/>
<stop offset="1" stop-color="#FF4C3B"/>
</linearGradient>
<linearGradient id="paint1_linear" x1="21.6621" y1="25.1176" x2="19.2127" y2="17.3895" gradientUnits="userSpaceOnUse">
<stop stop-color="#5A81FF"/>
<stop offset="0.5238" stop-color="#E40C5B"/>
<stop offset="1" stop-color="#FF4C3B"/>
</linearGradient>
<linearGradient id="paint2_linear" x1="21.6621" y1="25.1176" x2="19.2127" y2="17.3895" gradientUnits="userSpaceOnUse">
<stop stop-color="#5A81FF"/>
<stop offset="0.5238" stop-color="#E40C5B"/>
<stop offset="1" stop-color="#FF4C3B"/>
</linearGradient>
<linearGradient id="paint3_linear" x1="25.6017" y1="19.0438" x2="9.85846" y2="6.86051" gradientUnits="userSpaceOnUse">
<stop offset="0.01" stop-color="#645AFF"/>
<stop offset="0.5" stop-color="#E40C5B"/>
<stop offset="1" stop-color="#FF4C3B"/>
</linearGradient>
</defs>
</svg>
