<svg width="24" height="24" viewBox="0 0 24 24" fill="none" xmlns="http://www.w3.org/2000/svg">
<g clip-path="url(#clip0_4808_22547)">
<rect width="24" height="24" rx="12" fill="#38407F"/>
<path d="M11.9567 24.0012C18.5602 24.0012 23.9134 18.6451 23.9134 12.038C23.9134 5.43084 18.5602 0.074707 11.9567 0.074707C5.3532 0.074707 0 5.43084 0 12.038C0 18.6451 5.3532 24.0012 11.9567 24.0012Z" fill="url(#paint0_linear_4808_22547)"/>
<path d="M12.0433 23.9265C18.6468 23.9265 24 18.5704 24 11.9633C24 5.35613 18.6468 0 12.0433 0C5.43978 0 0.0865784 5.35613 0.0865784 11.9633C0.0865784 18.5704 5.43978 23.9265 12.0433 23.9265Z" fill="url(#paint1_linear_4808_22547)"/>
<path style="mix-blend-mode:overlay" d="M15.1392 12.5115L12.5699 13.9959V11.0283L15.1392 9.54385V12.5115Z" fill="url(#paint2_linear_4808_22547)"/>
<g style="mix-blend-mode:overlay">
<path fill-rule="evenodd" clip-rule="evenodd" d="M15.1692 9.49169C15.1878 9.50246 15.1993 9.52234 15.1993 9.54386V12.5115C15.1993 12.533 15.1878 12.5529 15.1692 12.5637L12.5999 14.0481C12.5813 14.0588 12.5584 14.0588 12.5398 14.0481C12.5212 14.0373 12.5098 14.0174 12.5098 13.9959V11.0283C12.5098 11.0067 12.5212 10.9868 12.5399 10.9761L15.1091 9.49166C15.1277 9.48092 15.1507 9.48093 15.1692 9.49169ZM12.63 11.0631V13.8916L15.0791 12.4767V9.64813L12.63 11.0631Z" fill="#231F20"/>
</g>
<path d="M12.5639 11.0295L9.9946 9.54627L12.5639 8.06186L15.1332 9.54627L12.5639 11.0295Z" fill="url(#paint3_linear_4808_22547)"/>
<path fill-rule="evenodd" clip-rule="evenodd" d="M12.5339 8.00967C12.5524 7.99893 12.5753 7.99893 12.5939 8.00967L15.1632 9.49408C15.1818 9.50484 15.1933 9.52474 15.1933 9.54628C15.1933 9.56782 15.1818 9.58772 15.1632 9.59848L12.5939 11.0817C12.5753 11.0924 12.5524 11.0924 12.5339 11.0817L9.96459 9.59848C9.94596 9.58772 9.93448 9.56782 9.93448 9.54628C9.93447 9.52474 9.94595 9.50484 9.96457 9.49408L12.5339 8.00967ZM10.115 9.54625L12.5639 10.96L15.0128 9.54625L12.5639 8.1314L10.115 9.54625Z" fill="#000100"/>
<path d="M10.0006 12.5127V9.54504L12.5699 11.0295L10.0006 12.5127Z" fill="url(#paint4_linear_4808_22547)"/>
<path fill-rule="evenodd" clip-rule="evenodd" d="M9.97053 9.49288C9.98912 9.48212 10.012 9.48211 10.0306 9.49285L12.5999 10.9773C12.6185 10.988 12.63 11.0079 12.63 11.0295C12.63 11.051 12.6185 11.0709 12.5999 11.0817L10.0306 12.5649C10.012 12.5756 9.98911 12.5756 9.97052 12.5648C9.95194 12.5541 9.94049 12.5342 9.94049 12.5127V9.54505C9.94049 9.52353 9.95194 9.50365 9.97053 9.49288ZM10.0607 9.64932V12.4084L12.4495 11.0294L10.0607 9.64932Z" fill="#000100"/>
<path d="M10.116 15.4815L15.0815 12.6139V15.4478L12.5687 16.8984L10.116 15.4815Z" fill="#231F20"/>
<path d="M12.446 8.06305L10.0631 9.43661V6.68707L12.446 8.06305Z" fill="#231F20"/>
<path style="mix-blend-mode:overlay" d="M7.43133 19.9359L4.86325 18.4515V15.4839L7.43133 16.9683V19.9359Z" fill="url(#paint5_linear_4808_22547)"/>
<g style="mix-blend-mode:overlay">
<path fill-rule="evenodd" clip-rule="evenodd" d="M4.83318 15.4318C4.85177 15.421 4.87468 15.421 4.89328 15.4317L7.46136 16.9161C7.47997 16.9269 7.49144 16.9468 7.49144 16.9683V19.936C7.49144 19.9575 7.47999 19.9774 7.46139 19.9881C7.4428 19.9989 7.41989 19.9989 7.40129 19.9881L4.83321 18.5037C4.8146 18.493 4.80313 18.4731 4.80313 18.4515V15.4839C4.80313 15.4624 4.81458 15.4425 4.83318 15.4318ZM4.92336 15.5882V18.4167L7.37121 19.8317V17.0031L4.92336 15.5882Z" fill="#170000"/>
</g>
<path style="mix-blend-mode:overlay" d="M10.0006 15.4827L7.43253 16.9659V13.9983L10.0006 12.5151V15.4827Z" fill="url(#paint6_linear_4808_22547)"/>
<g style="mix-blend-mode:overlay">
<path fill-rule="evenodd" clip-rule="evenodd" d="M10.0307 12.4629C10.0493 12.4737 10.0607 12.4936 10.0607 12.5151V15.4827C10.0607 15.5042 10.0492 15.5241 10.0306 15.5349L7.46254 17.0181C7.44394 17.0288 7.42103 17.0288 7.40244 17.0181C7.38385 17.0073 7.37241 16.9874 7.37241 16.9659V13.9983C7.37241 13.9767 7.38388 13.9568 7.4025 13.9461L9.97058 12.4629C9.98918 12.4521 10.0121 12.4522 10.0307 12.4629ZM7.49263 14.0331V16.8617L9.94049 15.4479V12.6193L7.49263 14.0331Z" fill="#231F20"/>
</g>
<path style="mix-blend-mode:overlay" d="M7.43253 16.9659L4.86325 15.4827V12.5151L7.43253 13.9983V16.9659Z" fill="url(#paint7_linear_4808_22547)"/>
<g style="mix-blend-mode:overlay">
<path fill-rule="evenodd" clip-rule="evenodd" d="M4.83316 12.4629C4.85175 12.4522 4.87465 12.4521 4.89325 12.4629L7.46253 13.9461C7.48116 13.9568 7.49264 13.9767 7.49264 13.9983V16.9659C7.49264 16.9874 7.48119 17.0073 7.46261 17.0181C7.44402 17.0288 7.42112 17.0288 7.40252 17.0181L4.83324 15.5349C4.81461 15.5241 4.80313 15.5042 4.80313 15.4827V12.5151C4.80313 12.4936 4.81458 12.4737 4.83316 12.4629ZM4.92336 12.6193V15.4479L7.37241 16.8617V14.0331L4.92336 12.6193Z" fill="#170000"/>
</g>
<path style="mix-blend-mode:overlay" d="M10.0006 12.5151L7.4313 13.9983V11.0307L10.0006 9.54745V12.5151Z" fill="url(#paint8_linear_4808_22547)"/>
<g style="mix-blend-mode:overlay">
<path fill-rule="evenodd" clip-rule="evenodd" d="M10.0307 9.4953C10.0493 9.50606 10.0607 9.52594 10.0607 9.54746V12.5151C10.0607 12.5366 10.0492 12.5565 10.0306 12.5673L7.46134 14.0505C7.44274 14.0612 7.41983 14.0612 7.40125 14.0504C7.38266 14.0397 7.37122 14.0198 7.37122 13.9983V11.0307C7.37122 11.0091 7.3827 10.9892 7.40132 10.9785L9.9706 9.49525C9.9892 9.48452 10.0121 9.48453 10.0307 9.4953ZM7.49144 11.0655V13.894L9.94049 12.4803V9.65168L7.49144 11.0655Z" fill="#231F20"/>
</g>
<path style="mix-blend-mode:overlay" d="M7.43133 13.9983L4.86325 12.5151V9.54745L7.43133 11.0307V13.9983Z" fill="url(#paint9_linear_4808_22547)"/>
<g style="mix-blend-mode:overlay">
<path fill-rule="evenodd" clip-rule="evenodd" d="M4.83317 9.4953C4.85176 9.48453 4.87466 9.48452 4.89326 9.49526L7.46134 10.9785C7.47996 10.9892 7.49144 11.0091 7.49144 11.0307V13.9983C7.49144 14.0198 7.47999 14.0397 7.4614 14.0504C7.44281 14.0612 7.41991 14.0612 7.40131 14.0505L4.83323 12.5673C4.81461 12.5565 4.80313 12.5366 4.80313 12.5151V9.54746C4.80313 9.52594 4.81458 9.50606 4.83317 9.4953ZM4.92336 9.65171V12.4803L7.37121 13.894V11.0655L4.92336 9.65171Z" fill="#170000"/>
</g>
<path style="mix-blend-mode:overlay" d="M10.0006 9.55227L7.4313 11.0367V8.06907L10.0006 6.58466V9.55227Z" fill="url(#paint10_linear_4808_22547)"/>
<g style="mix-blend-mode:overlay">
<path fill-rule="evenodd" clip-rule="evenodd" d="M10.0307 6.53249C10.0493 6.54326 10.0607 6.56314 10.0607 6.58466V9.55228C10.0607 9.57381 10.0493 9.59371 10.0306 9.60447L7.46135 11.0889C7.44275 11.0996 7.41985 11.0996 7.40126 11.0889C7.38267 11.0781 7.37122 11.0582 7.37122 11.0367V8.06907C7.37122 8.04753 7.38269 8.02763 7.40131 8.01688L9.97058 6.53247C9.98918 6.52172 10.0121 6.52173 10.0307 6.53249ZM7.49144 8.10388V10.9324L9.94049 9.51747V6.68893L7.49144 8.10388Z" fill="#231F20"/>
</g>
<path style="mix-blend-mode:overlay" d="M7.43133 11.0367L4.86325 9.55227V6.58466L7.43133 8.06907V11.0367Z" fill="url(#paint11_linear_4808_22547)"/>
<g style="mix-blend-mode:overlay">
<path fill-rule="evenodd" clip-rule="evenodd" d="M4.83318 6.53249C4.85177 6.52173 4.87468 6.52172 4.89328 6.53247L7.46136 8.01688C7.47997 8.02764 7.49144 8.04754 7.49144 8.06907V11.0367C7.49144 11.0582 7.47999 11.0781 7.46139 11.0889C7.4428 11.0996 7.41989 11.0996 7.40129 11.0889L4.83321 9.60446C4.8146 9.5937 4.80313 9.57381 4.80313 9.55228V6.58466C4.80313 6.56314 4.81458 6.54325 4.83318 6.53249ZM4.92336 6.68895V9.51748L7.37121 10.9324V8.10387L4.92336 6.68895Z" fill="#170000"/>
</g>
<path style="mix-blend-mode:overlay" d="M9.99821 6.58105L7.42892 8.06547V5.09664L9.99821 3.61343V6.58105Z" fill="url(#paint12_linear_4808_22547)"/>
<g style="mix-blend-mode:overlay">
<path fill-rule="evenodd" clip-rule="evenodd" d="M10.0283 3.56128C10.0469 3.57204 10.0583 3.59192 10.0583 3.61344V6.58105C10.0583 6.60259 10.0468 6.62249 10.0282 6.63325L7.45894 8.11766C7.44034 8.12841 7.41744 8.1284 7.39885 8.11763C7.38026 8.10687 7.3688 8.08698 7.3688 8.06547V5.09664C7.3688 5.0751 7.38028 5.05519 7.39891 5.04444L9.9682 3.56123C9.9868 3.5505 10.0097 3.55051 10.0283 3.56128ZM7.48903 5.13146V7.9612L9.93809 6.54625V3.71766L7.48903 5.13146Z" fill="#231F20"/>
</g>
<path style="mix-blend-mode:overlay" d="M7.42892 8.06547L4.86084 6.58105V3.61343L7.42892 5.09664V8.06547Z" fill="url(#paint13_linear_4808_22547)"/>
<g style="mix-blend-mode:overlay">
<path fill-rule="evenodd" clip-rule="evenodd" d="M4.83076 3.56128C4.84934 3.55051 4.87225 3.5505 4.89085 3.56124L7.45893 5.04445C7.47755 5.0552 7.48903 5.0751 7.48903 5.09664V8.06547C7.48903 8.08699 7.47758 8.10687 7.45898 8.11763C7.44039 8.1284 7.41748 8.1284 7.39888 8.11765L4.8308 6.63324C4.81219 6.62248 4.80072 6.60259 4.80072 6.58105V3.61344C4.80072 3.59192 4.81217 3.57204 4.83076 3.56128ZM4.92095 3.71769V6.54626L7.3688 7.96117V5.13146L4.92095 3.71769Z" fill="#170000"/>
</g>
<path d="M9.99821 3.61464L7.42892 2.12902L9.99821 0.645813L12.5663 2.12902L9.99821 3.61464Z" fill="url(#paint14_linear_4808_22547)"/>
<path fill-rule="evenodd" clip-rule="evenodd" d="M9.9682 0.593613C9.98678 0.582889 10.0096 0.582891 10.0282 0.593619L12.5963 2.07683C12.6149 2.08758 12.6264 2.10747 12.6264 2.129C12.6264 2.15053 12.615 2.17043 12.5963 2.1812L10.0283 3.66681C10.0097 3.67757 9.98676 3.67757 9.96816 3.66682L7.39888 2.1812C7.38026 2.17044 7.3688 2.15054 7.3688 2.129C7.36881 2.10746 7.38029 2.08757 7.39891 2.07682L9.9682 0.593613ZM7.54928 2.12906L9.9982 3.54508L12.446 2.12906L9.9982 0.715344L7.54928 2.12906Z" fill="#000100"/>
<path style="mix-blend-mode:overlay" d="M12.5675 8.06547L9.9982 6.58105V3.61343L12.5675 5.09664V8.06547Z" fill="url(#paint15_linear_4808_22547)"/>
<g style="mix-blend-mode:overlay">
<path fill-rule="evenodd" clip-rule="evenodd" d="M9.96811 3.56128C9.9867 3.55051 10.0096 3.5505 10.0282 3.56123L12.5975 5.04444C12.6161 5.05519 12.6276 5.0751 12.6276 5.09664V8.06547C12.6276 8.08698 12.6161 8.10687 12.5975 8.11763C12.579 8.1284 12.5561 8.12841 12.5375 8.11766L9.96817 6.63325C9.94955 6.62249 9.93808 6.60259 9.93808 6.58105V3.61344C9.93808 3.59192 9.94953 3.57204 9.96811 3.56128ZM10.0583 3.71766V6.54625L12.5074 7.9612V5.13146L10.0583 3.71766Z" fill="#231F20"/>
</g>
<path style="mix-blend-mode:overlay" d="M17.7048 8.06427L15.1356 9.54868V6.58106L17.7048 5.09665V8.06427Z" fill="url(#paint16_linear_4808_22547)"/>
<g style="mix-blend-mode:overlay">
<path fill-rule="evenodd" clip-rule="evenodd" d="M17.7349 5.04449C17.7535 5.05525 17.7649 5.07514 17.7649 5.09665V8.06427C17.7649 8.08581 17.7535 8.10571 17.7349 8.11646L15.1656 9.60087C15.147 9.61162 15.1241 9.61161 15.1055 9.60085C15.0869 9.59008 15.0754 9.5702 15.0754 9.54868V6.58106C15.0754 6.55953 15.0869 6.53963 15.1055 6.52887L17.6748 5.04446C17.6934 5.03371 17.7163 5.03372 17.7349 5.04449ZM15.1957 6.61587V9.44441L17.6447 8.02946V5.20092L15.1957 6.61587Z" fill="#231F20"/>
</g>
<path style="mix-blend-mode:overlay" d="M15.1356 9.54868L12.5675 8.06427V5.09665L15.1356 6.58106V9.54868Z" fill="url(#paint17_linear_4808_22547)"/>
<g style="mix-blend-mode:overlay">
<path fill-rule="evenodd" clip-rule="evenodd" d="M12.5374 5.04449C12.556 5.03372 12.5789 5.03371 12.5975 5.04447L15.1656 6.52888C15.1842 6.53964 15.1957 6.55953 15.1957 6.58106V9.54868C15.1957 9.5702 15.1842 9.59009 15.1656 9.60085C15.147 9.61161 15.1241 9.61162 15.1055 9.60087L12.5374 8.11646C12.5188 8.1057 12.5074 8.0858 12.5074 8.06427V5.09665C12.5074 5.07513 12.5188 5.05525 12.5374 5.04449ZM12.6276 5.20095V8.02947L15.0754 9.44439V6.61586L12.6276 5.20095Z" fill="#231F20"/>
</g>
<path style="mix-blend-mode:overlay" d="M12.5699 13.9947L10.0006 15.4791V12.5115L12.5699 11.0271V13.9947Z" fill="url(#paint18_linear_4808_22547)"/>
<g style="mix-blend-mode:overlay">
<path fill-rule="evenodd" clip-rule="evenodd" d="M12.6 10.9749C12.6186 10.9857 12.63 11.0056 12.63 11.0271V13.9947C12.63 14.0162 12.6185 14.0361 12.5999 14.0469L10.0306 15.5313C10.012 15.542 9.98912 15.542 9.97053 15.5313C9.95194 15.5205 9.94049 15.5006 9.94049 15.4791V12.5115C9.94049 12.4899 9.95196 12.47 9.97058 12.4593L12.5399 10.9749C12.5585 10.9641 12.5814 10.9641 12.6 10.9749ZM10.0607 12.5463V15.3748L12.5098 13.9599V11.1313L10.0607 12.5463Z" fill="#231F20"/>
</g>
<path style="mix-blend-mode:overlay" d="M20.2789 18.4491L17.7108 19.9335V16.9659L20.2789 15.4815V18.4491Z" fill="url(#paint19_linear_4808_22547)"/>
<g style="mix-blend-mode:overlay">
<path fill-rule="evenodd" clip-rule="evenodd" d="M20.309 15.4293C20.3276 15.4401 20.339 15.46 20.339 15.4815V18.4491C20.339 18.4707 20.3276 18.4906 20.309 18.5013L17.7409 19.9857C17.7223 19.9965 17.6994 19.9965 17.6808 19.9857C17.6622 19.9749 17.6507 19.9551 17.6507 19.9335V16.9659C17.6507 16.9444 17.6622 16.9245 17.6808 16.9137L20.2489 15.4293C20.2675 15.4186 20.2904 15.4186 20.309 15.4293ZM17.771 17.0007V19.8292L20.2188 18.4143V15.5858L17.771 17.0007Z" fill="#231F20"/>
</g>
<path style="mix-blend-mode:overlay" d="M20.2789 15.4815L17.7108 16.9659V13.9983L20.2789 12.5139V15.4815Z" fill="url(#paint20_linear_4808_22547)"/>
<g style="mix-blend-mode:overlay">
<path fill-rule="evenodd" clip-rule="evenodd" d="M20.309 12.4617C20.3276 12.4725 20.339 12.4924 20.339 12.5139V15.4815C20.339 15.503 20.3276 15.5229 20.309 15.5337L17.7409 17.0181C17.7223 17.0288 17.6994 17.0288 17.6808 17.0181C17.6622 17.0073 17.6507 16.9874 17.6507 16.9659V13.9983C17.6507 13.9768 17.6622 13.9569 17.6808 13.9461L20.2489 12.4617C20.2675 12.451 20.2904 12.451 20.309 12.4617ZM17.771 14.0331V16.8616L20.2188 15.4467V12.6182L17.771 14.0331Z" fill="#231F20"/>
</g>
<path style="mix-blend-mode:overlay" d="M17.7108 16.9659L15.1416 15.4815V12.5139L17.7108 13.9983V16.9659Z" fill="url(#paint21_linear_4808_22547)"/>
<g style="mix-blend-mode:overlay">
<path fill-rule="evenodd" clip-rule="evenodd" d="M15.1115 12.4617C15.1301 12.451 15.153 12.4509 15.1716 12.4617L17.7409 13.9461C17.7595 13.9569 17.771 13.9768 17.771 13.9983V16.9659C17.771 16.9874 17.7595 17.0073 17.7409 17.0181C17.7223 17.0288 17.6994 17.0288 17.6808 17.0181L15.1115 15.5337C15.0929 15.5229 15.0815 15.503 15.0815 15.4815V12.5139C15.0815 12.4924 15.0929 12.4725 15.1115 12.4617ZM15.2017 12.6182V15.4467L17.6507 16.8616V14.0331L15.2017 12.6182Z" fill="#231F20"/>
</g>
<path style="mix-blend-mode:overlay" d="M20.2789 12.5139L17.7108 13.9983V11.0307L20.2789 9.54626V12.5139Z" fill="url(#paint22_linear_4808_22547)"/>
<g style="mix-blend-mode:overlay">
<path fill-rule="evenodd" clip-rule="evenodd" d="M20.309 9.4941C20.3276 9.50486 20.339 9.52475 20.339 9.54627V12.5139C20.339 12.5354 20.3276 12.5553 20.309 12.5661L17.7409 14.0505C17.7223 14.0612 17.6994 14.0612 17.6808 14.0505C17.6622 14.0397 17.6507 14.0198 17.6507 13.9983V11.0307C17.6507 11.0091 17.6622 10.9892 17.6808 10.9785L20.2489 9.49408C20.2675 9.48333 20.2904 9.48334 20.309 9.4941ZM17.771 11.0655V13.894L20.2188 12.4791V9.65056L17.771 11.0655Z" fill="#231F20"/>
</g>
<path style="mix-blend-mode:overlay" d="M17.7108 13.9983L15.1416 12.5139V9.54626L17.7108 11.0307V13.9983Z" fill="url(#paint23_linear_4808_22547)"/>
<g style="mix-blend-mode:overlay">
<path fill-rule="evenodd" clip-rule="evenodd" d="M15.1115 9.4941C15.1301 9.48334 15.153 9.48333 15.1716 9.49408L17.7409 10.9785C17.7595 10.9892 17.771 11.0091 17.771 11.0307V13.9983C17.771 14.0198 17.7595 14.0397 17.7409 14.0505C17.7223 14.0612 17.6994 14.0612 17.6808 14.0505L15.1115 12.5661C15.0929 12.5553 15.0815 12.5354 15.0815 12.5139V9.54627C15.0815 9.52475 15.0929 9.50487 15.1115 9.4941ZM15.2017 9.65054V12.4791L17.6507 13.894V11.0655L15.2017 9.65054Z" fill="#231F20"/>
</g>
<path d="M17.7108 11.0307L15.1416 9.54626L17.7108 8.06305L20.2789 9.54626L17.7108 11.0307Z" fill="url(#paint24_linear_4808_22547)"/>
<path fill-rule="evenodd" clip-rule="evenodd" d="M17.6808 8.01085C17.6994 8.00012 17.7223 8.00013 17.7409 8.01086L20.3089 9.49406C20.3276 9.50482 20.339 9.52471 20.339 9.54625C20.339 9.56778 20.3276 9.58768 20.309 9.59844L17.7409 11.0829C17.7223 11.0936 17.6994 11.0936 17.6808 11.0829L15.1115 9.59845C15.0929 9.58769 15.0814 9.56779 15.0815 9.54625C15.0815 9.52471 15.0929 9.50481 15.1116 9.49406L17.6808 8.01085ZM15.262 9.54628L17.7108 10.9611L20.1586 9.54628L17.7108 8.13258L15.262 9.54628Z" fill="#000100"/>
<path style="mix-blend-mode:overlay" d="M17.7108 19.9323L15.1416 21.4167V18.4503L17.7096 16.9659L17.7108 19.9323Z" fill="url(#paint25_linear_4808_22547)"/>
<g style="mix-blend-mode:overlay">
<path fill-rule="evenodd" clip-rule="evenodd" d="M17.7397 16.9137C17.7583 16.9245 17.7697 16.9444 17.7698 16.9659L17.771 19.9323C17.771 19.9538 17.7595 19.9738 17.7409 19.9845L15.1716 21.4689C15.153 21.4797 15.1301 21.4797 15.1115 21.4689C15.0929 21.4581 15.0815 21.4383 15.0815 21.4167V18.4503C15.0815 18.4288 15.0929 18.4089 15.1115 18.3981L17.6796 16.9137C17.6982 16.903 17.7211 16.903 17.7397 16.9137ZM15.2017 18.4851V21.3125L17.6507 19.8975L17.6496 17.0702L15.2017 18.4851Z" fill="#231F20"/>
</g>
<path d="M15.1416 18.4491L12.5723 16.9659L15.1416 15.4815L17.7109 16.9659L15.1416 18.4491Z" fill="url(#paint26_linear_4808_22547)"/>
<path fill-rule="evenodd" clip-rule="evenodd" d="M15.1115 15.4293C15.1301 15.4186 15.153 15.4186 15.1716 15.4293L17.7409 16.9137C17.7595 16.9245 17.771 16.9444 17.771 16.9659C17.771 16.9875 17.7595 17.0074 17.7409 17.0181L15.1716 18.5013C15.153 18.512 15.1301 18.512 15.1116 18.5013L12.5423 17.0181C12.5237 17.0074 12.5122 16.9875 12.5122 16.9659C12.5122 16.9444 12.5236 16.9245 12.5423 16.9137L15.1115 15.4293ZM12.6927 16.9659L15.1416 18.3796L17.5905 16.9659L15.1416 15.551L12.6927 16.9659Z" fill="#000100"/>
<path style="mix-blend-mode:overlay" d="M15.1416 21.4155L12.5735 22.8987V19.9311L15.1416 18.4479V21.4155Z" fill="url(#paint27_linear_4808_22547)"/>
<g style="mix-blend-mode:overlay">
<path fill-rule="evenodd" clip-rule="evenodd" d="M15.1716 18.3957C15.1902 18.4065 15.2017 18.4264 15.2017 18.4479V21.4155C15.2017 21.4371 15.1902 21.457 15.1716 21.4677L12.6035 22.9509C12.5849 22.9617 12.562 22.9617 12.5434 22.9509C12.5248 22.9401 12.5134 22.9202 12.5134 22.8987V19.9311C12.5134 19.9096 12.5248 19.8897 12.5435 19.8789L15.1115 18.3957C15.1301 18.385 15.153 18.385 15.1716 18.3957ZM12.6336 19.9659V22.7945L15.0814 21.3807V18.5522L12.6336 19.9659Z" fill="#231F20"/>
</g>
<path d="M12.5735 19.9311L10.0042 18.4479L12.5735 16.9635L15.1416 18.4479L12.5735 19.9311Z" fill="url(#paint28_linear_4808_22547)"/>
<path fill-rule="evenodd" clip-rule="evenodd" d="M12.5435 16.9113C12.562 16.9006 12.5849 16.9006 12.6035 16.9113L15.1716 18.3957C15.1902 18.4065 15.2017 18.4264 15.2017 18.4479C15.2017 18.4695 15.1902 18.4894 15.1716 18.5001L12.6035 19.9833C12.5849 19.994 12.5621 19.9941 12.5435 19.9833L9.9742 18.5001C9.95558 18.4894 9.9441 18.4695 9.94409 18.4479C9.94409 18.4264 9.95556 18.4065 9.97418 18.3957L12.5435 16.9113ZM10.1246 18.4479L12.5735 19.8616L15.0212 18.4479L12.5735 17.033L10.1246 18.4479Z" fill="#000100"/>
<path style="mix-blend-mode:overlay" d="M12.5735 22.8987L10.0042 21.4155V18.4479L12.5735 19.9311V22.8987Z" fill="url(#paint29_linear_4808_22547)"/>
<g style="mix-blend-mode:overlay">
<path fill-rule="evenodd" clip-rule="evenodd" d="M9.97412 18.3958C9.99271 18.385 10.0156 18.385 10.0342 18.3957L12.6035 19.8789C12.6221 19.8897 12.6336 19.9096 12.6336 19.9311V22.8987C12.6336 22.9202 12.6221 22.9401 12.6036 22.9509C12.585 22.9617 12.5621 22.9617 12.5435 22.9509L9.9742 21.4677C9.95557 21.457 9.94409 21.4371 9.94409 21.4155V18.4479C9.94409 18.4264 9.95554 18.4065 9.97412 18.3958ZM10.0643 18.5521V21.3807L12.5134 22.7945V19.9659L10.0643 18.5521Z" fill="#231F20"/>
</g>
<path d="M12.5675 5.09663L9.9982 3.61463L12.5675 2.13022L15.1356 3.61463L12.5675 5.09663Z" fill="url(#paint30_linear_4808_22547)"/>
<path fill-rule="evenodd" clip-rule="evenodd" d="M12.5375 2.07803C12.556 2.06729 12.5789 2.06729 12.5975 2.07804L15.1656 3.56245C15.1842 3.57321 15.1957 3.59311 15.1957 3.61465C15.1957 3.63619 15.1842 3.65609 15.1656 3.66684L12.5975 5.14884C12.5789 5.15956 12.5561 5.15956 12.5375 5.14885L9.96821 3.66685C9.94957 3.6561 9.93809 3.6362 9.93808 3.61465C9.93807 3.59311 9.94955 3.5732 9.96817 3.56244L12.5375 2.07803ZM10.1186 3.61459L12.5675 5.02712L15.0152 3.61459L12.5675 2.19976L10.1186 3.61459Z" fill="#000100"/>
<path d="M15.1356 6.58104L12.5663 5.09663L15.1356 3.61462L17.7048 5.09663L15.1356 6.58104Z" fill="url(#paint31_linear_4808_22547)"/>
<path fill-rule="evenodd" clip-rule="evenodd" d="M15.1056 3.56241C15.1241 3.55171 15.147 3.55171 15.1656 3.56241L17.7348 5.04441C17.7535 5.05516 17.765 5.07506 17.765 5.09661C17.765 5.11815 17.7535 5.13806 17.7349 5.14882L15.1656 6.63323C15.147 6.64397 15.1241 6.64397 15.1055 6.63323L12.5363 5.14882C12.5176 5.13806 12.5062 5.11815 12.5062 5.09661C12.5062 5.07506 12.5177 5.05516 12.5363 5.04441L15.1056 3.56241ZM12.6867 5.09667L15.1356 6.5115L17.5844 5.09667L15.1356 3.68414L12.6867 5.09667Z" fill="#000100"/>
<path d="M7.4289 5.09665L4.85962 3.61465L7.4289 2.12903L9.99818 3.61465L7.4289 5.09665Z" fill="url(#paint32_linear_4808_22547)"/>
<path fill-rule="evenodd" clip-rule="evenodd" d="M7.39888 2.07685C7.41748 2.0661 7.44038 2.0661 7.45897 2.07685L10.0283 3.56247C10.0469 3.57323 10.0583 3.59314 10.0583 3.61468C10.0583 3.63622 10.0468 3.65611 10.0282 3.66686L7.45891 5.14886C7.44035 5.15957 7.4175 5.15957 7.39894 5.14886L4.82966 3.66686C4.81103 3.65611 4.79954 3.63622 4.79953 3.61468C4.79952 3.59314 4.81098 3.57323 4.8296 3.56247L7.39888 2.07685ZM4.98004 3.61458L7.42893 5.02714L9.87781 3.61458L7.42893 2.19858L4.98004 3.61458Z" fill="#000100"/>
<path d="M10.0006 18.4515L7.43253 16.9683L10.0006 15.4839L12.5699 16.9683L10.0006 18.4515Z" fill="url(#paint33_linear_4808_22547)"/>
<path fill-rule="evenodd" clip-rule="evenodd" d="M9.97056 15.4317C9.98915 15.421 10.012 15.421 10.0306 15.4317L12.5999 16.9161C12.6185 16.9269 12.63 16.9468 12.63 16.9683C12.63 16.9899 12.6185 17.0098 12.5999 17.0205L10.0306 18.5037C10.012 18.5145 9.98916 18.5145 9.97058 18.5037L7.4025 17.0205C7.38388 17.0098 7.37241 16.9899 7.37241 16.9683C7.3724 16.9468 7.38387 16.9269 7.40249 16.9161L9.97056 15.4317ZM10.0006 15.5535L7.55287 16.9683L10.0006 18.382L12.4495 16.9683L10.0006 15.5535Z" fill="#000100"/>
<path style="mix-blend-mode:overlay" d="M10.0006 21.4167L7.4313 19.9335V16.9659L10.0006 18.4491V21.4167Z" fill="url(#paint34_linear_4808_22547)"/>
<g style="mix-blend-mode:overlay">
<path fill-rule="evenodd" clip-rule="evenodd" d="M7.40125 16.9138C7.41983 16.903 7.44274 16.903 7.46134 16.9137L10.0306 18.3969C10.0492 18.4077 10.0607 18.4276 10.0607 18.4491V21.4167C10.0607 21.4383 10.0493 21.4581 10.0307 21.4689C10.0121 21.4797 9.9892 21.4797 9.9706 21.4689L7.40132 19.9857C7.3827 19.975 7.37122 19.9551 7.37122 19.9335V16.9659C7.37122 16.9444 7.38266 16.9245 7.40125 16.9138ZM7.49144 17.0701V19.8987L9.94049 21.3125V18.4839L7.49144 17.0701Z" fill="#231F20"/>
</g>
<path d="M4.86202 21.5673C5.65429 22.1629 6.51733 22.6575 7.43131 23.0397L7.4289 0.963898C6.51486 1.34651 5.65182 1.84149 4.85962 2.43747L4.86202 21.5673Z" fill="url(#paint35_linear_4808_22547)"/>
<path d="M12.5699 0.0554199V5.09664L15.138 6.58105V9.54385L17.7121 11.0307V13.9983L15.1428 12.5139V15.4815L12.5771 16.9635V23.9337C13.4468 23.8848 14.3084 23.7397 15.1464 23.5012V18.4503L17.7277 16.9466L20.2837 15.4815V9.54626L17.7048 8.05944V5.09664L15.1356 3.61464V0.462669C14.2977 0.233823 13.4373 0.0972651 12.5699 0.0554199Z" fill="url(#paint36_linear_4808_22547)"/>
</g>
<defs>
<linearGradient id="paint0_linear_4808_22547" x1="0" y1="12.038" x2="23.9146" y2="12.038" gradientUnits="userSpaceOnUse">
<stop offset="1" stop-color="#38407F"/>
</linearGradient>
<linearGradient id="paint1_linear_4808_22547" x1="0.0865784" y1="11.9633" x2="24" y2="11.9633" gradientUnits="userSpaceOnUse">
<stop offset="1" stop-color="#38407F"/>
</linearGradient>
<linearGradient id="paint2_linear_4808_22547" x1="12.5699" y1="11.7693" x2="15.1392" y2="11.7693" gradientUnits="userSpaceOnUse">
<stop stop-color="#D3CDF8"/>
<stop offset="0.8" stop-color="#9F9FE1"/>
</linearGradient>
<linearGradient id="paint3_linear_4808_22547" x1="9.9946" y1="9.54627" x2="15.1332" y2="9.54627" gradientUnits="userSpaceOnUse">
<stop stop-color="#9D77C9"/>
<stop offset="1" stop-color="#9D77C9"/>
</linearGradient>
<linearGradient id="paint4_linear_4808_22547" x1="11.2702" y1="12.7958" x2="11.2932" y2="9.02213" gradientUnits="userSpaceOnUse">
<stop stop-color="#9D77C9"/>
<stop offset="1" stop-color="#9D77C9"/>
</linearGradient>
<linearGradient id="paint5_linear_4808_22547" x1="7.68141" y1="20.3082" x2="3.33283" y2="15.6618" gradientUnits="userSpaceOnUse">
<stop stop-color="#D3CDF8"/>
<stop offset="0.8" stop-color="#9F9FE1"/>
</linearGradient>
<linearGradient id="paint6_linear_4808_22547" x1="10.258" y1="15.6863" x2="6.85949" y2="14.058" gradientUnits="userSpaceOnUse">
<stop stop-color="#D3CDF8"/>
<stop offset="0.8" stop-color="#9F9FE1"/>
</linearGradient>
<linearGradient id="paint7_linear_4808_22547" x1="7.68245" y1="17.3519" x2="3.33426" y2="12.7032" gradientUnits="userSpaceOnUse">
<stop stop-color="#D3CDF8"/>
<stop offset="0.8" stop-color="#9F9FE1"/>
</linearGradient>
<linearGradient id="paint8_linear_4808_22547" x1="10.2579" y1="12.7308" x2="6.85947" y2="11.1025" gradientUnits="userSpaceOnUse">
<stop stop-color="#D3CDF8"/>
<stop offset="0.8" stop-color="#9F9FE1"/>
</linearGradient>
<linearGradient id="paint9_linear_4808_22547" x1="7.68141" y1="14.3958" x2="3.33494" y2="9.74647" gradientUnits="userSpaceOnUse">
<stop stop-color="#D3CDF8"/>
<stop offset="0.8" stop-color="#9F9FE1"/>
</linearGradient>
<linearGradient id="paint10_linear_4808_22547" x1="10.2579" y1="9.77945" x2="6.85987" y2="8.15177" gradientUnits="userSpaceOnUse">
<stop stop-color="#D3CDF8"/>
<stop offset="0.8" stop-color="#9F9FE1"/>
</linearGradient>
<linearGradient id="paint11_linear_4808_22547" x1="7.68141" y1="11.4444" x2="3.33456" y2="6.79746" gradientUnits="userSpaceOnUse">
<stop stop-color="#D3CDF8"/>
<stop offset="0.8" stop-color="#9F9FE1"/>
</linearGradient>
<linearGradient id="paint12_linear_4808_22547" x1="7.42892" y1="5.83885" x2="9.99821" y2="5.83885" gradientUnits="userSpaceOnUse">
<stop stop-color="#D3CDF8"/>
<stop offset="0.8" stop-color="#9F9FE1"/>
</linearGradient>
<linearGradient id="paint13_linear_4808_22547" x1="4.86084" y1="5.83885" x2="7.42892" y2="5.83885" gradientUnits="userSpaceOnUse">
<stop stop-color="#D3CDF8"/>
<stop offset="0.8" stop-color="#9F9FE1"/>
</linearGradient>
<linearGradient id="paint14_linear_4808_22547" x1="9.98739" y1="3.88814" x2="10.0103" y2="0.114462" gradientUnits="userSpaceOnUse">
<stop stop-color="#9D77C9"/>
<stop offset="1" stop-color="#9D77C9"/>
</linearGradient>
<linearGradient id="paint15_linear_4808_22547" x1="9.9982" y1="5.83885" x2="12.5675" y2="5.83885" gradientUnits="userSpaceOnUse">
<stop stop-color="#D3CDF8"/>
<stop offset="0.8" stop-color="#9F9FE1"/>
</linearGradient>
<linearGradient id="paint16_linear_4808_22547" x1="15.1356" y1="7.32327" x2="17.7048" y2="7.32327" gradientUnits="userSpaceOnUse">
<stop stop-color="#D3CDF8"/>
<stop offset="0.8" stop-color="#9F9FE1"/>
</linearGradient>
<linearGradient id="paint17_linear_4808_22547" x1="12.5663" y1="7.32327" x2="15.1356" y2="7.32327" gradientUnits="userSpaceOnUse">
<stop stop-color="#D3CDF8"/>
<stop offset="0.8" stop-color="#9F9FE1"/>
</linearGradient>
<linearGradient id="paint18_linear_4808_22547" x1="12.8395" y1="14.1981" x2="9.44066" y2="12.5705" gradientUnits="userSpaceOnUse">
<stop stop-color="#D3CDF8"/>
<stop offset="0.8" stop-color="#9F9FE1"/>
</linearGradient>
<linearGradient id="paint19_linear_4808_22547" x1="20.5839" y1="18.6167" x2="17.1859" y2="16.989" gradientUnits="userSpaceOnUse">
<stop stop-color="#D3CDF8"/>
<stop offset="0.8" stop-color="#9F9FE1"/>
</linearGradient>
<linearGradient id="paint20_linear_4808_22547" x1="20.5839" y1="15.6612" x2="17.1855" y2="14.0328" gradientUnits="userSpaceOnUse">
<stop stop-color="#D3CDF8"/>
<stop offset="0.8" stop-color="#9F9FE1"/>
</linearGradient>
<linearGradient id="paint21_linear_4808_22547" x1="18.0074" y1="17.3737" x2="13.6605" y2="12.7268" gradientUnits="userSpaceOnUse">
<stop stop-color="#D3CDF8"/>
<stop offset="0.8" stop-color="#9F9FE1"/>
</linearGradient>
<linearGradient id="paint22_linear_4808_22547" x1="20.5839" y1="12.7056" x2="17.1855" y2="11.0773" gradientUnits="userSpaceOnUse">
<stop stop-color="#D3CDF8"/>
<stop offset="0.8" stop-color="#9F9FE1"/>
</linearGradient>
<linearGradient id="paint23_linear_4808_22547" x1="18.0074" y1="14.4182" x2="13.6605" y2="9.77125" gradientUnits="userSpaceOnUse">
<stop stop-color="#D3CDF8"/>
<stop offset="0.8" stop-color="#9F9FE1"/>
</linearGradient>
<linearGradient id="paint24_linear_4808_22547" x1="17.7" y1="11.3054" x2="17.7218" y2="7.5317" gradientUnits="userSpaceOnUse">
<stop stop-color="#9D77C9"/>
<stop offset="1" stop-color="#9D77C9"/>
</linearGradient>
<linearGradient id="paint25_linear_4808_22547" x1="15.1416" y1="19.1913" x2="17.7108" y2="19.1913" gradientUnits="userSpaceOnUse">
<stop stop-color="#D3CDF8"/>
<stop offset="0.8" stop-color="#9F9FE1"/>
</linearGradient>
<linearGradient id="paint26_linear_4808_22547" x1="12.5723" y1="16.9659" x2="17.7109" y2="16.9659" gradientUnits="userSpaceOnUse">
<stop stop-color="#9D77C9"/>
<stop offset="1" stop-color="#9D77C9"/>
</linearGradient>
<linearGradient id="paint27_linear_4808_22547" x1="15.423" y1="21.5822" x2="12.025" y2="19.9545" gradientUnits="userSpaceOnUse">
<stop stop-color="#D3CDF8"/>
<stop offset="0.8" stop-color="#9F9FE1"/>
</linearGradient>
<linearGradient id="paint28_linear_4808_22547" x1="12.5627" y1="20.2058" x2="12.5856" y2="16.4334" gradientUnits="userSpaceOnUse">
<stop stop-color="#9D77C9"/>
<stop offset="1" stop-color="#9D77C9"/>
</linearGradient>
<linearGradient id="paint29_linear_4808_22547" x1="12.8465" y1="23.2719" x2="8.49828" y2="18.6232" gradientUnits="userSpaceOnUse">
<stop stop-color="#D3CDF8"/>
<stop offset="0.8" stop-color="#9F9FE1"/>
</linearGradient>
<linearGradient id="paint30_linear_4808_22547" x1="12.5567" y1="5.37135" x2="12.5784" y2="1.59887" gradientUnits="userSpaceOnUse">
<stop stop-color="#9D77C9"/>
<stop offset="1" stop-color="#9D77C9"/>
</linearGradient>
<linearGradient id="paint31_linear_4808_22547" x1="12.5663" y1="5.09663" x2="17.7048" y2="5.09663" gradientUnits="userSpaceOnUse">
<stop stop-color="#9D77C9"/>
<stop offset="1" stop-color="#9D77C9"/>
</linearGradient>
<linearGradient id="paint32_linear_4808_22547" x1="4.85962" y1="3.61344" x2="9.99818" y2="3.61344" gradientUnits="userSpaceOnUse">
<stop stop-color="#9D77C9"/>
<stop offset="1" stop-color="#9D77C9"/>
</linearGradient>
<linearGradient id="paint33_linear_4808_22547" x1="9.99099" y1="18.7262" x2="10.0127" y2="14.9526" gradientUnits="userSpaceOnUse">
<stop stop-color="#9D77C9"/>
<stop offset="1" stop-color="#9D77C9"/>
</linearGradient>
<linearGradient id="paint34_linear_4808_22547" x1="7.43251" y1="19.1913" x2="10.0006" y2="19.1913" gradientUnits="userSpaceOnUse">
<stop stop-color="#D3CDF8"/>
<stop offset="0.8" stop-color="#9F9FE1"/>
</linearGradient>
<linearGradient id="paint35_linear_4808_22547" x1="6.14606" y1="0.957873" x2="6.14606" y2="23.0397" gradientUnits="userSpaceOnUse">
<stop stop-color="#FFFC2E"/>
<stop offset="0.15" stop-color="#CBC93F" stop-opacity="0.8"/>
<stop offset="0.3" stop-color="#777759" stop-opacity="0.6"/>
<stop offset="0.7" stop-color="#606060" stop-opacity="0.6"/>
<stop offset="0.85" stop-color="#CECC3E" stop-opacity="0.8"/>
<stop offset="1" stop-color="#FFFC2E"/>
</linearGradient>
<linearGradient id="paint36_linear_4808_22547" x1="16.4232" y1="0.0554199" x2="16.4232" y2="23.9337" gradientUnits="userSpaceOnUse">
<stop stop-color="#FFFC2E"/>
<stop offset="0.15" stop-color="#CBC93F" stop-opacity="0.8"/>
<stop offset="0.3" stop-color="#777759" stop-opacity="0.6"/>
<stop offset="0.7" stop-color="#606060" stop-opacity="0.6"/>
<stop offset="0.85" stop-color="#CECC3E" stop-opacity="0.8"/>
<stop offset="1" stop-color="#FFFC2E"/>
</linearGradient>
<clipPath id="clip0_4808_22547">
<rect width="24" height="24" rx="12" fill="white"/>
</clipPath>
</defs>
</svg>
