<svg width="34" height="34" viewBox="0 0 34 34" fill="none" xmlns="http://www.w3.org/2000/svg">
<circle cx="17" cy="17" r="16" fill="white" stroke="#D6D3DE"/>
<g clip-path="url(#clip0)">
<path d="M17.0893 8.33334C13.3643 8.34826 10.3482 11.3548 10.3333 15.068C10.3333 15.8117 10.4537 16.5503 10.6895 17.2556C10.8655 17.7357 11.3878 17.9943 11.878 17.8458C12.3518 17.6647 12.6033 17.1484 12.4523 16.6654C12.2521 16.1156 12.163 15.5325 12.1894 14.9487C12.2706 12.2668 14.5172 10.158 17.2076 10.239C19.8981 10.3199 22.0135 12.5594 21.9323 15.2413C21.8561 17.7521 19.8724 19.7912 17.3565 19.9439C17.3565 19.9439 16.4082 20.0015 15.9365 20.059C15.7626 20.0839 15.5902 20.118 15.4199 20.1613C15.3957 20.1861 15.3565 20.1861 15.3316 20.162L15.3308 20.1613C15.3137 20.1393 15.3137 20.108 15.3308 20.086L15.4776 19.2877L16.3683 15.2946C16.4751 14.796 16.1567 14.3052 15.6565 14.1987C15.1563 14.0921 14.6639 14.4096 14.5571 14.9082C14.5571 14.9082 12.4387 24.6821 12.4387 24.7709C12.3176 25.246 12.6055 25.729 13.0821 25.8497C13.0871 25.8512 13.0928 25.8526 13.0978 25.8533H13.147C13.6229 25.9762 14.1089 25.6906 14.2314 25.2162C14.2336 25.2084 14.2357 25.2006 14.2371 25.192C14.2357 25.1771 14.2357 25.1622 14.2371 25.148C14.2635 25.0329 14.5307 23.7325 14.5307 23.7325C14.733 22.7509 15.5268 21.9987 16.52 21.8467C16.7245 21.8155 17.5838 21.7579 17.5838 21.7579C21.2946 21.3893 24.0029 18.0916 23.6324 14.3926C23.2947 11.0188 20.4909 8.42142 17.0893 8.33334Z" fill="#1E1E1E"/>
<path d="M17.4991 23.8617C16.8899 23.7353 16.2943 24.1252 16.1674 24.7318C16.166 24.7375 16.1653 24.7431 16.1639 24.7488C16.0321 25.3518 16.4154 25.9477 17.021 26.0791C17.0218 26.0791 17.0225 26.0791 17.0232 26.0799H17.0545C17.6473 26.2226 18.2437 25.859 18.3862 25.2687C18.3877 25.2645 18.3884 25.2595 18.3898 25.2552V25.1935C18.4945 24.5841 18.1041 23.9995 17.4991 23.8617Z" fill="#E6007A"/>
</g>
<defs>
<clipPath id="clip0">
<rect width="13.3333" height="17.7778" fill="white" transform="translate(10.3333 8.33334)"/>
</clipPath>
</defs>
</svg>
