<svg width="522" height="523" viewBox="0 0 522 523" fill="none" xmlns="http://www.w3.org/2000/svg">
<g opacity="0.2" filter="url(#filter0_f_683_644)">
<path fill-rule="evenodd" clip-rule="evenodd" d="M48.6484 242.782C58.0446 133.662 149.542 48.0039 261.09 48.0039C372.658 48.0039 464.156 133.662 473.552 242.782H48.6484ZM429.218 392.509H92.9853C89.0922 387.522 85.4201 382.38 81.9688 377.082H440.214C436.763 382.38 433.097 387.522 429.218 392.509ZM373.763 442.412H148.441C142.024 438.403 135.825 434.055 129.871 429.387H392.343C386.386 434.057 380.184 438.405 373.763 442.412ZM115.858 417.457H406.347C411.207 412.932 415.854 408.19 420.289 403.23H101.906C106.338 408.19 110.988 412.932 115.858 417.457ZM261.095 474.589C291.494 474.612 321.545 468.112 349.217 455.527H172.988C200.655 468.111 230.701 474.611 261.095 474.589ZM48.3858 246.277H473.823C474.164 251.252 474.382 256.248 474.402 261.291C474.402 262.87 474.35 264.436 474.297 265.999L474.277 266.603C474.265 266.975 474.253 267.348 474.242 267.72H47.9613C47.9446 267.146 47.9253 266.573 47.906 265.999L47.906 265.999C47.8534 264.435 47.8008 262.87 47.8008 261.291C47.8008 256.248 48.0389 251.252 48.3858 246.277ZM50.1192 292.69H472.087C473.066 286.037 473.76 279.292 474.112 272.453H48.0898C48.4419 279.292 49.1356 286.037 50.1192 292.69ZM458.333 342.6H63.8799C61.4726 336.771 59.2879 330.833 57.3828 324.766H464.809C462.919 330.833 460.735 336.771 458.333 342.6ZM55.3726 317.642H466.826C468.531 311.402 469.952 305.056 471.087 298.602H51.1172C52.2561 305.052 53.6746 311.399 55.3726 317.642ZM446.031 367.552H76.1742C73.0542 362.154 70.1759 356.609 67.5391 350.918H454.661C452.014 356.602 449.137 362.147 446.031 367.552Z" fill="url(#paint0_linear_683_644)"/>
</g>
<path fill-rule="evenodd" clip-rule="evenodd" d="M70.1914 244.661C78.6347 146.608 160.853 69.6367 261.088 69.6367C361.342 69.6367 443.56 146.608 452.004 244.661H70.1914ZM412.17 379.199H110.036C106.538 374.717 103.238 370.096 100.137 365.336H422.051C418.949 370.096 415.656 374.717 412.17 379.199ZM362.341 424.044H159.87C154.104 420.442 148.534 416.535 143.184 412.34H379.037C373.684 416.536 368.111 420.443 362.341 424.044ZM130.588 401.623H391.617C395.984 397.558 400.16 393.296 404.145 388.84H118.051C122.033 393.296 126.212 397.558 130.588 401.623ZM261.093 452.953C288.41 452.974 315.413 447.133 340.278 435.824H181.922C206.783 447.131 233.781 452.972 261.093 452.953ZM69.9593 247.805H452.251C452.558 252.275 452.753 256.764 452.772 261.295C452.772 262.713 452.724 264.119 452.677 265.522V265.523V265.524V265.525V265.526L452.677 265.53C452.66 266.045 452.643 266.559 452.628 267.073H69.5778C69.5628 266.557 69.5455 266.042 69.5281 265.526C69.4809 264.121 69.4336 262.714 69.4336 261.295C69.4336 256.764 69.6476 252.275 69.9593 247.805ZM71.515 289.505H450.69C451.569 283.527 452.192 277.466 452.509 271.32H69.6914C70.0077 277.466 70.6311 283.527 71.515 289.505ZM438.331 334.354H83.8811C81.718 329.116 79.7549 323.78 78.043 318.328H444.15C442.452 323.78 440.489 329.116 438.331 334.354ZM76.2419 311.938H445.968C447.5 306.331 448.777 300.628 449.797 294.828H72.418C73.4414 300.624 74.716 306.328 76.2419 311.938ZM427.28 356.783H94.9313C92.1277 351.932 89.5413 346.95 87.1719 341.836H435.034C432.656 346.944 430.071 351.926 427.28 356.783Z" fill="url(#paint1_linear_683_644)"/>
<g style="mix-blend-mode:color-dodge" opacity="0.5" filter="url(#filter1_f_683_644)">
<path fill-rule="evenodd" clip-rule="evenodd" d="M83.957 245.854C91.7915 154.87 168.081 83.4492 261.089 83.4492C354.114 83.4492 430.404 154.87 438.239 245.854H83.957ZM401.273 370.691H120.924C117.678 366.533 114.616 362.245 111.738 357.828H410.441C407.563 362.245 404.507 366.533 401.273 370.691ZM355.035 412.306H167.163C161.813 408.963 156.644 405.338 151.68 401.445H370.527C365.56 405.339 360.389 408.964 355.035 412.306ZM139.992 391.495H382.2C386.252 387.722 390.127 383.768 393.825 379.633H128.359C132.054 383.768 135.932 387.722 139.992 391.495ZM261.092 439.128C286.438 439.147 311.494 433.728 334.567 423.234H187.629C210.698 433.726 235.749 439.146 261.092 439.128ZM83.7378 248.77H438.464C438.749 252.918 438.93 257.083 438.948 261.287C438.948 262.604 438.904 263.909 438.86 265.213C438.844 265.691 438.828 266.17 438.814 266.649H83.3838C83.3699 266.17 83.3538 265.692 83.3377 265.213L83.3377 265.213C83.2939 263.909 83.25 262.604 83.25 261.287C83.25 257.083 83.4486 252.918 83.7378 248.77ZM85.1843 287.463H437.019C437.835 281.916 438.413 276.292 438.706 270.59H83.4922C83.7857 276.292 84.3641 281.916 85.1843 287.463ZM425.548 329.077H96.6555C94.6483 324.217 92.8268 319.266 91.2383 314.207H430.948C429.372 319.266 427.55 324.217 425.548 329.077ZM89.5638 308.275H432.631C434.053 303.072 435.237 297.78 436.184 292.398H86.0156C86.9653 297.777 88.148 303.069 89.5638 308.275ZM415.295 349.885H106.911C104.309 345.384 101.909 340.761 99.7109 336.016H422.491C420.284 340.755 417.885 345.378 415.295 349.885Z" fill="url(#paint2_linear_683_644)"/>
</g>
<g style="mix-blend-mode:color-dodge" opacity="0.4" filter="url(#filter2_f_683_644)">
<path fill-rule="evenodd" clip-rule="evenodd" d="M130.641 249.922C136.41 182.916 192.596 130.316 261.093 130.316C329.603 130.316 385.788 182.916 391.558 249.922H130.641ZM364.33 341.86H157.863C155.472 338.798 153.217 335.64 151.098 332.387H371.083C368.963 335.64 366.713 338.798 364.33 341.86ZM330.28 372.502H191.919C187.978 370.04 184.172 367.371 180.516 364.504H341.69C338.032 367.372 334.223 370.041 330.28 372.502ZM171.903 357.181H350.282C353.266 354.403 356.119 351.491 358.843 348.445H163.336C166.057 351.491 168.913 354.403 171.903 357.181ZM261.087 392.267C279.754 392.282 298.207 388.29 315.2 380.562H206.984C223.974 388.289 242.423 392.281 261.087 392.267ZM130.476 252.07H391.721C391.931 255.125 392.065 258.193 392.077 261.289C392.077 262.259 392.045 263.22 392.013 264.181C392.001 264.533 391.989 264.885 391.979 265.238H130.216C130.205 264.885 130.194 264.533 130.182 264.181L130.182 264.181C130.15 263.22 130.117 262.259 130.117 261.289C130.117 258.193 130.263 255.125 130.476 252.07ZM131.543 280.567H390.658C391.259 276.482 391.685 272.34 391.901 268.141H130.297C130.513 272.34 130.939 276.482 131.543 280.567ZM382.208 311.213H139.99C138.511 307.634 137.17 303.987 136 300.262H386.185C385.025 303.987 383.683 307.634 382.208 311.213ZM134.769 295.891H387.428C388.475 292.06 389.347 288.162 390.044 284.199H132.156C132.856 288.16 133.727 292.058 134.769 295.891ZM374.652 326.538H147.537C145.621 323.224 143.854 319.819 142.234 316.324H379.952C378.326 319.815 376.56 323.219 374.652 326.538Z" fill="url(#paint3_linear_683_644)"/>
</g>
<path d="M323.699 157.381C343.738 146.494 358.249 142.416 381.393 148.595C404.533 154.773 406.407 198.691 416.117 217.52C402.324 200.49 394.428 167.95 370.299 166.47C346.167 164.994 321.752 173.441 306.131 188.67C309.81 191.641 313.49 194.612 317.167 197.579C286.084 215.612 244.05 219.662 208.109 208.092C221.018 206.726 233.301 201.997 242.874 194.705C228.347 173.379 194.406 166.956 166.17 171.281C137.931 175.608 136.824 210.43 109.668 218.034C133.049 191.39 145.15 157.793 180.206 147.794C193.671 143.95 200.798 143.263 213.925 148.382C229.768 154.564 251.836 176.716 268.954 179.137C284.197 181.298 310.897 164.337 323.7 157.381H323.699Z" fill="#05113B"/>
<path d="M172.725 293.543C186.673 285.958 196.774 283.117 212.884 287.422C228.992 291.726 230.296 322.325 237.055 335.443C227.454 323.578 221.957 300.907 205.162 299.876C188.364 298.847 171.369 304.732 160.496 315.343C163.057 317.413 165.619 319.483 168.178 321.55C146.542 334.114 117.282 336.936 92.2652 328.874C101.25 327.923 109.8 324.628 116.464 319.548C106.352 304.689 82.7265 300.214 63.0719 303.228C43.4152 306.243 42.6451 330.503 23.7422 335.801C40.0169 317.238 48.4408 293.83 72.8419 286.864C82.2148 284.185 87.1759 283.707 96.3134 287.273C107.341 291.58 122.703 307.014 134.618 308.701C145.228 310.206 163.814 298.39 172.725 293.543H172.725Z" fill="#05113B"/>
<path d="M369.004 377.796C384.17 369.587 395.153 366.511 412.67 371.171C430.184 375.83 431.602 408.948 438.952 423.147C428.512 410.305 422.536 385.767 404.274 384.651C386.009 383.537 367.53 389.907 355.707 401.392C358.492 403.632 361.277 405.872 364.06 408.11C340.535 421.708 308.72 424.763 281.518 416.037C291.288 415.008 300.585 411.441 307.831 405.943C296.835 389.86 271.147 385.017 249.776 388.279C228.403 391.542 227.565 417.8 207.012 423.535C224.708 403.443 233.867 378.107 260.399 370.567C270.59 367.668 275.985 367.15 285.92 371.01C297.911 375.672 314.614 392.377 327.569 394.203C339.106 395.832 359.315 383.042 369.004 377.796H369.004Z" fill="#05113B"/>
<defs>
<filter id="filter0_f_683_644" x="0.303268" y="0.506393" width="521.597" height="521.581" filterUnits="userSpaceOnUse" color-interpolation-filters="sRGB">
<feFlood flood-opacity="0" result="BackgroundImageFix"/>
<feBlend mode="normal" in="SourceGraphic" in2="BackgroundImageFix" result="shape"/>
<feGaussianBlur stdDeviation="23.7488" result="effect1_foregroundBlur_683_644"/>
</filter>
<filter id="filter1_f_683_644" x="49.7223" y="49.9216" width="422.755" height="422.735" filterUnits="userSpaceOnUse" color-interpolation-filters="sRGB">
<feFlood flood-opacity="0" result="BackgroundImageFix"/>
<feBlend mode="normal" in="SourceGraphic" in2="BackgroundImageFix" result="shape"/>
<feGaussianBlur stdDeviation="16.7638" result="effect1_foregroundBlur_683_644"/>
</filter>
<filter id="filter2_f_683_644" x="96.5895" y="96.7887" width="329.016" height="329.005" filterUnits="userSpaceOnUse" color-interpolation-filters="sRGB">
<feFlood flood-opacity="0" result="BackgroundImageFix"/>
<feBlend mode="normal" in="SourceGraphic" in2="BackgroundImageFix" result="shape"/>
<feGaussianBlur stdDeviation="16.7638" result="effect1_foregroundBlur_683_644"/>
</filter>
<linearGradient id="paint0_linear_683_644" x1="261.102" y1="48.0039" x2="261.102" y2="474.589" gradientUnits="userSpaceOnUse">
<stop stop-color="#15CEF7"/>
<stop offset="1" stop-color="#9123C5"/>
</linearGradient>
<linearGradient id="paint1_linear_683_644" x1="261.103" y1="69.6367" x2="261.103" y2="452.953" gradientUnits="userSpaceOnUse">
<stop stop-color="#15CEF7"/>
<stop offset="1" stop-color="#9123C5"/>
</linearGradient>
<linearGradient id="paint2_linear_683_644" x1="261.099" y1="83.4492" x2="261.099" y2="439.128" gradientUnits="userSpaceOnUse">
<stop stop-color="#15CEF7"/>
<stop offset="1" stop-color="#9123C5"/>
</linearGradient>
<linearGradient id="paint3_linear_683_644" x1="261.097" y1="130.316" x2="261.097" y2="392.268" gradientUnits="userSpaceOnUse">
<stop stop-color="#15CEF7"/>
<stop offset="1" stop-color="#9123C5"/>
</linearGradient>
</defs>
</svg>
