<svg width="308" height="308" viewBox="0 0 308 308" fill="none" xmlns="http://www.w3.org/2000/svg">
<circle cx="154" cy="154" r="151" fill="#1B1B1B" stroke="#BDBDBD" stroke-width="6"/>
<path d="M187.249 57.8574L150.134 91.4218C146.291 94.903 141.291 96.8277 136.1 96.8515L125.037 96.8752L125.001 57.8574H105V169.362H115.908C122.006 169.362 127.698 166.143 130.682 160.855C130.706 160.82 130.718 160.784 130.742 160.76C132.723 157.22 133.713 150.222 133.522 145.446C133.092 134.527 131.326 131.687 131.326 131.687C130.956 139.172 123.104 139.576 123.104 139.576C128.689 134.265 125.646 130.25 125.646 130.25C115.752 137.259 113.282 129.774 113.091 129.097C113.401 129.358 116.218 131.699 121.564 124.404C127.221 116.693 134.763 103.838 139.561 100.535C144.37 97.2198 148.929 97.4931 148.929 97.4931C148.929 97.4931 151.554 93.9525 158.5 91.0059C165.445 88.0832 169.897 92.3723 169.897 92.3723C162.796 98.0752 153.153 107.438 152.616 120.851C152.187 131.711 175.697 150.341 171.567 177.857C174.038 171.608 175.028 165.347 174.181 157.6C173.501 151.35 169.455 138.293 169.455 138.293L192.034 169.35H217L168.202 102.614L217 57.8574H187.249Z" fill="url(#kusd0_linear)"/>
<path d="M141.768 105.871C140.193 108.473 140.193 109.269 140.193 109.269C140.193 109.269 145.707 108.342 147.198 101.819C147.21 101.819 143.678 102.722 141.768 105.871Z" fill="url(#kusd1_linear)"/>
<path d="M134.917 199.695V232.821C134.917 236.575 134.116 239.831 132.515 242.588C130.915 245.323 128.618 247.408 125.625 248.845C122.632 250.282 119.094 251 115.011 251C108.839 251 103.979 249.401 100.429 246.203C96.8793 243.005 95.0696 238.626 95 233.064V199.695H107.285V233.307C107.424 238.846 109.999 241.615 115.011 241.615C117.539 241.615 119.453 240.92 120.753 239.529C122.052 238.139 122.702 235.88 122.702 232.751V199.695H134.917Z" fill="url(#kusd2_linear)"/>
<path d="M168.708 236.853C168.708 235.069 168.07 233.678 166.794 232.682C165.542 231.685 163.326 230.654 160.147 229.588C156.969 228.522 154.37 227.491 152.352 226.495C145.786 223.274 142.503 218.848 142.503 213.217C142.503 210.413 143.315 207.945 144.939 205.813C146.587 203.658 148.907 201.989 151.9 200.807C154.892 199.602 158.257 199 161.992 199C165.634 199 168.894 199.649 171.771 200.947C174.671 202.244 176.921 204.098 178.522 206.508C180.123 208.895 180.924 211.629 180.924 214.711H168.743C168.743 212.649 168.105 211.05 166.829 209.914C165.576 208.779 163.871 208.211 161.713 208.211C159.533 208.211 157.804 208.698 156.528 209.671C155.275 210.621 154.649 211.838 154.649 213.321C154.649 214.619 155.345 215.8 156.737 216.866C158.129 217.909 160.577 218.998 164.08 220.134C167.583 221.246 170.46 222.451 172.711 223.749C178.186 226.9 180.924 231.245 180.924 236.783C180.924 241.209 179.253 244.685 175.912 247.211C172.571 249.737 167.989 251 162.166 251C158.059 251 154.336 250.27 150.995 248.81C147.677 247.327 145.171 245.311 143.478 242.762C141.807 240.19 140.972 237.235 140.972 233.898H153.222C153.222 236.61 153.918 238.614 155.31 239.912C156.725 241.186 159.011 241.824 162.166 241.824C164.184 241.824 165.774 241.395 166.934 240.537C168.117 239.657 168.708 238.429 168.708 236.853Z" fill="url(#kusd3_linear)"/>
<path d="M187.188 250.305V199.695H203.509C207.987 199.695 212.012 200.715 215.585 202.754C219.158 204.77 221.942 207.632 223.938 211.34C225.956 215.024 226.977 219.16 227 223.749V226.078C227 230.712 226.014 234.872 224.042 238.556C222.093 242.217 219.332 245.091 215.759 247.176C212.21 249.239 208.242 250.282 203.857 250.305H187.188ZM199.403 209.115V240.92H203.649C207.152 240.92 209.843 239.68 211.722 237.201C213.602 234.698 214.541 230.99 214.541 226.078V223.888C214.541 218.998 213.602 215.314 211.722 212.834C209.843 210.355 207.105 209.115 203.509 209.115H199.403Z" fill="url(#kusd4_linear)"/>
<defs>
<linearGradient id="kusd0_linear" x1="222.349" y1="423.857" x2="344.812" y2="363.012" gradientUnits="userSpaceOnUse">
<stop stop-color="#FF4C3B"/>
<stop offset="1" stop-color="#E40C5B"/>
</linearGradient>
<linearGradient id="kusd1_linear" x1="147.533" y1="124.54" x2="155.17" y2="120.717" gradientUnits="userSpaceOnUse">
<stop stop-color="#FF4C3B"/>
<stop offset="1" stop-color="#E40C5B"/>
</linearGradient>
<linearGradient id="kusd2_linear" x1="233.304" y1="357.6" x2="296.984" y2="271.549" gradientUnits="userSpaceOnUse">
<stop stop-color="#FF4C3B"/>
<stop offset="1" stop-color="#E40C5B"/>
</linearGradient>
<linearGradient id="kusd3_linear" x1="233.304" y1="357.6" x2="296.984" y2="271.549" gradientUnits="userSpaceOnUse">
<stop stop-color="#FF4C3B"/>
<stop offset="1" stop-color="#E40C5B"/>
</linearGradient>
<linearGradient id="kusd4_linear" x1="233.304" y1="357.6" x2="296.984" y2="271.549" gradientUnits="userSpaceOnUse">
<stop stop-color="#FF4C3B"/>
<stop offset="1" stop-color="#E40C5B"/>
</linearGradient>
</defs>
</svg>
