<svg width="44" height="44" viewBox="0 0 44 44" fill="none" xmlns="http://www.w3.org/2000/svg">
<circle cx="22" cy="21" r="20" fill="white"/>
<circle cx="22" cy="21" r="20" stroke="url(#paint0_linear_1752_19271)" stroke-width="2"/>
<circle cx="22" cy="21" r="20" stroke="url(#paint1_linear_1752_19271)" stroke-opacity="0.2" stroke-width="2"/>
<g clip-path="url(#clip0_1752_19271)">
<path d="M22.1121 11C17.4558 11.0168 13.6857 14.3991 13.667 18.5765C13.667 19.4131 13.8175 20.2441 14.1123 21.0376C14.3323 21.5777 14.9851 21.8686 15.5979 21.7016C16.1902 21.4978 16.5046 20.9169 16.3158 20.3736C16.0655 19.7551 15.9542 19.0991 15.9871 18.4423C16.0887 15.4251 18.8969 13.0527 22.2599 13.1438C25.623 13.2349 28.2674 15.7543 28.1658 18.7715C28.0705 21.5961 25.591 23.8901 22.4461 24.0619C22.4461 24.0619 21.2606 24.1266 20.671 24.1914C20.4537 24.2193 20.2382 24.2577 20.0253 24.3064C19.995 24.3344 19.946 24.3344 19.9149 24.3072L19.914 24.3064C19.8926 24.2817 19.8926 24.2465 19.914 24.2217L20.0975 23.3236L21.2108 18.8314C21.3444 18.2705 20.9462 17.7183 20.321 17.5985C19.6958 17.4786 19.0803 17.8358 18.9467 18.3967C18.9467 18.3967 16.2989 29.3923 16.2989 29.4922C16.1474 30.0268 16.5073 30.5701 17.1031 30.706C17.1093 30.7075 17.1165 30.7091 17.1227 30.7099H17.1842C17.7791 30.8482 18.3865 30.527 18.5397 29.9932C18.5424 29.9844 18.5451 29.9756 18.5468 29.966C18.5451 29.9493 18.5451 29.9325 18.5468 29.9165C18.5798 29.7871 18.9138 28.324 18.9138 28.324C19.1667 27.2197 20.1589 26.3735 21.4005 26.2026C21.6561 26.1674 22.7302 26.1027 22.7302 26.1027C27.3687 25.688 30.754 21.978 30.2909 17.8166C29.8687 14.0212 26.364 11.0991 22.1121 11Z" fill="url(#paint2_linear_1752_19271)"/>
<path d="M22.1121 11C17.4558 11.0168 13.6857 14.3991 13.667 18.5765C13.667 19.4131 13.8175 20.2441 14.1123 21.0376C14.3323 21.5777 14.9851 21.8686 15.5979 21.7016C16.1902 21.4978 16.5046 20.9169 16.3158 20.3736C16.0655 19.7551 15.9542 19.0991 15.9871 18.4423C16.0887 15.4251 18.8969 13.0527 22.2599 13.1438C25.623 13.2349 28.2674 15.7543 28.1658 18.7715C28.0705 21.5961 25.591 23.8901 22.4461 24.0619C22.4461 24.0619 21.2606 24.1266 20.671 24.1914C20.4537 24.2193 20.2382 24.2577 20.0253 24.3064C19.995 24.3344 19.946 24.3344 19.9149 24.3072L19.914 24.3064C19.8926 24.2817 19.8926 24.2465 19.914 24.2217L20.0975 23.3236L21.2108 18.8314C21.3444 18.2705 20.9462 17.7183 20.321 17.5985C19.6958 17.4786 19.0803 17.8358 18.9467 18.3967C18.9467 18.3967 16.2989 29.3923 16.2989 29.4922C16.1474 30.0268 16.5073 30.5701 17.1031 30.706C17.1093 30.7075 17.1165 30.7091 17.1227 30.7099H17.1842C17.7791 30.8482 18.3865 30.527 18.5397 29.9932C18.5424 29.9844 18.5451 29.9756 18.5468 29.966C18.5451 29.9493 18.5451 29.9325 18.5468 29.9165C18.5798 29.7871 18.9138 28.324 18.9138 28.324C19.1667 27.2197 20.1589 26.3735 21.4005 26.2026C21.6561 26.1674 22.7302 26.1027 22.7302 26.1027C27.3687 25.688 30.754 21.978 30.2909 17.8166C29.8687 14.0212 26.364 11.0991 22.1121 11Z" fill="white" fill-opacity="0.1"/>
<path d="M22.6244 28.4666C21.8629 28.3244 21.1183 28.763 20.9597 29.4454C20.958 29.4518 20.9571 29.4582 20.9553 29.4646C20.7905 30.143 21.2697 30.8134 22.0267 30.9612C22.0276 30.9612 22.0285 30.9612 22.0294 30.962H22.0686C22.8096 31.1226 23.5551 30.7135 23.7332 30.0495C23.735 30.0447 23.7359 30.0391 23.7377 30.0343V29.9648C23.8686 29.2792 23.3805 28.6216 22.6244 28.4666Z" fill="#E6007A"/>
</g>
<circle cx="35" cy="35" r="7.5" fill="#F1F0FF" stroke="#645AFF"/>
<path d="M35.472 39.4642C34.6157 39.4642 33.8472 39.2837 33.1663 38.9226C32.4855 38.5616 31.9542 38.0613 31.5725 37.4217C31.1908 36.7718 31 36.0393 31 35.2244C31 34.4094 31.1908 33.6821 31.5725 33.0426C31.9542 32.403 32.4803 31.9026 33.1509 31.5416C33.8317 31.1805 34.6054 31 35.472 31C36.2869 31 36.9987 31.1651 37.6074 31.4952C38.2263 31.8253 38.6905 32.2998 39 32.9188L37.5145 33.7853C37.2772 33.4036 36.9781 33.1199 36.617 32.9342C36.2663 32.7382 35.8794 32.6402 35.4565 32.6402C34.7344 32.6402 34.136 32.8775 33.6615 33.352C33.187 33.8162 32.9497 34.4404 32.9497 35.2244C32.9497 36.0084 33.1818 36.6377 33.646 37.1122C34.1206 37.5764 34.724 37.8085 35.4565 37.8085C35.8794 37.8085 36.2663 37.7157 36.617 37.53C36.9781 37.334 37.2772 37.0451 37.5145 36.6634L39 37.53C38.6802 38.1489 38.2108 38.6286 37.5919 38.9691C36.9832 39.2992 36.2766 39.4642 35.472 39.4642Z" fill="#645AFF"/>
<defs>
<linearGradient id="paint0_linear_1752_19271" x1="58.2083" y1="57.0667" x2="2.40969" y2="-11.2679" gradientUnits="userSpaceOnUse">
<stop stop-color="#645AFF"/>
<stop offset="0.520746" stop-color="#E40C5B"/>
<stop offset="0.985908" stop-color="#FF4C3B"/>
</linearGradient>
<linearGradient id="paint1_linear_1752_19271" x1="23.3833" y1="-15.4333" x2="74.6539" y2="-4.16903" gradientUnits="userSpaceOnUse">
<stop stop-color="white"/>
<stop offset="1" stop-color="white" stop-opacity="0"/>
</linearGradient>
<linearGradient id="paint2_linear_1752_19271" x1="33.4698" y1="34.0911" x2="10.7216" y2="17.5507" gradientUnits="userSpaceOnUse">
<stop stop-color="#645AFF"/>
<stop offset="0.60257" stop-color="#E40C5B"/>
<stop offset="1" stop-color="#FF4C3B"/>
</linearGradient>
<clipPath id="clip0_1752_19271">
<rect width="16.6667" height="20" fill="white" transform="translate(13.667 11)"/>
</clipPath>
</defs>
</svg>
