<svg width="32" height="32" viewBox="0 0 32 32" fill="none" xmlns="http://www.w3.org/2000/svg">
<path d="M31 16C31 24.2843 24.2843 31 16 31C7.71573 31 1 24.2843 1 16C1 7.71573 7.71573 1 16 1C24.2843 1 31 7.71573 31 16Z" fill="white" stroke="url(#paint0_linear)" stroke-width="2"/>
<path d="M16.3974 8.23541C13.1687 8.23541 10.5298 10.8722 10.5298 14.133C10.5298 14.7883 10.6384 15.428 10.8402 16.0521C10.9799 16.4733 11.4456 16.7074 11.8803 16.5669C12.2994 16.4265 12.5322 15.9585 12.3925 15.5216C12.2218 15.0379 12.1442 14.5231 12.1597 14.0082C12.2218 11.8083 13.9914 9.99845 16.1801 9.88923C18.6172 9.76442 20.6352 11.7147 20.6352 14.133C20.6352 16.3953 18.8656 18.252 16.6458 18.3768C16.6458 18.3768 15.8231 18.4236 15.4195 18.486C15.2177 18.5172 15.0625 18.5484 14.9538 18.564C14.9072 18.5796 14.8607 18.5328 14.8762 18.486L15.0159 17.7995L15.7765 14.2734C15.8697 13.8366 15.5902 13.3997 15.1556 13.3061C14.721 13.2125 14.2863 13.4933 14.1932 13.9302C14.1932 13.9302 12.3615 22.5113 12.346 22.6049C12.2528 23.0418 12.5322 23.4787 12.9669 23.5723C13.4015 23.6659 13.8362 23.3851 13.9293 22.9482C13.9448 22.8546 14.1932 21.7156 14.1932 21.7156C14.3795 20.8419 15.0935 20.2022 15.9317 20.093C16.118 20.0618 16.8476 20.015 16.8476 20.015C19.8746 19.781 22.2651 17.2378 22.2651 14.133C22.2651 10.8722 19.6262 8.23541 16.3974 8.23541ZM16.8165 21.8092C16.2888 21.7 15.761 22.0277 15.6523 22.5737C15.5437 23.1042 15.8697 23.6347 16.413 23.7439C16.9407 23.8531 17.4685 23.5255 17.5772 22.9794C17.6858 22.4333 17.3598 21.9185 16.8165 21.8092Z" fill="url(#paint1_linear)"/>
<defs>
<linearGradient id="paint0_linear" x1="32.1424" y1="31" x2="2.39073" y2="0.403972" gradientUnits="userSpaceOnUse">
<stop stop-color="#5A81FF"/>
<stop offset="0.5238" stop-color="#E40C5B"/>
<stop offset="1" stop-color="#FF4C3B"/>
</linearGradient>
<linearGradient id="paint1_linear" x1="21.6065" y1="23.7648" x2="8.84611" y2="11.7725" gradientUnits="userSpaceOnUse">
<stop stop-color="#5A81FF"/>
<stop offset="0.5238" stop-color="#E40C5B"/>
<stop offset="1" stop-color="#FF4C3B"/>
</linearGradient>
</defs>
</svg>
