<svg width="302" height="302" viewBox="0 0 302 302" fill="none" xmlns="http://www.w3.org/2000/svg">
<path d="M294 151C294 229.977 229.977 294 151 294C72.0233 294 8 229.977 8 151C8 72.0233 72.0233 8 151 8C229.977 8 294 72.0233 294 151Z" fill="white" stroke="url(#lksm0_linear)" stroke-width="16"/>
<path d="M228.771 103.718C226.138 101.639 222.999 98.8007 217.277 98.091C211.909 97.3813 206.441 100.98 202.744 103.363C199.048 105.745 192.06 112.741 189.174 114.87C186.287 116.999 178.894 118.976 166.995 126.124C155.095 133.271 108.408 163.281 108.408 163.281L120.561 163.433L66.3799 191.364H71.798L64 197.295C64 197.295 70.8866 199.12 76.6591 195.47V197.143C76.6591 197.143 141.17 171.695 153.627 178.285L146.031 180.516C146.69 180.516 158.944 181.327 158.944 181.327C159.241 183.867 160.094 186.311 161.442 188.484C162.79 190.656 164.599 192.505 166.742 193.898C174.135 198.765 174.286 201.452 174.286 201.452C174.286 201.452 170.438 203.023 170.438 205C170.438 205 176.109 203.276 181.376 203.429C184.718 203.555 188.033 204.083 191.25 205C191.25 205 190.845 202.871 185.73 201.452C180.616 200.032 175.552 194.456 173.071 191.415C171.551 189.479 170.561 187.18 170.197 184.745C169.833 182.31 170.108 179.822 170.995 177.525C172.767 172.912 178.945 170.378 191.705 163.788C206.745 155.981 210.188 150.202 212.315 145.691C214.441 141.179 217.581 132.207 219.353 127.999C221.581 122.575 224.315 119.686 226.594 117.962C228.873 116.239 239 112.437 239 112.437C239 112.437 231.253 105.695 228.771 103.718Z" fill="url(#lksm1_linear)"/>
<defs>
<linearGradient id="lksm0_linear" x1="316.424" y1="921.1" x2="637.239" y2="750.319" gradientUnits="userSpaceOnUse">
<stop stop-color="#FF4C3B"/>
<stop offset="1" stop-color="#E40C5B"/>
</linearGradient>
<linearGradient id="lksm1_linear" x1="247.358" y1="424.35" x2="383.07" y2="306.194" gradientUnits="userSpaceOnUse">
<stop stop-color="#FF4C3B"/>
<stop offset="1" stop-color="#E40C5B"/>
</linearGradient>
</defs>
</svg>
