<svg width="656" height="656" viewBox="0 0 656 656" fill="none" xmlns="http://www.w3.org/2000/svg">
<path fill-rule="evenodd" clip-rule="evenodd" d="M152.504 563.241C80.8881 509.727 34.5263 424.278 34.5263 328C34.5263 165.919 165.919 34.5263 328 34.5263C461.769 34.5263 607.849 114.467 643.178 236.898C603.699 100.086 477.56 -6.10352e-05 328 -6.10352e-05C146.851 -6.10352e-05 0 146.851 0 328C0 509.149 146.851 656 328 656C509.149 656 656 509.149 656 328V310.737L637.98 310.733C637.444 310.729 636.634 310.721 635.578 310.705C633.465 310.673 630.369 310.608 626.508 310.477C618.774 310.214 608.025 309.689 595.983 308.642C571.372 306.501 543.307 302.324 524.191 294.689C493.437 282.407 476.074 266.125 456.234 247.073L455.088 245.972C435.214 226.88 412.886 205.431 374.191 187.221C336.07 169.282 293.917 172.16 262.941 178.534C247.211 181.77 233.737 186.038 224.178 189.5C219.386 191.235 215.545 192.78 212.859 193.911C197.271 200.474 182.141 208.239 166.843 215.443C166.843 215.443 196.858 223.676 211.703 228.272C212.24 228.438 213.078 228.704 214.175 229.073C216.371 229.813 219.585 230.959 223.474 232.533C231.304 235.703 241.603 240.499 251.77 247.035C267.783 257.329 281.059 270.28 286.504 286.179C252.511 290.648 220.629 305.569 196.787 319.594C182.33 328.098 170.307 336.585 161.881 342.958C157.66 346.151 154.32 348.829 152.006 350.734C150.064 352.333 119.373 379.388 119.373 379.388C119.373 379.388 158.969 383.599 178.508 387.536C191.507 390.155 209.032 394.37 227.312 400.749C245.676 407.156 264.227 415.55 279.622 426.296C295.049 437.064 306.347 449.513 311.924 463.764C328.162 505.263 312.228 545.689 280.235 568.429C248.622 590.899 200.56 596.241 152.504 563.241ZM264.417 614.567C277.342 610.369 289.406 604.27 300.238 596.57C343.772 565.627 366.68 508.947 344.076 451.183C335.196 428.49 318.227 411.137 299.384 397.985C280.509 384.81 258.789 375.164 238.687 368.15C225.469 363.538 212.702 359.978 201.52 357.276C205.487 354.688 209.76 352.02 214.292 349.353C240.864 333.723 274.329 319.368 306.421 319.368C354.792 319.368 390.817 334.211 425.213 350.139C428.34 351.586 431.478 353.059 434.633 354.539C465.37 368.959 497.652 384.105 535.158 384.105C571.532 384.105 599.862 373.822 619.386 363.187C602.002 508.678 478.173 621.474 328 621.474C306.167 621.474 284.89 619.089 264.417 614.567ZM582.08 341.981C569.153 346.392 553.482 349.579 535.158 349.579C505.735 349.579 480.456 337.792 448.364 322.829C445.539 321.512 442.66 320.169 439.722 318.809C407.588 303.928 370.411 288.158 322.018 285.3C315.525 253.259 291.241 231.364 270.44 217.992C268.123 216.502 265.809 215.091 263.52 213.758C265.595 213.27 267.724 212.799 269.9 212.351C297.853 206.599 331.225 205.161 359.49 218.461C393.036 234.248 411.959 252.421 431.646 271.329L432.32 271.976C452.578 291.43 474.004 311.824 511.386 326.753C532.153 335.047 559.03 339.508 582.08 341.981Z" fill="url(#paint0_linear_421_2723)"/>
<defs>
<linearGradient id="paint0_linear_421_2723" x1="0" y1="656" x2="667.764" y2="643.798" gradientUnits="userSpaceOnUse">
<stop stop-color="#29CCB9"/>
<stop offset="0.494792" stop-color="#0091FF"/>
<stop offset="1" stop-color="#FF66B7"/>
</linearGradient>
</defs>
</svg>
