<svg width="43" height="43" viewBox="0 0 43 43" fill="none" xmlns="http://www.w3.org/2000/svg">
<path d="M21.5 42.7001C33.2085 42.7001 42.7001 33.2085 42.7001 21.5C42.7001 9.79161 33.2085 0.300049 21.5 0.300049C9.79161 0.300049 0.300049 9.79161 0.300049 21.5C0.300049 33.2085 9.79161 42.7001 21.5 42.7001Z" fill="#F9FFF3"/>
<path d="M17.5401 25.4598C19.7321 23.2678 23.2677 23.2678 25.4597 25.4598C23.2677 23.2678 23.3384 19.8029 25.4597 17.5402C23.2677 19.7322 19.7321 19.7322 17.5401 17.5402C19.7321 19.7322 19.7321 23.2678 17.5401 25.4598ZM17.2573 17.2574C14.9238 14.9239 14.9238 11.1055 17.2573 8.77208C19.5907 6.43863 23.4091 6.43863 25.7425 8.77208C28.076 11.1055 28.076 14.9239 25.7425 17.2574C28.076 14.9239 31.8944 14.9239 34.2278 17.2574C36.5613 19.5908 36.5613 23.4092 34.2278 25.7426C31.8944 28.0761 28.076 28.0761 25.7425 25.7426C28.076 28.0761 28.076 31.8945 25.7425 34.2279C23.4091 36.5614 19.5907 36.5614 17.2573 34.2279C14.9238 31.8945 14.9238 28.0761 17.2573 25.7426C14.9238 28.0761 11.1054 28.0761 8.77197 25.7426C6.43852 23.4092 6.43852 19.5908 8.77197 17.2574C11.1054 14.9239 14.9238 14.9239 17.2573 17.2574Z" fill="#FF5995"/>
</svg>
