<svg id="Layer_1" data-name="Layer 1" xmlns="http://www.w3.org/2000/svg" xmlns:xlink="http://www.w3.org/1999/xlink" viewBox="0 0 62.33 59.73"><defs><style>.cls-1{fill:url(#linear-gradient);}.cls-2{fill:url(#linear-gradient-2);}.cls-3{fill:url(#linear-gradient-3);}.cls-4{fill:url(#linear-gradient-4);}.cls-5{fill:url(#linear-gradient-5);}</style><linearGradient id="linear-gradient" x1="6354.39" y1="31" x2="6413.55" y2="31" gradientTransform="matrix(-1, 0, 0, 1, 6416.72, 0)" gradientUnits="userSpaceOnUse"><stop offset="0" stop-color="#e2107b"/><stop offset="1" stop-color="#301748"/><stop offset="1" stop-color="#0d1126"/></linearGradient><linearGradient id="linear-gradient-2" x1="6397.83" y1="26.43" x2="6401.42" y2="26.43" xlink:href="#linear-gradient"/><linearGradient id="linear-gradient-3" x1="6392.11" y1="1.77" x2="6395.78" y2="1.77" xlink:href="#linear-gradient"/><linearGradient id="linear-gradient-4" x1="6413.41" y1="19.58" x2="6416.72" y2="19.58" xlink:href="#linear-gradient"/><linearGradient id="linear-gradient-5" x1="6354.5" y1="48.74" x2="6384.04" y2="37.35" gradientTransform="matrix(-1, 0, 0, 1, 6416.72, 0)" gradientUnits="userSpaceOnUse"><stop offset="0" stop-color="#0d1126"/><stop offset="0" stop-color="#301748"/><stop offset="1" stop-color="#e2107b"/></linearGradient></defs><path class="cls-1" d="M29.6,54.08A37.52,37.52,0,0,1,26,50.27c-2.66-3.41-8.57-9.42-10-10.91-1.69-1.73-3.4-3.45-5.08-5.19-.24-.25-.64-.55-.39-1s.7-.36,1.11-.34a1.63,1.63,0,0,1,.53.12l3.6,1.45c2.38,1,4.75,2,7.16,2.88,1.44.55,2.06,0,1.79-1.52-.23-1.27-.55-2.51-.89-3.76a2,2,0,0,1,1.67-2.53c.5-.08,1-.09,1.5-.12a1.19,1.19,0,0,0,1.2-.74,1.3,1.3,0,0,0-.43-1.44c-1.63-1.57-3.25-3.16-4.86-4.75l-12.15-12C8.32,8.09,5.93,5.72,3.53,3.37c-.23-.23-.48-.44-.29-.8s.5-.32.83-.26A7.15,7.15,0,0,1,6.56,3.76C8.66,5.2,10.85,6.49,13,7.86c1.48.94,3,1.84,4.46,2.79s2.88,1.9,4.33,2.82c2.09,1.33,4.2,2.61,6.29,3.94,2.25,1.44,4.48,2.9,6.72,4.35.4.27.77.4,1.19,0s.36-.76.17-1.26a36.44,36.44,0,0,1-1.62-3.4c-.11-.42-.2-.8.2-1.12A1,1,0,0,1,35.88,16a45.89,45.89,0,0,1,4.42,2.39,43.81,43.81,0,0,0,5.45,2.92c3,1.45,6,3.15,8.84,4.87a14.19,14.19,0,0,1,4,3.89,18,18,0,0,1,2.08,3.71,22.2,22.2,0,0,1,1.53,5.95,17.85,17.85,0,0,1-2.56,10.86,20.37,20.37,0,0,1-5.56,5.81,22.63,22.63,0,0,1-4.79,2.49,16.3,16.3,0,0,1-5.57.88c-.16,0-.32,0-.48,0C39.2,59.48,35.22,58.91,29.6,54.08ZM55.83,41.89A11.88,11.88,0,1,0,32.07,42c0,5.67,5.53,12,11.81,11.59C50.37,53.85,55.79,48,55.83,41.89Z"/><path class="cls-2" d="M15.3,26.43a1.87,1.87,0,0,0,1.82,1.88,1.79,1.79,0,0,0,1.77-1.92A1.93,1.93,0,0,0,17,24.55,1.83,1.83,0,0,0,15.3,26.43Z"/><path class="cls-3" d="M22.89,3.54a1.64,1.64,0,0,0,1.72-1.81A1.84,1.84,0,0,0,22.84,0a2.25,2.25,0,0,0-1.9,1.78A1.86,1.86,0,0,0,22.89,3.54Z"/><path class="cls-4" d="M3.31,19.58a1.56,1.56,0,0,0-1.65-1.65A1.83,1.83,0,0,0,0,19.65a1.73,1.73,0,0,0,1.66,1.59A1.59,1.59,0,0,0,3.31,19.58Z"/><path class="cls-5" d="M43.88,53.57c6.49.28,11.91-5.58,11.95-11.68A11.88,11.88,0,1,0,32.07,42C32.05,47.65,37.6,54,43.88,53.57Z"/></svg>