<svg height="300" viewBox="0 0 300 300" width="300" xmlns="http://www.w3.org/2000/svg"><g fill="none"><circle cx="150" cy="150" fill="#fff" r="149"/><path d="m150 0c-82.8 0-150 67.2-150 150s67.2 150 150 150 150-67.2 150-150-67.2-150-150-150z" fill="#b026cf"/><g fill="#fff" transform="translate(68.7 45.237297)"><path d="m121.1 4.16270296c-2-1.5-4.3-3.6-8.5-4.1-4-.5-8 2.1-10.7 3.9-2.7 1.7-7.9 6.90000004-10 8.50000004s-7.6 3-16.3 8.2c-8.7 5.3-43.1 27.3-43.1 27.3l9 .1-39.8 20.5h4l-5.7 4.3s5.1 1.4 9.3-1.4v1.2s47.4-18.7 56.6-13.9l-5.6 1.7c.5 0 9.5.6 9.5.6.2 1.9.9 3.7 1.8 5.3 1 1.6 2.3 3 3.9 4 5.4 3.5 5.6 5.6 5.6 5.6s-2.8 1.2-2.8 2.6c0 0 4.2-1.3 8-1.2 2.5.1 4.9.5 7.2 1.2 0 0-.3-1.6-4-2.6s-7.5-5.1-9.3-7.4c-1.1-1.4-1.9-3.1-2.1-4.9-.3-1.8-.1-3.6.6-5.3 1.3-3.4 5.9-5.3 15.3-10.1 11.1-5.7 13.6-10 15.2-13.3s3.9-9.9 5.2-13c1.7-4 3.6-6.1 5.3-7.4s9.1-4 9.1-4-5.9-4.90000004-7.7-6.40000004z"/><path d="m84.3 113.862703s-9.7 20-55.6 60.9z"/><path d="m84.3 132.562703s-8.1 26.2-60 50.3z"/><path d="m84.3 151.062703s-6.6 27.5-64.4 39.4z"/><path d="m84.3 169.762703s-5 28.8-68.8 28.8z"/><path d="m84.3 95.362703s-11.3 23.4-51.2 71.9l51.2-71.9c.3 0 11.3 23.4 51.2 71.9z"/><path d="m84.3 113.862703s9.7 20 55.6 60.9z"/><path d="m84.3 132.562703s8.1 26.2 60 50.3z"/><path d="m84.3 151.062703s6.6 27.5 64.4 39.4z"/><path d="m84.3 169.762703s5 28.8 68.8 28.8z"/></g></g></svg>