<?xml version="1.0" encoding="utf-8"?>
<!-- Generator: Adobe Illustrator 24.0.2, SVG Export Plug-In . SVG Version: 6.00 Build 0)  -->
<svg version="1.1" id="Layer_1" xmlns="http://www.w3.org/2000/svg" xmlns:xlink="http://www.w3.org/1999/xlink" x="0px" y="0px"
	 viewBox="0 0 500 500" style="enable-background:new 0 0 500 500;" xml:space="preserve">
<style type="text/css">
	.st0{fill:#00A67D;}
	.st1{fill:#FFFFFF;}
</style>
<g>
	<circle class="st0" cx="250" cy="250" r="250"/>
	<g>
		<path class="st1" d="M254.7,242.2c0-3.4-1.8-6.3-4.7-7.8c-2.9,1.6-4.7,4.4-4.7,7.8c0,3.4,1.8,6.2,4.7,7.8
			C252.9,248.4,254.7,245.5,254.7,242.2z"/>
		<path class="st1" d="M254.7,257.8c0-3.4-1.8-6.2-4.7-7.8c-2.9,1.6-4.7,4.4-4.7,7.8c0,3.4,1.8,6.2,4.7,7.8
			C252.9,264.3,254.7,261.2,254.7,257.8z"/>
		<path class="st1" d="M242.2,254.7c4.3,0,7.8-2.1,7.8-4.7c0-2.6-3.5-4.7-7.8-4.7c-4.3,0-7.8,2.1-7.8,4.7
			C234.4,252.6,237.9,254.7,242.2,254.7z"/>
		<path class="st1" d="M257.8,254.7c4.3,0,7.8-2.1,7.8-4.7c0-2.6-3.5-4.7-7.8-4.7s-7.8,2.1-7.8,4.7
			C250,252.6,253.5,254.7,257.8,254.7z"/>
		<path class="st1" d="M202.9,269c-12.2,0-24-6.8-29.9-17.4l-1-1.6l1-1.6c6.2-10.7,17.7-17.4,29.9-17.4c12.2,0,24,6.8,29.9,17.4
			l1,1.6l-1,1.6C226.8,262.2,215.4,269,202.9,269z M179.7,250c5.2,7.8,14.1,12.5,23.4,12.5c9.4,0,18.2-4.7,23.4-12.5
			c-5.2-7.8-14.1-12.5-23.4-12.5C193.7,237.5,184.9,242.2,179.7,250z"/>
		<path class="st1" d="M297.1,269c-12.2,0-24-6.8-29.9-17.4l-1-1.6l1-1.6c6.2-10.7,17.7-17.4,29.9-17.4s24,6.8,29.9,17.4l1,1.6
			l-1,1.6C321.1,262.2,309.4,269,297.1,269z M273.7,250c5.2,7.8,14.1,12.5,23.4,12.5c9.4,0,18.2-4.7,23.4-12.5
			c-5.2-7.8-14.1-12.5-23.4-12.5C287.8,237.5,278.9,242.2,273.7,250z"/>
		<path class="st1" d="M250,328.1l-1.6-1c-10.7-6.2-17.4-17.7-17.4-29.9c0-12.2,6.8-24,17.4-29.9l1.6-1l1.6,1
			c10.7,6.2,17.4,17.7,17.4,29.9c0,12.2-6.8,24-17.4,29.9L250,328.1z M250,273.7c-7.8,5.2-12.5,14.1-12.5,23.4
			c0,9.4,4.7,18.2,12.5,23.4c7.8-5.2,12.5-14.1,12.5-23.4C262.5,287.8,257.8,278.9,250,273.7z"/>
		<path class="st1" d="M250,233.8l-1.6-1c-10.7-6.2-17.4-17.7-17.4-29.9c0-12.2,6.8-24,17.4-29.9l1.6-1l1.6,1
			c10.7,6.2,17.4,17.7,17.4,29.9c0,12.2-6.8,24-17.4,29.9L250,233.8z M250,179.7c-7.8,5.2-12.5,14.1-12.5,23.4s4.7,18.2,12.5,23.4
			c7.8-5.2,12.5-14.1,12.5-23.4C262.5,193.5,257.8,184.9,250,179.7z"/>
		<path class="st1" d="M212,274.5c-4.9,4.9-6.8,12.2-4.9,18.5c6.5,1.8,13.5,0,18.5-4.9c4.9-4.9,6.8-12.2,4.9-18.5
			C224.2,267.7,216.9,269.5,212,274.5z"/>
		<path class="st1" d="M274.5,288c4.9,4.9,12.2,6.8,18.5,4.9c1.8-6.5,0-13.5-4.9-18.5c-4.9-4.9-12.2-6.8-18.5-4.9
			C267.7,275.8,269.5,283.1,274.5,288z"/>
		<path class="st1" d="M212,225.5c-4.9-4.9-6.8-12.2-4.9-18.5c6.5-1.8,13.5,0,18.5,4.9c4.9,4.9,6.8,12.2,4.9,18.5
			C224.2,232.3,216.9,230.5,212,225.5z"/>
		<path class="st1" d="M274.5,212c4.9-4.9,12.2-6.8,18.5-4.9c1.8,6.5,0,13.5-4.9,18.5s-12.2,6.8-18.5,4.9
			C267.7,224.2,269.5,216.9,274.5,212z"/>
	</g>
	<g>
		<ellipse class="st1" cx="250" cy="105.6" rx="65.9" ry="38.3"/>
		<ellipse class="st1" cx="250" cy="394.4" rx="65.9" ry="38.3"/>
		<ellipse transform="matrix(0.5 -0.866 0.866 0.5 -91.5122 197.0873)" class="st1" cx="124.9" cy="177.8" rx="65.9" ry="38.4"/>
		<ellipse transform="matrix(0.5 -0.866 0.866 0.5 -91.5132 485.9238)" class="st1" cx="375.1" cy="322.2" rx="65.9" ry="38.3"/>
		<ellipse transform="matrix(0.866 -0.5 0.5 0.866 -144.3702 105.6329)" class="st1" cx="124.9" cy="322.2" rx="38.4" ry="65.9"/>
		<ellipse transform="matrix(0.866 -0.5 0.5 0.866 -38.6489 211.3727)" class="st1" cx="375.1" cy="177.8" rx="38.3" ry="65.9"/>
	</g>
</g>
</svg>
