<svg width="56" height="56" viewBox="0 0 56 56" fill="none" xmlns="http://www.w3.org/2000/svg">
<path d="M53.4771 39.6319C55.0971 36.0893 56 32.1501 56 28C56 12.536 43.464 0 28 0C12.536 0 0 12.536 0 28C0 43.464 12.536 56 28 56C32.1501 56 36.0893 55.0971 39.6319 53.4771C38.6001 51.9038 38 50.022 38 48C38 42.4772 42.4772 38 48 38C50.022 38 51.9038 38.6001 53.4771 39.6319Z" fill="#EEEDFF"/>
<path d="M20.125 30.3333H17.5C25.1595 26.2136 29.5406 23.5914 36.8295 20.8056C39.3656 18.7504 40.8458 17.6071 43.5114 17.5C45.7407 17.5408 46.9573 18.1803 49 20.4167C46.1996 21.2887 44.6476 21.7929 43.75 24.3056C42.7945 27.0604 41.907 28.2618 39.4545 29.5556C34.7614 31.5583 31.5823 32.7332 32.2955 34.2222C32.9669 36.0102 34.3005 36.9312 37.5455 38.5C35.587 38.1319 34.4365 38.1429 32.2955 38.5L33.25 37.7222C32.7678 37.0827 32.0812 36.574 30.625 35.5833C30.0429 35.0392 29.7769 34.6587 29.4318 33.8333H26.5682L28.2386 33.0556C24.0319 33.0014 19.8185 33.9366 10.1023 36.75C10.1999 36.4357 10.043 36.4397 9.38636 36.75C8.58233 36.7505 8.08087 36.7506 7 36.75C7.63264 36.3058 8.06565 36.0488 8.90909 35.5833H7.71591C11.9293 33.7244 14.5987 32.5895 20.125 30.3333Z" fill="#363F4D"/>
<path d="M56 48C56 52.4183 52.4183 56 48 56C43.5817 56 40 52.4183 40 48C40 43.5817 43.5817 40 48 40C52.4183 40 56 43.5817 56 48Z" fill="url(#vsksm0_linear)"/>
<path d="M48.1719 53C47.6927 53 47.2344 52.9421 46.7969 52.8262C46.3594 52.7103 45.9583 52.5365 45.5937 52.3048C45.2292 52.0731 44.9115 51.7923 44.6406 51.4626C44.4688 51.2477 44.32 51.0112 44.1943 50.7532C44.0722 50.5028 44.2157 50.2134 44.4797 50.1245L45.4958 49.7822C45.7632 49.6922 46.0474 49.8446 46.1783 50.0946C46.3227 50.3705 46.5133 50.6126 46.75 50.8209C47.1146 51.1328 47.5937 51.2888 48.1875 51.2888C48.4062 51.2888 48.6146 51.2665 48.8125 51.2219C49.0208 51.1685 49.2031 51.0971 49.3594 51.008C49.526 50.91 49.6562 50.7897 49.75 50.6471C49.8437 50.5045 49.8906 50.3396 49.8906 50.1524C49.8906 49.9742 49.8542 49.8137 49.7813 49.6711C49.7083 49.5285 49.5833 49.3948 49.4062 49.2701C49.2396 49.1453 49.0156 49.025 48.7344 48.9091C48.4635 48.7932 48.125 48.6729 47.7188 48.5481L47.0312 48.3342C46.7292 48.2451 46.4219 48.1248 46.1094 47.9733C45.8073 47.8217 45.5313 47.639 45.2813 47.4251C45.0313 47.2112 44.8229 46.9617 44.6562 46.6765C44.5 46.3824 44.4219 46.0526 44.4219 45.6872C44.4219 45.3128 44.5052 44.9652 44.6719 44.6444C44.849 44.3146 45.0938 44.0294 45.4063 43.7888C45.7292 43.5392 46.1094 43.3476 46.5469 43.2139C46.9948 43.0713 47.4896 43 48.0312 43C48.5937 43 49.0781 43.0668 49.4844 43.2005C49.901 43.3253 50.25 43.4902 50.5313 43.6952C50.8229 43.8913 51.0573 44.1096 51.2344 44.3503C51.2909 44.4271 51.3427 44.5026 51.3897 44.5767C51.5403 44.8143 51.4066 45.1106 51.1419 45.2058L50.2239 45.5358C49.9689 45.6275 49.6899 45.4926 49.5151 45.2856C49.424 45.1778 49.3148 45.0755 49.1875 44.9786C48.9167 44.7647 48.5417 44.6578 48.0625 44.6578C47.6042 44.6578 47.224 44.7513 46.9219 44.9385C46.6198 45.1168 46.4687 45.3529 46.4687 45.6471C46.4687 45.9323 46.6146 46.1774 46.9062 46.3824C47.1979 46.5784 47.6615 46.7701 48.2969 46.9572L49 47.1578C49.4479 47.2914 49.8542 47.4474 50.2187 47.6257C50.5937 47.795 50.9115 48 51.1719 48.2406C51.4427 48.4813 51.6458 48.7576 51.7813 49.0695C51.9271 49.3725 52 49.7246 52 50.1257C52 50.6248 51.8802 51.057 51.6406 51.4225C51.4115 51.779 51.1146 52.0731 50.75 52.3048C50.3854 52.5365 49.974 52.7103 49.5156 52.8262C49.0573 52.9421 48.6094 53 48.1719 53Z" fill="white"/>
<defs>
<linearGradient id="vsksm0_linear" x1="48" y1="40" x2="48" y2="56" gradientUnits="userSpaceOnUse">
<stop stop-color="#7AEDCF"/>
<stop offset="0.201333" stop-color="#68CEFA"/>
<stop offset="0.403244" stop-color="#689CF8"/>
<stop offset="0.602076" stop-color="#AC57C0"/>
<stop offset="0.801867" stop-color="#E65659"/>
<stop offset="1" stop-color="#F2C241"/>
</linearGradient>
</defs>
</svg>
