<?xml version="1.0" encoding="UTF-8"?>
<svg width="26px" height="26px" viewBox="0 0 26 26" version="1.1" xmlns="http://www.w3.org/2000/svg" xmlns:xlink="http://www.w3.org/1999/xlink">
    <title>币/logo</title>
    <g id="币/logo" stroke="none" stroke-width="1" fill="none" fill-rule="evenodd">
        <circle id="椭圆形" fill="#FFFFFF" cx="13" cy="13" r="13"></circle>
        <g id="编组" transform="translate(6.000000, 4.000000)" fill-rule="nonzero">
            <path d="M7.06319764,-7.4606986e-15 C3.16835591,0.0142483658 0.0145785235,3.09661283 -3.35731437e-14,6.90326127 C-3.35731437e-14,7.66573354 0.125593712,8.42323352 0.372213723,9.14660464 C0.55605084,9.63811135 1.10030847,9.90407818 1.61292597,9.75291366 C2.11038288,9.56815437 2.37451553,9.0366655 2.21555764,8.54029562 C2.00576529,7.97775712 1.91238223,7.38009543 1.9408285,6.78199947 C2.02251753,4.0908435 4.2776839,1.95033473 7.03240045,1.94929417 C9.787117,1.94825361 12.0439756,4.08705803 12.127793,6.77815148 C12.2116104,9.46924493 10.0920386,11.7382555 7.3423579,11.9009799 C7.3423579,11.9009799 6.35421921,11.9616108 5.85793431,12.0222417 C5.67595114,12.047343 5.49548922,12.0820398 5.31733826,12.1261804 C5.29087651,12.1455773 5.25384826,12.1430054 5.23045915,12.1201459 C5.20707004,12.0972864 5.20443853,12.0610966 5.22428484,12.035234 L5.37937387,11.2167169 L6.30990806,7.09814631 C6.42125735,6.5874921 6.08796587,6.08530259 5.56548071,5.97647464 C5.04299554,5.8676467 4.52917119,6.19339124 4.41782188,6.70404545 C4.41782188,6.70404545 2.20226429,16.7601136 2.20226429,16.85106 C2.14060484,17.0962767 2.18500205,17.3554887 2.32501053,17.5677108 C2.46501901,17.7799329 2.68827783,17.9264286 2.94226053,17.9727317 C3.19370792,18.0316099 3.45885986,17.9870888 3.67578439,17.8495671 C3.89270891,17.7120454 4.04240914,17.4935665 4.08991936,17.2451608 C4.12093716,17.123899 4.40009742,15.7900192 4.40009742,15.7900192 C4.61071104,14.7844098 5.44010072,14.0135532 6.47829044,13.8584919 C6.69098397,13.8281764 7.59050035,13.7675455 7.59050035,13.7675455 C11.3229643,13.4303835 14.1349031,10.3007578 13.9946879,6.63982632 C13.8544727,2.97889484 10.8110069,0.0634922334 7.06319764,-7.4606986e-15 Z" id="路径" fill="#000000"></path>
            <path d="M7.45639851,15.8982887 C7.14782177,15.8371487 6.82703777,15.8987443 6.56506357,16.0694391 C6.30308937,16.2401338 6.12153614,16.5058466 6.06059723,16.8077522 C5.99426349,17.1096932 6.05572626,17.4250193 6.23099913,17.6819754 C6.40627199,17.9389315 6.68044636,18.115661 6.99113142,18.1719475 C7.299886,18.2405893 7.62393642,18.1820066 7.88714,18.0099646 C8.15034359,17.8379226 8.32949603,17.5675888 8.38250158,17.262484 C8.49088555,16.6400682 8.08528934,16.0426051 7.45639851,15.8982887 L7.45639851,15.8982887 Z" id="路径" fill="#E6007A"></path>
        </g>
    </g>
</svg>