<svg fill="none" height="200" viewBox="0 0 200 200" width="200" xmlns="http://www.w3.org/2000/svg" xmlns:xlink="http://www.w3.org/1999/xlink"><linearGradient id="a"><stop offset="0" stop-color="#e40c5b"/><stop offset="1" stop-color="#ff4c3b"/></linearGradient><linearGradient id="b" gradientUnits="userSpaceOnUse" x1="209.623" x2="114.031" xlink:href="#a" y1="191.383" y2=".572889"/><linearGradient id="c" gradientUnits="userSpaceOnUse" x1="95.7846" x2="89.8771" xlink:href="#a" y1="97.1142" y2="85.2333"/><circle cx="100" cy="100" fill="#1b1b1b" r="95"/><path d="m128.905 48-33.8007 30.7033c-3.4996 3.1844-8.0535 4.9451-12.7812 4.9668l-10.075.0218-.0326-35.6919h-18.2155v102h9.9337c5.5538 0 10.738-2.945 13.4551-7.782.0218-.032.0326-.065.0544-.087 1.8041-3.239 2.7062-9.64 2.5323-14.009-.3913-9.988-1.9998-12.586-1.9998-12.586-.3369 6.847-7.4883 7.217-7.4883 7.217 5.0864-4.858 2.3149-8.532 2.3149-8.532-9.0099 6.413-11.2596-.435-11.4335-1.054.2826.239 2.8475 2.38 7.7165-4.293 5.1517-7.054 12.0205-18.8133 16.3896-21.8347 4.38-3.0323 8.5317-2.7823 8.5317-2.7823s2.3911-3.2388 8.7164-5.9341c6.325-2.6737 10.379 1.2498 10.379 1.2498-6.466 5.2169-15.248 13.7812-15.7371 26.0513-.3912 9.934 21.0191 26.976 17.2591 52.147 2.25-5.717 3.152-11.445 2.38-18.531-.619-5.717-4.304-17.661-4.304-17.661l20.563 28.41h22.737l-44.441-61.0477 44.441-40.9413z" fill="url(#b)"/><path d="m87.4855 91.9192c-1.4346 2.3802-1.4346 3.1084-1.4346 3.1084s5.0212-.8478 6.3798-6.8145c.0108 0-3.2062.826-4.9452 3.7061z" fill="url(#c)"/></svg>