<?xml version="1.0" encoding="UTF-8"?>
<svg width="26px" height="26px" viewBox="0 0 26 26" version="1.1" xmlns="http://www.w3.org/2000/svg" xmlns:xlink="http://www.w3.org/1999/xlink">
    <title>币/ksm</title>
    <defs>
        <polygon id="path-1" points="0 8.02469136e-05 17.4773565 8.02469136e-05 17.4773565 10.6704923 0 10.6704923"></polygon>
    </defs>
    <g id="币/ksm" stroke="none" stroke-width="1" fill="none" fill-rule="evenodd">
        <g id="编组-2">
            <circle id="椭圆形" fill="#000000" cx="13" cy="13" r="13"></circle>
            <g id="编组" transform="translate(3.250000, 7.583333)">
                <mask id="mask-2" fill="white">
                    <use xlink:href="#path-1"></use>
                </mask>
                <g id="Clip-2"></g>
                <path d="M16.4503966,0.571217593 C16.1887917,0.365384259 15.8732207,0.0829151235 15.3036682,0.00888734568 C14.7660139,-0.0611280864 14.2217392,0.297174383 13.8526034,0.53450463 C13.4834676,0.771634259 12.7849182,1.47018364 12.4950262,1.68123302 C12.2051343,1.89188117 11.4668627,2.08968981 10.2808133,2.80147994 C9.09456327,3.51327006 4.42860648,6.50527623 4.42860648,6.50527623 L5.64113735,6.51851698 L0.237109568,9.31271451 L0.777572531,9.31271451 L-2.00617284e-05,9.9057392 C-2.00617284e-05,9.9057392 0.685087963,10.0903071 1.26507253,9.7211713 L1.26727932,9.88788426 C1.26727932,9.88788426 7.70689352,7.34947377 8.95473302,8.00850154 L8.19800463,8.23178858 C8.26400772,8.23178858 9.48977932,8.31103241 9.48977932,8.31103241 C9.48977932,8.31103241 9.52930093,9.07538426 10.2675725,9.56308488 C11.0056435,10.0507855 11.0188843,10.3143966 11.0188843,10.3143966 C11.0188843,10.3143966 10.6367083,10.4726836 10.6367083,10.6704923 C10.6367083,10.6704923 11.2032515,10.4989645 11.7306744,10.5122052 C12.2578966,10.5252454 12.7191157,10.6704923 12.7191157,10.6704923 C12.7191157,10.6704923 12.6795941,10.4594429 12.165412,10.3143966 C11.6514306,10.1695509 11.1504892,9.61584722 10.9001188,9.31271451 C10.6497485,9.00958179 10.4814306,8.46911883 10.690875,7.92865586 C10.8686219,7.46984414 11.484517,7.21606327 12.7586373,6.55783796 C14.2618627,5.78164969 14.6039151,5.2002608 14.8147639,4.75208179 C15.0256127,4.3041034 15.3419861,3.40774537 15.5167238,2.98604784 C15.7402114,2.44538426 16.0142546,2.1556929 16.2383441,1.98436574 C16.4624336,1.81283796 17.4773565,1.43066204 17.4773565,1.43066204 C17.4773565,1.43066204 16.7023719,0.769226852 16.4503966,0.571217593" id="Fill-1" fill="#FFFFFF" mask="url(#mask-2)"></path>
            </g>
        </g>
    </g>
</svg>