<?xml version="1.0" encoding="UTF-8"?>
<svg width="26px" height="26px" viewBox="0 0 26 26" version="1.1" xmlns="http://www.w3.org/2000/svg" xmlns:xlink="http://www.w3.org/1999/xlink">
    <title>币/westend</title>
    <defs>
        <linearGradient x1="100%" y1="100%" x2="0%" y2="0%" id="linearGradient-1">
            <stop stop-color="#E6017A" offset="0%"></stop>
            <stop stop-color="#F4792E" offset="100%"></stop>
        </linearGradient>
    </defs>
    <g id="币/westend" stroke="none" stroke-width="1" fill="none" fill-rule="evenodd">
        <g id="编组-2">
            <circle id="椭圆形" fill="url(#linearGradient-1)" cx="13" cy="13" r="13"></circle>
            <path d="M4.78867104,17 L5.95146412,12.6885738 L5.98974538,12.6885738 L7.15253847,17 L8.8082027,17 L10.6122068,10.0950188 L8.79863238,10.0950188 L7.86552682,14.7605466 L7.82724557,14.7605466 L6.67402279,10.0950188 L5.26718671,10.0950188 L4.11396394,14.7605466 L4.07568268,14.7605466 L3.14257712,10.0950188 L1.32900272,10.0950188 L3.13300681,17 L4.78867104,17 Z M12.9952148,17 L12.9952148,12.9469722 L13.0334961,12.9469722 L15.9763675,17 L17.3640629,17 L17.3640629,10.0950188 L15.6988284,10.0950188 L15.6988284,14.1097653 L15.6605471,14.1097653 L12.7320312,10.0950188 L11.3299803,10.0950188 L11.3299803,17 L12.9952148,17 Z M21.2256844,17 C23.3072276,17 24.5322277,15.7127928 24.5322277,13.5068356 C24.5322277,11.3056635 23.3072276,10.0950188 21.2256844,10.0950188 L18.4072271,10.0950188 L18.4072271,17 L21.2256844,17 Z M20.9912118,15.5835936 L20.1633796,15.5835936 L20.1633796,11.5114252 L20.9912118,11.5114252 C22.1013681,11.5114252 22.7473643,12.2148433 22.7473643,13.5116207 C22.7473643,14.8897459 22.1348642,15.5835936 20.9912118,15.5835936 Z" id="WND" fill="#FFFFFF" fill-rule="nonzero"></path>
        </g>
    </g>
</svg>