<svg width="20" height="20" viewBox="0 0 20 20" fill="none" xmlns="http://www.w3.org/2000/svg">
<path d="M16.25 3.125H3.75C3.40482 3.125 3.125 3.40482 3.125 3.75V16.25C3.125 16.5952 3.40482 16.875 3.75 16.875H16.25C16.5952 16.875 16.875 16.5952 16.875 16.25V3.75C16.875 3.40482 16.5952 3.125 16.25 3.125Z" stroke="#7B8098" stroke-width="2" stroke-linecap="round" stroke-linejoin="round"/>
<path d="M7.34836 9.22363L10 11.8753L12.6516 9.22363" stroke="#7B8098" stroke-width="2" stroke-linecap="round" stroke-linejoin="round"/>
<path d="M10 5.625V11.875" stroke="#7B8098" stroke-width="2" stroke-linecap="round" stroke-linejoin="round"/>
<path d="M3.12454 12.5H5.99066C6.07273 12.5 6.15401 12.5162 6.22984 12.5476C6.30566 12.579 6.37456 12.625 6.4326 12.6831L7.94148 14.1919C7.99952 14.25 8.06842 14.296 8.14425 14.3274C8.22008 14.3588 8.30135 14.375 8.38343 14.375H11.6157C11.6977 14.375 11.779 14.3588 11.8548 14.3274C11.9307 14.296 11.9996 14.25 12.0576 14.1919L13.5665 12.6831C13.6245 12.625 13.6934 12.579 13.7692 12.5476C13.8451 12.5162 13.9263 12.5 14.0084 12.5H16.8745" stroke="#7B8098" stroke-width="2" stroke-linecap="round" stroke-linejoin="round"/>
</svg>
