<svg viewBox="0 0 26 26" xmlns="http://www.w3.org/2000/svg">
  <path
    d="M13 0C10.4288 0 7.91543 0.762437 5.77759 2.1909C3.63975 3.61935 1.97351 5.64968 0.989572 8.02512C0.0056327 10.4006 -0.251811 13.0144 0.249797 15.5362C0.751405 18.0579 1.98953 20.3743 3.80762 22.1924C5.6257 24.0105 7.94208 25.2486 10.4638 25.7502C12.9856 26.2518 15.5994 25.9944 17.9749 25.0104C20.3503 24.0265 22.3807 22.3603 23.8091 20.2224C25.2376 18.0846 26 15.5712 26 13C25.9961 9.55338 24.6252 6.24905 22.1881 3.81192C19.751 1.37479 16.4466 0.00390097 13 0ZM14.5 19H14V20C14 20.2652 13.8946 20.5196 13.7071 20.7071C13.5196 20.8946 13.2652 21 13 21C12.7348 21 12.4804 20.8946 12.2929 20.7071C12.1054 20.5196 12 20.2652 12 20V19H10C9.73479 19 9.48044 18.8946 9.2929 18.7071C9.10536 18.5196 9 18.2652 9 18C9 17.7348 9.10536 17.4804 9.2929 17.2929C9.48044 17.1054 9.73479 17 10 17H14.5C14.8978 17 15.2794 16.842 15.5607 16.5607C15.842 16.2794 16 15.8978 16 15.5C16 15.1022 15.842 14.7206 15.5607 14.4393C15.2794 14.158 14.8978 14 14.5 14H11.5C10.5717 14 9.68151 13.6313 9.02513 12.9749C8.36875 12.3185 8 11.4283 8 10.5C8 9.57174 8.36875 8.68151 9.02513 8.02513C9.68151 7.36875 10.5717 7 11.5 7H12V6C12 5.73478 12.1054 5.48043 12.2929 5.29289C12.4804 5.10536 12.7348 5 13 5C13.2652 5 13.5196 5.10536 13.7071 5.29289C13.8946 5.48043 14 5.73478 14 6V7H16C16.2652 7 16.5196 7.10536 16.7071 7.29289C16.8946 7.48043 17 7.73478 17 8C17 8.26522 16.8946 8.51957 16.7071 8.70711C16.5196 8.89464 16.2652 9 16 9H11.5C11.1022 9 10.7206 9.15804 10.4393 9.43934C10.158 9.72064 10 10.1022 10 10.5C10 10.8978 10.158 11.2794 10.4393 11.5607C10.7206 11.842 11.1022 12 11.5 12H14.5C15.4283 12 16.3185 12.3687 16.9749 13.0251C17.6313 13.6815 18 14.5717 18 15.5C18 16.4283 17.6313 17.3185 16.9749 17.9749C16.3185 18.6313 15.4283 19 14.5 19Z"
    fill="#7B8098"/>
</svg>
