<svg width="32" height="32" viewBox="0 0 32 32" fill="none" xmlns="http://www.w3.org/2000/svg">
<path d="M16.75 10.75C17.8546 10.75 18.75 9.85457 18.75 8.75C18.75 7.64543 17.8546 6.75 16.75 6.75C15.6454 6.75 14.75 7.64543 14.75 8.75C14.75 9.85457 15.6454 10.75 16.75 10.75Z" fill="#00072D"/>
<path d="M16.75 18.75C17.8546 18.75 18.75 17.8546 18.75 16.75C18.75 15.6454 17.8546 14.75 16.75 14.75C15.6454 14.75 14.75 15.6454 14.75 16.75C14.75 17.8546 15.6454 18.75 16.75 18.75Z" fill="#00072D"/>
<path d="M16.75 26.75C17.8546 26.75 18.75 25.8546 18.75 24.75C18.75 23.6454 17.8546 22.75 16.75 22.75C15.6454 22.75 14.75 23.6454 14.75 24.75C14.75 25.8546 15.6454 26.75 16.75 26.75Z" fill="#00072D"/>
</svg>
