<svg width="18" height="18" viewBox="0 0 18 18" fill="none" xmlns="http://www.w3.org/2000/svg">
<path d="M6.75 15.1875H3.375C3.22582 15.1875 3.08274 15.1282 2.97725 15.0228C2.87176 14.9173 2.8125 14.7742 2.8125 14.625V11.483C2.8125 11.4091 2.82705 11.336 2.85532 11.2677C2.88359 11.1995 2.92502 11.1375 2.97725 11.0853L11.4148 2.64775C11.5202 2.54226 11.6633 2.483 11.8125 2.483C11.9617 2.483 12.1048 2.54226 12.2102 2.64775L15.3523 5.78976C15.4577 5.89525 15.517 6.03832 15.517 6.18751C15.517 6.33669 15.4577 6.47977 15.3523 6.58525L6.75 15.1875Z" stroke="#888888" stroke-width="1.5" stroke-linecap="round" stroke-linejoin="round"/>
<path d="M9.5625 4.5L13.5 8.4375" stroke="#888888" stroke-width="1.5" stroke-linecap="round" stroke-linejoin="round"/>
</svg>
