<svg width="16" height="18" viewBox="0 0 16 18" fill="none" xmlns="http://www.w3.org/2000/svg">
<path d="M6.66667 16.6667C6.66667 16.8435 6.59643 17.013 6.4714 17.1381C6.34638 17.2631 6.17681 17.3333 6 17.3333H0.666667C0.489856 17.3333 0.320287 17.2631 0.195262 17.1381C0.070238 17.013 0 16.8435 0 16.6667V11.3333C0 11.1565 0.070238 10.987 0.195262 10.8619C0.320287 10.7369 0.489856 10.6667 0.666667 10.6667C0.843478 10.6667 1.01305 10.7369 1.13807 10.8619C1.2631 10.987 1.33333 11.1565 1.33333 11.3333V16H6C6.17681 16 6.34638 16.0702 6.4714 16.1953C6.59643 16.3203 6.66667 16.4899 6.66667 16.6667ZM0.666667 6.66667C0.843478 6.66667 1.01305 6.59643 1.13807 6.4714C1.2631 6.34638 1.33333 6.17681 1.33333 6V1.33333H6C6.17681 1.33333 6.34638 1.2631 6.4714 1.13807C6.59643 1.01305 6.66667 0.843478 6.66667 0.666667C6.66667 0.489856 6.59643 0.320286 6.4714 0.195262C6.34638 0.0702379 6.17681 0 6 0H0.666667C0.489856 0 0.320287 0.0702379 0.195262 0.195262C0.070238 0.320286 0 0.489856 0 0.666667V6C0 6.17681 0.070238 6.34638 0.195262 6.4714C0.320287 6.59643 0.489856 6.66667 0.666667 6.66667ZM15.3333 0H10C9.82319 0 9.65362 0.0702379 9.52859 0.195262C9.40357 0.320286 9.33333 0.489856 9.33333 0.666667C9.33333 0.843478 9.40357 1.01305 9.52859 1.13807C9.65362 1.2631 9.82319 1.33333 10 1.33333H14.6667V6C14.6667 6.17681 14.7369 6.34638 14.8619 6.4714C14.987 6.59643 15.1565 6.66667 15.3333 6.66667C15.5101 6.66667 15.6797 6.59643 15.8047 6.4714C15.9298 6.34638 16 6.17681 16 6V0.666667C16 0.489856 15.9298 0.320286 15.8047 0.195262C15.6797 0.0702379 15.5101 0 15.3333 0ZM15.3333 10.6667C15.1565 10.6667 14.987 10.7369 14.8619 10.8619C14.7369 10.987 14.6667 11.1565 14.6667 11.3333V16H10C9.82319 16 9.65362 16.0702 9.52859 16.1953C9.40357 16.3203 9.33333 16.4899 9.33333 16.6667C9.33333 16.8435 9.40357 17.013 9.52859 17.1381C9.65362 17.2631 9.82319 17.3333 10 17.3333H15.3333C15.5101 17.3333 15.6797 17.2631 15.8047 17.1381C15.9298 17.013 16 16.8435 16 16.6667V11.3333C16 11.1565 15.9298 10.987 15.8047 10.8619C15.6797 10.7369 15.5101 10.6667 15.3333 10.6667ZM9.33333 6V3.33333C9.33333 3.15652 9.40357 2.98695 9.52859 2.86193C9.65362 2.7369 9.82319 2.66667 10 2.66667H12.6667C12.8435 2.66667 13.013 2.7369 13.1381 2.86193C13.2631 2.98695 13.3333 3.15652 13.3333 3.33333V6C13.3333 6.17681 13.2631 6.34638 13.1381 6.4714C13.013 6.59643 12.8435 6.66667 12.6667 6.66667H10C9.82319 6.66667 9.65362 6.59643 9.52859 6.4714C9.40357 6.34638 9.33333 6.17681 9.33333 6ZM10.6667 5.33333H12V4H10.6667V5.33333ZM6 6.66667H3.33333C3.15652 6.66667 2.98695 6.59643 2.86193 6.4714C2.7369 6.34638 2.66667 6.17681 2.66667 6V3.33333C2.66667 3.15652 2.7369 2.98695 2.86193 2.86193C2.98695 2.7369 3.15652 2.66667 3.33333 2.66667H6C6.17681 2.66667 6.34638 2.7369 6.4714 2.86193C6.59643 2.98695 6.66667 3.15652 6.66667 3.33333V6C6.66667 6.17681 6.59643 6.34638 6.4714 6.4714C6.34638 6.59643 6.17681 6.66667 6 6.66667ZM5.33333 4H4V5.33333H5.33333V4ZM6.66667 11.3333V14C6.66667 14.1768 6.59643 14.3464 6.4714 14.4714C6.34638 14.5964 6.17681 14.6667 6 14.6667H3.33333C3.15652 14.6667 2.98695 14.5964 2.86193 14.4714C2.7369 14.3464 2.66667 14.1768 2.66667 14V11.3333C2.66667 11.1565 2.7369 10.987 2.86193 10.8619C2.98695 10.7369 3.15652 10.6667 3.33333 10.6667H6C6.17681 10.6667 6.34638 10.7369 6.4714 10.8619C6.59643 10.987 6.66667 11.1565 6.66667 11.3333ZM5.33333 12H4V13.3333H5.33333V12ZM10.6667 12V11.3333H11.3333C11.5101 11.3333 11.6797 11.2631 11.8047 11.1381C11.9298 11.013 12 10.8435 12 10.6667C12 10.4899 11.9298 10.3203 11.8047 10.1953C11.6797 10.0702 11.5101 10 11.3333 10H10C9.82319 10 9.65362 10.0702 9.52859 10.1953C9.40357 10.3203 9.33333 10.4899 9.33333 10.6667V12C9.33333 12.1768 9.40357 12.3464 9.52859 12.4714C9.65362 12.5964 9.82319 12.6667 10 12.6667C10.1768 12.6667 10.3464 12.5964 10.4714 12.4714C10.5964 12.3464 10.6667 12.1768 10.6667 12ZM3.33333 8C3.15652 8 2.98695 8.07024 2.86193 8.19526C2.7369 8.32028 2.66667 8.48985 2.66667 8.66667C2.66667 8.84348 2.7369 9.01305 2.86193 9.13807C2.98695 9.26309 3.15652 9.33333 3.33333 9.33333H4.66667C4.84348 9.33333 5.01305 9.26309 5.13807 9.13807C5.2631 9.01305 5.33333 8.84348 5.33333 8.66667C5.33333 8.48985 5.2631 8.32028 5.13807 8.19526C5.01305 8.07024 4.84348 8 4.66667 8H3.33333ZM9.33333 9.33333C9.51014 9.33333 9.67971 9.26309 9.80474 9.13807C9.92976 9.01305 10 8.84348 10 8.66667C10 8.48985 9.92976 8.32028 9.80474 8.19526C9.67971 8.07024 9.51014 8 9.33333 8H8.66667V6C8.66667 5.82319 8.59643 5.65362 8.47141 5.52859C8.34638 5.40357 8.17681 5.33333 8 5.33333C7.82319 5.33333 7.65362 5.40357 7.5286 5.52859C7.40357 5.65362 7.33333 5.82319 7.33333 6V8H6.66667C6.48986 8 6.32029 8.07024 6.19526 8.19526C6.07024 8.32028 6 8.48985 6 8.66667C6 8.84348 6.07024 9.01305 6.19526 9.13807C6.32029 9.26309 6.48986 9.33333 6.66667 9.33333H9.33333ZM12.6667 8H12C11.8232 8 11.6536 8.07024 11.5286 8.19526C11.4036 8.32028 11.3333 8.48985 11.3333 8.66667C11.3333 8.84348 11.4036 9.01305 11.5286 9.13807C11.6536 9.26309 11.8232 9.33333 12 9.33333H12.6667C12.8435 9.33333 13.013 9.26309 13.1381 9.13807C13.2631 9.01305 13.3333 8.84348 13.3333 8.66667C13.3333 8.48985 13.2631 8.32028 13.1381 8.19526C13.013 8.07024 12.8435 8 12.6667 8ZM8 4.66667C8.17681 4.66667 8.34638 4.59643 8.47141 4.4714C8.59643 4.34638 8.66667 4.17681 8.66667 4V3.33333C8.66667 3.15652 8.59643 2.98695 8.47141 2.86193C8.34638 2.7369 8.17681 2.66667 8 2.66667C7.82319 2.66667 7.65362 2.7369 7.5286 2.86193C7.40357 2.98695 7.33333 3.15652 7.33333 3.33333V4C7.33333 4.17681 7.40357 4.34638 7.5286 4.4714C7.65362 4.59643 7.82319 4.66667 8 4.66667ZM8 10C7.82319 10 7.65362 10.0702 7.5286 10.1953C7.40357 10.3203 7.33333 10.4899 7.33333 10.6667V14C7.33333 14.1768 7.40357 14.3464 7.5286 14.4714C7.65362 14.5964 7.82319 14.6667 8 14.6667C8.17681 14.6667 8.34638 14.5964 8.47141 14.4714C8.59643 14.3464 8.66667 14.1768 8.66667 14V10.6667C8.66667 10.4899 8.59643 10.3203 8.47141 10.1953C8.34638 10.0702 8.17681 10 8 10ZM10.6667 14.6667H12.6667C12.8435 14.6667 13.013 14.5964 13.1381 14.4714C13.2631 14.3464 13.3333 14.1768 13.3333 14V12C13.3333 11.8232 13.2631 11.6536 13.1381 11.5286C13.013 11.4036 12.8435 11.3333 12.6667 11.3333C12.4899 11.3333 12.3203 11.4036 12.1953 11.5286C12.0702 11.6536 12 11.8232 12 12V13.3333H10.6667C10.4899 13.3333 10.3203 13.4036 10.1953 13.5286C10.0702 13.6536 10 13.8232 10 14C10 14.1768 10.0702 14.3464 10.1953 14.4714C10.3203 14.5964 10.4899 14.6667 10.6667 14.6667Z" fill="#888888"/>
</svg>
