<svg width="18" height="12" viewBox="0 0 18 12" fill="none" xmlns="http://www.w3.org/2000/svg">
<path d="M15.7395 0.242197C15.4608 -0.0634588 14.9873 -0.081865 14.6833 0.19826C14.3797 0.478541 14.3598 0.95326 14.6391 1.25795C17.0359 3.87326 17.0359 8.1267 14.6391 10.7423C14.3598 11.047 14.3797 11.5217 14.6833 11.802C14.8249 11.9344 15.0084 12 15.1889 12C15.3903 12 15.5918 11.9189 15.7392 11.7578C18.6484 8.58438 18.6484 3.41564 15.7395 0.242197ZM12.2053 2.65939C11.8954 2.93282 11.8647 3.40657 12.1372 3.71782C13.2251 4.96095 13.2251 6.98345 12.1372 8.2272C11.8647 8.53873 11.8954 9.0122 12.2053 9.28563C12.3474 9.38251 12.523 9.47217 12.6981 9.47217C12.9059 9.47217 13.1125 9.38623 13.26 9.21729C14.8258 7.42823 14.8258 4.51729 13.26 2.72667C12.9862 2.44376 12.5164 2.41251 12.2053 2.65939ZM3.2391 0.198447C2.93645 -0.0818338 2.46319 -0.0632714 2.18288 0.242385C-0.726324 3.41738 -0.726324 8.58301 2.18288 11.758C2.32972 11.9188 2.53101 12 2.73261 12C2.91361 12 3.09505 11.9346 3.23848 11.8018C3.54209 11.5215 3.56203 11.0468 3.28275 10.7421C0.885948 8.12676 0.885948 3.87332 3.28275 1.2577C3.56265 0.953135 3.54088 0.47876 3.2391 0.198447ZM5.71554 2.65939C5.40754 2.41251 4.93465 2.44376 4.66088 2.75626C3.09505 4.54532 3.09505 7.45626 4.66088 9.24688C4.80831 9.41582 5.01523 9.50176 5.22274 9.50176C5.3974 9.50176 5.57368 9.44023 5.71554 9.31523C6.02547 9.04179 6.05621 8.56804 5.78368 8.25679C4.69572 7.01367 4.69572 4.99117 5.78368 3.74742C6.05777 3.43439 6.02665 2.95939 5.71554 2.65939ZM8.96043 4.75001C8.27257 4.75001 7.71537 5.3097 7.71537 5.97189C7.71537 6.63407 8.27288 7.25001 8.96043 7.25001C9.64799 7.25001 10.2055 6.69032 10.2055 6.02813C10.2055 5.36595 9.64799 4.75001 8.96043 4.75001Z" fill="#42C59A"/>
</svg>
