<svg width="20" height="16" viewBox="0 0 20 16" fill="none" xmlns="http://www.w3.org/2000/svg">
<g clip-path="url(#clip0_3081_12647)">
<path d="M19.7125 14.6594L17.4784 12.9081C19.7016 9.72061 19.4834 5.14874 16.8081 2.24249C16.5281 1.93683 16.0525 1.91811 15.7472 2.19855C15.4422 2.47883 15.4222 2.95355 15.7027 3.25824C17.8892 5.63355 18.068 9.34886 16.2824 11.9707L14.6911 10.7235C15.8624 8.92824 15.7474 6.38292 14.3171 4.7548C14.0443 4.44333 13.5702 4.41292 13.2577 4.68642C12.9463 4.95986 12.9155 5.43361 13.1892 5.74517C14.1583 6.84736 14.2636 8.56049 13.5145 9.80142L11.2469 8.02499C11.2471 8.0165 11.2511 8.00936 11.2511 8.00082C11.2511 7.31051 10.6908 6.75082 9.99984 6.75082C9.89277 6.75082 9.79708 6.78585 9.69808 6.81119L1.21281 0.159768C0.885623 -0.0956074 0.415935 -0.0389511 0.159654 0.287205C-0.0957213 0.613455 -0.0385963 1.08502 0.287091 1.34033L18.7875 15.8406C18.925 15.9469 19.0875 16 19.2219 16C19.4445 16 19.6647 15.9014 19.8128 15.7129C20.0969 15.3875 20.0375 14.9156 19.7125 14.6594ZM2.99437 5.36874L1.77156 4.40936C0.398747 7.44999 0.867497 11.2312 3.19156 13.7562C3.34062 13.9187 3.54062 14 3.74375 14C3.92556 14 4.10781 13.9345 4.25187 13.8017C4.55687 13.5215 4.57687 13.0467 4.29637 12.742C2.46406 10.75 2.03593 7.81249 2.99437 5.36874ZM6.0125 7.73436L4.6875 6.69686C4.30937 8.25905 4.60065 10.0156 5.68219 11.2469C5.83125 11.4156 6.0375 11.5 6.24687 11.5C6.42234 11.5 6.59937 11.4385 6.74187 11.3135C7.05322 11.04 7.08406 10.5663 6.81034 10.2547C6.20625 9.56561 5.94687 8.63749 6.0125 7.73436Z" fill="#7B8098"/>
</g>
<defs>
<clipPath id="clip0_3081_12647">
<rect width="20" height="16" fill="white"/>
</clipPath>
</defs>
</svg>
