<svg width="134" height="134" viewBox="0 0 134 134" fill="none" xmlns="http://www.w3.org/2000/svg">
<mask id="mask0_601_5397" style="mask-type:alpha" maskUnits="userSpaceOnUse" x="0" y="0" width="134" height="134">
<rect width="134" height="134" fill="#C4C4C4"/>
</mask>
<g mask="url(#mask0_601_5397)">
<path d="M87.9616 64.32L87.9457 47.7455L27.1193 16.2236V64.3041L66.059 85.106L80.2886 78.8367L37.4405 56.1045L37.4724 37.8869L87.9616 64.32Z" fill="url(#paint0_linear_601_5397)"/>
<path d="M50.7614 44.8422V50.5053L37.3933 56.2322L37.489 37.6636L50.7614 44.8422Z" fill="url(#paint1_linear_601_5397)"/>
<path d="M50.8089 91.822L80.2889 78.8367L37.4408 56.2163L50.6813 50.5053L105.765 79.2834L50.9206 103.212L50.8089 91.822Z" fill="url(#paint2_linear_601_5397)"/>
<path d="M37.4886 87.9773L50.6493 82.2983L50.9365 103.196L105.765 79.2833V97.118L37.377 127.077L37.4886 87.9773Z" fill="url(#paint3_linear_601_5397)"/>
<path d="M27.1193 82.5856L37.4405 87.9775L37.3766 127.013L27.1193 121.86V82.5856Z" fill="url(#paint4_linear_601_5397)"/>
<path d="M40.1524 76.779L50.649 82.2985L37.4405 87.9776L27.1193 82.5857L40.1524 76.779Z" fill="url(#paint5_linear_601_5397)"/>
<path d="M105.765 56.5992L105.701 39.913L87.9781 47.7456V64.3361L105.765 56.5992Z" fill="url(#paint6_linear_601_5397)"/>
<path d="M27.1193 16.2237L45.0338 7.97629L105.733 39.8811L87.9776 47.7456L27.1193 16.2237Z" fill="url(#paint7_linear_601_5397)"/>
</g>
<defs>
<linearGradient id="paint0_linear_601_5397" x1="11.9007" y1="50.6648" x2="119.372" y2="50.6648" gradientUnits="userSpaceOnUse">
<stop stop-color="#FFD4B2"/>
<stop offset="0.36" stop-color="#9ACEB7"/>
<stop offset="0.67" stop-color="#47C8BB"/>
<stop offset="0.89" stop-color="#14C5BE"/>
<stop offset="1" stop-color="#00C4BF"/>
</linearGradient>
<linearGradient id="paint1_linear_601_5397" x1="44.0774" y1="62.8524" x2="44.0774" y2="21.2167" gradientUnits="userSpaceOnUse">
<stop stop-color="#00FECF"/>
<stop offset="0.08" stop-color="#00E5D0"/>
<stop offset="0.24" stop-color="#00A5D1"/>
<stop offset="0.48" stop-color="#0040D4"/>
<stop offset="0.54" stop-color="#0025D5"/>
<stop offset="1"/>
</linearGradient>
<linearGradient id="paint2_linear_601_5397" x1="37.4408" y1="76.8586" x2="146.89" y2="76.8586" gradientUnits="userSpaceOnUse">
<stop stop-color="#FDEC9F"/>
<stop offset="0.08" stop-color="#E4D8A4"/>
<stop offset="0.24" stop-color="#A4A6B2"/>
<stop offset="0.47" stop-color="#3F57C8"/>
<stop offset="0.61" stop-color="#0025D5"/>
<stop offset="1"/>
</linearGradient>
<linearGradient id="paint3_linear_601_5397" x1="15.0596" y1="103.18" x2="155.01" y2="103.18" gradientUnits="userSpaceOnUse">
<stop offset="0.05" stop-color="#62A5FF"/>
<stop offset="0.45" stop-color="#1032D1"/>
<stop offset="1"/>
</linearGradient>
<linearGradient id="paint4_linear_601_5397" x1="628.742" y1="3244.93" x2="797.782" y2="3247.12" gradientUnits="userSpaceOnUse">
<stop stop-color="#FFD4B2"/>
<stop offset="0.36" stop-color="#9ACEB7"/>
<stop offset="0.67" stop-color="#47C8BB"/>
<stop offset="0.89" stop-color="#14C5BE"/>
<stop offset="1" stop-color="#00C4BF"/>
</linearGradient>
<linearGradient id="paint5_linear_601_5397" x1="24.5988" y1="82.3783" x2="72.5835" y2="82.3783" gradientUnits="userSpaceOnUse">
<stop stop-color="#00FECF"/>
<stop offset="0.08" stop-color="#00E5D0"/>
<stop offset="0.25" stop-color="#00A5D1"/>
<stop offset="0.49" stop-color="#0040D4"/>
<stop offset="0.56" stop-color="#0025D5"/>
</linearGradient>
<linearGradient id="paint6_linear_601_5397" x1="70.957" y1="52.5951" x2="189.068" y2="50.4575" gradientUnits="userSpaceOnUse">
<stop stop-color="#00FECF"/>
<stop offset="0.05" stop-color="#00E5D0"/>
<stop offset="0.15" stop-color="#00A5D1"/>
<stop offset="0.29" stop-color="#0040D4"/>
<stop offset="0.33" stop-color="#0025D5"/>
</linearGradient>
<linearGradient id="paint7_linear_601_5397" x1="27.1193" y1="27.8689" x2="173.642" y2="27.8689" gradientUnits="userSpaceOnUse">
<stop stop-color="#FFD4AF"/>
<stop offset="0.1" stop-color="#E6D5BA"/>
<stop offset="0.31" stop-color="#A7D6D5"/>
<stop offset="0.61" stop-color="#43D9FF"/>
<stop offset="0.63" stop-color="#37B1D0"/>
<stop offset="0.65" stop-color="#2B8CA5"/>
<stop offset="0.67" stop-color="#216B7D"/>
<stop offset="0.7" stop-color="#184E5B"/>
<stop offset="0.72" stop-color="#10353F"/>
<stop offset="0.75" stop-color="#0A2228"/>
<stop offset="0.78" stop-color="#061316"/>
<stop offset="0.82" stop-color="#020809"/>
<stop offset="0.88" stop-color="#010202"/>
<stop offset="1"/>
</linearGradient>
</defs>
</svg>
