<svg width="18" height="18" viewBox="0 0 18 18" fill="none" xmlns="http://www.w3.org/2000/svg">
<path fill-rule="evenodd" clip-rule="evenodd" d="M5 0C2.23858 0 0 2.23858 0 5V13C0 15.7614 2.23858 18 5 18H13C15.7614 18 18 15.7614 18 13V5C18 2.23858 15.7614 0 13 0H5ZM4.54305 8.485C4.02202 8.58199 3.42006 8.69405 2.72222 8.83654V9.16807C3.47122 9.32498 4.10844 9.44449 4.65294 9.54661C6.20479 9.83765 7.00337 9.98742 7.48957 10.4592C8.00501 10.9593 8.16937 11.8212 8.50796 13.597C8.60092 14.0846 8.70701 14.641 8.83712 15.2778H9.16241C9.31119 14.544 9.42588 13.9173 9.52422 13.3799C9.81863 11.771 9.9665 10.963 10.4438 10.4815C10.9254 9.99578 11.7423 9.8425 13.3834 9.53458C13.9208 9.43375 14.5465 9.31635 15.2778 9.16526V8.84503C14.7333 8.73889 14.2471 8.64876 13.8122 8.56813C11.8864 8.21113 10.9657 8.04044 10.4401 7.49146C9.95852 6.98854 9.80857 6.16813 9.52125 4.59612C9.42389 4.06343 9.31076 3.44442 9.1636 2.72222H8.84332C8.72007 3.35037 8.61975 3.90045 8.53167 4.38343C8.21037 6.14517 8.05187 7.01429 7.53737 7.52428C7.03641 8.02086 6.19794 8.17694 4.54305 8.485Z" fill="#4D4D4D"/>
</svg>
