<svg width="18" height="18" viewBox="0 0 18 18" fill="none" xmlns="http://www.w3.org/2000/svg">
<path fill-rule="evenodd" clip-rule="evenodd" d="M9 18C13.9706 18 18 13.9706 18 9C18 4.02944 13.9706 0 9 0C4.02944 0 0 4.02944 0 9C0 13.9706 4.02944 18 9 18ZM4 7.437C4 4.70728 6.22034 2.5 8.937 2.5C11.6537 2.5 13.874 4.70728 13.874 7.437C13.874 10.0361 11.8626 12.165 9.31577 12.3609C9.31577 12.3609 8.70191 12.4001 8.54518 12.4262C7.83989 12.5177 7.23909 13.0532 7.08236 13.7846C7.08236 13.7846 6.87339 14.738 6.86033 14.8164C6.78196 15.1821 6.41626 15.4172 6.05055 15.3388C5.68485 15.2604 5.44975 14.8947 5.52812 14.529C5.54118 14.4507 7.08236 7.26721 7.08236 7.26721C7.16073 6.9015 7.52643 6.66641 7.89213 6.74477C8.25784 6.82314 8.49293 7.18884 8.41457 7.55455L7.77458 10.5063L7.65704 11.081C7.64398 11.1202 7.68316 11.1593 7.72234 11.1463C7.76575 11.1401 7.818 11.1309 7.87908 11.1202C7.94664 11.1084 8.025 11.0947 8.11417 11.081C8.45375 11.0287 9.14597 10.9896 9.14597 10.9896C11.0137 10.8851 12.5026 9.33082 12.5026 7.437C12.5026 5.41257 10.8047 3.77996 8.75415 3.88445C6.91257 3.97588 5.42363 5.49093 5.37139 7.33251C5.35833 7.76352 5.42363 8.19453 5.5673 8.59942C5.68485 8.96512 5.48894 9.35694 5.13629 9.47449C4.77059 9.59204 4.37876 9.39613 4.26122 9.04348C4.09143 8.52105 4 7.98556 4 7.437ZM8.31008 14.5029C8.40151 14.0458 8.84557 13.7715 9.28964 13.8629C9.74677 13.9544 10.0211 14.3854 9.92962 14.8425C9.8382 15.2996 9.39413 15.5739 8.95006 15.4825C8.49293 15.3911 8.21865 14.947 8.31008 14.5029Z" fill="#4D4D4D"/>
</svg>
