<svg width="16" height="16" viewBox="0 0 16 16" fill="none" xmlns="http://www.w3.org/2000/svg">
<path fill-rule="evenodd" clip-rule="evenodd" d="M12.2421 8.88095C12.3849 9.19841 12.7976 9.29365 13.0516 9.05556L13.496 8.61111C13.9563 8.15079 14.7024 8.15079 15.1468 8.61111C15.6071 9.07143 15.6071 9.81746 15.1468 10.2619L11.5754 13.8333C10.7183 14.8492 9.43254 15.5 7.98809 15.5C6.49603 15.5 5.14682 14.8016 4.28968 13.7064L0.845238 10.2619C0.384921 9.80159 0.384921 9.05556 0.845238 8.61111C1.30556 8.15079 2.05159 8.15079 2.49603 8.61111L2.9246 9.03968C3.1627 9.27778 3.5754 9.16667 3.70238 8.86508C3.73413 8.80159 3.75 8.7381 3.75 8.6746V3.3254C3.75 2.6746 4.27381 2.15079 4.9246 2.15079C5.5754 2.15079 6.09921 2.6746 6.09921 3.3254V6.02381C6.09921 6.26191 6.3373 6.42064 6.55952 6.34127C6.70238 6.29365 6.79762 6.16667 6.79762 6.02381V1.6746C6.79762 1.02381 7.32143 0.5 7.97222 0.5C8.62301 0.5 9.14682 1.02381 9.14682 1.6746V6.02381C9.14682 6.16667 9.24206 6.29365 9.38492 6.34127C9.60714 6.40476 9.84524 6.24603 9.84524 6.02381V3.3254C9.84524 2.6746 10.369 2.15079 11.0198 2.15079C11.6706 2.15079 12.1944 2.6746 12.1944 3.3254V8.6746C12.2103 8.75395 12.2262 8.81744 12.2421 8.88092L12.2421 8.88095ZM11.7341 11.3095C11.7341 11.3095 10.0516 13.6587 7.98809 13.6587C5.9246 13.6587 4.24206 11.3095 4.24206 11.3095C4.24206 11.3095 5.9246 8.96032 7.98809 8.96032C10.0675 8.96032 11.7341 11.3095 11.7341 11.3095ZM8.00001 13C8.91593 13 9.66668 12.2492 9.66668 11.3333C9.66668 10.4024 8.91593 9.66667 8.00001 9.66667C7.0841 9.66667 6.33335 10.4174 6.33335 11.3333C6.33335 12.2492 7.0841 13 8.00001 13Z" fill="#4D4D4D"/>
</svg>
