<svg width="18" height="18" viewBox="0 0 18 18" fill="none" xmlns="http://www.w3.org/2000/svg">
<path d="M9 15.75C12.7279 15.75 15.75 12.7279 15.75 9C15.75 5.27208 12.7279 2.25 9 2.25C5.27208 2.25 2.25 5.27208 2.25 9C2.25 12.7279 5.27208 15.75 9 15.75Z" stroke="#42C59A" stroke-width="1.5" stroke-linecap="round" stroke-linejoin="round"/>
<path d="M9 13.3594C9.38833 13.3594 9.70312 13.0446 9.70312 12.6562C9.70312 12.2679 9.38833 11.9531 9 11.9531C8.61167 11.9531 8.29688 12.2679 8.29688 12.6562C8.29688 13.0446 8.61167 13.3594 9 13.3594Z" fill="#42C59A"/>
<path d="M9 10.1254V9.56287C9.38938 9.56287 9.77002 9.4474 10.0938 9.23107C10.4175 9.01474 10.6699 8.70727 10.8189 8.34753C10.9679 7.98778 11.0069 7.59193 10.9309 7.21003C10.855 6.82813 10.6675 6.47734 10.3921 6.202C10.1168 5.92667 9.76598 5.73916 9.38408 5.6632C9.00218 5.58723 8.60633 5.62622 8.24659 5.77523C7.88685 5.92424 7.57937 6.17658 7.36304 6.50034C7.14672 6.8241 7.03125 7.20474 7.03125 7.59412" stroke="#42C59A" stroke-width="1.5" stroke-linecap="round" stroke-linejoin="round"/>
</svg>
