<svg width="40" height="40" viewBox="2 2 36 36" fill="none" xmlns="http://www.w3.org/2000/svg">
  <path opacity="0.2" d="M17.8365 6.24761L4.09022 29.9964C3.87027 30.3764 3.75427 30.8077 3.75391 31.2467C3.75354 31.6858 3.86883 32.1172 4.08816 32.4976C4.30748 32.878 4.62312 33.1939 5.00331 33.4135C5.3835 33.6332 5.81484 33.7488 6.25391 33.7488H33.7465C34.1856 33.7488 34.6169 33.6332 34.9971 33.4135C35.3773 33.1939 35.6929 32.878 35.9123 32.4976C36.1316 32.1172 36.2469 31.6858 36.2465 31.2467C36.2461 30.8077 36.1301 30.3764 35.9102 29.9964L22.1639 6.24761C21.9443 5.86821 21.6288 5.55322 21.249 5.33425C20.8692 5.11527 20.4386 5 20.0002 5C19.5618 5 19.1312 5.11527 18.7514 5.33425C18.3716 5.55322 18.0561 5.86821 17.8365 6.24761Z" fill="#E7B917"/>
  <path d="M20 17.5V22.5" stroke="#E7B917" stroke-width="2" stroke-linecap="round" stroke-linejoin="round"/>
  <path d="M17.8365 6.24761L4.09022 29.9964C3.87027 30.3764 3.75427 30.8077 3.75391 31.2467C3.75354 31.6858 3.86883 32.1172 4.08816 32.4976C4.30748 32.878 4.62312 33.1939 5.00331 33.4135C5.3835 33.6332 5.81484 33.7488 6.25391 33.7488H33.7465C34.1856 33.7488 34.6169 33.6332 34.9971 33.4135C35.3773 33.1939 35.6929 32.878 35.9123 32.4976C36.1316 32.1172 36.2469 31.6858 36.2465 31.2467C36.2461 30.8077 36.1301 30.3764 35.9102 29.9964L22.1639 6.24761C21.9443 5.86821 21.6288 5.55322 21.249 5.33425C20.8692 5.11527 20.4386 5 20.0002 5C19.5618 5 19.1312 5.11527 18.7514 5.33425C18.3716 5.55322 18.0561 5.86821 17.8365 6.24761V6.24761Z" stroke="#E7B917" stroke-width="2" stroke-linecap="round" stroke-linejoin="round"/>
  <path d="M20 30C21.0355 30 21.875 29.1605 21.875 28.125C21.875 27.0895 21.0355 26.25 20 26.25C18.9645 26.25 18.125 27.0895 18.125 28.125C18.125 29.1605 18.9645 30 20 30Z" fill="#E7B917"/>
</svg>
