<svg width="18" height="18" viewBox="0 0 18 18" fill="none" xmlns="http://www.w3.org/2000/svg">
<path d="M12.375 9H15.75C15.8992 9 16.0423 9.05926 16.1477 9.16475C16.2532 9.27024 16.3125 9.41332 16.3125 9.5625V14.0625C16.3125 14.2117 16.2532 14.3548 16.1477 14.4602C16.0423 14.5657 15.8992 14.625 15.75 14.625H2.25C2.10082 14.625 1.95774 14.5657 1.85225 14.4602C1.74676 14.3548 1.6875 14.2117 1.6875 14.0625V9.5625C1.6875 9.41332 1.74676 9.27024 1.85225 9.16475C1.95774 9.05926 2.10082 9 2.25 9H5.625" stroke="#888888" stroke-width="1.5" stroke-linecap="round" stroke-linejoin="round"/>
<path d="M9 1.6875V9" stroke="#888888" stroke-width="1.5" stroke-linecap="round" stroke-linejoin="round"/>
<path d="M5.625 5.625L9 9L12.375 5.625" stroke="#888888" stroke-width="1.5" stroke-linecap="round" stroke-linejoin="round"/>
</svg>
