<svg width="44" height="36" viewBox="0 0 44 36" fill="none" xmlns="http://www.w3.org/2000/svg">
<path d="M14.8203 32L33.4203 13.42C34.8577 11.9825 35.6653 10.0329 35.6653 8C35.6653 5.9671 34.8577 4.01747 33.4203 2.58C31.9828 1.14252 30.0332 0.334961 28.0003 0.334961C25.9674 0.334961 24.0177 1.14253 22.5803 2.58L0.880261 24.3C0.517616 24.6544 0.303152 25.1334 0.280261 25.64L0.000261176 34C-0.00935583 34.2732 0.0371511 34.5455 0.136909 34.8001C0.236668 35.0546 0.387558 35.286 0.580261 35.48C0.972597 35.8236 1.47878 36.009 2.00026 36H3.12026H44.0003V32H14.8203ZM30.5803 5.42C30.9225 5.75686 31.1943 6.15846 31.3799 6.6014C31.5654 7.04434 31.661 7.51977 31.661 8C31.661 8.48023 31.5654 8.95566 31.3799 9.3986C31.1943 9.84154 30.9225 10.2431 30.5803 10.58L30.4803 10.68L25.3203 5.52H25.4203C25.7504 5.17112 26.1468 4.89145 26.5861 4.69728C27.0255 4.5031 27.4991 4.39831 27.9793 4.389C28.4596 4.37969 28.9369 4.46606 29.3834 4.64306C29.83 4.82007 30.2368 5.08418 30.5803 5.42ZM4.26026 26.58L22.4803 8.34L27.6603 13.52L9.42026 31.74L4.00026 32L4.26026 26.58Z" fill="url(#paint0_linear_4339_13627)"/>
<defs>
<linearGradient id="paint0_linear_4339_13627" x1="6.44182" y1="5.55659" x2="31.117" y2="35.999" gradientUnits="userSpaceOnUse">
<stop stop-color="#72EF39"/>
<stop offset="1" stop-color="#3B73BC"/>
</linearGradient>
</defs>
</svg>
