<svg width="16" height="18" viewBox="0 0 16 18" fill="none" xmlns="http://www.w3.org/2000/svg">
<path d="M8 0C9.06087 0 10.0783 0.421427 10.8284 1.17157C11.5786 1.92172 12 2.93913 12 4C12 5.06087 11.5786 6.07828 10.8284 6.82843C10.0783 7.57857 9.06087 8 8 8C6.93913 8 5.92172 7.57857 5.17157 6.82843C4.42143 6.07828 4 5.06087 4 4C4 2.93913 4.42143 1.92172 5.17157 1.17157C5.92172 0.421427 6.93913 0 8 0ZM12 10.54C12 11.6 11.72 14.07 9.81 16.83L9 12L9.94 10.12C9.32 10.05 8.67 10 8 10C7.33 10 6.68 10.05 6.06 10.12L7 12L6.19 16.83C4.28 14.07 4 11.6 4 10.54C1.61 11.24 0 12.5 0 14V18H6H7.09H8.91H10H16V14C16 12.5 14.4 11.24 12 10.54Z" fill="currentColor"/>
</svg>
