<svg width="20" height="17" viewBox="0 0 20 17" fill="none" xmlns="http://www.w3.org/2000/svg">
<path d="M17 17V15H13V13H17V11L20 14L17 17ZM8 0C9.06087 0 10.0783 0.421427 10.8284 1.17157C11.5786 1.92172 12 2.93913 12 4C12 5.06087 11.5786 6.07828 10.8284 6.82843C10.0783 7.57857 9.06087 8 8 8C6.93913 8 5.92172 7.57857 5.17157 6.82843C4.42143 6.07828 4 5.06087 4 4C4 2.93913 4.42143 1.92172 5.17157 1.17157C5.92172 0.421427 6.93913 0 8 0ZM8 10C9.15 10 10.25 10.12 11.24 10.34C10.46 11.35 10 12.62 10 14C10 14.7 10.12 15.37 10.34 16H0V14C0 11.79 3.58 10 8 10Z" fill="currentColor"/>
</svg>
