<svg width="24" height="17" viewBox="0 0 24 17" fill="none" xmlns="http://www.w3.org/2000/svg">
<path d="M11 5C11 7.21 9.21 9 7 9C4.79 9 3 7.21 3 5C3 2.79 4.79 1 7 1C9.21 1 11 2.79 11 5ZM11 11.72V17H0V15C0 12.79 3.13 11 7 11C8.5 11 9.87 11.27 11 11.72ZM24 17H13V0H24V17ZM16 8.5C16 7.12 17.12 6 18.5 6C19.88 6 21 7.12 21 8.5C21 9.88 19.88 11 18.5 11C17.12 11 16 9.88 16 8.5ZM22 4C20.9 4 20 3.11 20 2H17C17 3.11 16.11 4 15 4V13C16.11 13 17 13.9 17 15H20C20 13.9 20.9 13 22 13V4Z" fill="currentColor"/>
</svg>
