<svg width="20" height="20" viewBox="0 0 20 20" fill="none" xmlns="http://www.w3.org/2000/svg">
<path d="M11 14V16H12C12.2652 16 12.5196 16.1054 12.7071 16.2929C12.8946 16.4804 13 16.7348 13 17H20V19H13C13 19.2652 12.8946 19.5196 12.7071 19.7071C12.5196 19.8946 12.2652 20 12 20H8C7.73478 20 7.48043 19.8946 7.29289 19.7071C7.10536 19.5196 7 19.2652 7 19H0V17H7C7 16.7348 7.10536 16.4804 7.29289 16.2929C7.48043 16.1054 7.73478 16 8 16H9V14H3V12.5C3 10.57 6.13 9 10 9C13.87 9 17 10.57 17 12.5V14H11ZM10 0C10.9283 0 11.8185 0.368749 12.4749 1.02513C13.1313 1.6815 13.5 2.57174 13.5 3.5C13.5 4.42826 13.1313 5.3185 12.4749 5.97487C11.8185 6.63125 10.9283 7 10 7C9.07174 7 8.1815 6.63125 7.52513 5.97487C6.86875 5.3185 6.5 4.42826 6.5 3.5C6.5 2.57174 6.86875 1.6815 7.52513 1.02513C8.1815 0.368749 9.07174 0 10 0Z" fill="currentColor"/>
</svg>
