<svg width="22" height="13" viewBox="0 0 22 13" fill="none" xmlns="http://www.w3.org/2000/svg">
<path d="M11 0C10.2044 0 9.44129 0.316071 8.87868 0.87868C8.31607 1.44129 8 2.20435 8 3C8 3.79565 8.31607 4.55871 8.87868 5.12132C9.44129 5.68393 10.2044 6 11 6C11.7956 6 12.5587 5.68393 13.1213 5.12132C13.6839 4.55871 14 3.79565 14 3C14 2.20435 13.6839 1.44129 13.1213 0.87868C12.5587 0.316071 11.7956 0 11 0ZM5 2.17C4.33696 2.17 3.70107 2.43339 3.23223 2.90223C2.76339 3.37107 2.5 4.00696 2.5 4.67C2.5 4.9983 2.56466 5.32339 2.6903 5.62671C2.81594 5.93002 3.00009 6.20562 3.23223 6.43777C3.46438 6.66991 3.73998 6.85406 4.04329 6.9797C4.34661 7.10534 4.6717 7.17 5 7.17C5.88 7.17 6.65 6.71 7.09 6.03C6.42 5.18 6 4.15 6 3C6 2.8 6 2.6 6.04 2.4C5.72 2.25 5.37 2.17 5 2.17ZM17 2.17C16.63 2.17 16.28 2.25 15.96 2.4C16 2.6 16 2.8 16 3C16 4.15 15.58 5.18 14.91 6.03C15.35 6.71 16.12 7.17 17 7.17C17.3283 7.17 17.6534 7.10534 17.9567 6.9797C18.26 6.85406 18.5356 6.66991 18.7678 6.43777C18.9999 6.20562 19.1841 5.93002 19.3097 5.62671C19.4353 5.32339 19.5 4.9983 19.5 4.67C19.5 4.3417 19.4353 4.01661 19.3097 3.71329C19.1841 3.40998 18.9999 3.13438 18.7678 2.90223C18.5356 2.67009 18.26 2.48594 17.9567 2.3603C17.6534 2.23466 17.3283 2.17 17 2.17ZM11 8C9 8 5 9 5 11V13H17V11C17 9 13 8 11 8ZM3.67 8.97C2 9.26 0 10.04 0 11.33V13H3V11C3 10.22 3.29 9.53 3.67 8.97ZM18.33 8.97C18.71 9.53 19 10.22 19 11V13H22V11.33C22 10.04 20 9.26 18.33 8.97Z" fill="currentColor"/>
</svg>
