<svg width="24" height="18" viewBox="0 0 24 18" fill="none" xmlns="http://www.w3.org/2000/svg">
<path d="M22 0H2C0.91 0.04 0.04 0.91 0 2V16C0.04 17.09 0.91 17.96 2 18H22C23.09 17.96 23.96 17.09 24 16V2C23.96 0.91 23.09 0.04 22 0ZM22 16H2V2H22V16ZM14 14V12.75C14 11.09 10.66 10.25 9 10.25C7.34 10.25 4 11.09 4 12.75V14H14ZM9 4C8.33696 4 7.70107 4.26339 7.23223 4.73223C6.76339 5.20107 6.5 5.83696 6.5 6.5C6.5 6.8283 6.56466 7.15339 6.6903 7.45671C6.81594 7.76002 7.00009 8.03562 7.23223 8.26777C7.70107 8.73661 8.33696 9 9 9C9.3283 9 9.65339 8.93534 9.95671 8.8097C10.26 8.68406 10.5356 8.49991 10.7678 8.26777C10.9999 8.03562 11.1841 7.76002 11.3097 7.45671C11.4353 7.15339 11.5 6.8283 11.5 6.5C11.5 6.1717 11.4353 5.84661 11.3097 5.54329C11.1841 5.23998 10.9999 4.96438 10.7678 4.73223C10.5356 4.50009 10.26 4.31594 9.95671 4.1903C9.65339 4.06466 9.3283 4 9 4ZM14 4V5H20V4H14ZM14 6V7H20V6H14ZM14 8V9H18V8H14Z" fill="currentColor"/>
</svg>
