<svg width="16" height="16" viewBox="0 0 16 16" fill="none" xmlns="http://www.w3.org/2000/svg">
<path d="M12.6668 14V12.6667H10.0002V11.3333H12.6668V10L14.6668 12L12.6668 14ZM6.66683 2.66666C7.37407 2.66666 8.05235 2.94762 8.55245 3.44771C9.05255 3.94781 9.3335 4.62609 9.3335 5.33333C9.3335 6.04057 9.05255 6.71885 8.55245 7.21895C8.05235 7.71905 7.37407 8 6.66683 8C5.95959 8 5.28131 7.71905 4.78121 7.21895C4.28111 6.71885 4.00016 6.04057 4.00016 5.33333C4.00016 4.62609 4.28111 3.94781 4.78121 3.44771C5.28131 2.94762 5.95959 2.66666 6.66683 2.66666ZM6.66683 9.33333C7.4335 9.33333 8.16683 9.41333 8.82683 9.56C8.30683 10.2333 8.00016 11.08 8.00016 12C8.00016 12.4667 8.08016 12.9133 8.22683 13.3333H1.3335V12C1.3335 10.5267 3.72016 9.33333 6.66683 9.33333Z" fill="currentColor"/>
</svg>
