<svg width="16" height="18" viewBox="0 0 16 18" fill="none" xmlns="http://www.w3.org/2000/svg">
<path d="M15.5 12.75C15.5 13.0667 15.325 13.3417 15.0583 13.4833L8.475 17.1833C8.34167 17.2833 8.175 17.3333 8 17.3333C7.825 17.3333 7.65833 17.2833 7.525 17.1833L0.941667 13.4833C0.675 13.3417 0.5 13.0667 0.5 12.75V5.25C0.5 4.93333 0.675 4.65833 0.941667 4.51667L7.525 0.816667C7.65833 0.716667 7.825 0.666667 8 0.666667C8.175 0.666667 8.34167 0.716667 8.475 0.816667L15.0583 4.51667C15.325 4.65833 15.5 4.93333 15.5 5.25V12.75ZM8 2.45833L3.03333 5.25L8 8.04167L12.9667 5.25L8 2.45833ZM2.16667 12.2583L7.16667 15.075V9.48333L2.16667 6.675V12.2583ZM13.8333 12.2583V6.675L8.83333 9.48333V15.075L13.8333 12.2583Z" fill="currentColor"/>
</svg>
