<svg width="6" height="10" viewBox="0 0 6 10" fill="none" xmlns="http://www.w3.org/2000/svg">
<path d="M0.5 6.5H1.5C1.5 7.04 2.185 7.5 3 7.5C3.815 7.5 4.5 7.04 4.5 6.5C4.5 5.95 3.98 5.75 2.88 5.485C1.82 5.22 0.5 4.89 0.5 3.5C0.5 2.605 1.235 1.845 2.25 1.59V0.5H3.75V1.59C4.765 1.845 5.5 2.605 5.5 3.5H4.5C4.5 2.96 3.815 2.5 3 2.5C2.185 2.5 1.5 2.96 1.5 3.5C1.5 4.05 2.02 4.25 3.12 4.515C4.18 4.78 5.5 5.11 5.5 6.5C5.5 7.395 4.765 8.155 3.75 8.41V9.5H2.25V8.41C1.235 8.155 0.5 7.395 0.5 6.5Z" fill="currentColor"/>
</svg>
