<svg width="24" height="24" viewBox="0 0 24 24" fill="none" xmlns="http://www.w3.org/2000/svg">
<path d="M17 14H19V17H22V19H19V22H17V19H14V17H17V14ZM10 2H14C14.5304 2 15.0391 2.21071 15.4142 2.58579C15.7893 2.96086 16 3.46957 16 4V6H20C20.5304 6 21.0391 6.21071 21.4142 6.58579C21.7893 6.96086 22 7.46957 22 8V13.53C20.94 12.58 19.54 12 18 12C16.4087 12 14.8826 12.6321 13.7574 13.7574C12.6321 14.8826 12 16.4087 12 18C12 19.09 12.29 20.12 12.8 21H4C2.89 21 2 20.1 2 19V8C2 6.89 2.89 6 4 6H8V4C8 2.89 8.89 2 10 2ZM14 6V4H10V6H14Z" fill="currentColor"/>
</svg>
