<svg width="24" height="24" viewBox="0 0 24 24" fill="none" xmlns="http://www.w3.org/2000/svg">
<path d="M12.75 3.94006C13.75 3.22006 14.91 2.86006 16.22 2.86006C16.94 2.86006 17.73 3.05006 18.59 3.45006C19.45 3.84006 20.13 4.30006 20.63 4.83006C21.66 6.11006 22.09 7.60006 21.94 9.30006C21.78 11.0001 21.22 12.3301 20.25 13.2701L12.66 20.8601C12.47 21.0501 12.23 21.1401 11.95 21.1401C11.67 21.1401 11.44 21.0501 11.25 20.8601C11.06 20.6701 10.97 20.4401 10.97 20.1601C10.97 19.8801 11.06 19.6401 11.25 19.4501L15.84 14.8601C16.09 14.6401 16.09 14.4101 15.84 14.1601C15.59 13.9101 15.36 13.9101 15.14 14.1601L10.55 18.7501C10.36 18.9401 10.13 19.0301 9.84005 19.0301C9.56005 19.0301 9.33005 18.9401 9.14005 18.7501C8.95005 18.5601 8.86005 18.3301 8.86005 18.0501C8.86005 17.7701 8.95005 17.5301 9.14005 17.3401L13.73 12.7501C14 12.5001 14 12.2501 13.73 12.0001C13.5 11.7501 13.28 11.7501 13.03 12.0001L8.44005 16.6401C8.25005 16.8301 8.00005 16.9201 7.73005 16.9201C7.45005 16.9201 7.21005 16.8301 7.00005 16.6401C6.80005 16.4501 6.70005 16.2201 6.70005 15.9401C6.70005 15.6601 6.81005 15.4101 7.03005 15.1901L11.63 10.5901C11.88 10.3401 11.88 10.1101 11.63 9.89006C11.38 9.67006 11.14 9.67006 10.92 9.89006L6.28005 14.5001C6.06005 14.7001 5.83005 14.8101 5.58005 14.8101C5.30005 14.8101 5.06005 14.7101 4.88005 14.5001C4.69005 14.3001 4.59005 14.0601 4.59005 13.7801C4.59005 13.5001 4.69005 13.2701 4.88005 13.0801C7.94005 10.0001 9.83005 8.14006 10.55 7.45006L14.11 10.9701C14.5 11.3401 14.95 11.5301 15.5 11.5301C16.2 11.5301 16.75 11.2501 17.16 10.6901C17.44 10.2801 17.54 9.83006 17.46 9.33006C17.38 8.83006 17.17 8.41006 16.83 8.06006L12.75 3.94006ZM14.81 10.2701L10.55 6.00006L3.47005 13.0801C2.63005 12.2301 2.15005 10.9301 2.04005 9.16006C1.93005 7.40006 2.41005 5.87006 3.47005 4.59006C4.66005 3.41006 6.08005 2.81006 7.73005 2.81006C9.39005 2.81006 10.8 3.41006 11.95 4.59006L16.22 8.86006C16.41 9.05006 16.5 9.28006 16.5 9.56006C16.5 9.84006 16.41 10.0801 16.22 10.2701C16.03 10.4501 15.8 10.5501 15.5 10.5501C15.23 10.5501 15 10.4501 14.81 10.2701Z" fill="currentColor"/>
</svg>
