<svg width="14"
     height="14"
     viewBox="0 0 14 14"
     fill="none"
     xmlns="http://www.w3.org/2000/svg">
  <path d="M7.667.353V1.7c2.926.36 5 3.02 4.64 5.947-.307 2.426-2.214 4.353-4.64 4.64v1.333a6.65 6.65 0 0 0 5.966-7.287A6.652 6.652 0 0 0 7.667.353zm-1.334.02C5.033.5 3.793 1 2.78 1.84l.953.987a5.33 5.33 0 0 1 2.6-1.12V.373zM1.84 2.78A6.59 6.59 0 0 0 .367 6.333H1.7c.127-.946.5-1.846 1.093-2.6L1.84 2.78zm7.493 1.887L6.08 7.92 4.667 6.507l-.707.706 2.12 2.12 3.96-3.96-.707-.706zm-8.96 3a6.693 6.693 0 0 0 1.474 3.553l.946-.953a5.335 5.335 0 0 1-1.086-2.6H.373zm3.36 3.58l-.953.913a6.663 6.663 0 0 0 3.553 1.507v-1.334a5.335 5.335 0 0 1-2.6-1.086z"
        fill="currentColor" />
</svg>
