<?xml version="1.0" encoding="UTF-8"?>
<svg width="16px" height="16px" viewBox="0 0 16 16" version="1.1" xmlns="http://www.w3.org/2000/svg" xmlns:xlink="http://www.w3.org/1999/xlink">
    <!-- Generator: sketchtool 52.1 (67048) - http://www.bohemiancoding.com/sketch -->
    <title>884A6DFD-7A00-4AF9-B17B-D7B543A4168A</title>
    <desc>Created with sketchtool.</desc>
    <g id="6.1-STO-issuer-side" stroke="none" stroke-width="1" fill="none" fill-rule="evenodd">
        <g id="STO-overview-tiers-usd" transform="translate(-164.000000, -559.000000)" fill="currentColor">
            <g id="token-details-ver.2" transform="translate(120.000000, 181.000000)">
                <g id="table" transform="translate(24.000000, 338.000000)">
                    <g id="icn-check-list" transform="translate(20.000000, 40.000000)">
                        <path d="M8,1.33333333 C11.6666667,1.33333333 14.6666667,4.33333333 14.6666667,8 C14.6666667,11.6666667 11.6666667,14.6666667 8,14.6666667 C4.33333333,14.6666667 1.33333333,11.6666667 1.33333333,8 C1.33333333,4.33333333 4.33333333,1.33333333 8,1.33333333 L8,1.33333333 Z M8,0 C3.6,0 0,3.6 0,8 C0,12.4 3.6,16 8,16 C12.4,16 16,12.4 16,8 C16,3.6 12.4,0 8,0 L8,0 L8,0 Z" id="Shape"></path>
                        <polygon id="Shape" points="6.86666667 9.06666667 5.13333333 7.33333333 4.2 8.26666667 6.86666667 10.9333333 11.8666667 6 10.9333333 5.06666667"></polygon>
                    </g>
                </g>
            </g>
        </g>
    </g>
</svg>