<svg width="20" height="20" viewBox="0 0 20 20" fill="none" xmlns="http://www.w3.org/2000/svg">
<path d="M10.0005 0C4.47049 0 0.000488281 4.5 0.000488281 10C0.000488281 12.6522 1.05406 15.1957 2.92942 17.0711C3.85801 17.9997 4.9604 18.7363 6.17365 19.2388C7.38691 19.7413 8.68727 20 10.0005 20C12.2505 20 14.3305 19.24 16.0005 18V15.28C14.5305 16.94 12.3905 18 10.0005 18C7.87876 18 5.84393 17.1571 4.34363 15.6569C2.84334 14.1566 2.00049 12.1217 2.00049 10C2.00049 7.87827 2.84334 5.84344 4.34363 4.34315C5.84393 2.84286 7.87876 2 10.0005 2C13.3605 2 16.2305 4.07 17.4105 7H19.5405C18.2705 2.94 14.5005 0 10.0005 0ZM9.00049 5V11L14.2505 14.15L15.0005 12.92L10.5005 10.25V5H9.00049ZM18.0005 9V16H20.0005V9H18.0005ZM18.0005 18V20H20.0005V18H18.0005Z" fill="currentColor"/>
</svg>
