<svg width="24" height="24" viewBox="0 0 24 24" fill="none" xmlns="http://www.w3.org/2000/svg">
<path d="M6.99976 15H8.99976C8.99976 16.08 10.3698 17 11.9998 17C13.6298 17 14.9998 16.08 14.9998 15C14.9998 13.9 13.9598 13.5 11.7598 12.97C9.63976 12.44 6.99976 11.78 6.99976 9C6.99976 7.21 8.46976 5.69 10.4998 5.18V3H13.4998V5.18C15.5298 5.69 16.9998 7.21 16.9998 9H14.9998C14.9998 7.92 13.6298 7 11.9998 7C10.3698 7 8.99976 7.92 8.99976 9C8.99976 10.1 10.0398 10.5 12.2398 11.03C14.3598 11.56 16.9998 12.22 16.9998 15C16.9998 16.79 15.5298 18.31 13.4998 18.82V21H10.4998V18.82C8.46976 18.31 6.99976 16.79 6.99976 15Z" fill="currentColor"/>
</svg>
