<svg width="16" height="16" viewBox="0 0 16 16" xmlns="http://www.w3.org/2000/svg"><g fill="none" fill-rule="evenodd"><path d="M8 16A8 8 0 1 1 8 0a8 8 0 0 1 0 16zm5.572-8.314C13.488 4.6 11.108 2.1 8.196 2.1c-1.344 0-2.576.529-3.528 1.414L5.564 4.6a3.836 3.836 0 0 1 2.632-1.057c2.17 0 3.948 1.843 4.032 4.143h-1.484l2.142 2.5L15 7.686h-1.428zm-5.768 4.771c-2.17 0-3.948-1.843-4.032-4.143h1.484l-2.142-2.5L1 8.314h1.428C2.512 11.4 4.892 13.9 7.804 13.9c1.344 0 2.576-.529 3.528-1.414l-.896-1.086a3.836 3.836 0 0 1-2.632 1.057zm-4.2-4.143h0z" fill="currentColor"/></g></svg>