<svg width="64" height="64" viewBox="0 0 64 64" xmlns="http://www.w3.org/2000/svg"><g fill="currentColor" fill-rule="evenodd"><path d="M32 5.333c14.667 0 26.667 12 26.667 26.667 0 14.667-12 26.667-26.667 26.667-14.667 0-26.667-12-26.667-26.667 0-14.667 12-26.667 26.667-26.667zM32 0C14.4 0 0 14.4 0 32s14.4 32 32 32 32-14.4 32-32S49.6 0 32 0z"/><g fill-rule="nonzero"><path d="M17.63 17.63a5.44 5.44 0 1 1 7.693 7.695 5.44 5.44 0 0 1-7.694-7.696zM20.61 47.01l-3.62-3.62 26.4-26.4 3.62 3.62zM46.37 46.37a5.44 5.44 0 1 1-7.693-7.695 5.44 5.44 0 0 1 7.694 7.696z"/></g></g></svg>