<svg width="20" height="20" viewBox="0 0 20 20" fill="none" xmlns="http://www.w3.org/2000/svg">
<path d="M10 0C11.3132 0 12.6136 0.258658 13.8268 0.761205C15.0401 1.26375 16.1425 2.00035 17.0711 2.92893C17.9997 3.85752 18.7362 4.95991 19.2388 6.17317C19.7413 7.38642 20 8.68678 20 10C20 12.6522 18.9464 15.1957 17.0711 17.0711C15.1957 18.9464 12.6522 20 10 20C8.68678 20 7.38642 19.7413 6.17317 19.2388C4.95991 18.7362 3.85752 17.9997 2.92893 17.0711C1.05357 15.1957 0 12.6522 0 10C0 7.34784 1.05357 4.8043 2.92893 2.92893C4.8043 1.05357 7.34784 0 10 0ZM10 2C7.87827 2 5.84344 2.84285 4.34315 4.34315C2.84285 5.84344 2 7.87827 2 10C2 12.1217 2.84285 14.1566 4.34315 15.6569C5.84344 17.1571 7.87827 18 10 18C12.1217 18 14.1566 17.1571 15.6569 15.6569C17.1571 14.1566 18 12.1217 18 10C18 7.87827 17.1571 5.84344 15.6569 4.34315C14.1566 2.84285 12.1217 2 10 2ZM10 8.5C10.3978 8.5 10.7794 8.65804 11.0607 8.93934C11.342 9.22064 11.5 9.60218 11.5 10C11.5 10.3978 11.342 10.7794 11.0607 11.0607C10.7794 11.342 10.3978 11.5 10 11.5C9.60218 11.5 9.22064 11.342 8.93934 11.0607C8.65804 10.7794 8.5 10.3978 8.5 10C8.5 9.60218 8.65804 9.22064 8.93934 8.93934C9.22064 8.65804 9.60218 8.5 10 8.5ZM5.5 8.5C5.89782 8.5 6.27936 8.65804 6.56066 8.93934C6.84196 9.22064 7 9.60218 7 10C7 10.3978 6.84196 10.7794 6.56066 11.0607C6.27936 11.342 5.89782 11.5 5.5 11.5C5.10218 11.5 4.72064 11.342 4.43934 11.0607C4.15804 10.7794 4 10.3978 4 10C4 9.60218 4.15804 9.22064 4.43934 8.93934C4.72064 8.65804 5.10218 8.5 5.5 8.5ZM14.5 8.5C14.8978 8.5 15.2794 8.65804 15.5607 8.93934C15.842 9.22064 16 9.60218 16 10C16 10.3978 15.842 10.7794 15.5607 11.0607C15.2794 11.342 14.8978 11.5 14.5 11.5C14.1022 11.5 13.7206 11.342 13.4393 11.0607C13.158 10.7794 13 10.3978 13 10C13 9.60218 13.158 9.22064 13.4393 8.93934C13.7206 8.65804 14.1022 8.5 14.5 8.5Z" fill="currentColor"/>
</svg>
