<svg width="24" height="24" viewBox="0 0 24 24" fill="none" xmlns="http://www.w3.org/2000/svg">
<path fill-rule="evenodd" clip-rule="evenodd" d="M4 13C4.55228 13 5 12.5523 5 12C5 11.4477 4.55228 11 4 11C3.44772 11 3 11.4477 3 12C3 12.5523 3.44772 13 4 13ZM4 15C5.65685 15 7 13.6569 7 12C7 10.3431 5.65685 9 4 9C2.34315 9 1 10.3431 1 12C1 13.6569 2.34315 15 4 15ZM12 13C12.5523 13 13 12.5523 13 12C13 11.4477 12.5523 11 12 11C11.4477 11 11 11.4477 11 12C11 12.5523 11.4477 13 12 13ZM12 15C13.6569 15 15 13.6569 15 12C15 10.3431 13.6569 9 12 9C10.3431 9 9 10.3431 9 12C9 13.6569 10.3431 15 12 15ZM21 12C21 12.5523 20.5523 13 20 13C19.4477 13 19 12.5523 19 12C19 11.4477 19.4477 11 20 11C20.5523 11 21 11.4477 21 12ZM23 12C23 13.6569 21.6569 15 20 15C18.3431 15 17 13.6569 17 12C17 10.3431 18.3431 9 20 9C21.6569 9 23 10.3431 23 12Z" fill="currentColor"/>
</svg>
