<svg
  width="16px"
  height="16px"
  viewBox="0 0 16 16"
  version="1.1"
  xmlns="http://www.w3.org/2000/svg"
>
  <path
    d="M8,1.33333333 C11.6666667,1.33333333 14.6666667,4.33333333 14.6666667,8 C14.6666667,11.6666667 11.6666667,14.6666667 8,14.6666667 C4.33333333,14.6666667 1.33333333,11.6666667 1.33333333,8 C1.33333333,4.33333333 4.33333333,1.33333333 8,1.33333333 L8,1.33333333 Z M8,0 C3.6,0 0,3.6 0,8 C0,12.4 3.6,16 8,16 C12.4,16 16,12.4 16,8 C16,3.6 12.4,0 8,0 L8,0 L8,0 Z"
    fill="currentColor"
  />
</svg>
