<svg width="17" height="22" viewBox="0 0 16 22" xmlns="http://www.w3.org/2000/svg"><g fill="currentColor" stroke="currentColor" stroke-width=".3" fill-rule="evenodd"><path d="M4.383 4.97h-2.9v2.803h3.362V8.6H.393V.78h4.42v.838h-3.33v2.519h2.9v.832zm2.293.262V8.6h-1.09V.785h2.433c.74 0 1.314.192 1.718.575.405.383.607.933.607 1.649 0 .408-.094.764-.282 1.069-.188.304-.459.542-.813.714.39.132.672.357.846.674.173.317.26.708.26 1.174v.682c0 .24.024.462.073.668a.99.99 0 0 0 .25.486V8.6H9.554c-.122-.118-.2-.296-.234-.534a5.337 5.337 0 0 1-.05-.755v-.66c0-.438-.1-.783-.299-1.037-.199-.255-.472-.382-.82-.382H6.677zm0-.832h1.289c.44 0 .765-.12.975-.357.21-.238.314-.576.314-1.013 0-.447-.102-.795-.306-1.042-.204-.247-.514-.37-.93-.37H6.677V4.4zm9.5 1.826l.016.032c-.003.78-.21 1.385-.623 1.813-.411.428-.993.642-1.745.642-.767 0-1.379-.258-1.837-.774-.459-.515-.688-1.235-.688-2.159V3.61c0-.924.227-1.645.68-2.164.453-.52 1.057-.78 1.812-.78.767 0 1.356.21 1.768.63.411.418.623 1.03.633 1.836l-.016.032h-1.031c-.01-.569-.124-.988-.338-1.256-.215-.269-.554-.403-1.016-.403-.447 0-.794.18-1.042.542-.247.362-.37.878-.37 1.547V5.78c0 .68.126 1.202.379 1.563.252.362.607.543 1.066.543.45 0 .781-.132.99-.395.21-.263.318-.685.326-1.265h1.036zM6.852 21H.469v-1.055l3.125-4.11c.505-.713.858-1.302 1.058-1.769.2-.466.301-.918.301-1.355 0-.599-.126-1.087-.379-1.465-.252-.378-.6-.566-1.043-.566-.557 0-.975.208-1.254.625-.278.416-.418.984-.418 1.703H.336l-.016-.04c-.02-.984.258-1.814.836-2.491.578-.678 1.37-1.016 2.375-1.016.927 0 1.66.293 2.2.879.539.586.808 1.36.808 2.324 0 .651-.165 1.293-.496 1.926-.33.633-.811 1.34-1.441 2.12l-2.149 3.087h4.399V21zm8.71-4.398c0 1.474-.282 2.602-.847 3.386-.565.784-1.332 1.176-2.3 1.176-.975 0-1.747-.393-2.317-1.18-.57-.786-.856-1.914-.856-3.382v-2.57c0-1.464.284-2.592.852-3.384.567-.791 1.336-1.187 2.304-1.187.97 0 1.739.396 2.309 1.187.57.792.855 1.92.855 3.383v2.57zm-1.578-2.797c0-1.032-.136-1.81-.41-2.336-.273-.526-.665-.79-1.176-.79-.51 0-.9.265-1.168.794-.268.528-.402 1.306-.402 2.332v3.015c0 1.032.137 1.813.41 2.344.274.531.666.797 1.176.797.505 0 .893-.264 1.164-.793.271-.529.406-1.311.406-2.348v-3.015z"/></g></svg>