<svg width="25" height="24" viewBox="0 0 25 24" fill="none" xmlns="http://www.w3.org/2000/svg">
<path fill-rule="evenodd" clip-rule="evenodd" d="M0 1V11H6V9H2V7H6V5H2V3H6V1H0ZM21 1C20.4696 1 19.9609 1.21071 19.5858 1.58579C19.2107 1.96086 19 2.46957 19 3V9C19 9.53043 19.2107 10.0391 19.5858 10.4142C19.9609 10.7893 20.4696 11 21 11H23C23.5304 11 24.0391 10.7893 24.4142 10.4142C24.7893 10.0391 25 9.53043 25 9V8H23V9H21V3H23V4H25V3C25 2.46957 24.7893 1.96086 24.4142 1.58579C24.0391 1.21071 23.5304 1 23 1H21ZM9.5 11V1H13.5C14.0304 1 14.5391 1.21071 14.9142 1.58579C15.2893 1.96086 15.5 2.46957 15.5 3V5C15.5 5.84 15 6.55 14.26 6.85L15.5 11H13.5L12.3 7H11.5V11H9.5ZM13.5 3H11.5V5H13.5V3Z" fill="currentColor"/>
<path fill-rule="evenodd" clip-rule="evenodd" d="M3 21V13H1L0 15H1V21H0V23H4V21H3ZM16 13H14C13.4696 13 12.9609 13.2107 12.5858 13.5858C12.2107 13.9609 12 14.4696 12 15V21C12 21.5304 12.2107 22.0391 12.5858 22.4142C12.9609 22.7893 13.4696 23 14 23H16C16.5304 23 17.0391 22.7893 17.4142 22.4142C17.7893 22.0391 18 21.5304 18 21V15C18 14.4696 17.7893 13.9609 17.4142 13.5858C17.0391 13.2107 16.5304 13 16 13ZM14 21V15H16V21H14ZM21 13H23C23.5304 13 24.0391 13.2107 24.4142 13.5858C24.7893 13.9609 25 14.4696 25 15V21C25 21.5304 24.7893 22.0391 24.4142 22.4142C24.0391 22.7893 23.5304 23 23 23H21C20.4696 23 19.9609 22.7893 19.5858 22.4142C19.2107 22.0391 19 21.5304 19 21V15C19 14.4696 19.2107 13.9609 19.5858 13.5858C19.9609 13.2107 20.4696 13 21 13ZM21 15V21H23V15H21ZM5 19V13H7V17H9V13H11V23H9V19H5Z" fill="currentColor"/>
</svg>
