<svg width="24" height="24" viewBox="0 0 24 24" fill="none" xmlns="http://www.w3.org/2000/svg">
<path fill-rule="evenodd" clip-rule="evenodd" d="M17 13H15C14.4696 13 13.9609 13.2107 13.5858 13.5858C13.2107 13.9609 13 14.4696 13 15V21C13 21.5304 13.2107 22.0391 13.5858 22.4142C13.9609 22.7893 14.4696 23 15 23H17C17.5304 23 18.0391 22.7893 18.4142 22.4142C18.7893 22.0391 19 21.5304 19 21V15C19 14.4696 18.7893 13.9609 18.4142 13.5858C18.0391 13.2107 17.5304 13 17 13ZM15 21V15H17V21H15Z" fill="currentColor"/>
<path d="M5 23H11V21H7.41L10.65 16.13C10.87 15.81 11 15.42 11 15C11 14.4696 10.7893 13.9609 10.4142 13.5858C10.0391 13.2107 9.53043 13 9 13H5V15H9L5 21V23Z" fill="currentColor"/>
<path fill-rule="evenodd" clip-rule="evenodd" d="M1 1V11H7V9H3V7H7V5H3V3H7V1H1ZM19 1C18.4696 1 17.9609 1.21071 17.5858 1.58579C17.2107 1.96086 17 2.46957 17 3V9C17 9.53043 17.2107 10.0391 17.5858 10.4142C17.9609 10.7893 18.4696 11 19 11H21C21.5304 11 22.0391 10.7893 22.4142 10.4142C22.7893 10.0391 23 9.53043 23 9V8H21V9H19V3H21V4H23V3C23 2.46957 22.7893 1.96086 22.4142 1.58579C22.0391 1.21071 21.5304 1 21 1H19ZM9 11V1H13C13.5304 1 14.0391 1.21071 14.4142 1.58579C14.7893 1.96086 15 2.46957 15 3V5C15 5.84 14.5 6.55 13.76 6.85L15 11H13L11.8 7H11V11H9ZM13 3H11V5H13V3Z" fill="currentColor"/>
</svg>
