<svg width="24" height="24" viewBox="0 0 24 24" fill="none" xmlns="http://www.w3.org/2000/svg">
<path d="M23.5 17L18.5 22L15 18.5L16.5 17L18.5 19L22 15.5L23.5 17ZM12 9C12.7956 9 13.5587 9.31607 14.1213 9.87868C14.6839 10.4413 15 11.2044 15 12C15 12.7956 14.6839 13.5587 14.1213 14.1213C13.5587 14.6839 12.7956 15 12 15C11.2044 15 10.4413 14.6839 9.87868 14.1213C9.31607 13.5587 9 12.7956 9 12C9 11.2044 9.31607 10.4413 9.87868 9.87868C10.4413 9.31607 11.2044 9 12 9ZM12 4.5C17 4.5 21.27 7.61 23 12C22.75 12.65 22.44 13.26 22.08 13.85C21.5 13.5 20.86 13.25 20.18 13.12L20.82 12C19.17 8.64 15.76 6.5 12 6.5C8.24 6.5 4.83 8.64 3.18 12C4.83 15.36 8.24 17.5 12 17.5L13.21 17.43C13.07 17.93 13 18.46 13 19V19.46L12 19.5C7 19.5 2.73 16.39 1 12C2.73 7.61 7 4.5 12 4.5Z" fill="currentColor"/>
</svg>
