<svg width="20" height="21" viewBox="0 0 20 21" fill="none" xmlns="http://www.w3.org/2000/svg">
<path d="M12.5 9C15 9 17 11 17 13.5C17 14.38 16.75 15.21 16.31 15.9L19.39 19L18 20.39L14.88 17.32C14.19 17.75 13.37 18 12.5 18C10 18 8 16 8 13.5C8 11 10 9 12.5 9ZM12.5 11C11.837 11 11.2011 11.2634 10.7322 11.7322C10.2634 12.2011 10 12.837 10 13.5C10 14.163 10.2634 14.7989 10.7322 15.2678C11.2011 15.7366 11.837 16 12.5 16C13.163 16 13.7989 15.7366 14.2678 15.2678C14.7366 14.7989 15 14.163 15 13.5C15 12.837 14.7366 12.2011 14.2678 11.7322C13.7989 11.2634 13.163 11 12.5 11ZM2 0H16C17.11 0 18 0.89 18 2V10.03C17.5 9.23 16.81 8.54 16 8V2H2V16H6.5C6.81 16.75 7.26 17.42 7.81 18H2C0.89 18 0 17.11 0 16V2C0 0.89 0.89 0 2 0ZM4 4H14V6H4V4ZM4 8H9.03C8.23 8.5 7.54 9.19 7 10H4V8ZM4 12H6.17C6.06 12.5 6 13 6 13.5V14H4V12Z" fill="currentColor"/>
</svg>
