<svg width="24" height="24" viewBox="0 0 24 24" fill="none" xmlns="http://www.w3.org/2000/svg">
<path d="M20.8 18C21.4 18 22 18.6 22 19.3V22.8C22 23.4 21.4 24 20.7 24H15.2C14.6 24 14 23.4 14 22.7V19.2C14 18.6 14.6 18 15.2 18V16.5C15.2 15.1 16.6 14 18 14C19.4 14 20.8 15.1 20.8 16.5V18ZM19.5 18V16.5C19.5 15.7 18.8 15.2 18 15.2C17.2 15.2 16.5 15.7 16.5 16.5V18H19.5Z" fill="currentColor"/>
<path fill-rule="evenodd" clip-rule="evenodd" d="M2.00009 12H6.00009V22H2.00009V12ZM9.00009 13H13.0001V14.6821C12.3682 15.6324 12 16.7732 12 18V22H9.00009V13ZM13 22H13.0001V21.3179C13.0001 21.3179 13 21.3178 13 21.3178V22ZM18 12C18.7013 12 19.3745 12.1203 20.0001 12.3414V8H16.0001V12.3414C16.6256 12.1203 17.2988 12 18 12ZM16.0001 0H20.0001V4H19.0001V2.06L10.9701 10.09L7.00009 6.12L2.40009 10.72L1.34009 9.66L7.00009 4L10.9701 7.97L17.9401 1H16.0001V0Z" fill="currentColor"/>
</svg>
