<svg width="24" height="24" viewBox="0 0 24 24" fill="none" xmlns="http://www.w3.org/2000/svg">
<path d="M20 10.0001C18.58 7.57005 15.5 6.69005 13 8.00005V3.00005H11V8.00005C8.50002 6.69005 5.42002 7.57005 4.00002 10.0001C2.00002 13.0001 7.00002 22 9.00002 22C11 22 11 21 12 21C13 21 13 22 15 22C17 22 22 13.0001 20 10.0001ZM18.25 13.3801C17.63 15.8501 16.41 18.12 14.7 20C14.5 20 14.27 19.9 14.1 19.75C12.87 18.76 11.13 18.76 9.90002 19.75C9.73002 19.9 9.50002 20 9.30002 20C7.59002 18.13 6.36002 15.8501 5.75002 13.3901C5.50002 12.6601 5.45002 11.8701 5.66002 11.1201C6.24002 10.0901 7.32002 9.43005 8.50002 9.40005C9.06002 9.41005 9.61002 9.54005 10.11 9.79005L11 10.2401H13L13.89 9.79005C14.39 9.54005 14.94 9.41005 15.5 9.40005C16.68 9.43005 17.76 10.0801 18.34 11.1101C18.55 11.8601 18.5 12.6501 18.25 13.3801ZM11 5.00005C5.38002 8.07005 4.11002 3.78005 4.11002 3.78005C4.11002 3.78005 6.77002 0.190051 11 5.00005Z" fill="currentColor"/>
</svg>
