<svg width="24" height="24" viewBox="0 0 24 24" fill="none" xmlns="http://www.w3.org/2000/svg">
<path d="M18.5001 4L19.6601 8.35L18.7001 8.61C18.2501 7.74 17.7901 6.87 17.2601 6.43C16.7301 6 16.1101 6 15.5001 6H13.0001V16.5C13.0001 17 13.0001 17.5 13.3301 17.75C13.6701 18 14.3301 18 15.0001 18V19H9.00009V18C9.67009 18 10.3301 18 10.6701 17.75C11.0001 17.5 11.0001 17 11.0001 16.5V6H8.50009C7.89009 6 7.27009 6 6.74009 6.43C6.21009 6.87 5.75009 7.74 5.30009 8.61L4.34009 8.35L5.50009 4H18.5001Z" fill="currentColor"/>
</svg>
