<svg width="24" height="24" viewBox="0 0 24 24" fill="none" xmlns="http://www.w3.org/2000/svg">
<path d="M13.5 15.5H10V12.5H13.5C13.8978 12.5 14.2794 12.658 14.5607 12.9393C14.842 13.2206 15 13.6022 15 14C15 14.3978 14.842 14.7794 14.5607 15.0607C14.2794 15.342 13.8978 15.5 13.5 15.5ZM10 6.5H13C13.3978 6.5 13.7794 6.65804 14.0607 6.93934C14.342 7.22064 14.5 7.60218 14.5 8C14.5 8.39782 14.342 8.77936 14.0607 9.06066C13.7794 9.34196 13.3978 9.5 13 9.5H10V6.5ZM15.6 10.79C16.57 10.11 17.25 9 17.25 8C17.25 5.74 15.5 4 13.25 4H7V18H14.04C16.14 18 17.75 16.3 17.75 14.21C17.75 12.69 16.89 11.39 15.6 10.79Z" fill="currentColor"/>
</svg>
