<svg width="24" height="24" viewBox="0 0 24 24" fill="none" xmlns="http://www.w3.org/2000/svg">
<path fill-rule="evenodd" clip-rule="evenodd" d="M17.2929 9.70711C17.4804 9.89464 17.7348 10 18 10C18.2652 10 18.5196 9.89464 18.7071 9.70711C18.8946 9.51957 19 9.26522 19 9C19 8.73478 18.8946 8.48043 18.7071 8.29289C18.5196 8.10536 18.2652 8 18 8C17.7348 8 17.4804 8.10536 17.2929 8.29289C17.1054 8.48043 17 8.73478 17 9C17 9.26522 17.1054 9.51957 17.2929 9.70711ZM6 10H12V5H6V10ZM19.78 7.22L19.77 7.23C20.22 7.68 20.5 8.31 20.5 9V18.5C20.5 18.8283 20.4353 19.1534 20.3097 19.4567C20.1841 19.76 19.9999 20.0356 19.7678 20.2678C19.5356 20.4999 19.26 20.6841 18.9567 20.8097C18.6534 20.9353 18.3283 21 18 21C17.337 21 16.7011 20.7366 16.2322 20.2678C15.7634 19.7989 15.5 19.163 15.5 18.5V13.5H14V21H4V5C4 3.89 4.89 3 6 3H12C13.1 3 14 3.89 14 5V12H15C16.1 12 17 12.89 17 14V18.5C17 18.7652 17.1054 19.0196 17.2929 19.2071C17.4804 19.3946 17.7348 19.5 18 19.5C18.2652 19.5 18.5196 19.3946 18.7071 19.2071C18.8946 19.0196 19 18.7652 19 18.5V11.29C18.69 11.42 18.36 11.5 18 11.5C17.337 11.5 16.7011 11.2366 16.2322 10.7678C16.0001 10.5356 15.8159 10.26 15.6903 9.95671C15.5647 9.65339 15.5 9.3283 15.5 9C15.5 7.93 16.17 7 17.11 6.67L15 4.56L16.06 3.5L19.78 7.22ZM9.17506 15.5441H7.85153L6.17505 15.5V19.25H7.85153V17H9.13094C10.8074 17 12.1751 16.1176 12.1751 14.3529C12.1751 12.8088 11.0721 11.75 9.26328 11.75H6.17505V13.25H7.85153H9.13094C9.96917 13.25 10.4986 13.6471 10.4986 14.3971C10.4986 15.0588 10.0133 15.5441 9.17506 15.5441Z" fill="currentColor"/>
</svg>
