<svg width="24" height="24" viewBox="0 0 24 24" fill="none" xmlns="http://www.w3.org/2000/svg">
<path d="M12 2.00049C10.6868 2.00049 9.38642 2.25915 8.17317 2.76169C6.95991 3.26424 5.85752 4.00083 4.92893 4.92942C3.05357 6.80478 2 9.34832 2 12.0005C2 16.4205 4.87 20.1705 8.84 21.5005C9.34 21.5805 9.5 21.2705 9.5 21.0005C9.5 20.7705 9.5 20.1405 9.5 19.3105C6.73 19.9105 6.14 17.9705 6.14 17.9705C5.68 16.8105 5.03 16.5005 5.03 16.5005C4.12 15.8805 5.1 15.9005 5.1 15.9005C6.1 15.9705 6.63 16.9305 6.63 16.9305C7.5 18.4505 8.97 18.0005 9.54 17.7605C9.63 17.1105 9.89 16.6705 10.17 16.4205C7.95 16.1705 5.62 15.3105 5.62 11.5005C5.62 10.3905 6 9.50049 6.65 8.79049C6.55 8.54049 6.2 7.50049 6.75 6.15049C6.75 6.15049 7.59 5.88049 9.5 7.17049C10.29 6.95049 11.15 6.84049 12 6.84049C12.85 6.84049 13.71 6.95049 14.5 7.17049C16.41 5.88049 17.25 6.15049 17.25 6.15049C17.8 7.50049 17.45 8.54049 17.35 8.79049C18 9.50049 18.38 10.3905 18.38 11.5005C18.38 15.3205 16.04 16.1605 13.81 16.4105C14.17 16.7205 14.5 17.3305 14.5 18.2605C14.5 19.6005 14.5 20.6805 14.5 21.0005C14.5 21.2705 14.66 21.5905 15.17 21.5005C19.14 20.1605 22 16.4205 22 12.0005C22 10.6873 21.7413 9.38691 21.2388 8.17365C20.7362 6.9604 19.9997 5.85801 19.0711 4.92942C18.1425 4.00083 17.0401 3.26424 15.8268 2.76169C14.6136 2.25915 13.3132 2.00049 12 2.00049Z" fill="currentColor"/>
</svg>
