<svg width="40" height="40" viewBox="0 0 40 40" xmlns="http://www.w3.org/2000/svg"><path d="M24.3018182,6 C19.3381818,6 15.2654545,9.73333333 14.7054545,14.5513514 C9.81818182,15.0306306 6,19.1675676 6,24.1873874 C6,29.5351351 10.3272727,33.8738739 15.6472727,33.8738739 C20.5854545,33.8738739 24.6581818,30.1405405 25.2436364,25.3225225 C30.1309091,24.8432432 33.9490909,20.7063063 33.9490909,15.6864865 C33.9490909,10.3387387 29.6218182,6 24.3018182,6 Z M24.2509091,8.34594595 C27.84,8.34594595 30.8436364,10.9189189 31.5054545,14.3243243 L16.9963636,14.3243243 C17.6581818,10.9189189 20.6618182,8.34594595 24.2509091,8.34594595 Z M16.9963636,16.8468468 L22.9527273,16.8468468 L22.9527273,22.9261261 L16.9963636,22.9261261 L16.9963636,16.8468468 Z M14.4254545,16.8720721 L14.4254545,22.9261261 L8.36727273,22.9261261 C8.90181818,19.8234234 11.3454545,17.3765766 14.4254545,16.8720721 Z M15.6472727,31.6288288 C11.9818182,31.6288288 8.92727273,28.954955 8.34181818,25.4234234 L22.9527273,25.4234234 C22.3672727,28.954955 19.3127273,31.6288288 15.6472727,31.6288288 Z M25.5236364,23.1027027 L25.5236364,16.8468468 L31.5818182,16.8468468 C31.1236364,20.0252252 28.68,22.5477477 25.5236364,23.1027027 Z" fill="currentColor" fill-rule="nonzero"/></svg>