<svg width="24" height="24" viewBox="0 0 24 24" fill="none" xmlns="http://www.w3.org/2000/svg">
<path d="M6.58011 19H14.5801V22H6.58011V19ZM19.7401 11.6C19.5501 11.4 19.2901 11.28 19.0001 11.28L18.7801 11.31L15.5801 13V11.83L16.0901 2.9C16.1201 2.35 15.7001 1.87 15.1501 1.84C14.6001 1.81 14.1201 2.23 14.0901 2.78L13.8201 7.47H13.5801L12.5401 7.58V2C12.5401 1.73478 12.4347 1.48043 12.2472 1.29289C12.0597 1.10536 11.8053 1 11.5401 1C11.0001 1 10.5401 1.45 10.5401 2V8.41L9.72011 8.78L9.03011 3.32C8.96011 2.77 8.46011 2.38 7.91011 2.45C7.36011 2.5 6.97011 3 7.04011 3.57L7.81011 9.63L7.43011 9.8C7.30011 9.85 7.18011 9.93 7.07011 10L5.97011 6.11C5.81011 5.54 5.25011 5.2 4.71011 5.34C4.18011 5.5 3.88011 6.08 4.04011 6.65L6.61011 15.77C6.61011 15.8 6.63011 15.84 6.64011 15.87L6.67011 16H6.68011C6.90011 16.57 7.47011 17 8.08011 17H14.5801C14.9701 17 15.3201 16.84 15.5801 16.57L20.5001 12.37L19.7401 11.6Z" fill="currentColor"/>
</svg>
