<svg width="24" height="24" viewBox="0 0 24 24" fill="none" xmlns="http://www.w3.org/2000/svg">
<path d="M11 5.99997H14L17.29 2.69997C17.3829 2.60624 17.4935 2.53185 17.6154 2.48108C17.7373 2.43031 17.868 2.40417 18 2.40417C18.132 2.40417 18.2627 2.43031 18.3846 2.48108C18.5064 2.53185 18.617 2.60624 18.71 2.69997L21.29 5.28997C21.4762 5.47734 21.5808 5.73079 21.5808 5.99497C21.5808 6.25916 21.4762 6.51261 21.29 6.69997L19 8.99997H11V11C11 11.2652 10.8946 11.5195 10.7071 11.7071C10.5196 11.8946 10.2652 12 9.99998 12C9.73477 12 9.48041 11.8946 9.29288 11.7071C9.10534 11.5195 8.99998 11.2652 8.99998 11V7.99997C8.99998 7.46954 9.2107 6.96083 9.58577 6.58576C9.96084 6.21069 10.4695 5.99997 11 5.99997ZM4.99998 11V15L2.70998 17.29C2.52373 17.4773 2.41919 17.7308 2.41919 17.995C2.41919 18.2592 2.52373 18.5126 2.70998 18.7L5.28998 21.29C5.38295 21.3837 5.49355 21.4581 5.61541 21.5089C5.73726 21.5596 5.86797 21.5858 5.99998 21.5858C6.13199 21.5858 6.2627 21.5596 6.38456 21.5089C6.50642 21.4581 6.61702 21.3837 6.70998 21.29L11 17H15C15.2652 17 15.5196 16.8946 15.7071 16.7071C15.8946 16.5195 16 16.2652 16 16V15H17C17.2652 15 17.5196 14.8946 17.7071 14.7071C17.8946 14.5195 18 14.2652 18 14V13H19C19.2652 13 19.5196 12.8946 19.7071 12.7071C19.8946 12.5195 20 12.2652 20 12V11H13V12C13 12.5304 12.7893 13.0391 12.4142 13.4142C12.0391 13.7893 11.5304 14 11 14H8.99998C8.46955 14 7.96084 13.7893 7.58577 13.4142C7.2107 13.0391 6.99998 12.5304 6.99998 12V8.99997L4.99998 11Z" fill="currentColor"/>
</svg>
