<svg width="21" height="16" viewBox="0 0 21 16" fill="none" xmlns="http://www.w3.org/2000/svg">
<path d="M0.5 0V1.5C0.5 5.65 2.71 9.28 6 11.3V16H21V14C21 11.34 15.67 10 13 10C13 10 12.83 10 12.75 10C8 10 4 6 4 1.5V0H0.5ZM13 0C11.9391 0 10.9217 0.421427 10.1716 1.17157C9.42143 1.92172 9 2.93913 9 4C9 5.06087 9.42143 6.07828 10.1716 6.82843C10.9217 7.57857 11.9391 8 13 8C14.0609 8 15.0783 7.57857 15.8284 6.82843C16.5786 6.07828 17 5.06087 17 4C17 2.93913 16.5786 1.92172 15.8284 1.17157C15.0783 0.421427 14.0609 0 13 0Z" fill="currentColor"/>
</svg>
