<svg width="24" height="24" viewBox="0 0 24 24" fill="none" xmlns="http://www.w3.org/2000/svg">
<path d="M13.4999 4C13.1021 4 12.7205 4.15804 12.4392 4.43934C12.1579 4.72064 11.9999 5.10218 11.9999 5.5C11.9999 5.89782 12.1579 6.27936 12.4392 6.56066C12.7205 6.84196 13.1021 7 13.4999 7C13.8977 7 14.2792 6.84196 14.5605 6.56066C14.8418 6.27936 14.9999 5.89782 14.9999 5.5C14.9999 5.10218 14.8418 4.72064 14.5605 4.43934C14.2792 4.15804 13.8977 4 13.4999 4ZM13.1399 8.77C11.9499 8.87 8.69988 11.46 8.69988 11.46C8.49988 11.61 8.55988 11.6 8.71988 11.88C8.87988 12.15 8.85988 12.17 9.04988 12.04C9.24988 11.91 9.57988 11.7 10.1299 11.36C12.2499 10 10.4699 13.14 9.55988 18.43C9.19988 21.05 11.5599 19.7 12.1699 19.3C12.7699 18.91 14.3799 17.8 14.5399 17.69C14.7599 17.54 14.5999 17.42 14.4299 17.17C14.3099 17 14.1899 17.12 14.1899 17.12C13.5399 17.55 12.3499 18.45 12.1899 17.88C11.9999 17.31 13.2199 13.4 13.8899 10.71C13.9999 10.07 14.2999 8.67 13.1399 8.77Z" fill="currentColor"/>
</svg>
