<svg width="20" height="16" viewBox="0 0 20 16" fill="none" xmlns="http://www.w3.org/2000/svg">
<path d="M4.5 0C6.46 0 8.13 1.25 8.74 3H20V6H16V9H13V6H8.74C8.13 7.75 6.46 9 4.5 9C2 9 0 7 0 4.5C0 2 2 0 4.5 0ZM4.5 3C4.10218 3 3.72064 3.15804 3.43934 3.43934C3.15804 3.72064 3 4.10218 3 4.5C3 4.89782 3.15804 5.27936 3.43934 5.56066C3.72064 5.84196 4.10218 6 4.5 6C4.89782 6 5.27936 5.84196 5.56066 5.56066C5.84196 5.27936 6 4.89782 6 4.5C6 4.10218 5.84196 3.72064 5.56066 3.43934C5.27936 3.15804 4.89782 3 4.5 3ZM6 14H14V16H6V14Z" fill="currentColor"/>
</svg>
