<svg width="24" height="24" viewBox="0 0 24 24" fill="none" xmlns="http://www.w3.org/2000/svg">
<path fill-rule="evenodd" clip-rule="evenodd" d="M23 7H20.5V20H18.5V7H16L19.5 3.5L23 7ZM13 15.23L9 17.53V12.94L13 10.64V15.23ZM12 8.91L8 11.2L4 8.91L8 6.56L12 8.91ZM7 17.53L3 15.23V10.64L7 12.94V17.53ZM15 9.19C15 8.62 14.73 8.19 14.23 7.87L8.75 4.69C8.5 4.56 8.25 4.5 8 4.5C7.75 4.5 7.5 4.56 7.25 4.69L1.77 7.87C1.27 8.19 1 8.62 1 9.19V15.51C1 16.08 1.27 16.51 1.77 16.83L7.25 20.01C7.75 20.33 8.25 20.33 8.75 20.01L14.23 16.83C14.73 16.51 15 16.08 15 15.51V9.19Z" fill="currentColor"/>
</svg>
