<svg width="24" height="24" viewBox="0 0 24 24" fill="none" xmlns="http://www.w3.org/2000/svg">
<path d="M10.5901 13.4099C11.0001 13.7999 11.0001 14.4399 10.5901 14.8299C10.2001 15.2199 9.56007 15.2199 9.17007 14.8299C7.22007 12.8799 7.22007 9.70995 9.17007 7.75995L12.7101 4.21995C14.6601 2.26995 17.8301 2.26995 19.7801 4.21995C21.7301 6.16995 21.7301 9.33995 19.7801 11.2899L18.2901 12.7799C18.3001 11.9599 18.1701 11.1399 17.8901 10.3599L18.3601 9.87995C19.5401 8.70995 19.5401 6.80995 18.3601 5.63995C17.1901 4.45995 15.2901 4.45995 14.1201 5.63995L10.5901 9.16995C9.41007 10.3399 9.41007 12.2399 10.5901 13.4099ZM13.4101 9.16995C13.8001 8.77995 14.4401 8.77995 14.8301 9.16995C16.7801 11.1199 16.7801 14.2899 14.8301 16.2399L11.2901 19.7799C9.34007 21.7299 6.17007 21.7299 4.22007 19.7799C2.27007 17.8299 2.27007 14.6599 4.22007 12.7099L5.71007 11.2199C5.70007 12.0399 5.83007 12.8599 6.11007 13.6499L5.64007 14.1199C4.46007 15.2899 4.46007 17.1899 5.64007 18.3599C6.81007 19.5399 8.71007 19.5399 9.88007 18.3599L13.4101 14.8299C14.5901 13.6599 14.5901 11.7599 13.4101 10.5899C13.0001 10.1999 13.0001 9.55995 13.4101 9.16995Z" fill="currentColor"/>
</svg>
