<svg width="24" height="24" viewBox="0 0 24 24" fill="none" xmlns="http://www.w3.org/2000/svg">
<path d="M21 21H17V14.25C17 13.19 15.81 12.31 14.75 12.31C13.69 12.31 13 13.19 13 14.25V21H9V9H13V11C13.66 9.93 15.36 9.24 16.5 9.24C19 9.24 21 11.28 21 13.75V21ZM7 21H3V9H7V21ZM5 3C5.53043 3 6.03914 3.21071 6.41421 3.58579C6.78929 3.96086 7 4.46957 7 5C7 5.53043 6.78929 6.03914 6.41421 6.41421C6.03914 6.78929 5.53043 7 5 7C4.46957 7 3.96086 6.78929 3.58579 6.41421C3.21071 6.03914 3 5.53043 3 5C3 4.46957 3.21071 3.96086 3.58579 3.58579C3.96086 3.21071 4.46957 3 5 3Z" fill="currentColor"/>
</svg>
