<svg width="24" height="24" viewBox="0 0 24 24" fill="none" xmlns="http://www.w3.org/2000/svg">
<path fill-rule="evenodd" clip-rule="evenodd" d="M6.57022 3H6.56984L4.27 0.699951L3 1.97995L4.02005 3H4C2.89 3 2 3.89 2 5V15C2 15.5304 2.21071 16.0391 2.58579 16.4142C2.96086 16.7893 3.46957 17 4 17H12V22L15 19L18 22V17H18.02L20.23 19.21L21.5 17.94L20.4985 16.9369C20.5008 16.9363 20.5031 16.9357 20.5053 16.9351L18 14.4298V14.4355C16.0892 12.5229 13.98 10.4125 12 8.43167V8.42978L9 5.42978V5.43066L8.56944 5H8.57022L6.57022 3ZM18 11.8841V11.5L21 10L18 8.5V5L15 7L12 5V5.88095C10.9581 4.83869 9.97987 3.86023 9.11981 3H16H20C20.5304 3 21.0391 3.21071 21.4142 3.58579C21.7893 3.96086 22 4.46957 22 5V6V8V15C22 15.2575 21.9503 15.5099 21.8563 15.7444C20.6999 14.5863 19.3781 13.2633 18 11.8841ZM4 5H6.02005L8.02005 7H4V5ZM9 10L10.3467 9.32665L14.412 13.392L12 15V11.5L9 10ZM4 9H7V11H4V9ZM4 13H9V15H4V13Z" fill="currentColor"/>
</svg>
