<svg width="40" height="40" viewBox="0 0 40 40" xmlns="http://www.w3.org/2000/svg">
  <path d="M11.2727273,31.2351275 C11.8545455,31.9065156 12.8727273,32.9093484 14.4042781,33.7167139 C16.1839572,34.6515581 17.826738,34.8725212 18.7679144,34.9320113 C19.3240642,34.9065156 20.231016,34.8045326 21.2491979,34.3541076 C22.2673797,33.9036827 22.9518717,33.3087819 23.3454545,32.9093484 C23.773262,32.5269122 24.397861,31.9830028 25.1679144,31.3371105 C26.8705882,29.8923513 27.7433155,29.1614731 28.744385,28.490085 C29.257754,28.1416431 29.9508021,27.7167139 30.8064171,27.2747875 C31.259893,27.0453258 31.7219251,26.8413598 32.1925134,26.6543909 C32.8256684,26.3994334 33.886631,25.8470255 34.7593583,24.7252125 C35.8117647,23.3569405 35.9657754,21.9376771 36,21.4107649 C35.9572193,20.7393768 35.828877,19.8300283 35.4609626,18.8186969 C35.1700535,18.0113314 34.8192513,17.3569405 34.4941176,16.8640227 C33.2363636,19.0991501 30.5069519,23.2209632 25.4673797,26.5524079 C19.6235294,30.4192635 13.8823529,31.0906516 11.2727273,31.2351275 Z" id="Path" fill="#0293D6"></path>
  <path d="M14.5497326,7.10764873 C14.8834225,6.76770538 15.3112299,6.39376771 15.8673797,6.05382436 C17.3048128,5.16997167 18.742246,5.03399433 19.5122995,5.01699717 C19.8716578,4.99150142 20.3764706,4.99150142 20.9668449,5.14447592 C21.831016,5.36543909 22.4213904,5.79886686 22.7465241,6.06232295 C23.5080214,6.58923513 24.5005348,7.17563739 25.7411765,7.66855524 C27.486631,8.36543909 29.0524064,8.60339943 30.1903743,8.68838527 C30.4213904,8.69688385 30.7550802,8.71388102 31.1486631,8.78186969 C31.8502674,8.90934844 33.4160428,9.18130312 34.4256684,10.4475921 C35.2128342,11.4334278 35.2983957,12.572238 35.3069519,13.1076487 C35.2812834,13.6600567 35.2042781,14.305949 35.0502674,15.01983 C34.8962567,15.733711 34.6994652,16.3541076 34.4941176,16.8725212 C27.8459893,13.6175637 21.197861,10.3626062 14.5497326,7.10764873 Z" id="Path" fill="#EBE638"></path>
  <path d="M11.2727273,31.2351275 C10.5368984,31.1416431 9.48449198,30.9376771 8.31229947,30.4362606 C7.10588235,29.917847 5.5828877,29.2719547 4.68449198,27.6997167 C4.11122995,26.6968839 4,25.6855524 4,25.0056657 C4.00855615,24.3767705 4.05989305,23.6288952 4.23101604,22.796034 C4.47914439,21.5467422 4.89839572,20.5269122 5.27486631,19.7790368 C5.59144385,19.0311615 5.89946524,18.1813031 6.17326203,17.2549575 C6.56684492,15.9206799 6.79786096,14.6968839 6.94331551,13.6175637 C7.0459893,12.8951841 7.1828877,12.3087819 7.3026738,11.8923513 C7.55080214,11 7.78181818,10.1926346 8.38930481,9.35977337 C8.7315508,8.88385269 9.09090909,8.54390935 9.33048128,8.33994334 C9.90374332,7.97450425 10.8363636,7.47308782 12.0941176,7.21813031 C13.0951872,7.01416431 13.9593583,7.03966006 14.5582888,7.10764873 C13.197861,9.02832861 10.7935829,12.9631728 9.98074866,18.5382436 C9.12513369,24.368272 10.4684492,29.0084986 11.2727273,31.2351275 Z" id="Path" fill="#BAD147"></path>
  <path d="M14.5497326,7.10764873 C14.4128342,7.09915014 19.144385,7.40509915 22.0449198,8.40793201 C22.9090909,8.70538244 23.6962567,9.04532578 24.4149733,9.39376771 C23.4823529,9.33427762 17.5272727,9.07082153 12.9754011,13.6175637 C7.2684492,19.3201133 9.12513369,27.266289 9.22780749,27.7082153 C8.67165775,27.0028329 7.83315508,25.7280453 7.49946524,23.9433428 C7.34545455,23.1359773 7.3368984,22.4220963 7.37112299,21.8356941 C7.43101604,20.2209632 7.71336898,18.0623229 8.58609626,15.6657224 C10.2032086,11.2549575 12.9754011,8.4674221 14.5497326,7.10764873 Z" id="Path" fill="#78B650"></path>
  <path d="M25.9807487,28.1331445 C26.7593583,26.7478754 28.2395722,23.6458924 28.1368984,19.4985836 C28,14.203966 25.373262,10.5835694 24.4235294,9.39376771 C24.9625668,9.47875354 25.7411765,9.64872521 26.6395722,9.98016997 C28.6074866,10.7195467 29.8566845,11.8073654 30.9860963,12.8101983 C31.9529412,13.6685552 33.2534759,14.9858357 34.4941176,16.8725212 C33.9208556,18.368272 33.0652406,20.1699717 31.773262,22.0566572 C29.8224599,24.9206799 27.6320856,26.8838527 25.9807487,28.1331445 Z" id="Path" fill="#2F8260"></path>
  <path d="M28.7529412,13.1331445 C27.3240642,10.8810198 25.3989305,9.80169972 24.5604278,9.39376771 C23.8759358,9.27478754 17.4245989,8.23796034 12.5219251,12.9036827 C8.59465241,16.6430595 8.38074866,21.4617564 8.35508021,22.4475921 C8.36363636,23.7223796 8.53475936,25.7280453 9.46737968,27.9461756 C10.057754,29.3484419 10.7850267,30.4447592 11.4096257,31.2351275 C12.059893,31.3541076 12.7700535,31.4560907 13.5486631,31.5155807 C14.5925134,31.6005666 15.542246,31.592068 16.3721925,31.5410765 C17.0652406,31.5325779 18.0235294,31.4730878 19.1529412,31.2606232 C20.4449198,31.0141643 23.3796791,30.4617564 25.9636364,28.2606232 C26.3229947,27.9546742 30.1219251,24.4532578 30.3187166,18.9376771 C30.3529412,18.0283286 30.3187166,15.6062323 28.7529412,13.1331445 Z M25.6727273,25.4560907 C23.2941176,28.2096317 19.8802139,28.2351275 19.3582888,28.2351275 C18.8705882,28.2266289 15.4395722,28.1416431 13.0438503,25.286119 C12.7358289,24.9206799 11.0417112,22.8385269 11.1358289,19.7875354 C11.255615,15.6827195 14.4983957,13.3371105 15.2171123,12.8441926 C15.8245989,12.4362606 17.2620321,11.4844193 19.3668449,11.3399433 C19.8887701,11.305949 21.6941176,11.203966 23.5165775,12.1898017 C27.4609626,14.3229462 27.5893048,19.4560907 27.597861,19.7790368 C27.5893048,20.7053824 27.5807487,23.2549575 25.6727273,25.4560907 Z" id="Shape" fill="#085229" fill-rule="nonzero"></path>
</svg>