<svg width="16" height="16" viewBox="0 0 16 16" fill="none" xmlns="http://www.w3.org/2000/svg">
<path d="M8 6.5H9V9.5H8V6.5ZM3 7.5H4V6.5H3V7.5ZM16 2V14C16 14.5304 15.7893 15.0391 15.4142 15.4142C15.0391 15.7893 14.5304 16 14 16H2C1.46957 16 0.960859 15.7893 0.585786 15.4142C0.210714 15.0391 0 14.5304 0 14V2C0 1.46957 0.210714 0.960859 0.585786 0.585786C0.960859 0.210714 1.46957 0 2 0H14C14.5304 0 15.0391 0.210714 15.4142 0.585786C15.7893 0.960859 16 1.46957 16 2ZM5.5 6.5C5.5 6.10218 5.34196 5.72064 5.06066 5.43934C4.77936 5.15804 4.39782 5 4 5H1.5V11H3V9H4C4.39782 9 4.77936 8.84196 5.06066 8.56066C5.34196 8.27936 5.5 7.89782 5.5 7.5V6.5ZM10.5 6.5C10.5 6.10218 10.342 5.72064 10.0607 5.43934C9.77936 5.15804 9.39782 5 9 5H6.5V11H9C9.39782 11 9.77936 10.842 10.0607 10.5607C10.342 10.2794 10.5 9.89782 10.5 9.5V6.5ZM14.5 5H11.5V11H13V9H14.5V7.5H13V6.5H14.5V5Z" fill="currentColor"/>
</svg>
