<svg width="20" height="20" viewBox="0 0 20 20" fill="none" xmlns="http://www.w3.org/2000/svg">
<path d="M11 0.0300293C15.73 0.500029 19.5 4.25003 19.9501 9.00003C20.5 14.5 16.5 19.38 11 19.93V17.93C14.64 17.5 17.5 14.61 17.96 10.97C18.5 6.58003 15.39 2.59003 11 2.05003V0.0500293V0.0300293ZM9.00005 0.0600293V2.06003C7.57005 2.26003 6.22005 2.84003 5.10005 3.74003L3.67005 2.26003C5.19005 1.00003 7.05005 0.250029 9.00005 0.0600293ZM2.26005 3.67003L3.69005 5.10003C2.80005 6.23003 2.24005 7.58003 2.05005 9.00003H0.0500488C0.250049 7.04003 1.00005 5.19003 2.26005 3.67003ZM0.0600488 11H2.06005C2.24005 12.42 2.81005 13.77 3.69005 14.9L2.27005 16.33C1.03005 14.81 0.260049 12.96 0.0600488 11ZM5.10005 16.37C6.23005 17.25 7.58005 17.82 9.00005 18V20C7.04005 19.79 5.18005 19 3.67005 17.74L5.10005 16.37ZM10 5.50003L5.50005 10H9.00005V14H11V10H14.5L10 5.50003Z" fill="currentColor"/>
</svg>
