<svg width="20" height="20" viewBox="0 0 20 20" fill="none" xmlns="http://www.w3.org/2000/svg">
<path d="M11 0.0300293V0.0500293V2.05003C15.39 2.59003 18.5 6.58003 17.96 10.97C17.5 14.61 14.64 17.5 11 17.93V19.93C16.5 19.38 20.5 14.5 19.9501 9.00003C19.5 4.25003 15.73 0.500029 11 0.0300293ZM9.00005 0.0600293C7.05005 0.250029 5.19005 1.00003 3.67005 2.26003L5.10005 3.74003C6.22005 2.84003 7.57005 2.26003 9.00005 2.06003V0.0600293ZM2.26005 3.67003C1.00005 5.19003 0.250049 7.04003 0.0500488 9.00003H2.05005C2.24005 7.58003 2.80005 6.23003 3.69005 5.10003L2.26005 3.67003ZM0.0600488 11C0.260049 12.96 1.03005 14.81 2.27005 16.33L3.69005 14.9C2.81005 13.77 2.24005 12.42 2.06005 11H0.0600488ZM5.10005 16.37L3.67005 17.74C5.18005 19 7.04005 19.79 9.00005 20V18C7.58005 17.82 6.23005 17.25 5.10005 16.37ZM10.5 5.00003V10.25L15 12.92L14.25 14.15L9.00005 11V5.00003H10.5Z" fill="currentColor"/>
</svg>
