<svg width="24" height="24" viewBox="0 0 24 24" fill="none" xmlns="http://www.w3.org/2000/svg">
<path d="M2.19998 11.2C1.99998 13.6 2.69998 15.6 4.19998 17.4C5.69998 19.2 7.69998 20 10.1 20H20.1C20.6 20 21.1 19.8 21.5 19.4C21.9 19 22.1 18.5 22.1 18V17.2C22.1 16.6 22 15.9 21.9 15H13.7C12.7 15 11.9 14.6 11.2 13.9C10.5 13.2 10.1 12.3 10.1 11.4C10.1 9.80004 10.8 8.70004 12.3 8.10004L17.1 6.00004C15.4 4.80004 13.4 4.10004 11.1 4.00004C8.89998 3.80004 6.89998 4.50004 5.09998 5.90004C3.29998 7.30004 2.39998 9.00004 2.19998 11.2ZM12.1 11.4C12.1 11.8 12.3 12.2 12.6 12.5C12.9 12.8 13.3 13 13.7 13H21.5C20.9 10.8 20 9.00004 18.7 7.60004L13.1 9.90004C12.4 10.1 12.1 10.6 12.1 11.4Z" fill="currentColor"/>
</svg>
