<svg width="24" height="24" viewBox="0 0 24 24" fill="none" xmlns="http://www.w3.org/2000/svg">
<path d="M22 12.1401C22 10.9201 21 9.96008 19.81 9.96008C19.22 9.96008 18.68 10.1901 18.29 10.5701C16.79 9.50008 14.72 8.79008 12.43 8.70008L13.43 4.00008L16.7 4.71008C16.73 5.53008 17.41 6.19008 18.25 6.19008C19.11 6.19008 19.81 5.50008 19.81 4.63008C19.81 3.77008 19.11 3.08008 18.25 3.08008C17.65 3.08008 17.11 3.43008 16.86 3.95008L13.22 3.18008C13.11 3.16008 13 3.18008 12.93 3.24008C12.84 3.29008 12.79 3.38008 12.77 3.50008L11.66 8.72008C9.33 8.79008 7.23 9.50008 5.71 10.5801C5.32 10.2101 4.78 10.0001 4.19 10.0001C2.97 10.0001 2 10.9601 2 12.1601C2 13.0601 2.54 13.8101 3.29 14.1501C3.25 14.3701 3.24 14.5801 3.24 14.8101C3.24 18.1801 7.16 20.9301 12 20.9301C16.84 20.9301 20.76 18.2001 20.76 14.8101C20.76 14.6001 20.75 14.3701 20.71 14.1501C21.46 13.8101 22 13.0401 22 12.1401ZM7 13.7001C7 12.8401 7.68 12.1401 8.54 12.1401C9.4 12.1401 10.1 12.8401 10.1 13.7001C10.1 14.1138 9.93564 14.5106 9.64309 14.8032C9.35053 15.0957 8.95374 15.2601 8.54 15.2601C7.68 15.2801 7 14.5601 7 13.7001ZM15.71 17.8401C14.63 18.9201 12.59 19.0001 12 19.0001C11.39 19.0001 9.35 18.9001 8.29 17.8401C8.13 17.6801 8.13 17.4301 8.29 17.2701C8.45 17.1101 8.7 17.1101 8.86 17.2701C9.54 17.9501 11 18.1801 12 18.1801C13 18.1801 14.47 17.9501 15.14 17.2701C15.3 17.1101 15.55 17.1101 15.71 17.2701C15.85 17.4301 15.85 17.6801 15.71 17.8401ZM15.42 15.2801C14.56 15.2801 13.86 14.5801 13.86 13.7201C13.86 13.3063 14.0244 12.9095 14.3169 12.617C14.6095 12.3244 15.0063 12.1601 15.42 12.1601C16.28 12.1601 17 12.8601 17 13.7201C17 14.5601 16.28 15.2801 15.42 15.2801Z" fill="currentColor"/>
</svg>
