<svg width="24" height="24" viewBox="0 0 24 24" fill="none" xmlns="http://www.w3.org/2000/svg">
<path d="M2.81006 14.12L5.64006 11.29L8.17006 10.79C11.3901 6.40997 17.5501 4.21997 19.7801 4.21997C19.7801 6.44997 17.5901 12.61 13.2101 15.83L12.7101 18.36L9.88006 21.19L9.17006 17.66C7.76006 17.66 7.76006 17.66 7.05006 16.95C6.34006 16.24 6.34006 16.24 6.34006 14.83L2.81006 14.12ZM5.64006 16.95L7.05006 18.36L4.39006 21.03H2.97006V19.61L5.64006 16.95ZM4.22006 15.54L5.46006 15.71L3.00006 18.16V16.74L4.22006 15.54ZM8.29006 18.54L8.46006 19.78L7.26006 21H5.84006L8.29006 18.54ZM13.0001 9.49997C12.6022 9.49997 12.2207 9.65801 11.9394 9.93931C11.6581 10.2206 11.5001 10.6021 11.5001 11C11.5001 11.3978 11.6581 11.7793 11.9394 12.0606C12.2207 12.3419 12.6022 12.5 13.0001 12.5C13.3979 12.5 13.7794 12.3419 14.0607 12.0606C14.342 11.7793 14.5001 11.3978 14.5001 11C14.5001 10.6021 14.342 10.2206 14.0607 9.93931C13.7794 9.65801 13.3979 9.49997 13.0001 9.49997Z" fill="currentColor"/>
</svg>
