<svg width="24" height="24" viewBox="0 0 24 24" fill="none" xmlns="http://www.w3.org/2000/svg">
<path d="M12 3C13.0609 3 14.0783 3.42143 14.8284 4.17157C15.5786 4.92172 16 5.93913 16 7C16 8.06087 15.5786 9.07828 14.8284 9.82843C14.0783 10.5786 13.0609 11 12 11C10.9391 11 9.92172 10.5786 9.17157 9.82843C8.42143 9.07828 8 8.06087 8 7C8 5.93913 8.42143 4.92172 9.17157 4.17157C9.92172 3.42143 10.9391 3 12 3ZM16 13.54C16 14.6 15.72 17.07 13.81 19.83L13 15L13.94 13.12C13.32 13.05 12.67 13 12 13C11.33 13 10.68 13.05 10.06 13.12L11 15L10.19 19.83C8.28 17.07 8 14.6 8 13.54C5.61 14.24 4 15.5 4 17V21H10H11.09H12.91H14H20V17C20 15.5 18.4 14.24 16 13.54Z" fill="currentColor"/>
</svg>
