<svg width="24" height="24" viewBox="0 0 24 24" fill="none" xmlns="http://www.w3.org/2000/svg">
<path d="M5 3C3.89 3 3 3.89 3 5V19C3 19.5304 3.21071 20.0391 3.58579 20.4142C3.96086 20.7893 4.46957 21 5 21H19C19.5304 21 20.0391 20.7893 20.4142 20.4142C20.7893 20.0391 21 19.5304 21 19V12H19V19H5V5H12V3H5ZM17.78 4C17.61 4 17.43 4.07 17.3 4.2L16.08 5.41L18.58 7.91L19.8 6.7C20.06 6.44 20.06 6 19.8 5.75L18.25 4.2C18.12 4.07 17.95 4 17.78 4ZM15.37 6.12L8 13.5V16H10.5L17.87 8.62L15.37 6.12Z" fill="currentColor"/>
</svg>
