<svg width="24" height="24" viewBox="0 0 24 24" fill="none" xmlns="http://www.w3.org/2000/svg">
<path d="M7 7C6.46957 7 5.96086 7.21071 5.58579 7.58579C5.21071 7.96086 5 8.46957 5 9V11C5 11.5304 5.21071 12.0391 5.58579 12.4142C5.96086 12.7893 6.46957 13 7 13H9V15H5V17H9C9.53043 17 10.0391 16.7893 10.4142 16.4142C10.7893 16.0391 11 15.5304 11 15V13C11 12.4696 10.7893 11.9609 10.4142 11.5858C10.0391 11.2107 9.53043 11 9 11H7V9H11V7H7Z" fill="currentColor"/>
<path d="M13 7V9H15V17H17V9H19V7H13Z" fill="currentColor"/>
</svg>
