<svg width="24" height="24" viewBox="0 0 24 24" fill="none" xmlns="http://www.w3.org/2000/svg">
<path d="M7 1C6.46957 1 5.96086 1.21071 5.58579 1.58579C5.21071 1.96086 5 2.46957 5 3V5C5 5.53043 5.21071 6.03914 5.58579 6.41421C5.96086 6.78929 6.46957 7 7 7H9V9H5V11H9C9.53043 11 10.0391 10.7893 10.4142 10.4142C10.7893 10.0391 11 9.53043 11 9V7C11 6.46957 10.7893 5.96086 10.4142 5.58579C10.0391 5.21071 9.53043 5 9 5H7V3H11V1H7Z" fill="currentColor"/>
<path d="M13 1V3H15V11H17V3H19V1H13Z" fill="currentColor"/>
<path fill-rule="evenodd" clip-rule="evenodd" d="M17 13H15C14.4696 13 13.9609 13.2107 13.5858 13.5858C13.2107 13.9609 13 14.4696 13 15V21C13 21.5304 13.2107 22.0391 13.5858 22.4142C13.9609 22.7893 14.4696 23 15 23H17C17.5304 23 18.0391 22.7893 18.4142 22.4142C18.7893 22.0391 19 21.5304 19 21V15C19 14.4696 18.7893 13.9609 18.4142 13.5858C18.0391 13.2107 17.5304 13 17 13ZM15 21V15H17V21H15Z" fill="currentColor"/>
<path d="M5 23H11V21H7.41L10.65 16.13C10.87 15.81 11 15.42 11 15C11 14.4696 10.7893 13.9609 10.4142 13.5858C10.0391 13.2107 9.53043 13 9 13H5V15H9L5 21V23Z" fill="currentColor"/>
</svg>
