<svg width="24" height="24" viewBox="0 0 24 24" fill="none" xmlns="http://www.w3.org/2000/svg">
<path d="M3 13V11H11V13H3ZM3 19V17H7V19H3ZM3 7V5H15V7H3Z" fill="currentColor"/>
<path d="M15 15H16.3333C16.3333 15.72 17.2467 16.3333 18.3333 16.3333C19.42 16.3333 20.3333 15.72 20.3333 15C20.3333 14.2667 19.64 14 18.1733 13.6467C16.76 13.2933 15 12.8533 15 11C15 9.80667 15.98 8.79333 17.3333 8.45333V7H19.3333V8.45333C20.6867 8.79333 21.6667 9.80667 21.6667 11H20.3333C20.3333 10.28 19.42 9.66667 18.3333 9.66667C17.2467 9.66667 16.3333 10.28 16.3333 11C16.3333 11.7333 17.0267 12 18.4933 12.3533C19.9067 12.7067 21.6667 13.1467 21.6667 15C21.6667 16.1933 20.6867 17.2067 19.3333 17.5467V19H17.3333V17.5467C15.98 17.2067 15 16.1933 15 15Z" fill="currentColor"/>
</svg>
