<svg width="20" height="20" viewBox="-5 -5 30 30" xmlns="http://www.w3.org/2000/svg"><path d="M10.0004 0C4.4704 0 0.000396729 4.5 0.000396729 10C0.000396729 12.6522 1.05397 15.1957 2.92933 17.0711C3.85792 17.9997 4.96031 18.7363 6.17356 19.2388C7.38682 19.7413 8.68718 20 10.0004 20C12.2504 20 14.3304 19.24 16.0004 18V15.28C14.5304 16.94 12.3904 18 10.0004 18C7.87867 18 5.84383 17.1571 4.34354 15.6569C2.84325 14.1566 2.0004 12.1217 2.0004 10C2.0004 7.87827 2.84325 5.84344 4.34354 4.34315C5.84383 2.84286 7.87867 2 10.0004 2C13.3604 2 16.2304 4.07 17.4104 7H19.5404C18.2704 2.94 14.5004 0 10.0004 0ZM9.0004 5V11L14.2504 14.15L15.0004 12.92L10.5004 10.25V5H9.0004ZM18.0004 9V16H20.0004V9H18.0004ZM18.0004 18V20H20.0004V18H18.0004Z" fill="currentColor" fill-rule="nonzero"/></svg>
