<svg width="20" height="20" viewBox="0 0 20 20" fill="none" xmlns="http://www.w3.org/2000/svg">
<path d="M10.7498 1.94006C11.7498 1.22006 12.9098 0.860059 14.2198 0.860059C14.9398 0.860059 15.7298 1.05006 16.5898 1.45006C17.4498 1.84006 18.1298 2.30006 18.6298 2.83006C19.6598 4.11006 20.0898 5.60006 19.9398 7.30006C19.7798 9.00006 19.2198 10.3301 18.2498 11.2701L10.6598 18.8601C10.4698 19.0501 10.2298 19.1401 9.9498 19.1401C9.6698 19.1401 9.4398 19.0501 9.2498 18.8601C9.0598 18.6701 8.9698 18.4401 8.9698 18.1601C8.9698 17.8801 9.0598 17.6401 9.2498 17.4501L13.8398 12.8601C14.0898 12.6401 14.0898 12.4101 13.8398 12.1601C13.5898 11.9101 13.3598 11.9101 13.1398 12.1601L8.5498 16.7501C8.3598 16.9401 8.1298 17.0301 7.8398 17.0301C7.5598 17.0301 7.3298 16.9401 7.1398 16.7501C6.9498 16.5601 6.8598 16.3301 6.8598 16.0501C6.8598 15.7701 6.9498 15.5301 7.1398 15.3401L11.7298 10.7501C11.9998 10.5001 11.9998 10.2501 11.7298 10.0001C11.4998 9.75006 11.2798 9.75006 11.0298 10.0001L6.4398 14.6401C6.2498 14.8301 5.9998 14.9201 5.7298 14.9201C5.4498 14.9201 5.2098 14.8301 4.9998 14.6401C4.7998 14.4501 4.6998 14.2201 4.6998 13.9401C4.6998 13.6601 4.8098 13.4101 5.0298 13.1901L9.6298 8.59006C9.8798 8.34006 9.8798 8.11006 9.6298 7.89006C9.3798 7.67006 9.1398 7.67006 8.9198 7.89006L4.2798 12.5001C4.0598 12.7001 3.8298 12.8101 3.5798 12.8101C3.2998 12.8101 3.0598 12.7101 2.8798 12.5001C2.6898 12.3001 2.5898 12.0601 2.5898 11.7801C2.5898 11.5001 2.6898 11.2701 2.8798 11.0801C5.9398 8.00006 7.8298 6.14006 8.5498 5.45006L12.1098 8.97006C12.4998 9.34006 12.9498 9.53006 13.4998 9.53006C14.1998 9.53006 14.7498 9.25006 15.1598 8.69006C15.4398 8.28006 15.5398 7.83006 15.4598 7.33006C15.3798 6.83006 15.1698 6.41006 14.8298 6.06006L10.7498 1.94006ZM12.8098 8.27006L8.5498 4.00006L1.4698 11.0801C0.629804 10.2301 0.149804 8.93006 0.0398035 7.16006C-0.0701965 5.40006 0.409804 3.87006 1.4698 2.59006C2.6598 1.41006 4.0798 0.810059 5.7298 0.810059C7.3898 0.810059 8.7998 1.41006 9.9498 2.59006L14.2198 6.86006C14.4098 7.05006 14.4998 7.28006 14.4998 7.56006C14.4998 7.84006 14.4098 8.08006 14.2198 8.27006C14.0298 8.45006 13.7998 8.55006 13.4998 8.55006C13.2298 8.55006 12.9998 8.45006 12.8098 8.27006Z" fill="currentColor" />
</svg>
