<svg width="40" height="40" viewBox="0 0 40 40" xmlns="http://www.w3.org/2000/svg">
  <path d="M16.2318841,33.8743961 C16.2318841,34.3478261 15.8647343,34.6183575 15.410628,34.47343 C9.37198068,32.5410628 4.99516908,26.8792271 4.99516908,20.1932367 C4.99516908,13.5072464 9.37198068,7.84541063 15.4202899,5.91304348 C15.8743961,5.76811594 16.2415459,6.03864734 16.2415459,6.51207729 L16.2415459,7.67149758 C16.2415459,7.99033816 16,8.34782609 15.7004831,8.45410628 C10.9178744,10.2125604 7.48792271,14.8115942 7.48792271,20.1932367 C7.48792271,25.5748792 10.9082126,30.173913 15.6908213,31.9227053 C15.9903382,32.0289855 16.2318841,32.3961353 16.2318841,32.7149758 L16.2318841,33.8743961 Z" id="Path" fill="currentColor"></path>
  <path d="M21.236715,29.5555556 C21.236715,29.9033816 20.9565217,30.1835749 20.6086957,30.1835749 L19.3623188,30.1835749 C19.0144928,30.1835749 18.7342995,29.9033816 18.7342995,29.5555556 L18.7342995,27.5845411 C16.0096618,27.2173913 14.6763285,25.6908213 14.3091787,23.6135266 C14.2512077,23.2560386 14.531401,22.9371981 14.8888889,22.9371981 L16.3091787,22.9371981 C16.6086957,22.9371981 16.8599034,23.1497585 16.9178744,23.4396135 C17.178744,24.6763285 17.9033816,25.6328502 20.0772947,25.6328502 C21.6908213,25.6328502 22.8309179,24.7342995 22.8309179,23.3913043 C22.8309179,22.0386473 22.1545894,21.5362319 19.7874396,21.1497585 C16.2995169,20.6763285 14.647343,19.6135266 14.647343,16.8792271 C14.647343,14.763285 16.2512077,13.1207729 18.7246377,12.763285 L18.7246377,10.8309179 C18.7246377,10.4830918 19.0048309,10.2028986 19.352657,10.2028986 L20.5990338,10.2028986 C20.9468599,10.2028986 21.2270531,10.4830918 21.2270531,10.8309179 L21.2270531,12.821256 C23.236715,13.178744 24.5217391,14.3188406 24.9371981,16.2222222 C25.0144928,16.5797101 24.7342995,16.9178744 24.3671498,16.9178744 L23.0531401,16.9178744 C22.7729469,16.9178744 22.531401,16.7246377 22.4541063,16.4541063 C22.0966184,15.2463768 21.236715,14.7246377 19.7391304,14.7246377 C18.0869565,14.7246377 17.2270531,15.5169082 17.2270531,16.647343 C17.2270531,17.8357488 17.7198068,18.4251208 20.2512077,18.7922705 C23.6811594,19.2657005 25.4589372,20.2415459 25.4589372,23.1594203 C25.4589372,25.3816425 23.8164251,27.178744 21.2270531,27.5845411 L21.236715,29.5555556 Z" id="Path" fill="currentColor"></path>
  <path d="M24.5507246,34.47343 C24.0966184,34.6183575 23.7294686,34.3478261 23.7294686,33.8743961 L23.7294686,32.705314 C23.7294686,32.3574879 23.942029,32.0386473 24.2705314,31.9130435 C29.0531401,30.1642512 32.47343,25.5652174 32.47343,20.1835749 C32.47343,14.8019324 29.0531401,10.2028986 24.2705314,8.45410628 C23.9710145,8.34782609 23.7294686,7.98067633 23.7294686,7.67149758 L23.7294686,6.51207729 C23.7294686,6.03864734 24.0966184,5.76811594 24.5507246,5.91304348 C30.5990338,7.84541063 34.9758454,13.5072464 34.9758454,20.1932367 C34.9661836,26.8792271 30.589372,32.5410628 24.5507246,34.47343 Z" id="Path" fill="currentColor"></path>
</svg>