<svg width="16" height="10" viewBox="0 0 16 10" fill="none" xmlns="http://www.w3.org/2000/svg">
<path d="M9 10C8.73478 10 8.48043 9.89464 8.29289 9.70711C8.10536 9.51957 8 9.26522 8 9C8 8.73478 8.10536 8.48043 8.29289 8.29289C8.48043 8.10536 8.73478 8 9 8C9.26522 8 9.51957 8.10536 9.70711 8.29289C9.89464 8.48043 10 8.73478 10 9C10 9.26522 9.89464 9.51957 9.70711 9.70711C9.51957 9.89464 9.26522 10 9 10ZM15 0V8H16V10H12V8H13V2H12L13 0H15ZM0 0H4C4.53043 0 5.03914 0.210714 5.41421 0.585786C5.78929 0.960859 6 1.46957 6 2V8C6 8.53043 5.78929 9.03914 5.41421 9.41421C5.03914 9.78929 4.53043 10 4 10H0V8H4V6H1V4H4V2H0V0Z" fill="currentColor"/>
</svg>
