<svg width="24" height="24" viewBox="0 0 24 24" fill="none" xmlns="http://www.w3.org/2000/svg">
<path d="M5 3C3.89 3 3 3.9 3 5V19C3 19.5304 3.21071 20.0391 3.58579 20.4142C3.96086 20.7893 4.46957 21 5 21H19C19.5304 21 20.0391 20.7893 20.4142 20.4142C20.7893 20.0391 21 19.5304 21 19V16.72C21.59 16.37 22 15.74 22 15V9C22 8.26 21.59 7.63 21 7.28V5C21 4.46957 20.7893 3.96086 20.4142 3.58579C20.0391 3.21071 19.5304 3 19 3H5ZM5 5H19V7H13C12.4696 7 11.9609 7.21071 11.5858 7.58579C11.2107 7.96086 11 8.46957 11 9V15C11 15.5304 11.2107 16.0391 11.5858 16.4142C11.9609 16.7893 12.4696 17 13 17H19V19H5V5ZM13 9H20V15H13V9ZM16 10.5C15.6022 10.5 15.2206 10.658 14.9393 10.9393C14.658 11.2206 14.5 11.6022 14.5 12C14.5 12.3978 14.658 12.7794 14.9393 13.0607C15.2206 13.342 15.6022 13.5 16 13.5C16.3978 13.5 16.7794 13.342 17.0607 13.0607C17.342 12.7794 17.5 12.3978 17.5 12C17.5 11.6022 17.342 11.2206 17.0607 10.9393C16.7794 10.658 16.3978 10.5 16 10.5Z" fill="currentColor"/>
</svg>
