<svg width="24" height="24" viewBox="0 0 24 24" fill="none" xmlns="http://www.w3.org/2000/svg">
<path d="M12 3.77002L11.25 4.61002C11.25 4.61002 9.97 6.06002 8.68 7.94002C7.39 9.82002 6 12.07 6 14.23C6 15.8213 6.63214 17.3474 7.75736 18.4727C8.88258 19.5979 10.4087 20.23 12 20.23C13.5913 20.23 15.1174 19.5979 16.2426 18.4727C17.3679 17.3474 18 15.8213 18 14.23C18 12.07 16.61 9.82002 15.32 7.94002C14.03 6.06002 12.75 4.61002 12.75 4.61002L12 3.77002ZM12 6.90002C12.44 7.42002 12.84 7.85002 13.68 9.07002C14.89 10.83 16 13.07 16 14.23C16 16.45 14.22 18.23 12 18.23C9.78 18.23 8 16.45 8 14.23C8 13.07 9.11 10.83 10.32 9.07002C11.16 7.85002 11.56 7.42002 12 6.90002Z" fill="currentColor"/>
</svg>
