<?xml version="1.0" encoding="UTF-8"?><svg xmlns="http://www.w3.org/2000/svg" xmlns:xlink="http://www.w3.org/1999/xlink" viewBox="0 0 100 100"><defs><style>.e{fill:url(#d);}.f{fill:none;}</style><linearGradient id="d" x1="48.85" y1="-26.09" x2="50.67" y2="155.54" gradientTransform="matrix(1, 0, 0, 1, 0, 0)" gradientUnits="userSpaceOnUse"><stop offset="0" stop-color="#00ffe0"/><stop offset=".11" stop-color="#00f7e1"/><stop offset=".27" stop-color="#00e2e7"/><stop offset=".47" stop-color="#00c1ef"/><stop offset=".7" stop-color="#0092fb"/><stop offset=".76" stop-color="#0086ff"/></linearGradient></defs><g id="a"/><g id="b"><g id="c"><rect class="f" y="0" width="100" height="100"/><path class="e" d="M50,68.94c-1.66,3.22-3.34,6.5-5.03,9.82-1.69,3.33-3.35,6.64-4.98,9.91,1.63,3.28,3.3,6.59,4.98,9.92l5.03-9.91,5.03,9.91c1.69-3.33,3.35-6.64,4.98-9.92-1.64-3.27-3.3-6.58-4.98-9.91-1.69-3.33-3.37-6.6-5.03-9.82Zm19.82-.42c-1.54-3.2-3.12-6.4-4.73-9.59-1.62-3.19-3.24-6.3-4.87-9.33-1.68-3.12-3.35-6.15-5.03-9.08-1.74-3.05-3.48-6-5.2-8.83-1.73,2.84-3.46,5.78-5.2,8.84-1.67,2.93-3.35,5.96-5.02,9.08-1.62,3.02-3.25,6.13-4.87,9.32h0c-1.62,3.2-3.2,6.4-4.73,9.6-1.58,3.3-3.12,6.61-4.61,9.9-1.55,3.43-3.04,6.85-4.48,10.24,1.44,3.39,2.94,6.81,4.48,10.24,1.51-3.37,3.08-6.79,4.7-10.23,1.56-3.32,3.15-6.66,4.79-10.02,1.58-3.26,3.22-6.53,4.88-9.81,1.66-3.28,3.32-6.5,4.98-9.62,1.7-3.23,3.4-6.38,5.08-9.45,1.68,3.07,3.38,6.21,5.08,9.45,1.66,3.12,3.32,6.34,4.98,9.62,1.66,3.28,3.3,6.55,4.88,9.81,1.64,3.36,3.24,6.7,4.79,10.02,1.62,3.44,3.18,6.86,4.7,10.24,1.55-3.43,3.04-6.85,4.49-10.25-1.44-3.39-2.94-6.81-4.48-10.24-1.49-3.3-3.03-6.6-4.61-9.91Zm21.49,8.83c-1.2-3.49-2.48-6.98-3.83-10.46-1.26-3.27-2.58-6.53-3.96-9.78-1.31-3.09-2.68-6.18-4.11-9.22-1.38-2.96-2.8-5.89-4.27-8.78-1.47-2.9-2.95-5.7-4.46-8.41-1.55-2.8-3.11-5.5-4.68-8.09-1.65-2.73-3.3-5.34-4.96-7.81-1.76-2.65-3.54-5.17-5.31-7.54C53.83,4.67,51.91,2.25,50,0c-1.91,2.25-3.83,4.66-5.75,7.25-1.77,2.37-3.54,4.89-5.31,7.53-1.66,2.49-3.32,5.09-4.96,7.82-1.57,2.59-3.13,5.29-4.68,8.09-1.5,2.71-2.99,5.51-4.46,8.41-1.47,2.9-2.89,5.83-4.27,8.78-1.42,3.05-2.79,6.13-4.11,9.22-1.38,3.24-2.7,6.5-3.96,9.78-1.34,3.48-2.62,6.96-3.83,10.46-1.31,3.78-2.54,7.56-3.68,11.33,1.15,3.77,2.37,7.54,3.68,11.32,1.23-3.75,2.55-7.53,3.95-11.33,1.3-3.54,2.67-7.09,4.1-10.64,1.35-3.36,2.77-6.74,4.24-10.1,1.41-3.22,2.87-6.44,4.38-9.64,1.46-3.1,2.97-6.2,4.53-9.26,1.56-3.07,3.13-6.05,4.7-8.93,1.63-2.99,3.26-5.87,4.89-8.64,1.71-2.91,3.42-5.69,5.13-8.36,1.81-2.82,3.61-5.51,5.4-8.07,1.79,2.56,3.59,5.26,5.4,8.08,1.71,2.67,3.42,5.46,5.13,8.35,1.64,2.78,3.26,5.65,4.89,8.64,1.57,2.88,3.14,5.86,4.7,8.93,1.56,3.07,3.07,6.16,4.53,9.26,1.51,3.2,2.97,6.41,4.38,9.64,1.47,3.36,2.89,6.74,4.24,10.1,1.44,3.55,2.8,7.1,4.1,10.64,1.39,3.79,2.71,7.58,3.95,11.33,1.31-3.78,2.54-7.55,3.68-11.32-1.14-3.77-2.37-7.54-3.68-11.33Z"/></g></g></svg>