<?xml version="1.0" encoding="utf-8"?>
<!-- Generator: Adobe Illustrator 26.4.1, SVG Export Plug-In . SVG Version: 6.00 Build 0)  -->
<svg version="1.1" id="Calque_1" xmlns="http://www.w3.org/2000/svg" xmlns:xlink="http://www.w3.org/1999/xlink" x="0px" y="0px"
	 viewBox="0 0 283.5 283.5" style="enable-background:new 0 0 283.5 283.5;" xml:space="preserve">
<style type="text/css">
	.st0{fill:url(#SVGID_1_);}
	.st1{fill:url(#SVGID_00000139255201489438748190000002051599573515998098_);}
</style>
<radialGradient id="SVGID_1_" cx="38.3724" cy="813.9261" r="266.71" gradientTransform="matrix(1 0 0 1 0 -558)" gradientUnits="userSpaceOnUse">
	<stop  offset="7.675360e-02" style="stop-color:#004FFF"/>
	<stop  offset="0.4776" style="stop-color:#CB06ED"/>
	<stop  offset="0.7787" style="stop-color:#FF0062"/>
	<stop  offset="1" style="stop-color:#FF8500"/>
</radialGradient>
<path class="st0" d="M141.7,10c35.2,0,68.3,13.7,93.1,38.6s38.6,58,38.6,93.1s-13.7,68.3-38.6,93.1s-58,38.6-93.1,38.6
	s-68.3-13.7-93.1-38.6S10,176.9,10,141.7s13.7-68.3,38.6-93.1S106.5,10,141.7,10 M141.7,0C63.5,0,0,63.5,0,141.7
	s63.5,141.7,141.7,141.7S283.5,220,283.5,141.7S220,0,141.7,0L141.7,0z"/>
<radialGradient id="SVGID_00000163786088620989682370000017931451140397164162_" cx="-1560.8202" cy="74.9142" r="1.1336" gradientTransform="matrix(155.6487 -132.4332 131.5338 154.5915 233126.9844 -218047.4062)" gradientUnits="userSpaceOnUse">
	<stop  offset="7.675360e-02" style="stop-color:#004FFF"/>
	<stop  offset="0.4776" style="stop-color:#CB06ED"/>
	<stop  offset="0.7787" style="stop-color:#FF0062"/>
	<stop  offset="1" style="stop-color:#FF8500"/>
</radialGradient>
<path style="fill:url(#SVGID_00000163786088620989682370000017931451140397164162_);" d="M141.9,27.3c-24.7,0-48.8,8.1-68.6,23.2
	c-19.6,15.1-34,36.2-40.6,60.2c-6.6,23.9-5.3,49.6,3.8,72.6s25.6,42.7,46.7,55.5c4.3,2.6,9.3,4,14.2,4h0.4c3.7,0,7.3-0.7,10.8-2.1
	c3.3-1.5,6.5-3.4,9.1-6s4.7-5.8,6-9.2c1.3-3.4,2.1-7.1,2.1-10.8v-51.9c0-0.4-0.1-0.6-0.4-0.7c-0.2-0.2-0.5-0.4-0.7-0.4h-16.9
	c-2.1,0.1-4.3-0.2-6.3-1c-2-0.7-3.8-2-5.4-3.4c-1.6-1.5-2.8-3.3-3.6-5.3c-0.7-2-1.2-4.2-1.2-6.3c0-2.1,0.5-4.3,1.2-6.3
	c0.7-2,2-3.8,3.6-5.3c1.6-1.5,3.3-2.7,5.4-3.4c2-0.7,4.2-1.1,6.3-1h68.1c2.1-0.1,4.3,0.2,6.3,1c2,0.7,3.8,2,5.4,3.4
	c1.6,1.5,2.8,3.3,3.6,5.3c0.7,2,1.2,4.2,1.2,6.3c0,2.1-0.5,4.3-1.2,6.3s-2,3.8-3.6,5.3c-1.6,1.5-3.3,2.7-5.4,3.4s-4.2,1.1-6.3,1H159
	c-0.4,0-0.6,0.1-0.7,0.4c-0.2,0.2-0.4,0.5-0.4,0.7v51.9c0,7.5,3.1,14.6,8.3,19.9c5.3,5.3,12.4,8.3,19.9,8.3h0.4c5,0,9.9-1.5,14.2-4
	c21.2-12.9,37.5-32.4,46.7-55.5c9.1-23.2,10.4-48.6,3.8-72.5s-20.9-45-40.6-60.1C190.7,35.5,166.7,27.3,141.9,27.3L141.9,27.3z
	 M61.5,163.8c-3.6,0-7.1-1-10.1-3.1c-3.1-2-5.3-4.8-6.7-8.2c-1.3-3.3-1.7-7-1-10.6c0.7-3.4,2.5-6.7,4.9-9.3c2.6-2.6,5.8-4.3,9.3-4.9
	c3.4-0.7,7.2-0.4,10.4,1c3.3,1.3,6.1,3.7,8.1,6.7c2,3.1,3.1,6.5,3.1,10.1c0,4.8-2,9.4-5.3,12.8C71,161.9,66.3,163.8,61.5,163.8
	L61.5,163.8z M141.9,109.5c-5.6,0-11-1.7-15.6-4.7c-4.6-3.2-8.2-7.5-10.3-12.6c-2.1-5.2-2.7-10.9-1.6-16.3
	c1.1-5.5,3.8-10.6,7.7-14.5c3.9-3.9,9-6.6,14.4-7.7c5.5-1.1,11.2-0.6,16.3,1.6c5.1,2.1,9.6,5.8,12.6,10.4c3.2,4.6,4.7,10.1,4.7,15.7
	c0,7.5-3.1,14.6-8.3,19.9C156.5,106.6,149.4,109.5,141.9,109.5L141.9,109.5z M222,163.8c-3.6,0-7.1-1.1-10.1-3.1
	c-3.1-2-5.3-4.8-6.7-8.2c-1.3-3.3-1.7-7-1-10.6c0.7-3.4,2.5-6.7,4.9-9.3c2.6-2.6,5.8-4.3,9.3-4.9c3.4-0.7,7.2-0.4,10.4,1
	c3.3,1.3,6.1,3.7,8.1,6.7c2,3.1,3.1,6.5,3.1,10.1c0,4.8-2,9.4-5.3,12.9C231.5,161.9,226.9,163.8,222,163.8z"/>
</svg>
