<svg width="24" height="24" viewBox="0 0 24 24" fill="none" xmlns="http://www.w3.org/2000/svg">
<g clip-path="url(#clip0_1750_10193)">
<path d="M18.8504 1.35886C18.0707 0.482577 16.9899 0 15.807 0C14.4867 0 13.3423 0.62428 12.4974 1.80529C12.434 1.89384 12.3747 1.98239 12.3192 2.07004C12.2637 1.98234 12.2045 1.89384 12.1411 1.80529C11.2961 0.62428 10.1517 0 8.83138 0C7.64854 0 6.5677 0.482577 5.78803 1.35881C5.04816 2.19037 4.64062 3.30206 4.64062 4.48907C4.64062 5.77902 5.1412 6.96931 6.21581 8.23512C7.15345 9.3395 8.49838 10.4747 10.0558 11.7891C10.6312 12.2749 11.2264 12.7772 11.8587 13.3253C11.9908 13.4397 12.155 13.497 12.3192 13.497C12.4833 13.497 12.6474 13.4397 12.7796 13.3253C13.4119 12.7773 14.0069 12.275 14.5824 11.7894C15.5825 10.9452 16.4463 10.2161 17.1959 9.50895C18.6512 8.13589 19.9978 6.57744 19.9978 4.48912C19.9978 3.30206 19.5903 2.19042 18.8504 1.35886ZM16.2311 8.48628C15.5098 9.16676 14.6598 9.88418 13.6756 10.7149C13.2377 11.0844 12.7887 11.4634 12.3192 11.866C11.8497 11.4635 11.4005 11.0844 10.9626 10.7148C7.89702 8.12731 6.04659 6.56553 6.04659 4.48912C6.0465 2.73145 7.24368 1.40601 8.83133 1.40601C9.67954 1.40601 10.4009 1.80529 10.9753 2.59275C11.4468 3.23896 11.6404 3.9089 11.6417 3.9134C11.726 4.21795 12.0032 4.42879 12.3192 4.42879C12.6351 4.42879 12.9123 4.21795 12.9966 3.9134C13.0036 3.88832 13.7152 1.40601 15.807 1.40601C17.3946 1.40601 18.5919 2.73149 18.5919 4.48912C18.5919 5.76266 17.9299 6.88335 16.2311 8.48628Z" fill="white"/>
<path d="M21.8897 14.1584C21.3065 14.1584 20.7439 14.4033 20.3463 14.8301L18.2802 17.0481C18.0131 16.1896 17.2112 15.5644 16.2659 15.5644H13.0184C12.5638 15.5644 12.1254 15.399 11.784 15.0986C9.94828 13.4831 7.18894 13.4689 5.33574 15.0539C4.95357 14.5129 4.32385 14.1585 3.61248 14.1585H0.706889C0.318671 14.1585 0.00390625 14.4732 0.00390625 14.8615V23.2971C0.00390625 23.6853 0.318624 24.0001 0.706889 24.0001H3.61248C4.24379 24.0001 4.81079 23.7208 5.1976 23.2798L5.61389 23.3968C7.03786 23.7971 8.50983 24 9.98896 24H16.2659C17.8065 24 19.2781 23.2642 20.2025 22.0317L23.5774 17.5318C23.5775 17.5317 23.5775 17.5317 23.5776 17.5316C23.853 17.1643 23.9986 16.7272 23.9986 16.2673C23.9986 15.1045 23.0525 14.1584 21.8897 14.1584ZM4.31546 21.8911C4.31546 22.2787 4.00013 22.5941 3.61248 22.5941H1.40983V15.5644H3.61248C4.00009 15.5644 4.31546 15.8797 4.31546 16.2673V21.8911ZM22.4528 16.6881C22.4528 16.6882 22.4527 16.6882 22.4527 16.6882L19.0778 21.1882C18.4175 22.0685 17.3663 22.5941 16.2659 22.5941H9.9891C8.63859 22.5941 7.29459 22.4088 5.99447 22.0434L5.71955 21.9661C5.72044 21.9411 5.72147 21.9162 5.72147 21.8911V16.5851L6.21136 16.154C7.53511 14.9892 9.53156 14.9891 10.8554 16.154C11.4536 16.6804 12.2217 16.9702 13.0185 16.9702H16.266C16.6536 16.9702 16.969 17.2856 16.969 17.6732C16.969 18.0608 16.6537 18.3762 16.266 18.3762H11.2699C10.8816 18.3762 10.5669 18.6909 10.5669 19.0792C10.5669 19.4674 10.8816 19.7822 11.2699 19.7822H16.7371C17.3202 19.7822 17.8827 19.5374 18.2802 19.1107L21.3751 15.7884C21.5096 15.6439 21.6924 15.5644 21.8897 15.5644C22.2773 15.5644 22.5926 15.8797 22.5926 16.2673C22.5926 16.4206 22.5443 16.5661 22.4528 16.6881Z" fill="white"/>
</g>
<defs>
<clipPath id="clip0_1750_10193">
<rect width="24" height="24" fill="white"/>
</clipPath>
</defs>
</svg>
