<svg viewBox="1.5 1.5 15 15" fill="none" xmlns="http://www.w3.org/2000/svg">
  <path d="M9 15.75C12.7279 15.75 15.75 12.7279 15.75 9C15.75 5.27208 12.7279 2.25 9 2.25C5.27208 2.25 2.25 5.27208 2.25 9C2.25 12.7279 5.27208 15.75 9 15.75Z" stroke="#888888" stroke-width="1.5" stroke-linecap="round" stroke-linejoin="round"/>
  <path d="M9 13.3594C9.38833 13.3594 9.70312 13.0446 9.70312 12.6562C9.70312 12.2679 9.38833 11.9531 9 11.9531C8.61167 11.9531 8.29688 12.2679 8.29688 12.6562C8.29688 13.0446 8.61167 13.3594 9 13.3594Z" fill="#888888"/>
  <path d="M9 10.1253V9.56281C9.38938 9.56281 9.77002 9.44734 10.0938 9.23101C10.4175 9.01468 10.6699 8.70721 10.8189 8.34746C10.9679 7.98772 11.0069 7.59187 10.9309 7.20997C10.855 6.82807 10.6675 6.47727 10.3921 6.20194C10.1168 5.92661 9.76598 5.7391 9.38408 5.66314C9.00218 5.58717 8.60633 5.62616 8.24659 5.77517C7.88685 5.92418 7.57937 6.17652 7.36304 6.50028C7.14672 6.82404 7.03125 7.20467 7.03125 7.59406" stroke="#888888" stroke-width="1.5" stroke-linecap="round" stroke-linejoin="round"/>
</svg>
