<svg width="24" height="24" viewBox="0 0 24 24" fill="none" xmlns="http://www.w3.org/2000/svg">
<path d="M3.14062 2.25L20.8594 21.75" stroke="white" stroke-width="2" stroke-linecap="round" stroke-linejoin="round"/>
<path d="M17.5814 18.1425C15.5594 20.4435 13.0016 21.4228 12.2303 21.6785C12.0811 21.7298 11.9189 21.7298 11.7697 21.6785C10.4349 21.236 3.75 18.6264 3.75 10.75V5.25C3.75 5.05109 3.82902 4.86032 3.96967 4.71967C4.11032 4.57902 4.30109 4.5 4.5 4.5H5.1851" stroke="white" stroke-width="2" stroke-linecap="round" stroke-linejoin="round"/>
<path d="M9.23853 4.5H19.5C19.6989 4.5 19.8896 4.57902 20.0303 4.71967C20.1709 4.86032 20.25 5.05109 20.25 5.25V10.75C20.25 12.6329 19.868 14.2147 19.2683 15.538" stroke="white" stroke-width="2" stroke-linecap="round" stroke-linejoin="round"/>
</svg>
