<svg width="24" height="24" viewBox="0 0 24 24" fill="none" xmlns="http://www.w3.org/2000/svg">
<path opacity="0.15" d="M19.7119 3.36361L2.24367 8.29055C2.09671 8.332 1.96591 8.41732 1.86874 8.53509C1.77157 8.65287 1.71266 8.79751 1.69989 8.94966C1.68712 9.10182 1.7211 9.25424 1.79728 9.38657C1.87346 9.5189 1.98821 9.62483 2.1262 9.69019L10.1522 13.492C10.3088 13.5661 10.4348 13.6922 10.509 13.8487L14.3107 21.8747C14.3761 22.0127 14.482 22.1275 14.6144 22.2037C14.7467 22.2798 14.8991 22.3138 15.0513 22.301C15.2034 22.2883 15.3481 22.2294 15.4658 22.1322C15.5836 22.035 15.6689 21.9042 15.7104 21.7573L20.6373 4.28904C20.6735 4.16073 20.6749 4.02509 20.6412 3.89609C20.6075 3.76709 20.5401 3.64939 20.4458 3.55512C20.3515 3.46085 20.2339 3.39341 20.1048 3.35975C19.9758 3.32609 19.8402 3.32742 19.7119 3.36361Z" fill="white"/>
<path d="M19.7119 3.36361L2.24367 8.29055C2.09671 8.332 1.96591 8.41732 1.86874 8.53509C1.77157 8.65287 1.71266 8.79751 1.69989 8.94966C1.68712 9.10182 1.7211 9.25424 1.79728 9.38657C1.87346 9.5189 1.98821 9.62483 2.1262 9.69019L10.1522 13.492C10.3088 13.5661 10.4348 13.6922 10.509 13.8487L14.3107 21.8747C14.3761 22.0127 14.482 22.1275 14.6144 22.2037C14.7467 22.2798 14.8991 22.3138 15.0513 22.301C15.2034 22.2883 15.3481 22.2294 15.4658 22.1322C15.5836 22.035 15.6689 21.9042 15.7104 21.7573L20.6373 4.28904C20.6735 4.16073 20.6749 4.02509 20.6412 3.89609C20.6075 3.76709 20.5401 3.64939 20.4458 3.55512C20.3515 3.46085 20.2339 3.39341 20.1048 3.35975C19.9758 3.32609 19.8402 3.32742 19.7119 3.36361Z" stroke="white" stroke-width="1.5" stroke-linecap="round" stroke-linejoin="round"/>
<path d="M10.3926 13.6067L14.6352 9.36401" stroke="white" stroke-width="1.5" stroke-linecap="round" stroke-linejoin="round"/>
</svg>
