<svg width="200" height="187" viewBox="0 0 200 187" fill="none" xmlns="http://www.w3.org/2000/svg">
<path d="M162.286 27.7975L105.274 12.4878C84.595 6.93464 69.3103 15.8363 63.751 36.6293L44.9224 107.053C39.272 128.187 48.1408 143.282 68.8203 148.835L125.832 164.145C146.844 169.788 161.716 161.068 167.367 139.934L186.195 69.5101C191.754 48.7171 183.299 33.4402 162.286 27.7975Z" fill="url(#paint0_linear_666_4719)"/>
<g opacity="0.4" filter="url(#filter0_f_666_4719)">
<path d="M150.738 42.7528L107.817 31.2269C92.2482 27.0461 80.741 33.7478 76.5557 49.4018L62.3806 102.42C58.1267 118.331 64.8036 129.696 80.3721 133.876L123.293 145.402C139.113 149.65 150.309 143.085 154.563 127.175L168.738 74.1562C172.923 58.5021 166.557 47.0009 150.738 42.7528Z" fill="#10A36F"/>
</g>
<g filter="url(#filter1_b_666_4719)">
<mask id="path-3-outside-1_666_4719" maskUnits="userSpaceOnUse" x="0" y="43.0298" width="144" height="144" fill="black">
<rect fill="white" y="43.0298" width="144" height="144"/>
<path d="M102.57 44.0298H41.1604C17.1492 44.0298 1 60.9243 1 86.053V144.048C1 169.106 17.1492 186 41.1604 186H102.57C126.581 186 142.659 169.106 142.659 144.048V86.053C142.659 60.9243 126.581 44.0298 102.57 44.0298Z"/>
</mask>
<path d="M102.57 44.0298H41.1604C17.1492 44.0298 1 60.9243 1 86.053V144.048C1 169.106 17.1492 186 41.1604 186H102.57C126.581 186 142.659 169.106 142.659 144.048V86.053C142.659 60.9243 126.581 44.0298 102.57 44.0298Z" fill="#04C1B7" fill-opacity="0.35"/>
<path d="M102.57 45.0298C103.122 45.0298 103.57 44.5821 103.57 44.0298C103.57 43.4775 103.122 43.0298 102.57 43.0298V45.0298ZM102.57 43.0298C102.017 43.0298 101.57 43.4775 101.57 44.0298C101.57 44.5821 102.017 45.0298 102.57 45.0298V43.0298ZM102.57 43.0298H41.1604V45.0298H102.57V43.0298ZM41.1604 43.0298C28.9113 43.0298 18.5999 47.3447 11.3531 54.9272C4.10995 62.5058 0 73.2725 0 86.053H2C2 73.7048 5.96464 63.4599 12.7989 56.309C19.6294 49.1622 29.3983 45.0298 41.1604 45.0298V43.0298ZM0 86.053V144.048H2V86.053H0ZM0 144.048C0 156.794 4.11039 167.542 11.3535 175.112C18.6002 182.685 28.9114 187 41.1604 187V185C29.3982 185 19.6291 180.868 12.7985 173.729C5.96419 166.587 2 156.36 2 144.048H0ZM41.1604 187H102.57V185H41.1604V187ZM102.57 187C114.819 187 125.113 182.685 132.342 175.111C139.567 167.541 143.659 156.792 143.659 144.048H141.659C141.659 156.361 137.712 166.588 130.895 173.73C124.083 180.868 114.332 185 102.57 185V187ZM143.659 144.048V86.053H141.659V144.048H143.659ZM143.659 86.053C143.659 73.2737 139.568 62.5071 132.343 54.9281C125.113 47.3448 114.819 43.0298 102.57 43.0298V45.0298C114.332 45.0298 124.082 49.162 130.895 56.3081C137.712 63.4585 141.659 73.7035 141.659 86.053H143.659Z" fill="url(#paint1_linear_666_4719)" mask="url(#path-3-outside-1_666_4719)"/>
</g>
<g filter="url(#filter2_bd_666_4719)">
<mask id="path-5-inside-2_666_4719" fill="white">
<path d="M63.4231 138.07C61.8365 138.07 60.2499 137.467 59.0387 136.253L42.2308 119.408C39.8085 116.981 39.8085 113.048 42.2308 110.628C44.6532 108.2 48.5701 108.193 50.9925 110.62L63.4231 123.078L92.6616 93.7757C95.084 91.348 99.0008 91.348 101.423 93.7757C103.846 96.2034 103.846 100.136 101.423 102.564L67.8074 136.253C66.5963 137.467 65.0097 138.07 63.4231 138.07Z"/>
</mask>
<path d="M63.4231 138.07C61.8365 138.07 60.2499 137.467 59.0387 136.253L42.2308 119.408C39.8085 116.981 39.8085 113.048 42.2308 110.628C44.6532 108.2 48.5701 108.193 50.9925 110.62L63.4231 123.078L92.6616 93.7757C95.084 91.348 99.0008 91.348 101.423 93.7757C103.846 96.2034 103.846 100.136 101.423 102.564L67.8074 136.253C66.5963 137.467 65.0097 138.07 63.4231 138.07Z" fill="url(#paint2_linear_666_4719)"/>
<path d="M42.2308 110.628L42.3722 110.769L42.3724 110.769L42.2308 110.628ZM63.4231 123.078L63.2815 123.22L63.4231 123.362L63.5647 123.22L63.4231 123.078ZM101.423 102.564L101.282 102.422L101.423 102.564ZM67.8074 136.253L67.949 136.394L67.8074 136.253ZM63.4231 137.87C61.8873 137.87 60.3523 137.287 59.1803 136.112L58.8972 136.394C60.1475 137.648 61.7857 138.27 63.4231 138.27V137.87ZM59.1803 136.112L42.3724 119.267L42.0893 119.55L58.8972 136.394L59.1803 136.112ZM42.3724 119.267C40.0278 116.917 40.0281 113.111 42.3722 110.769L42.0895 110.486C39.5888 112.985 39.5891 117.044 42.0893 119.55L42.3724 119.267ZM42.3724 110.769C44.717 108.419 48.507 108.413 50.8509 110.762L51.1341 110.479C48.6332 107.973 44.5895 107.981 42.0893 110.486L42.3724 110.769ZM50.8509 110.762L63.2815 123.22L63.5647 122.937L51.1341 110.479L50.8509 110.762ZM63.5647 123.22L92.8032 93.917L92.52 93.6344L63.2815 122.937L63.5647 123.22ZM92.8032 93.917C95.1474 91.5676 98.9374 91.5676 101.282 93.917L101.565 93.6344C99.0643 91.1284 95.0205 91.1284 92.52 93.6344L92.8032 93.917ZM101.282 93.917C103.626 96.2666 103.626 100.073 101.282 102.422L101.565 102.705C104.065 100.199 104.065 96.1402 101.565 93.6344L101.282 93.917ZM101.282 102.422L67.6659 136.112L67.949 136.394L101.565 102.705L101.282 102.422ZM67.6659 136.112C66.4938 137.287 64.9589 137.87 63.4231 137.87V138.27C65.0604 138.27 66.6987 137.648 67.949 136.394L67.6659 136.112Z" fill="url(#paint3_linear_666_4719)" fill-opacity="0.5" mask="url(#path-5-inside-2_666_4719)"/>
</g>
<defs>
<filter id="filter0_f_666_4719" x="31.125" y="0.00823975" width="168.867" height="176.657" filterUnits="userSpaceOnUse" color-interpolation-filters="sRGB">
<feFlood flood-opacity="0" result="BackgroundImageFix"/>
<feBlend mode="normal" in="SourceGraphic" in2="BackgroundImageFix" result="shape"/>
<feGaussianBlur stdDeviation="15" result="effect1_foregroundBlur_666_4719"/>
</filter>
<filter id="filter1_b_666_4719" x="-24" y="19.0298" width="191.66" height="191.97" filterUnits="userSpaceOnUse" color-interpolation-filters="sRGB">
<feFlood flood-opacity="0" result="BackgroundImageFix"/>
<feComposite in2="SourceAlpha" operator="in" result="effect1_backgroundBlur_666_4719"/>
<feBlend mode="normal" in="SourceGraphic" in2="effect1_backgroundBlur_666_4719" result="shape"/>
</filter>
<filter id="filter2_bd_666_4719" x="25.4141" y="76.9549" width="92.8242" height="76.1155" filterUnits="userSpaceOnUse" color-interpolation-filters="sRGB">
<feFlood flood-opacity="0" result="BackgroundImageFix"/>
<feComposite in2="SourceAlpha" operator="in" result="effect1_backgroundBlur_666_4719"/>
<feColorMatrix in="SourceAlpha" type="matrix" values="0 0 0 0 0 0 0 0 0 0 0 0 0 0 0 0 0 0 127 0" result="hardAlpha"/>
<feOffset dx="5" dy="5"/>
<feGaussianBlur stdDeviation="5"/>
<feColorMatrix type="matrix" values="0 0 0 0 0.4 0 0 0 0 0.882353 0 0 0 0 0.713726 0 0 0 0.5 0"/>
<feBlend mode="normal" in2="effect1_backgroundBlur_666_4719" result="effect2_dropShadow_666_4719"/>
<feBlend mode="normal" in="SourceGraphic" in2="effect2_dropShadow_666_4719" result="shape"/>
</filter>
<linearGradient id="paint0_linear_666_4719" x1="194.999" y1="36.5822" x2="70.5198" y2="112.6" gradientUnits="userSpaceOnUse">
<stop stop-color="#3EF7B5"/>
<stop offset="1" stop-color="#00E5D0"/>
</linearGradient>
<linearGradient id="paint1_linear_666_4719" x1="23.5499" y1="60.5695" x2="114.153" y2="172.538" gradientUnits="userSpaceOnUse">
<stop stop-color="white" stop-opacity="0.25"/>
<stop offset="1" stop-color="white" stop-opacity="0"/>
</linearGradient>
<linearGradient id="paint2_linear_666_4719" x1="98.7857" y1="100.282" x2="28.8671" y2="103.388" gradientUnits="userSpaceOnUse">
<stop stop-color="white"/>
<stop offset="1" stop-color="white"/>
</linearGradient>
<linearGradient id="paint3_linear_666_4719" x1="47.1818" y1="107.424" x2="100.528" y2="107.826" gradientUnits="userSpaceOnUse">
<stop stop-color="white"/>
<stop offset="1" stop-color="white" stop-opacity="0"/>
</linearGradient>
</defs>
</svg>
