<svg width="24" height="24" viewBox="0 0 24 24" fill="none" xmlns="http://www.w3.org/2000/svg">
<path d="M7.48438 9.34839H2.98438V4.84839" stroke="white" stroke-width="1.5" stroke-linecap="round" stroke-linejoin="round"/>
<path d="M17.8336 6.16637C17.0675 5.40029 16.1581 4.7926 15.1571 4.37799C14.1562 3.96339 13.0834 3.75 12 3.75C10.9166 3.75 9.84378 3.96339 8.84285 4.37799C7.84191 4.7926 6.93244 5.40029 6.16635 6.16637L2.98438 9.34835" stroke="white" stroke-width="1.5" stroke-linecap="round" stroke-linejoin="round"/>
<path d="M16.5156 14.6516H21.0156V19.1516" stroke="white" stroke-width="1.5" stroke-linecap="round" stroke-linejoin="round"/>
<path d="M6.16602 17.8336C6.9321 18.5997 7.84157 19.2074 8.84251 19.622C9.84344 20.0366 10.9162 20.25 11.9996 20.25C13.0831 20.25 14.1558 20.0366 15.1568 19.622C16.1577 19.2074 17.0672 18.5997 17.8333 17.8336L21.0153 14.6516" stroke="white" stroke-width="1.5" stroke-linecap="round" stroke-linejoin="round"/>
</svg>
