<svg width="17" height="16" viewBox="0 0 17 16" fill="none" xmlns="http://www.w3.org/2000/svg">
<path d="M5.5 10C7.29493 10 8.75 8.54493 8.75 6.75C8.75 4.95507 7.29493 3.5 5.5 3.5C3.70507 3.5 2.25 4.95507 2.25 6.75C2.25 8.54493 3.70507 10 5.5 10Z" stroke="#42C59A" stroke-width="2" stroke-miterlimit="10"/>
<path d="M9.7125 3.61875C9.9998 3.54083 10.2961 3.50091 10.5938 3.5C11.4557 3.5 12.2824 3.84241 12.8918 4.4519C13.5013 5.0614 13.8437 5.88805 13.8438 6.75C13.8437 7.61195 13.5013 8.4386 12.8918 9.0481C12.2824 9.65759 11.4557 10 10.5938 10" stroke="#42C59A" stroke-width="2" stroke-linecap="round" stroke-linejoin="round"/>
<path d="M1 12.3377C1.50747 11.6156 2.18127 11.0262 2.9645 10.6193C3.74774 10.2124 4.61739 10 5.5 10C6.38261 10 7.25226 10.2124 8.0355 10.6193C8.81873 11.0262 9.49253 11.6156 10 12.3377" stroke="#42C59A" stroke-width="2" stroke-linecap="round" stroke-linejoin="round"/>
<path d="M10.5938 10C11.4764 9.99945 12.3463 10.2116 13.1296 10.6185C13.9129 11.0254 14.5866 11.615 15.0938 12.3375" stroke="#42C59A" stroke-width="2" stroke-linecap="round" stroke-linejoin="round"/>
</svg>
