<?xml version="1.0" encoding="iso-8859-1"?>
<!-- Uploaded to: SVG Repo, www.svgrepo.com, Generator: SVG Repo Mixer Tools -->
<svg fill="#000000" height="800px" width="800px" version="1.1" id="Capa_1" xmlns="http://www.w3.org/2000/svg" xmlns:xlink="http://www.w3.org/1999/xlink" 
	 viewBox="0 0 511 511" xml:space="preserve">
<path d="M303.5,0c-4.142,0-7.5,3.358-7.5,7.5v104c0,4.687-3.813,8.5-8.5,8.5s-8.5-3.813-8.5-8.5V7.5c0-4.142-3.358-7.5-7.5-7.5
	S264,3.358,264,7.5v104c0,4.687-3.813,8.5-8.5,8.5s-8.5-3.813-8.5-8.5V7.5c0-4.142-3.358-7.5-7.5-7.5S232,3.358,232,7.5v104
	c0,4.687-3.813,8.5-8.5,8.5s-8.5-3.813-8.5-8.5V7.5c0-4.142-3.358-7.5-7.5-7.5S200,3.358,200,7.5v138.985
	C200,162.208,212.792,175,228.548,175c2.336,0,4.514,0.928,6.132,2.613c1.618,1.685,2.457,3.899,2.361,6.233l-12.056,295.368
	c-0.342,8.387,2.67,16.34,8.483,22.396c5.813,6.055,13.638,9.39,22.032,9.39c8.394,0,16.218-3.335,22.031-9.39
	s8.825-14.008,8.483-22.395l-12.056-295.368c-0.095-2.334,0.744-4.548,2.361-6.233c1.618-1.685,3.795-2.613,6.165-2.613
	C298.208,175,311,162.208,311,146.485V7.5C311,3.358,307.642,0,303.5,0z M266.711,491.222c-2.958,3.082-6.939,4.778-11.211,4.778
	c-4.271,0-8.252-1.697-11.21-4.778c-2.958-3.081-4.491-7.128-4.316-11.396L247.843,287h15.314l7.87,192.827
	C271.202,484.094,269.668,488.141,266.711,491.222z M282.452,160c-6.459,0-12.479,2.566-16.953,7.225
	c-4.473,4.659-6.791,10.779-6.528,17.233L262.545,272h-14.089l3.573-87.542c0.263-6.454-2.055-12.574-6.528-17.233
	c-4.473-4.659-10.494-7.225-16.986-7.225c-7.452,0-13.515-6.063-13.515-13.515v-13.083c2.638,1.027,5.503,1.597,8.5,1.597
	c6.177,0,11.801-2.399,16-6.31c4.199,3.911,9.823,6.31,16,6.31s11.801-2.399,16-6.31c4.199,3.911,9.823,6.31,16,6.31
	c2.997,0,5.862-0.57,8.5-1.597v13.083C296,153.938,289.938,160,282.452,160z"/>
</svg>