<svg width="26" height="26" viewBox="0 0 26 26" fill="none" xmlns="http://www.w3.org/2000/svg">
<path d="M6.76309 16.4916C6.36581 16.0945 6.2162 16.294 6.12783 16.3824C3.84008 18.6702 1.80906 24.1902 2.88278 23.651C6.79153 21.6884 7.44281 22.2728 9.73048 19.9852C9.81892 19.8967 10.0223 19.7509 9.61345 19.342L6.76309 16.4916Z" fill="#42C59A"/>
<path d="M19.096 16.461C18.9923 16.131 19.2095 15.972 19.3009 15.8734C24.3502 10.422 27.5593 3.15914 25.1812 0.780916C22.8156 -1.5845 15.7767 1.7183 10.3269 6.73117C10.2191 6.83047 10.0066 7.01852 9.6264 6.93914L7.92844 6.53483C7.45701 6.42272 6.79089 6.61116 6.44822 6.95383L0.217885 13.1841C-0.124785 13.5268 -0.0134527 13.8688 0.465317 13.944L4.97152 14.6521C5.45029 14.7274 6.12235 14.5086 6.46494 14.1659C6.46494 14.1659 6.69745 13.9327 6.93105 14.1662C8.21986 15.4549 10.6148 17.8498 11.8427 19.0778C12.0867 19.3218 11.853 19.5539 11.853 19.5539C11.5102 19.8966 11.2915 20.5685 11.3668 21.0474L12.0749 25.5535C12.1501 26.0325 12.4921 26.1438 12.8347 25.801L19.0651 19.5706C19.4077 19.2279 19.5963 18.562 19.484 18.0906L19.096 16.461ZM17.7011 8.41178C16.6458 7.35651 16.6458 5.64573 17.7011 4.59061C18.7563 3.53533 20.4671 3.53533 21.5224 4.59061C22.5776 5.64565 22.5776 7.35651 21.5224 8.41171C20.4671 9.46699 18.7562 9.46699 17.7011 8.41178Z" fill="#42C59A"/>
</svg>
