<svg width="26" height="26" viewBox="0 0 26 26" fill="none" xmlns="http://www.w3.org/2000/svg">
<path d="M12.9999 0C10.4288 0 7.91537 0.762437 5.77753 2.1909C3.63969 3.61935 1.97345 5.64968 0.989511 8.02512C0.00557166 10.4006 -0.251872 13.0144 0.249736 15.5362C0.751344 18.0579 1.98947 20.3743 3.80756 22.1924C5.62564 24.0105 7.94202 25.2486 10.4638 25.7502C12.9855 26.2518 15.5994 25.9944 17.9748 25.0104C20.3503 24.0265 22.3806 22.3603 23.809 20.2224C25.2375 18.0846 25.9999 15.5712 25.9999 13C25.996 9.55338 24.6252 6.24905 22.188 3.81192C19.7509 1.37479 16.4466 0.00390097 12.9999 0V0ZM14.4999 19H13.9999V20C13.9999 20.2652 13.8946 20.5196 13.7071 20.7071C13.5195 20.8946 13.2652 21 12.9999 21C12.7347 21 12.4804 20.8946 12.2928 20.7071C12.1053 20.5196 11.9999 20.2652 11.9999 20V19H9.99994C9.73473 19 9.48037 18.8946 9.29284 18.7071C9.1053 18.5196 8.99994 18.2652 8.99994 18C8.99994 17.7348 9.1053 17.4804 9.29284 17.2929C9.48037 17.1054 9.73473 17 9.99994 17H14.4999C14.8978 17 15.2793 16.842 15.5606 16.5607C15.8419 16.2794 15.9999 15.8978 15.9999 15.5C15.9999 15.1022 15.8419 14.7206 15.5606 14.4393C15.2793 14.158 14.8978 14 14.4999 14H11.4999C10.5717 14 9.68145 13.6313 9.02507 12.9749C8.36869 12.3185 7.99994 11.4283 7.99994 10.5C7.99994 9.57174 8.36869 8.6815 9.02507 8.02513C9.68145 7.36875 10.5717 7 11.4999 7H11.9999V6C11.9999 5.73478 12.1053 5.48043 12.2928 5.29289C12.4804 5.10536 12.7347 5 12.9999 5C13.2652 5 13.5195 5.10536 13.7071 5.29289C13.8946 5.48043 13.9999 5.73478 13.9999 6V7H15.9999C16.2652 7 16.5195 7.10536 16.7071 7.29289C16.8946 7.48043 16.9999 7.73478 16.9999 8C16.9999 8.26522 16.8946 8.51957 16.7071 8.70711C16.5195 8.89464 16.2652 9 15.9999 9H11.4999C11.1021 9 10.7206 9.15804 10.4393 9.43934C10.158 9.72065 9.99994 10.1022 9.99994 10.5C9.99994 10.8978 10.158 11.2794 10.4393 11.5607C10.7206 11.842 11.1021 12 11.4999 12H14.4999C15.4282 12 16.3184 12.3687 16.9748 13.0251C17.6312 13.6815 17.9999 14.5717 17.9999 15.5C17.9999 16.4283 17.6312 17.3185 16.9748 17.9749C16.3184 18.6313 15.4282 19 14.4999 19V19Z" fill="#7B8098"/>
</svg>
