<svg width="26" height="26" viewBox="0 0 26 26" fill="none" xmlns="http://www.w3.org/2000/svg">
<path d="M13 0C10.4288 0 7.91538 0.762437 5.77754 2.1909C3.6397 3.61935 1.97346 5.64968 0.989518 8.02512C0.00557929 10.4006 -0.251864 13.0144 0.249744 15.5362C0.751352 18.0579 1.98948 20.3743 3.80756 22.1924C5.62565 24.0105 7.94203 25.2486 10.4638 25.7502C12.9855 26.2518 15.5994 25.9944 17.9748 25.0104C20.3503 24.0265 22.3806 22.3603 23.8091 20.2224C25.2375 18.0846 26 15.5712 26 13C25.996 9.55338 24.6252 6.24905 22.188 3.81192C19.7509 1.37479 16.4466 0.00390097 13 0ZM14.5 19H14V20C14 20.2652 13.8946 20.5196 13.7071 20.7071C13.5195 20.8946 13.2652 21 13 21C12.7347 21 12.4804 20.8946 12.2928 20.7071C12.1053 20.5196 12 20.2652 12 20V19H9.99995C9.73474 19 9.48038 18.8946 9.29284 18.7071C9.10531 18.5196 8.99995 18.2652 8.99995 18C8.99995 17.7348 9.10531 17.4804 9.29284 17.2929C9.48038 17.1054 9.73474 17 9.99995 17H14.5C14.8978 17 15.2793 16.842 15.5606 16.5607C15.8419 16.2794 16 15.8978 16 15.5C16 15.1022 15.8419 14.7206 15.5606 14.4393C15.2793 14.158 14.8978 14 14.5 14H11.5C10.5717 14 9.68146 13.6313 9.02508 12.9749C8.3687 12.3185 7.99995 11.4283 7.99995 10.5C7.99995 9.57174 8.3687 8.68151 9.02508 8.02513C9.68146 7.36875 10.5717 7 11.5 7H12V6C12 5.73478 12.1053 5.48043 12.2928 5.29289C12.4804 5.10536 12.7347 5 13 5C13.2652 5 13.5195 5.10536 13.7071 5.29289C13.8946 5.48043 14 5.73478 14 6V7H16C16.2652 7 16.5195 7.10536 16.7071 7.29289C16.8946 7.48043 17 7.73478 17 8C17 8.26522 16.8946 8.51957 16.7071 8.70711C16.5195 8.89464 16.2652 9 16 9H11.5C11.1021 9 10.7206 9.15804 10.4393 9.43934C10.158 9.72064 9.99995 10.1022 9.99995 10.5C9.99995 10.8978 10.158 11.2794 10.4393 11.5607C10.7206 11.842 11.1021 12 11.5 12H14.5C15.4282 12 16.3184 12.3687 16.9748 13.0251C17.6312 13.6815 18 14.5717 18 15.5C18 16.4283 17.6312 17.3185 16.9748 17.9749C16.3184 18.6313 15.4282 19 14.5 19Z" fill="#42C59A"/>
</svg>
