<svg width="24" height="26" viewBox="0 0 24 26" fill="none" xmlns="http://www.w3.org/2000/svg">
<path d="M22.8664 4.06195C23.2879 4.06195 23.6296 3.72024 23.6296 3.29874V2.26419C23.6296 1.84269 23.2879 1.50098 22.8664 1.50098C22.4519 1.50098 22.1109 1.16842 22.1038 0.750184C22.0966 0.333828 21.7571 0 21.3407 0H20.1182C19.7016 0 19.362 0.334133 19.3551 0.750693C19.3483 1.1644 19.0062 1.50098 18.5924 1.50098C18.1787 1.50098 17.8366 1.1644 17.8298 0.750693C17.8229 0.334133 17.4833 0 17.0667 0H15.8443C15.4277 0 15.088 0.334133 15.0812 0.750693C15.0743 1.1644 14.7322 1.50098 14.3185 1.50098C13.9047 1.50098 13.5626 1.1644 13.5558 0.750693C13.5489 0.334133 13.2093 0 12.7927 0H11.5703C11.1537 0 10.814 0.334133 10.8072 0.750693C10.8004 1.1644 10.4583 1.50098 10.0445 1.50098C9.63073 1.50098 9.28861 1.1644 9.28184 0.750693C9.27497 0.334133 8.93535 0 8.51873 0H7.29633C6.87972 0 6.54004 0.334133 6.53322 0.750693C6.5264 1.1644 6.18428 1.50098 5.77052 1.50098C5.35676 1.50098 5.01464 1.1644 5.00787 0.750693C5.001 0.334133 4.66137 0 4.24476 0H3.0223C2.60585 0 2.26632 0.333828 2.2592 0.750184C2.25207 1.16807 1.91143 1.50098 1.49655 1.50098C1.07505 1.50098 0.733337 1.84269 0.733337 2.26419V3.29874C0.733337 3.72024 1.07505 4.06195 1.49655 4.06195C1.91738 4.06195 2.25976 4.40433 2.25976 4.82516C2.25976 5.246 1.91738 5.58837 1.49655 5.58837C1.07505 5.58837 0.733337 5.93009 0.733337 6.35158V7.38614C0.733337 7.80763 1.07505 8.14935 1.49655 8.14935C1.91738 8.14935 2.25976 8.49172 2.25976 8.91256C2.25976 9.33339 1.91738 9.67577 1.49655 9.67577C1.07505 9.67577 0.733337 10.0175 0.733337 10.439V11.4736C0.733337 11.8951 1.07505 12.2368 1.49655 12.2368C1.91738 12.2368 2.25976 12.5792 2.25976 13C2.25976 13.4208 1.91738 13.7632 1.49655 13.7632C1.07505 13.7632 0.733337 14.1049 0.733337 14.5264V15.561C0.733337 15.9825 1.07505 16.3242 1.49655 16.3242C1.91738 16.3242 2.25976 16.6666 2.25976 17.0874C2.25976 17.5083 1.91738 17.8507 1.49655 17.8507C1.07505 17.8507 0.733337 18.1924 0.733337 18.6139V19.6484C0.733337 20.0699 1.07505 20.4116 1.49655 20.4116C1.91738 20.4116 2.25976 20.754 2.25976 21.1748C2.25976 21.5957 1.91738 21.938 1.49655 21.938C1.07505 21.938 0.733337 22.2798 0.733337 22.7013V23.7358C0.733337 24.1573 1.07505 24.499 1.49655 24.499C1.91102 24.499 2.25207 24.8316 2.2592 25.2498C2.26632 25.6662 2.6059 26 3.0223 26H4.24471C4.66132 26 5.001 25.6659 5.00782 25.2493C5.01459 24.8356 5.35671 24.499 5.77047 24.499C6.18423 24.499 6.52635 24.8356 6.53312 25.2493C6.53994 25.6659 6.87961 26 7.29623 26H8.51863C8.93524 26 9.27492 25.6659 9.28174 25.2493C9.28851 24.8356 9.63063 24.499 10.0444 24.499C10.4582 24.499 10.8003 24.8356 10.807 25.2493C10.8139 25.6659 11.1535 26 11.5701 26H12.7926C13.2092 26 13.5488 25.6659 13.5557 25.2493C13.5624 24.8356 13.9046 24.499 14.3183 24.499C14.7321 24.499 15.0742 24.8356 15.081 25.2493C15.0878 25.6659 15.4275 26 15.8441 26H17.0665C17.4831 26 17.8228 25.6659 17.8296 25.2493C17.8364 24.8356 18.1785 24.499 18.5922 24.499C19.006 24.499 19.3481 24.8356 19.3549 25.2493C19.3617 25.6659 19.7014 26 20.118 26H21.3404C21.7569 26 22.0964 25.6662 22.1035 25.2498C22.1106 24.832 22.4513 24.499 22.8662 24.499C23.2877 24.499 23.6294 24.1573 23.6294 23.7358V22.7013C23.6294 22.2798 23.2877 21.938 22.8662 21.938C22.4453 21.938 22.1029 21.5957 22.1029 21.1748C22.1029 20.754 22.4453 20.4116 22.8662 20.4116C23.2877 20.4116 23.6294 20.0699 23.6294 19.6484V18.6138C23.6294 18.1923 23.2877 17.8506 22.8662 17.8506C22.4453 17.8506 22.1029 17.5082 22.1029 17.0874C22.1029 16.6666 22.4453 16.3242 22.8662 16.3242C23.2877 16.3242 23.6294 15.9825 23.6294 15.561V14.5264C23.6294 14.1049 23.2877 13.7632 22.8662 13.7632C22.4453 13.7632 22.1029 13.4208 22.1029 13C22.1029 12.5792 22.4453 12.2368 22.8662 12.2368C23.2877 12.2368 23.6294 11.8951 23.6294 11.4736V10.439C23.6294 10.0175 23.2877 9.67582 22.8662 9.67582C22.4453 9.67582 22.1029 9.33344 22.1029 8.91261C22.1029 8.49177 22.4453 8.1494 22.8662 8.1494C23.2877 8.1494 23.6294 7.80768 23.6294 7.38619V6.35163C23.6294 5.93014 23.2877 5.58842 22.8662 5.58842C22.4453 5.58842 22.1029 5.24605 22.1029 4.82521C22.1029 4.40438 22.4456 4.06195 22.8664 4.06195V4.06195ZM19.8136 21.3953C19.8136 21.8168 19.4719 22.1585 19.0504 22.1585H5.31259C4.8911 22.1585 4.54938 21.8168 4.54938 21.3953V4.6047C4.54938 4.1832 4.8911 3.84149 5.31259 3.84149H19.0504C19.4719 3.84149 19.8136 4.1832 19.8136 4.6047V21.3953Z" fill="#42C59A"/>
<path d="M11.2527 15.2744V13.8678C10.4986 13.7158 9.8105 13.338 9.26521 12.7671C8.54117 12.009 8.16904 11.0133 8.21734 9.96349C8.26075 9.02027 8.65548 8.12993 9.32889 7.45657C10.0023 6.78316 10.8926 6.38843 11.8359 6.34501C12.8854 6.29662 13.8813 6.6688 14.6394 7.39284C15.3979 8.11718 15.8156 9.09355 15.8156 10.142V15.5477C16.4827 15.1707 17.2277 14.9161 18.0201 14.8153V10.4623C18.0201 7.3318 15.3176 4.78491 11.9958 4.78491C8.67396 4.78491 5.97144 7.33175 5.97144 10.4623V15.5644C6.3591 15.3796 6.79876 15.2744 7.26494 15.2744H11.2527Z" fill="#42C59A"/>
<path d="M8.76251 16.7979H7.26472C6.5515 16.7979 5.97122 17.2748 5.97122 17.861V21.2149H12.7237V20.833C12.7237 20.5152 12.7483 20.2031 12.7957 19.8984H12.5489C10.68 19.8984 9.11722 18.5639 8.76251 16.7979V16.7979Z" fill="#42C59A"/>
<path d="M14.2921 10.142C14.2921 9.51366 14.0418 8.92861 13.5872 8.49448C13.133 8.06071 12.5354 7.83773 11.9059 7.86678C10.7443 7.92025 9.79265 8.87194 9.73917 10.0335C9.71018 10.6635 9.93311 11.2606 10.3669 11.7148C10.801 12.1694 11.3861 12.4197 12.0144 12.4197C12.4351 12.4197 12.7761 12.7607 12.7761 13.1814V16.0361C12.7761 16.4568 12.4351 16.7978 12.0144 16.7978H10.3375C10.6542 17.7147 11.5259 18.3749 12.549 18.3749H13.2446C13.5079 17.7832 13.863 17.2411 14.2921 16.7669V10.142H14.2921Z" fill="#42C59A"/>
<path d="M14.2471 20.8329V21.2149H18.0283V16.3539C15.8846 16.7172 14.2471 18.5874 14.2471 20.8329Z" fill="#42C59A"/>
</svg>
