<svg width="26" height="26" viewBox="0 0 26 26" fill="none" xmlns="http://www.w3.org/2000/svg">
<g opacity="0.8">
<path d="M23.8664 4.06195C24.2879 4.06195 24.6296 3.72024 24.6296 3.29874V2.26419C24.6296 1.84269 24.2879 1.50098 23.8664 1.50098C23.4519 1.50098 23.1109 1.16842 23.1038 0.750184C23.0966 0.333828 22.7571 0 22.3407 0H21.1182C20.7016 0 20.362 0.334133 20.3551 0.750693C20.3483 1.1644 20.0062 1.50098 19.5924 1.50098C19.1787 1.50098 18.8366 1.1644 18.8298 0.750693C18.8229 0.334133 18.4833 0 18.0667 0H16.8443C16.4277 0 16.088 0.334133 16.0812 0.750693C16.0743 1.1644 15.7322 1.50098 15.3185 1.50098C14.9047 1.50098 14.5626 1.1644 14.5558 0.750693C14.5489 0.334133 14.2093 0 13.7927 0H12.5703C12.1537 0 11.814 0.334133 11.8072 0.750693C11.8004 1.1644 11.4583 1.50098 11.0445 1.50098C10.6307 1.50098 10.2886 1.1644 10.2818 0.750693C10.275 0.334133 9.93535 0 9.51873 0H8.29633C7.87972 0 7.54004 0.334133 7.53322 0.750693C7.5264 1.1644 7.18428 1.50098 6.77052 1.50098C6.35676 1.50098 6.01464 1.1644 6.00787 0.750693C6.001 0.334133 5.66137 0 5.24476 0H4.0223C3.60585 0 3.26632 0.333828 3.2592 0.750184C3.25207 1.16807 2.91143 1.50098 2.49655 1.50098C2.07505 1.50098 1.73334 1.84269 1.73334 2.26419V3.29874C1.73334 3.72024 2.07505 4.06195 2.49655 4.06195C2.91738 4.06195 3.25976 4.40433 3.25976 4.82516C3.25976 5.246 2.91738 5.58837 2.49655 5.58837C2.07505 5.58837 1.73334 5.93009 1.73334 6.35158V7.38614C1.73334 7.80763 2.07505 8.14935 2.49655 8.14935C2.91738 8.14935 3.25976 8.49172 3.25976 8.91256C3.25976 9.33339 2.91738 9.67577 2.49655 9.67577C2.07505 9.67577 1.73334 10.0175 1.73334 10.439V11.4736C1.73334 11.8951 2.07505 12.2368 2.49655 12.2368C2.91738 12.2368 3.25976 12.5792 3.25976 13C3.25976 13.4208 2.91738 13.7632 2.49655 13.7632C2.07505 13.7632 1.73334 14.1049 1.73334 14.5264V15.561C1.73334 15.9825 2.07505 16.3242 2.49655 16.3242C2.91738 16.3242 3.25976 16.6666 3.25976 17.0874C3.25976 17.5083 2.91738 17.8507 2.49655 17.8507C2.07505 17.8507 1.73334 18.1924 1.73334 18.6139V19.6484C1.73334 20.0699 2.07505 20.4116 2.49655 20.4116C2.91738 20.4116 3.25976 20.754 3.25976 21.1748C3.25976 21.5957 2.91738 21.938 2.49655 21.938C2.07505 21.938 1.73334 22.2798 1.73334 22.7013V23.7358C1.73334 24.1573 2.07505 24.499 2.49655 24.499C2.91102 24.499 3.25207 24.8316 3.2592 25.2498C3.26632 25.6662 3.6059 26 4.0223 26H5.24471C5.66132 26 6.001 25.6659 6.00782 25.2493C6.01459 24.8356 6.35671 24.499 6.77047 24.499C7.18423 24.499 7.52635 24.8356 7.53312 25.2493C7.53994 25.6659 7.87961 26 8.29623 26H9.51863C9.93524 26 10.2749 25.6659 10.2817 25.2493C10.2885 24.8356 10.6306 24.499 11.0444 24.499C11.4582 24.499 11.8003 24.8356 11.807 25.2493C11.8139 25.6659 12.1535 26 12.5701 26H13.7926C14.2092 26 14.5488 25.6659 14.5557 25.2493C14.5624 24.8356 14.9046 24.499 15.3183 24.499C15.7321 24.499 16.0742 24.8356 16.081 25.2493C16.0878 25.6659 16.4275 26 16.8441 26H18.0665C18.4831 26 18.8228 25.6659 18.8296 25.2493C18.8363 24.8356 19.1785 24.499 19.5922 24.499C20.006 24.499 20.3481 24.8356 20.3549 25.2493C20.3617 25.6659 20.7014 26 21.118 26H22.3404C22.7569 26 23.0964 25.6662 23.1035 25.2498C23.1106 24.832 23.4513 24.499 23.8662 24.499C24.2877 24.499 24.6294 24.1573 24.6294 23.7358V22.7013C24.6294 22.2798 24.2877 21.938 23.8662 21.938C23.4453 21.938 23.1029 21.5957 23.1029 21.1748C23.1029 20.754 23.4453 20.4116 23.8662 20.4116C24.2877 20.4116 24.6294 20.0699 24.6294 19.6484V18.6138C24.6294 18.1923 24.2877 17.8506 23.8662 17.8506C23.4453 17.8506 23.1029 17.5082 23.1029 17.0874C23.1029 16.6666 23.4453 16.3242 23.8662 16.3242C24.2877 16.3242 24.6294 15.9825 24.6294 15.561V14.5264C24.6294 14.1049 24.2877 13.7632 23.8662 13.7632C23.4453 13.7632 23.1029 13.4208 23.1029 13C23.1029 12.5792 23.4453 12.2368 23.8662 12.2368C24.2877 12.2368 24.6294 11.8951 24.6294 11.4736V10.439C24.6294 10.0175 24.2877 9.67582 23.8662 9.67582C23.4453 9.67582 23.1029 9.33344 23.1029 8.91261C23.1029 8.49177 23.4453 8.1494 23.8662 8.1494C24.2877 8.1494 24.6294 7.80768 24.6294 7.38619V6.35163C24.6294 5.93014 24.2877 5.58842 23.8662 5.58842C23.4453 5.58842 23.1029 5.24605 23.1029 4.82521C23.1029 4.40438 23.4456 4.06195 23.8664 4.06195ZM20.8136 21.3953C20.8136 21.8168 20.4719 22.1585 20.0504 22.1585H6.31259C5.8911 22.1585 5.54938 21.8168 5.54938 21.3953V4.6047C5.54938 4.1832 5.8911 3.84149 6.31259 3.84149H20.0504C20.4719 3.84149 20.8136 4.1832 20.8136 4.6047V21.3953Z" fill="#7B8098"/>
<path d="M12.2527 15.2745V13.8678C11.4986 13.7159 10.8105 13.338 10.2652 12.7671C9.54115 12.0091 9.16903 11.0134 9.21732 9.96355C9.26074 9.02033 9.65546 8.12999 10.3289 7.45663C11.0023 6.78322 11.8926 6.38849 12.8358 6.34508C13.8853 6.29668 14.8813 6.66886 15.6394 7.3929C16.3979 8.11724 16.8156 9.09361 16.8156 10.1421V15.5478C17.4827 15.1708 18.2276 14.9162 19.0201 14.8153V10.4623C19.0201 7.33186 16.3176 4.78497 12.9958 4.78497C9.67395 4.78497 6.97142 7.33181 6.97142 10.4623V15.5645C7.35908 15.3796 7.79875 15.2745 8.26492 15.2745H12.2527Z" fill="#7B8098"/>
<path d="M9.7625 16.7979H8.26471C7.55148 16.7979 6.97121 17.2749 6.97121 17.8611V21.215H13.7236V20.833C13.7236 20.5153 13.7483 20.2032 13.7956 19.8984H13.5489C11.68 19.8985 10.1172 18.564 9.7625 16.7979Z" fill="#7B8098"/>
<path d="M15.2921 10.1421C15.2921 9.51378 15.0417 8.92873 14.5872 8.49461C14.133 8.06083 13.5354 7.83785 12.9058 7.8669C11.7443 7.92037 10.7926 8.87206 10.7391 10.0336C10.7101 10.6636 10.9331 11.2608 11.3669 11.7149C11.801 12.1695 12.3861 12.4198 13.0143 12.4198C13.435 12.4198 13.7761 12.7608 13.7761 13.1815V16.0362C13.7761 16.4569 13.435 16.7979 13.0143 16.7979H11.3375C11.6541 17.7148 12.5259 18.3751 13.549 18.3751H14.2446C14.5079 17.7834 14.863 17.2412 15.292 16.767V10.1421H15.2921Z" fill="#7B8098"/>
<path d="M15.2471 20.8331V21.215H19.0283V16.354C16.8846 16.7173 15.2471 18.5876 15.2471 20.8331Z" fill="#7B8098"/>
</g>
</svg>
