<svg width="26" height="26" viewBox="0 0 26 26" fill="none" xmlns="http://www.w3.org/2000/svg">
<g opacity="0.8">
<path d="M24.7 1.3H20.8V0H5.2V1.3H1.3C0.52 1.3 0 1.82 0 2.6V5.72C0 8.71 2.21 11.18 5.2 11.57V11.7C5.2 15.47 7.8 18.59 11.31 19.37L10.4 22.1H7.41C6.89 22.1 6.37 22.49 6.24 23.01L5.2 26H20.8L19.76 23.01C19.63 22.49 19.11 22.1 18.59 22.1H15.6L14.69 19.37C18.2 18.59 20.8 15.47 20.8 11.7V11.57C23.79 11.18 26 8.71 26 5.72V2.6C26 1.82 25.48 1.3 24.7 1.3ZM5.2 8.97C3.77 8.58 2.6 7.28 2.6 5.72V3.9H5.2V8.97ZM15.6 13L13 11.57L10.4 13L11.05 10.4L9.1 7.8H11.83L13 5.2L14.17 7.8H16.9L14.95 10.4L15.6 13ZM23.4 5.72C23.4 7.28 22.23 8.71 20.8 8.97V3.9H23.4V5.72Z" fill="#42C59A"/>
</g>
</svg>
