<svg width="26" height="26" viewBox="0 0 26 26" fill="none" xmlns="http://www.w3.org/2000/svg">
<g opacity="0.8" clip-path="url(#clip0_983_5784)">
<path d="M23.9621 12.9147C23.9621 12.744 24.0307 12.347 24.6646 12.347C24.6646 12.347 25.288 12.347 25.7486 12.347C26.2174 12.347 25.8869 11.9541 25.8869 11.9541L22.9314 7.29173C22.9215 7.28051 22.7715 7.10166 22.6259 7.31743L19.7059 11.9357C19.7059 11.9357 19.3396 12.347 19.8419 12.347C20.3056 12.347 20.9384 12.347 20.9384 12.347C21.2649 12.347 21.6398 12.426 21.6398 13.0429C21.6398 18.3452 17.3069 22.659 11.9813 22.659C6.65514 22.659 2.32193 18.326 2.32193 12.9999C2.32193 7.67394 6.65514 3.34081 11.9813 3.34081C13.405 3.34081 14.7757 3.64312 16.0552 4.23919C16.2104 4.31155 16.3752 4.34811 16.5446 4.34811C16.9946 4.34811 17.4082 4.08478 17.5982 3.67716C17.8683 3.09683 17.6163 2.40469 17.0361 2.13435C15.4472 1.39422 13.7465 1.0188 11.9813 1.0188C5.37485 1.0188 0 6.3935 0 12.9999C0 19.6065 5.37485 24.9812 11.9813 24.9812C18.5615 24.9812 23.9361 19.6278 23.9617 13.0475C23.9615 13.0472 23.9621 12.9478 23.9621 12.9147Z" fill="#7B8098"/>
<path d="M12.5956 13.6022C12.4384 13.6022 12.3099 13.4737 12.3099 13.3165V8.46893C12.3099 8.31172 12.1812 8.18323 12.0242 8.18323H10.9485C10.7913 8.18323 10.6628 8.31172 10.6628 8.46893L10.6624 14.9638C10.6624 15.1209 10.7911 15.2494 10.9481 15.2494H17.3126C17.4698 15.2494 17.5984 15.1209 17.5984 14.9638V13.8879C17.5984 13.7307 17.4698 13.6022 17.3126 13.6022H12.5956V13.6022Z" fill="#7B8098"/>
</g>
<defs>
<clipPath id="clip0_983_5784">
<rect width="26" height="26" fill="white"/>
</clipPath>
</defs>
</svg>
