<svg width="32" height="32" viewBox="0 0 32 32" fill="none" xmlns="http://www.w3.org/2000/svg">
<path d="M16 28C22.6274 28 28 22.6274 28 16C28 9.37258 22.6274 4 16 4C9.37258 4 4 9.37258 4 16C4 22.6274 9.37258 28 16 28Z" stroke="#7B8098" stroke-width="2" stroke-linecap="round" stroke-linejoin="round"/>
<path d="M26.7753 21.3L19.9878 17.125C19.871 17.0499 19.7384 17.0028 19.6003 16.9875L16.7378 16.6C16.5243 16.5693 16.3066 16.6104 16.1188 16.7167C15.9311 16.823 15.7839 16.9886 15.7003 17.1875L13.9878 21.025C13.9073 21.2035 13.881 21.4017 13.9121 21.595C13.9432 21.7883 14.0304 21.9683 14.1628 22.1125L16.5128 24.65C16.6191 24.7667 16.6969 24.9064 16.7403 25.0582C16.7836 25.21 16.7914 25.3697 16.7628 25.525L16.2753 28" stroke="#7B8098" stroke-width="2" stroke-linecap="round" stroke-linejoin="round"/>
<path d="M8.12473 6.94995L6.99973 9.59995C6.90174 9.83521 6.89727 10.099 6.98723 10.3375L8.42473 14.1625C8.48091 14.3219 8.57707 14.4642 8.70401 14.5758C8.83095 14.6875 8.98442 14.7646 9.14973 14.8L11.8247 15.375C11.9732 15.405 12.1126 15.4692 12.232 15.5625C12.3513 15.6558 12.4473 15.7756 12.5122 15.9125L12.9872 16.9C13.0716 17.0669 13.2001 17.2076 13.3588 17.3068C13.5174 17.4059 13.7002 17.4598 13.8872 17.4625H15.5747" stroke="#7B8098" stroke-width="2" stroke-linecap="round" stroke-linejoin="round"/>
<path d="M19.0627 4.38745L20.2252 6.48745C20.3325 6.68488 20.3711 6.91241 20.3349 7.13419C20.2987 7.35598 20.1897 7.55941 20.0252 7.71245L16.6627 10.75C16.6064 10.8037 16.5434 10.8499 16.4752 10.8875L14.9377 11.7375C14.7911 11.8152 14.6286 11.858 14.4627 11.8625H11.7877C11.5906 11.8635 11.3981 11.9219 11.2338 12.0307C11.0695 12.1395 10.9405 12.2939 10.8627 12.475L9.8252 14.9375" stroke="#7B8098" stroke-width="2" stroke-linecap="round" stroke-linejoin="round"/>
</svg>
