<svg width="24" height="24" viewBox="0 0 24 24" fill="none" xmlns="http://www.w3.org/2000/svg">
<g clip-path="url(#clip0_69_864)">
<path d="M22.2002 8.12343C21.7039 6.92929 20.6972 5.63995 19.9089 5.23237C20.471 6.32098 20.8612 7.49008 21.0656 8.69811L21.0677 8.71727C19.7763 5.49908 17.5872 4.19943 15.7983 1.3732C15.7078 1.23026 15.6174 1.08704 15.5293 0.935854C15.4789 0.849505 15.4385 0.771703 15.4034 0.700089C15.3292 0.556436 15.2721 0.404618 15.2331 0.247716C15.2331 0.240476 15.2305 0.233469 15.2257 0.228034C15.2209 0.222598 15.2143 0.219114 15.2071 0.218245C15.2001 0.216314 15.1927 0.216314 15.1856 0.218245C15.1842 0.218245 15.1818 0.220898 15.18 0.221487C15.1783 0.222076 15.1744 0.224729 15.1718 0.225908L15.1762 0.218245C12.3072 1.89807 11.3332 5.00721 11.2448 6.56326C10.0987 6.64184 9.00287 7.06405 8.10031 7.7748C8.00618 7.69507 7.9078 7.6205 7.80561 7.55141C7.54538 6.64045 7.53429 5.67637 7.77348 4.75966C6.71987 5.27003 5.78368 5.99357 5.02417 6.88449H5.01887C4.5662 6.3107 4.59803 4.41869 4.62396 4.02349C4.49005 4.07731 4.36222 4.14517 4.24261 4.22595C3.843 4.51115 3.46943 4.83117 3.12627 5.18227C2.73522 5.57874 2.37806 6.00727 2.05855 6.46336V6.46512V6.46306C1.3243 7.50385 0.803455 8.67976 0.526079 9.92291L0.510754 9.99835C0.489241 10.0988 0.411733 10.6022 0.398472 10.7115C0.398472 10.7201 0.396703 10.728 0.395819 10.7366C0.29584 11.2563 0.233885 11.7825 0.210449 12.3112V12.3701C0.215497 15.2284 1.2919 17.9808 3.22716 20.0842C5.16243 22.1876 7.81592 23.489 10.6638 23.7316C13.5117 23.9741 16.3471 23.1402 18.6102 21.3944C20.8733 19.6486 22.3997 17.1178 22.8881 14.3016C22.9072 14.1543 22.9228 14.0084 22.9399 13.8596C23.1752 11.9151 22.9205 9.94263 22.199 8.12167L22.2002 8.12343ZM9.03571 17.0648C9.08905 17.0904 9.13915 17.1181 9.19397 17.1426L9.20192 17.1476C9.14652 17.1211 9.09111 17.0935 9.03571 17.0648ZM21.068 8.72051V8.7096L21.07 8.72169L21.068 8.72051Z" fill="url(#paint0_linear_69_864)"/>
<path d="M22.2003 8.12349C21.704 6.92934 20.6973 5.64 19.909 5.23242C20.4711 6.32103 20.8613 7.49013 21.0657 8.69816V8.70907L21.0677 8.72115C21.9483 11.2406 21.8209 14.0029 20.7123 16.4307C19.4032 19.2395 16.2358 22.1185 11.2759 21.977C5.9181 21.8252 1.19691 17.8482 0.315743 12.6407C0.155128 11.8194 0.315743 11.403 0.396492 10.7355C0.286346 11.254 0.224879 11.7816 0.212891 12.3116V12.3705C0.217938 15.2287 1.29434 17.9812 3.2296 20.0846C5.16487 22.1879 7.81837 23.4893 10.6663 23.7319C13.5142 23.9745 16.3496 23.1405 18.6127 21.3948C20.8758 19.649 22.4022 17.1182 22.8905 14.302C22.9097 14.1546 22.9253 14.0088 22.9424 13.8599C23.1776 11.9154 22.9229 9.94297 22.2015 8.12201L22.2003 8.12349Z" fill="url(#paint1_radial_69_864)"/>
<path d="M22.2003 8.12349C21.704 6.92934 20.6973 5.64 19.909 5.23242C20.4711 6.32103 20.8613 7.49013 21.0657 8.69816V8.70907L21.0677 8.72115C21.9483 11.2406 21.8209 14.0029 20.7123 16.4307C19.4032 19.2395 16.2358 22.1185 11.2759 21.977C5.9181 21.8252 1.19691 17.8482 0.315743 12.6407C0.155128 11.8194 0.315743 11.403 0.396492 10.7355C0.286346 11.254 0.224879 11.7816 0.212891 12.3116V12.3705C0.217938 15.2287 1.29434 17.9812 3.2296 20.0846C5.16487 22.1879 7.81837 23.4893 10.6663 23.7319C13.5142 23.9745 16.3496 23.1405 18.6127 21.3948C20.8758 19.649 22.4022 17.1182 22.8905 14.302C22.9097 14.1546 22.9253 14.0088 22.9424 13.8599C23.1776 11.9154 22.9229 9.94297 22.2015 8.12201L22.2003 8.12349Z" fill="url(#paint2_radial_69_864)"/>
<path d="M16.6479 9.46418C16.6727 9.48156 16.6957 9.49895 16.7189 9.51634C16.432 9.00759 16.0749 8.54179 15.658 8.1327C12.1068 4.58149 14.7276 0.43498 15.1694 0.222792L15.1738 0.216309C12.3048 1.89613 11.3308 5.00528 11.2424 6.56133C11.3756 6.55219 11.5077 6.54099 11.6438 6.54099C12.6617 6.54296 13.6609 6.81441 14.5398 7.32775C15.4188 7.84109 16.1461 8.57801 16.6479 9.46359V9.46418Z" fill="url(#paint3_radial_69_864)"/>
<path d="M11.6498 10.1745C11.6309 10.4586 10.6272 11.4385 10.2762 11.4385C7.0285 11.4385 6.50098 13.4033 6.50098 13.4033C6.64479 15.0578 7.79768 16.4211 9.19135 17.1402C9.255 17.1732 9.31954 17.203 9.38408 17.2322C9.49587 17.2817 9.60767 17.3274 9.71946 17.3695C10.1978 17.5387 10.6987 17.6354 11.2057 17.6562C16.8994 17.9232 18.0016 10.8485 13.8931 8.79444C14.8622 8.66833 15.8437 8.90663 16.6471 9.46312C16.1453 8.57754 15.418 7.84063 14.539 7.32729C13.6601 6.81395 12.6609 6.5425 11.643 6.54053C11.5074 6.54053 11.3748 6.55173 11.2416 6.56086C10.0955 6.63944 8.99966 7.06165 8.0971 7.7724C8.27127 7.91975 8.46784 8.11661 8.8819 8.52478C9.65698 9.28836 11.6448 10.0794 11.6492 10.1722L11.6498 10.1745Z" fill="url(#paint4_radial_69_864)"/>
<path d="M11.6498 10.1745C11.6309 10.4586 10.6272 11.4385 10.2762 11.4385C7.0285 11.4385 6.50098 13.4033 6.50098 13.4033C6.64479 15.0578 7.79768 16.4211 9.19135 17.1402C9.255 17.1732 9.31954 17.203 9.38408 17.2322C9.49587 17.2817 9.60767 17.3274 9.71946 17.3695C10.1978 17.5387 10.6987 17.6354 11.2057 17.6562C16.8994 17.9232 18.0016 10.8485 13.8931 8.79444C14.8622 8.66833 15.8437 8.90663 16.6471 9.46312C16.1453 8.57754 15.418 7.84063 14.539 7.32729C13.6601 6.81395 12.6609 6.5425 11.643 6.54053C11.5074 6.54053 11.3748 6.55173 11.2416 6.56086C10.0955 6.63944 8.99966 7.06165 8.0971 7.7724C8.27127 7.91975 8.46784 8.11661 8.8819 8.52478C9.65698 9.28836 11.6448 10.0794 11.6492 10.1722L11.6498 10.1745Z" fill="url(#paint5_radial_69_864)"/>
<path d="M7.5652 7.39551C7.65774 7.45445 7.73407 7.50573 7.80096 7.552C7.54074 6.64104 7.52964 5.67696 7.76884 4.76025C6.71523 5.27062 5.77904 5.99417 5.01953 6.88508C5.07523 6.88361 6.73207 6.85384 7.5652 7.39551Z" fill="url(#paint6_radial_69_864)"/>
<path d="M0.313576 12.6412C1.19504 17.8487 5.91593 21.8272 11.2737 21.9775C16.2336 22.1178 19.4017 19.2385 20.7102 16.4311C21.8188 14.0034 21.9461 11.2411 21.0656 8.72161V8.71071C21.0656 8.70216 21.0638 8.69715 21.0656 8.6998L21.0676 8.71896C21.4729 11.3645 20.1272 13.9264 18.0233 15.6622L18.0169 15.677C13.9175 19.016 9.99496 17.691 9.2022 17.1505C9.14679 17.124 9.09139 17.0964 9.03598 17.0677C6.64621 15.9254 5.65866 13.7493 5.87084 11.8809C5.30357 11.8892 4.74604 11.7329 4.2658 11.4308C3.78557 11.1288 3.40324 10.6939 3.16515 10.1789C3.79252 9.79462 4.50785 9.57736 5.24298 9.54785C5.97811 9.51834 6.70855 9.67757 7.36471 10.0104C8.7172 10.6243 10.2562 10.6848 11.6527 10.1789C11.6483 10.0861 9.66047 9.29481 8.88539 8.53153C8.47133 8.12336 8.27476 7.92679 8.10059 7.77914C8.00646 7.69941 7.90808 7.62484 7.80588 7.55576C7.7381 7.50949 7.66177 7.45939 7.57012 7.39927C6.73698 6.8576 5.08015 6.88736 5.02533 6.88884H5.02003C4.56736 6.31504 4.59919 4.42303 4.62512 4.02783C4.49121 4.08165 4.36338 4.14952 4.24377 4.2303C3.84416 4.51549 3.47059 4.83552 3.12743 5.18662C2.73498 5.58197 2.37634 6.00951 2.05529 6.46475C1.32104 7.50554 0.800194 8.68116 0.522817 9.92431C0.517218 9.94759 0.111408 11.7217 0.311513 12.6418L0.313576 12.6412Z" fill="url(#paint7_radial_69_864)"/>
<path d="M15.6577 8.13201C16.0747 8.54156 16.4318 9.00786 16.7186 9.51713C16.7814 9.56458 16.84 9.61173 16.8898 9.65741C19.4794 12.0445 18.1226 15.4189 18.0215 15.6576C20.1251 13.9245 21.4696 11.3608 21.0658 8.71435C19.7738 5.49322 17.5824 4.19357 15.7965 1.36734C15.706 1.22441 15.6155 1.08118 15.5274 0.929994C15.477 0.843646 15.4367 0.765843 15.4016 0.69423C15.3274 0.550577 15.2702 0.398759 15.2312 0.241856C15.2313 0.234616 15.2287 0.22761 15.2239 0.222174C15.2191 0.216739 15.2125 0.213254 15.2053 0.212386C15.1983 0.210455 15.1908 0.210455 15.1838 0.212386C15.1823 0.212386 15.18 0.215038 15.1782 0.215628C15.1764 0.216217 15.1726 0.218869 15.1699 0.220048C14.7282 0.429584 12.108 4.57875 15.6592 8.127L15.6577 8.13201Z" fill="url(#paint8_radial_69_864)"/>
<path d="M16.8897 9.65875C16.8399 9.61307 16.7812 9.56592 16.7184 9.51847C16.6952 9.50108 16.6722 9.4837 16.6474 9.46631C15.844 8.90982 14.8625 8.67152 13.8934 8.79762C18.0016 10.8517 16.8994 17.9247 11.206 17.6594C10.699 17.6386 10.1981 17.5419 9.71976 17.3727C9.60797 17.3308 9.49618 17.285 9.38439 17.2353C9.31985 17.2059 9.25531 17.1764 9.19165 17.1434L9.19961 17.1484C9.99354 17.6904 13.9149 19.0145 18.0143 15.6749L18.0207 15.6601C18.123 15.4214 19.4798 12.047 16.8891 9.65993L16.8897 9.65875Z" fill="url(#paint9_radial_69_864)"/>
<path d="M6.50132 13.4014C6.50132 13.4014 7.02855 11.4366 10.2765 11.4366C10.6275 11.4366 11.6321 10.4567 11.6501 10.1726C10.2536 10.6785 8.71464 10.618 7.36216 10.0041C6.706 9.67127 5.97556 9.51204 5.24043 9.54155C4.5053 9.57106 3.78997 9.78832 3.1626 10.1726C3.40069 10.6876 3.78301 11.1225 4.26325 11.4245C4.74348 11.7266 5.30101 11.8829 5.86829 11.8746C5.65669 13.7421 6.64396 15.9179 9.03343 17.0614C9.08677 17.087 9.13687 17.1147 9.19169 17.1392C7.79685 16.4186 6.64514 15.0559 6.50132 13.4023V13.4014Z" fill="url(#paint10_radial_69_864)"/>
<path d="M22.2001 8.12343C21.7038 6.92929 20.6971 5.63995 19.9088 5.23237C20.4709 6.32098 20.8611 7.49008 21.0655 8.69811L21.0676 8.71727C19.7762 5.49908 17.5871 4.19943 15.7982 1.3732C15.7077 1.23026 15.6173 1.08704 15.5292 0.935854C15.4788 0.849505 15.4384 0.771703 15.4033 0.700089C15.3291 0.556436 15.272 0.404618 15.233 0.247716C15.233 0.240476 15.2304 0.233469 15.2256 0.228034C15.2208 0.222598 15.2142 0.219114 15.207 0.218245C15.2 0.216314 15.1926 0.216314 15.1855 0.218245C15.1841 0.218245 15.1817 0.220898 15.1799 0.221487C15.1782 0.222076 15.1743 0.224729 15.1717 0.225908L15.1761 0.218245C12.3071 1.89807 11.3331 5.00721 11.2447 6.56326C11.3779 6.55413 11.51 6.54293 11.6461 6.54293C12.664 6.5449 13.6632 6.81635 14.5421 7.32969C15.4211 7.84303 16.1484 8.57994 16.6502 9.46552C15.8468 8.90903 14.8653 8.67073 13.8962 8.79684C18.0044 10.8509 16.9022 17.9239 11.2088 17.6586C10.7018 17.6378 10.2009 17.5411 9.72257 17.3719C9.61077 17.33 9.49898 17.2843 9.38719 17.2346C9.32265 17.2051 9.25811 17.1756 9.19445 17.1426L9.20241 17.1476C9.14701 17.1211 9.0916 17.0935 9.0362 17.0648C9.08954 17.0904 9.13964 17.1181 9.19445 17.1426C7.79961 16.4218 6.6479 15.059 6.50409 13.4057C6.50409 13.4057 7.03131 11.4409 10.2793 11.4409C10.6303 11.4409 11.6349 10.461 11.6529 10.1769C11.6485 10.0841 9.66068 9.29283 8.8856 8.52954C8.47154 8.12137 8.27497 7.9248 8.1008 7.77715C8.00667 7.69743 7.90829 7.62285 7.8061 7.55377C7.54587 6.64281 7.53477 5.67872 7.77397 4.76202C6.72036 5.27239 5.78417 5.99593 5.02466 6.88685H5.01936C4.56669 6.31306 4.59852 4.42104 4.62445 4.02584C4.49054 4.07966 4.36271 4.14753 4.2431 4.22831C3.84349 4.51351 3.46992 4.83353 3.12676 5.18463C2.73571 5.5811 2.37855 6.00962 2.05904 6.46571C1.32479 7.5065 0.803944 8.68211 0.526567 9.92526L0.511243 10.0007C0.489729 10.1012 0.39336 10.6116 0.379509 10.7213C0.291363 11.2482 0.23507 11.7799 0.210938 12.3136V12.3725C0.215985 15.2307 1.29239 17.9832 3.22765 20.0866C5.16292 22.1899 7.81641 23.4914 10.6643 23.7339C13.5122 23.9765 16.3476 23.1426 18.6107 21.3968C20.8738 19.651 22.4002 17.1202 22.8886 14.304C22.9077 14.1566 22.9233 14.0108 22.9404 13.8619C23.1757 11.9174 22.921 9.94499 22.1995 8.12402L22.2001 8.12343Z" fill="url(#paint11_linear_69_864)"/>
</g>
<defs>
<linearGradient id="paint0_linear_69_864" x1="20.6884" y1="3.86668" x2="1.72612" y2="22.162" gradientUnits="userSpaceOnUse">
<stop offset="0.048" stop-color="#FFF44F"/>
<stop offset="0.111" stop-color="#FFE847"/>
<stop offset="0.225" stop-color="#FFC830"/>
<stop offset="0.368" stop-color="#FF980E"/>
<stop offset="0.401" stop-color="#FF8B16"/>
<stop offset="0.462" stop-color="#FF672A"/>
<stop offset="0.534" stop-color="#FF3647"/>
<stop offset="0.705" stop-color="#E31587"/>
</linearGradient>
<radialGradient id="paint1_radial_69_864" cx="0" cy="0" r="1" gradientUnits="userSpaceOnUse" gradientTransform="translate(19.9546 2.86888) scale(23.8122)">
<stop offset="0.129" stop-color="#FFBD4F"/>
<stop offset="0.186" stop-color="#FFAC31"/>
<stop offset="0.247" stop-color="#FF9D17"/>
<stop offset="0.283" stop-color="#FF980E"/>
<stop offset="0.403" stop-color="#FF563B"/>
<stop offset="0.467" stop-color="#FF3750"/>
<stop offset="0.71" stop-color="#F5156C"/>
<stop offset="0.782" stop-color="#EB0878"/>
<stop offset="0.86" stop-color="#E50080"/>
</radialGradient>
<radialGradient id="paint2_radial_69_864" cx="0" cy="0" r="1" gradientUnits="userSpaceOnUse" gradientTransform="translate(11.1135 12.5942) scale(23.8122)">
<stop offset="0.3" stop-color="#960E18"/>
<stop offset="0.351" stop-color="#B11927" stop-opacity="0.74"/>
<stop offset="0.435" stop-color="#DB293D" stop-opacity="0.343"/>
<stop offset="0.497" stop-color="#F5334B" stop-opacity="0.094"/>
<stop offset="0.53" stop-color="#FF3750" stop-opacity="0"/>
</radialGradient>
<radialGradient id="paint3_radial_69_864" cx="0" cy="0" r="1" gradientUnits="userSpaceOnUse" gradientTransform="translate(14.0604 -2.43604) scale(17.2491)">
<stop offset="0.132" stop-color="#FFF44F"/>
<stop offset="0.252" stop-color="#FFDC3E"/>
<stop offset="0.506" stop-color="#FF9D12"/>
<stop offset="0.526" stop-color="#FF980E"/>
</radialGradient>
<radialGradient id="paint4_radial_69_864" cx="0" cy="0" r="1" gradientUnits="userSpaceOnUse" gradientTransform="translate(8.46107 18.7829) scale(11.3373)">
<stop offset="0.353" stop-color="#3A8EE6"/>
<stop offset="0.472" stop-color="#5C79F0"/>
<stop offset="0.669" stop-color="#9059FF"/>
<stop offset="1" stop-color="#C139E6"/>
</radialGradient>
<radialGradient id="paint5_radial_69_864" cx="0" cy="0" r="1" gradientUnits="userSpaceOnUse" gradientTransform="translate(12.2651 10.55) rotate(-13.5916) scale(6.01203 7.03858)">
<stop offset="0.206" stop-color="#9059FF" stop-opacity="0"/>
<stop offset="0.278" stop-color="#8C4FF3" stop-opacity="0.064"/>
<stop offset="0.747" stop-color="#7716A8" stop-opacity="0.45"/>
<stop offset="0.975" stop-color="#6E008B" stop-opacity="0.6"/>
</radialGradient>
<radialGradient id="paint6_radial_69_864" cx="0" cy="0" r="1" gradientUnits="userSpaceOnUse" gradientTransform="translate(10.8188 1.98471) scale(8.15746 8.15746)">
<stop stop-color="#FFE226"/>
<stop offset="0.121" stop-color="#FFDB27"/>
<stop offset="0.295" stop-color="#FFC82A"/>
<stop offset="0.502" stop-color="#FFA930"/>
<stop offset="0.732" stop-color="#FF7E37"/>
<stop offset="0.792" stop-color="#FF7139"/>
</radialGradient>
<radialGradient id="paint7_radial_69_864" cx="0" cy="0" r="1" gradientUnits="userSpaceOnUse" gradientTransform="translate(17.3022 -3.32007) scale(34.8048 34.8048)">
<stop offset="0.113" stop-color="#FFF44F"/>
<stop offset="0.456" stop-color="#FF980E"/>
<stop offset="0.622" stop-color="#FF5634"/>
<stop offset="0.716" stop-color="#FF3647"/>
<stop offset="0.904" stop-color="#E31587"/>
</radialGradient>
<radialGradient id="paint8_radial_69_864" cx="0" cy="0" r="1" gradientUnits="userSpaceOnUse" gradientTransform="translate(14.4093 -1.39052) rotate(83.976) scale(25.5054 16.739)">
<stop stop-color="#FFF44F"/>
<stop offset="0.06" stop-color="#FFE847"/>
<stop offset="0.168" stop-color="#FFC830"/>
<stop offset="0.304" stop-color="#FF980E"/>
<stop offset="0.356" stop-color="#FF8B16"/>
<stop offset="0.455" stop-color="#FF672A"/>
<stop offset="0.57" stop-color="#FF3647"/>
<stop offset="0.737" stop-color="#E31587"/>
</radialGradient>
<radialGradient id="paint9_radial_69_864" cx="0" cy="0" r="1" gradientUnits="userSpaceOnUse" gradientTransform="translate(10.8187 4.93167) scale(21.7257 21.7257)">
<stop offset="0.137" stop-color="#FFF44F"/>
<stop offset="0.48" stop-color="#FF980E"/>
<stop offset="0.592" stop-color="#FF5634"/>
<stop offset="0.655" stop-color="#FF3647"/>
<stop offset="0.904" stop-color="#E31587"/>
</radialGradient>
<radialGradient id="paint10_radial_69_864" cx="0" cy="0" r="1" gradientUnits="userSpaceOnUse" gradientTransform="translate(16.4182 6.11041) scale(23.7798 23.7798)">
<stop offset="0.094" stop-color="#FFF44F"/>
<stop offset="0.231" stop-color="#FFE141"/>
<stop offset="0.509" stop-color="#FFAF1E"/>
<stop offset="0.626" stop-color="#FF980E"/>
</radialGradient>
<linearGradient id="paint11_linear_69_864" x1="20.4584" y1="3.76942" x2="4.32621" y2="19.9046" gradientUnits="userSpaceOnUse">
<stop offset="0.167" stop-color="#FFF44F" stop-opacity="0.8"/>
<stop offset="0.266" stop-color="#FFF44F" stop-opacity="0.634"/>
<stop offset="0.489" stop-color="#FFF44F" stop-opacity="0.217"/>
<stop offset="0.6" stop-color="#FFF44F" stop-opacity="0"/>
</linearGradient>
<clipPath id="clip0_69_864">
<rect width="23.2347" height="24" fill="white"/>
</clipPath>
</defs>
</svg>
