<svg width="177" height="37" viewBox="0 0 177 37" fill="none" xmlns="http://www.w3.org/2000/svg">
<path fill-rule="evenodd" clip-rule="evenodd" d="M48.0329 31.7128L49.6985 24.0283C50.6134 24.1334 51.8052 24.2316 53.464 24.2316C57.3393 24.2316 60.5023 23.1931 62.7 21.3528C64.9008 19.5096 66.1183 16.8743 66.1183 13.7164C66.1183 11.5745 65.5357 9.77344 64.4389 8.37134C63.342 6.96923 61.7407 5.97882 59.7258 5.44137C58.5538 5.12794 57.2414 4.9668 55.8042 4.9668C54.282 4.9668 51.3029 5.36768 49.5067 5.66539L49.391 5.68406L43.7363 31.7137H48.032L48.0329 31.7128ZM53.2781 20.3546C52.6945 20.3546 52.1752 20.3457 51.6975 20.3241C51.2761 20.3043 50.8874 20.2749 50.5146 20.2317L52.9377 9.0827C53.7113 8.97462 54.7983 8.84297 55.9159 8.84297C56.6054 8.84297 57.2343 8.89799 57.8032 9.0041C58.898 9.20847 59.7684 9.60248 60.4202 10.1547C61.4054 10.9898 61.9108 12.2082 61.9108 13.7528C61.9108 15.7326 61.1867 17.3744 59.7595 18.525C58.3283 19.6796 56.1702 20.3546 53.2781 20.3546Z" fill="black"/>
<path d="M85.8518 31.7124L91.5597 5.43408H87.2622L81.5552 31.7124H85.8527H85.8518Z" fill="black"/>
<path fill-rule="evenodd" clip-rule="evenodd" d="M140.102 14.9238L142.181 5.43431H146.482L142.713 22.6613C142.377 24.1705 142.085 25.8841 142.085 26.8942C142.085 27.3078 142.14 27.6243 142.251 27.8316C142.304 27.9328 142.37 28.0035 142.444 28.0497C142.517 28.0958 142.61 28.1234 142.731 28.1234C142.887 28.1234 143.081 28.0527 143.309 27.9023C143.536 27.754 143.78 27.5378 144.033 27.2734C144.529 26.7566 145.042 26.0708 145.498 25.3879C145.495 25.3025 145.494 25.216 145.494 25.1276C145.494 22.3097 146.52 19.418 148.3 17.2288C150.081 15.0387 152.625 13.5433 155.66 13.5433C157.763 13.5433 159.445 14.2674 160.601 15.5085C161.755 16.7474 162.371 18.4856 162.371 20.489C162.371 25.275 159.445 30.2673 154.874 31.7038C154.036 31.9671 153.135 32.1106 152.205 32.1106C151.275 32.1106 150.428 31.9691 149.67 31.7018C148.361 31.2429 147.33 30.4127 146.62 29.3123C145.74 30.4038 144.759 31.2362 143.663 31.6979C143.03 31.9661 142.35 32.1106 141.653 32.1106C140.957 32.1106 140.338 31.97 139.812 31.692C138.697 31.1016 138.05 29.9156 137.962 28.2501C136.982 29.83 135.659 31.0877 133.965 31.7018C133.237 31.9652 132.446 32.1087 131.586 32.1087C130.781 32.1087 130.043 31.9652 129.381 31.6988C127.995 31.1428 126.96 30.06 126.353 28.6815C125.431 30.1788 124.426 31.1801 123.293 31.696C122.686 31.973 122.033 32.1087 121.37 32.1087C120.708 32.1087 120.119 31.9641 119.623 31.6901C118.56 31.1035 117.95 29.9538 117.836 28.481C116.922 29.9303 115.699 31.1103 114.102 31.7008C113.389 31.9641 112.607 32.1087 111.749 32.1087C110.947 32.1087 110.204 31.9671 109.533 31.6999C108.698 31.3678 108.045 30.8235 107.543 30.1445C106.651 31.016 105.606 31.6517 104.488 31.9927C103.241 32.3719 101.874 32.3857 100.596 31.867C99.301 31.3403 98.2714 30.3361 97.6156 28.987C97.2803 28.2963 96.9421 27.4759 96.6166 26.6849C96.5256 26.4629 96.4347 26.2428 96.3457 26.0286C96.1478 25.555 95.95 25.0912 95.7453 24.6442C95.2823 24.7385 94.8373 24.8024 94.4169 24.8397L92.9205 31.7303H88.4854L94.2221 5.31836H98.6582L95.4762 19.9653C97.7145 19.3256 100.8 17.5158 102.921 13.0471L107.121 15.0142C105.161 19.1438 102.449 21.6759 99.7925 23.1399C99.9845 23.5672 100.162 23.9878 100.33 24.3888C100.44 24.655 100.545 24.9084 100.645 25.1512C100.96 25.9136 101.227 26.5641 101.5 27.1241C101.741 27.6202 102.02 27.8168 102.23 27.9014C102.457 27.9937 102.79 28.0291 103.226 27.8964C104.105 27.6282 105.265 26.682 105.839 24.8683L106.259 23.0396C106.423 21.8361 106.733 20.7405 107.126 19.9339C109.004 16.0762 112.756 13.4686 116.912 13.4686C118.264 13.4686 119.676 13.7899 120.91 14.2753C122.144 14.7607 123.215 15.4161 123.878 16.0959L123.943 16.1627L123.922 16.2531C123.791 16.825 123.625 17.5227 123.444 18.288C123.151 19.5281 122.815 20.9469 122.511 22.3037C122.266 23.4003 122.042 24.4525 121.879 25.3309C121.716 26.2142 121.618 26.909 121.618 27.297C121.618 27.5899 121.679 27.7991 121.772 27.9308C121.859 28.0546 121.983 28.1205 122.151 28.1205C122.388 28.1205 122.669 27.9917 122.993 27.6939C123.316 27.3982 123.663 26.9532 124.031 26.3647C124.766 25.1876 125.568 23.4632 126.419 21.2848C127.986 16.6118 132.012 13.5423 136.046 13.5423C137.898 13.5423 139.188 14.0867 140.106 14.9218L140.102 14.9238ZM118.452 21.1502L119.238 17.8843C118.505 17.4549 117.673 17.164 116.612 17.164C114.766 17.164 113.141 18.1761 111.971 19.6842C110.8 21.1925 110.099 23.1811 110.099 25.0933C110.099 26.062 110.334 26.8481 110.763 27.3885C111.187 27.9239 111.813 28.2344 112.638 28.2344C113.874 28.2344 115.055 27.6144 116.067 26.4137C117.08 25.211 117.917 23.4346 118.452 21.1513V21.1502ZM139.143 19.2027L139.345 18.2409C138.6 17.669 137.586 17.2387 136.266 17.2387C134.496 17.2387 132.936 18.2222 131.811 19.7059C130.687 21.1905 130.011 23.1605 130.011 25.0933C130.011 26.1002 130.247 26.8864 130.662 27.4179C131.072 27.9436 131.671 28.2354 132.439 28.2354C133.848 28.2354 135.223 27.3452 136.405 25.7514C137.585 24.1607 138.553 21.894 139.143 19.2038V19.2027ZM150.454 27.2833C150.91 27.8669 151.618 28.2335 152.649 28.2335C154.131 28.2335 155.487 27.2705 156.483 25.8321C157.476 24.3966 158.088 22.5159 158.088 20.7483C158.088 19.7953 157.869 18.963 157.407 18.3725C156.952 17.7889 156.244 17.4215 155.213 17.4215C153.732 17.4215 152.376 18.3931 151.38 19.8366C150.387 21.277 149.776 23.1586 149.776 24.9084C149.776 25.8615 149.994 26.6928 150.454 27.2833Z" fill="black"/>
<path d="M176.966 26.7656L176.868 26.9091C176.079 28.0528 175.009 29.3281 174.278 29.9678C173.68 30.4924 172.997 30.9798 172.24 31.3571C171.328 31.8149 170.312 32.1097 169.222 32.1097C168.298 32.1097 167.498 31.9467 166.826 31.644C164.996 30.8236 164.147 29.0009 164.147 26.7843C164.147 25.9069 164.248 25.052 164.362 24.3809V24.375L164.365 24.3603C164.404 24.1255 164.446 23.9122 164.486 23.7295L165.814 17.6052H162.875L163.676 13.9129H166.596L168.154 6.81885H172.453L170.887 13.9129H176.094L175.293 17.6052H170.07L168.724 23.874C168.721 23.8877 168.718 23.9005 168.717 23.9133V23.9181L168.715 23.9202C168.712 23.935 168.709 23.9486 168.706 23.9634L168.703 23.9771C168.528 24.8585 168.392 25.6514 168.392 26.3058C168.392 26.912 168.519 27.3787 168.741 27.6882C168.959 27.9908 169.276 28.1599 169.707 28.1599C170.199 28.1599 170.646 27.985 171.147 27.6303C171.653 27.2726 172.199 26.7411 172.888 26.0414C172.942 25.9815 173.277 25.5757 173.644 25.1355L173.936 24.7819L176.966 26.7656Z" fill="black"/>
<path fill-rule="evenodd" clip-rule="evenodd" d="M75.0081 13.5439C71.9745 13.5439 69.4296 15.0384 67.6482 17.2295C65.868 19.4187 64.8423 22.3093 64.8423 25.1283C64.8423 28.2812 66.3398 30.7631 69.0212 31.7034C69.7778 31.9697 70.6244 32.1103 71.5531 32.1103C72.4819 32.1103 73.38 31.9677 74.2169 31.7054C78.7922 30.2719 81.72 25.2776 81.72 20.4896C81.72 18.4862 81.1047 16.7481 79.9504 15.509C78.7942 14.2691 77.1118 13.5439 75.0081 13.5439ZM71.9992 28.2331C70.9686 28.2331 70.2605 27.8657 69.8044 27.283C69.3436 26.6925 69.126 25.8612 69.126 24.9081C69.126 23.1582 69.7373 21.2776 70.7303 19.8362C71.7263 18.3928 73.0824 17.4211 74.5629 17.4211C75.5945 17.4211 76.3027 17.7886 76.7577 18.3722C77.2186 18.9627 77.4363 19.795 77.4363 20.748C77.4363 22.5156 76.825 24.3962 75.8319 25.8317C74.8369 27.2702 73.4799 28.2331 71.9992 28.2331Z" fill="black"/>
<path d="M19.4059 7.83766C23.0997 7.83766 26.094 6.10665 26.094 3.97132C26.094 1.836 23.0997 0.10498 19.4059 0.10498C15.7122 0.10498 12.7178 1.836 12.7178 3.97132C12.7178 6.10665 15.7122 7.83766 19.4059 7.83766Z" fill="#FF2670"/>
<path d="M19.4059 36.9544C23.0997 36.9544 26.094 35.2234 26.094 33.088C26.094 30.9527 23.0997 29.2217 19.4059 29.2217C15.7122 29.2217 12.7178 30.9527 12.7178 33.088C12.7178 35.2234 15.7122 36.9544 19.4059 36.9544Z" fill="#FF2670"/>
<path d="M10.0845 13.1833C11.9313 10.0055 11.9198 6.56414 10.0588 5.49675C8.19774 4.42938 5.19185 6.14018 3.34497 9.31797C1.49808 12.4957 1.50957 15.9372 3.37063 17.0046C5.23168 18.0719 8.23757 16.3612 10.0845 13.1833Z" fill="#FF2670"/>
<path d="M35.4702 27.7421C37.3171 24.5643 37.3052 21.1227 35.4437 20.055C33.5822 18.9874 30.5759 20.698 28.729 23.8758C26.8821 27.0536 26.894 30.4952 28.7555 31.5627C30.617 32.6305 33.6232 30.9199 35.4702 27.7421Z" fill="#FF2670"/>
<path d="M10.0589 31.5633C11.9204 30.4956 11.9323 27.054 10.0854 23.8762C8.23854 20.6984 5.23227 18.9878 3.37075 20.0555C1.50922 21.1231 1.49735 24.5647 3.34423 27.7425C5.19111 30.9203 8.19738 32.6309 10.0589 31.5633Z" fill="#FF2670"/>
<path d="M35.4432 17.0038C37.3047 15.936 37.3166 12.4944 35.4697 9.31666C33.6228 6.13887 30.6165 4.42828 28.755 5.49594C26.8935 6.5636 26.8816 10.0052 28.7285 13.183C30.5754 16.3608 33.5817 18.0713 35.4432 17.0038Z" fill="#FF2670"/>
</svg>
