<svg width="62" height="49" viewBox="0 0 62 49" fill="none" xmlns="http://www.w3.org/2000/svg">
<rect x="5.75977" y="0.402344" width="50.88" height="39.36" rx="5" fill="#E0195D"/>
<rect x="8.64014" y="3.28223" width="45.12" height="33.6" rx="3" fill="white"/>
<path fill-rule="evenodd" clip-rule="evenodd" d="M27.0338 6.7512C24.9425 7.62663 23.5334 8.64458 22.357 10.1298C20.8217 12.0677 20.1719 13.9939 20.1604 16.6388C20.1456 20.0971 20.946 21.6573 22.5313 21.26C23.5629 21.0015 23.7927 20.2402 23.4141 18.3371C22.8054 15.2782 24.0199 12.262 26.5291 10.6021C28.1265 9.54525 29.5272 9.18867 31.4739 9.34303C34.9818 9.62099 37.8084 12.3301 38.3224 15.9065C38.8132 19.3222 36.3453 23.0845 33.0347 23.9673C31.7451 24.311 28.1752 24.7454 28.1752 24.5587C28.1752 24.4832 28.5438 22.7303 28.994 20.6636C29.4445 18.5966 29.7436 16.6291 29.6586 16.2915C29.4311 15.3861 28.281 14.9311 27.5046 15.4394C27.1713 15.6574 26.835 16.0461 26.7576 16.303C26.2774 17.8924 23.436 31.536 23.436 32.2524C23.436 33.7492 24.9607 34.551 25.8743 33.5346C26.1015 33.2816 26.4851 32.31 26.7266 31.3754C27.4967 28.3925 28.0804 27.9331 31.7296 27.4379C34.3959 27.0761 36.8337 25.9156 38.4856 24.2218C43.5937 18.984 42.0556 10.4194 35.4207 7.15407C33.7775 6.34518 33.3265 6.2442 31.0785 6.18004C28.9121 6.11797 28.3605 6.19608 27.0338 6.7512ZM29.8494 31.2468C29.0704 32.0249 29.1528 33.0321 30.0585 33.7976C31.2233 34.7819 33.0021 33.9743 33.0021 32.4614C33.0021 30.6777 31.1382 29.9595 29.8494 31.2468Z" fill="#E0195D"/>
<path fill-rule="evenodd" clip-rule="evenodd" d="M21.7387 44.7307C21.1636 44.0943 20.4818 43.3755 19.624 43.3755H2.51345C1.12531 43.3755 0 44.5008 0 45.8889C0 47.2771 1.12531 48.4024 2.51345 48.4024H58.9265C60.3146 48.4024 61.44 47.2771 61.44 45.8889C61.44 44.5008 60.3146 43.3755 58.9265 43.3755H41.8159C40.9581 43.3755 40.2763 44.0943 39.7013 44.7307C39.2621 45.2168 38.6267 45.5223 37.92 45.5223H23.52C22.8133 45.5223 22.1779 45.2168 21.7387 44.7307Z" fill="#E0195D"/>
</svg>
